<?xml version="1.0" encoding="utf-8"?>
<!-- Generator: Adobe Illustrator 19.2.1, SVG Export Plug-In . SVG Version: 6.00 Build 0)  -->
<svg version="1.1" xmlns="http://www.w3.org/2000/svg" xmlns:xlink="http://www.w3.org/1999/xlink" x="0px" y="0px"
	 viewBox="0 0 395.768 724" enable-background="new 0 0 395.768 724" xml:space="preserve">
<g id="Labels">
</g>
<g id="Obtion_B">
</g>
<g id="Cover_Photo">
</g>
<g id="Black_Bars">
</g>
<g id="Silhouette">
	<g>
		<path d="M340.278,568.982c-1.024-0.036-2.179,0.03-3.437,0.123c-1.252,0.079-2.637,0.236-4.083,0.035
			c-1.441-0.194-2.931-0.578-4.438-1.055c-1.513-0.469-3.031-1.079-4.593-1.614c-0.777-0.275-1.592-0.525-2.343-0.968
			c-0.748-0.44-1.391-0.998-2.039-1.542c-1.322-1.056-2.451-2.386-3.492-3.652c-1.057-1.266-2.179-2.404-3.539-3.148
			c-2.74-1.524-5.332-2.996-7.386-4.52c-0.23-0.168-0.428-0.337-0.644-0.506c0.099,0.556,0.199,1.113,0.307,1.682l-0.146,0.028
			c0.023,0.056,0.05,0.11,0.073,0.166c0.764,1.882,1.335,3.82,1.77,5.768c0.387,1.987,0.609,3.875,1.221,5.662
			c0.579,1.794,1.444,3.468,2.57,4.938c1.117,1.478,2.471,2.756,3.888,3.938c0.092,0.076,0.185,0.148,0.277,0.223
			c0.198,0.129,0.393,0.259,0.621,0.388c0.629,0.378,1.354,0.785,2.184,1.138c0.823,0.364,1.755,0.686,2.776,0.823
			c1.019,0.157,2.116,0.057,3.201-0.239c1.074-0.304,2.191-0.802,3.409-0.834c1.201-0.087,2.417,0.014,3.624,0.091
			c1.208,0.082,2.418,0.131,3.596-0.045c1.177-0.162,2.325-0.433,3.46-0.55c1.132-0.122,2.262-0.05,3.252,0.313
			c0.978,0.367,1.817,0.919,2.541,1.463c0.728,0.546,1.376,1.07,1.996,1.47c0.617,0.405,1.205,0.676,1.708,0.841
			c0.505,0.158,0.921,0.222,1.203,0.241c0.283,0.019,0.434,0.03,0.434,0.03s-0.151-0.009-0.435-0.026
			c-0.282-0.018-0.698-0.078-1.206-0.232c-0.505-0.161-1.098-0.428-1.719-0.829c-0.625-0.396-1.279-0.917-2.009-1.455
			c-0.73-0.539-1.559-1.077-2.539-1.436c-0.976-0.349-2.093-0.413-3.215-0.283c-1.127,0.124-2.268,0.403-3.454,0.577
			c-1.186,0.187-2.414,0.147-3.621,0.075c-1.21-0.068-2.42-0.158-3.601-0.063c-1.196,0.042-2.266,0.533-3.369,0.848
			c-1.103,0.306-2.238,0.415-3.284,0.257c-1.048-0.137-2-0.461-2.837-0.827c-0.525-0.221-0.993-0.461-1.436-0.703
			c2.362,1.882,4.748,3.705,6.824,5.782c1.282,1.257,2.392,2.617,3.708,3.666c1.299,1.081,2.764,1.915,4.327,2.362
			c3.157,0.926,6.429,0.115,9.557,0.416c1.568,0.116,3.08,0.527,4.459,1.122c1.378,0.606,2.615,1.409,3.74,2.279
			c1.11,0.904,2.12,1.808,3.242,2.519c1.109,0.726,2.274,1.29,3.443,1.729c2.344,0.878,4.685,1.241,6.808,1.721
			c2.132,0.458,4.064,1.02,5.749,1.683c1.407,0.56,2.635,1.161,3.714,1.753c-0.85-1.07-1.826-2.069-2.955-3.1
			c-2.3-2.099-5-3.348-7.342-5.356c-2.774-2.378-4.29-3.289-6.623-6.126c-0.278-0.339-0.575-0.722-0.884-1.129
			c-0.043-0.144-0.146-0.297-0.346-0.46h0c-1.687-2.254-3.756-5.18-5.972-7.133c-0.94-1.818-1.751-3.936-2.661-6.637
			c-0.103-0.307-0.22-0.642-0.343-0.99c-0.296-0.117-0.648-0.237-1.067-0.348C342.188,569.148,341.302,569.013,340.278,568.982z"/>
		<path d="M7.814,45.099c3.581-0.232,7.201-0.017,10.825,0.521c4.041-8.064-0.031-13.113-4.712-18.903
			c-2.84-3.514-5.777-7.147-7.22-11.804C5.199,10.047,5.14,5.02,5.603,0H0v46.392c0.509-0.145,1.02-0.279,1.532-0.38
			C3.573,45.52,5.682,45.244,7.814,45.099z"/>
		<path d="M361.591,597.359c-2.123-0.455-4.473-0.79-6.864-1.653c-1.191-0.431-2.384-0.992-3.521-1.718
			c-1.149-0.71-2.207-1.633-3.294-2.498c-1.116-0.842-2.336-1.613-3.68-2.186c-1.346-0.561-2.805-0.941-4.33-1.036
			c-3.027-0.271-6.31,0.602-9.677-0.326c-1.657-0.452-3.214-1.319-4.573-2.425c-1.397-1.093-2.528-2.452-3.798-3.659
			c-2.527-2.46-5.504-4.533-8.434-6.881c-1.457-1.182-2.882-2.486-4.083-4.029c-0.02-0.025-0.037-0.053-0.057-0.079
			c0.129,0.357,0.262,0.725,0.4,1.108c0.126,0.422,0.255,0.859,0.389,1.308c0.285,0.894,0.473,1.869,0.674,2.873
			c0.153,1.013,0.328,2.061,0.38,3.138c0.052,0.537,0.072,1.079,0.072,1.624c-0.001,0.491,0.025,0.986,0.003,1.479
			c0.158,0.355,0.341,0.811,0.489,1.373c0.221,0.75,0.345,1.691,0.662,2.705c0.311,1.015,0.993,2.048,2.037,2.851
			c1.048,0.785,2.265,1.623,3.226,2.825c0.982,1.186,1.682,2.646,2.52,4.071c0.418,0.714,0.835,1.45,1.368,2.109
			c0.528,0.661,1.154,1.26,1.82,1.815c1.332,1.114,2.84,2.065,4.123,3.294c0.639,0.613,1.222,1.293,1.661,2.062
			c0.376,0.805,0.633,1.645,0.895,2.475c0.509,1.666,0.95,3.322,1.367,4.927c0.831,3.211,1.554,6.221,2.174,8.8
			c0.619,2.58,1.136,4.73,1.497,6.234c0.364,1.504,0.612,2.354,0.612,2.354s-0.25-0.849-0.617-2.352
			c-0.365-1.504-0.885-3.653-1.51-6.231c-0.625-2.578-1.354-5.587-2.192-8.795c-0.421-1.604-0.865-3.259-1.377-4.922
			c-0.262-0.828-0.523-1.672-0.895-2.464c-0.438-0.76-1.024-1.432-1.663-2.038c-1.285-1.214-2.795-2.155-4.141-3.265
			c-0.674-0.554-1.307-1.152-1.849-1.821c-0.545-0.666-0.968-1.402-1.391-2.114c-0.849-1.424-1.559-2.875-2.531-4.033
			c-0.958-1.18-2.145-1.986-3.219-2.779c-1.071-0.81-1.797-1.89-2.122-2.935c-0.332-1.043-0.461-1.977-0.683-2.71
			c-0.089-0.329-0.189-0.612-0.287-0.864l-0.065,1.223c-0.058,0.541-0.116,1.08-0.173,1.614c-0.123,1.067-0.318,2.108-0.521,3.108
			c-0.207,1-0.443,1.958-0.712,2.852c-0.24,0.903-0.527,1.737-0.777,2.511c-0.234,0.779-0.529,1.466-0.762,2.083
			c-0.232,0.618-0.458,1.146-0.645,1.582c-0.381,0.866-0.599,1.361-0.599,1.361s0.151-0.519,0.416-1.427
			c0.14-0.451,0.309-0.998,0.475-1.634c0.163-0.636,0.383-1.343,0.576-2.126c0.198-0.781,0.429-1.623,0.608-2.527
			c0.209-0.898,0.372-1.854,0.555-2.839c0.174-0.986,0.307-2.013,0.427-3.055c0.05-0.522,0.101-1.048,0.152-1.576l0.068-1.593
			c0.044-0.531,0.009-1.063,0.016-1.593c0.006-0.53-0.007-1.057-0.052-1.579c-0.046-1.047-0.162-2.07-0.285-3.061
			c-0.177-0.98-0.286-1.945-0.511-2.834c-0.103-0.448-0.202-0.883-0.299-1.304c-0.121-0.415-0.238-0.816-0.35-1.201
			c-0.176-0.632-0.366-1.196-0.545-1.723c-0.659-1.091-1.213-2.255-1.624-3.472c-0.67-1.879-0.937-3.889-1.33-5.75
			c-0.005-0.023-0.012-0.045-0.018-0.068c0.031,0.518,0.054,1.059,0.065,1.626c0.005,1.168-0.005,2.434-0.123,3.766
			c-0.111,1.331-0.274,2.732-0.541,4.163c-0.515,2.865-1.347,5.861-2.4,8.768c-0.36,1.005-0.747,1.995-1.143,2.976
			c-0.025,0.098-0.048,0.175-0.073,0.282c-0.271,1.177-0.49,2.903-0.488,4.986c-0.011,2.083,0.187,4.51,0.442,7.106
			c0.124,1.298,0.26,2.641,0.345,4.01c0.106,1.369,0.052,2.771-0.033,4.156c-0.028,0.693-0.035,1.39,0.075,2.071
			c0.103,0.682,0.311,1.342,0.547,1.983c0.237,0.643,0.472,1.281,0.704,1.911c0.18,0.647,0.405,1.275,0.538,1.915
			c0.328,1.265,0.493,2.52,0.629,3.708c0.093,1.193,0.146,2.324,0.11,3.368c-0.042,2.089-0.29,3.816-0.433,5.024
			c-0.169,1.207-0.17,1.905-0.17,1.905s0-0.698,0.164-1.905c0.139-1.208,0.382-2.936,0.417-5.024
			c0.033-1.043-0.024-2.174-0.121-3.365c-0.139-1.186-0.308-2.439-0.639-3.701c-0.135-0.638-0.361-1.263-0.543-1.908
			c-0.236-0.628-0.456-1.272-0.712-1.907c-0.242-0.641-0.46-1.303-0.57-1.992c-0.118-0.688-0.118-1.392-0.097-2.088
			c0.069-1.393,0.117-2.777,0.002-4.144c-0.094-1.365-0.238-2.705-0.371-4.003c-0.271-2.595-0.486-5.027-0.488-7.122
			c-0.012-1.584,0.105-2.966,0.279-4.065c-0.6,1.441-1.214,2.849-1.804,4.208c-0.571,1.325-1.116,2.608-1.563,3.848
			c-0.43,1.243-0.795,2.444-1.061,3.561c-0.521,2.243-0.66,4.175-0.862,5.506c-0.189,1.335-0.297,2.097-0.297,2.097
			s0.089-0.765,0.246-2.104c0.17-1.336,0.261-3.266,0.73-5.541c0.243-1.136,0.572-2.344,0.984-3.61
			c0.428-1.259,0.95-2.558,1.496-3.896c1.099-2.672,2.285-5.513,3.263-8.423c0.99-2.905,1.754-5.882,2.207-8.712
			c0.235-1.414,0.369-2.793,0.453-4.101c0.091-1.308,0.077-2.548,0.05-3.69c-0.044-1.142-0.135-2.185-0.241-3.106
			c-0.12-0.921-0.24-1.718-0.368-2.365c-0.103-0.635-0.24-1.148-0.313-1.498c-0.021-0.052-0.04-0.104-0.062-0.156
			c-0.057-0.133-0.123-0.264-0.182-0.396l-0.13,0.025c-0.033-0.173-0.061-0.34-0.093-0.512c-1.527-3.256-3.631-6.264-5.86-9.242
			c-4.963-6.448-9.449-13.555-12.792-21.202c-1.663-3.831-2.981-7.818-3.981-11.852c-1.005-4.035-1.715-8.106-2.331-12.138
			c-1.206-8.064-2.219-15.993-3.185-23.682c-1.928-15.369-3.663-29.718-5.003-42.048c-0.33-3.088-0.643-6.03-0.894-8.875
			c-0.139-1.422-0.223-2.782-0.331-4.119c-0.103-1.305-0.243-2.579-0.392-3.818c-0.465-3.695-0.939-7.096-1.144-10.145
			c-1.678-1.191-3.377-2.514-5.079-3.991c-4.941-4.231-9.852-9.635-14.99-15.593c-2.578-2.963-5.232-6.096-8.136-9.061
			c-0.22-0.221-0.459-0.433-0.683-0.651c-0.056,0.098-0.11,0.194-0.17,0.3c-0.698,1.242-1.655,3-2.762,5.354
			c-1.07,2.351-2.243,5.258-3.104,8.739c-0.873,3.476-1.407,7.526-1.572,11.998c-0.172,4.473-0.011,9.357,0.331,14.52
			c0.201,2.582,0.395,5.235,0.667,7.946c0.21,2.746,0.581,5.415,1.252,8.119c1.306,5.435,3.392,10.9,5.739,16.338
			c2.372,5.435,5.036,10.854,7.831,16.209c2.111,4.045,4.288,8.058,6.482,12.016l0.164-0.09c0,0,0.138,0.256,0.396,0.737
			c0.255,0.467,0.639,1.229,1.065,2.162c0.076,0.165,0.155,0.345,0.235,0.523c3.006,5.363,6.02,10.615,8.921,15.698
			c2.815,4.925,5.527,9.693,8.048,14.243c1.262,2.276,2.47,4.494,3.626,6.659c1.142,2.167,2.105,4.351,2.9,6.479
			c1.609,4.26,2.654,8.296,3.747,11.813c1.067,3.524,2.231,6.531,3.53,8.835c1.284,2.312,2.646,3.912,3.639,4.917
			c0.504,0.498,0.899,0.872,1.181,1.106c0.276,0.241,0.418,0.366,0.418,0.366s-0.144-0.123-0.422-0.361
			c-0.285-0.231-0.685-0.599-1.196-1.092c-1.007-0.994-2.392-2.58-3.711-4.885c-1.333-2.296-2.54-5.303-3.653-8.819
			c-1.139-3.509-2.234-7.528-3.888-11.744c-0.82-2.112-1.795-4.25-2.961-6.397c-1.178-2.135-2.421-4.341-3.713-6.594
			c-2.584-4.51-5.362-9.235-8.247-14.118c-1.954-3.313-3.96-6.702-5.98-10.145c0.156,0.494,0.311,0.999,0.462,1.526
			c0.488,1.694,0.952,3.549,1.325,5.539c0.174,0.998,0.345,2.026,0.448,3.093c0.105,1.049,0.206,2.101,0.35,3.176
			c0.556,4.294,1.516,8.842,3.085,13.19c1.61,4.336,3.549,8.606,4.76,12.826c0.615,2.105,1.051,4.184,1.31,6.18
			c0.239,1.992,0.333,3.885,0.454,5.625c0.225,3.482,0.465,6.382,0.826,8.386c0.163,1.005,0.371,1.778,0.52,2.302
			c0.155,0.436,0.244,0.688,0.269,0.757c8.82,17.16,19.959,35.486,25.127,54.383c-1.071,2.559-1.936,5.167-1.943,7.724
			c-0.024,6.837,0.943,13.435,2.734,19.968c1.72,6.272,3.72,11.348,5.826,17.517c1.207,3.539,1.298,5.508,2.478,6.456
			c2.642,2.125,10.562,9.429,13.285,11.479c1.604,1.21,2.677,2.474,4.853,2.275c3.349-0.307,7.443-2.501,7.907-2.038
			c4.918,4.93,8.346,7.522,8.875,7.497c2.216-0.097,6.833-1.435,9.694-2.115c1.334-0.318,2.391-0.741,2.563-0.704
			c2.709,0.891,7.822,2.941,9.919,3.156c0.15,0.015,1.696-0.533,3.253-1.152c1.654-0.659,1.856-1.061,3.513-1.56
			c2.825-0.854,6.603,1.223,9.552,1.54c2.634,0.283,5.272-2.759,7.566-4.084c2.69-1.555,9.842-7.021,3.552-9.732
			c0.009-1.375,0.522-3.496,0.159-4.622c-0.124-0.382,2.717-2.013,3.208-3.128c1.557-3.542,2.722-7.793,2.82-8.775
			c0.146-1.489-1.814-6.13-2.977-9.146c-1.122-2.907-1.552-8.012-2.67-10.807c-1.409-3.521-4.875-7.339-9.242-10.72
			c-3.128-2.423-5.781-4.83-7.104-8.581c-0.645-1.83-1.491-3.307-2.542-4.661c-1.123-0.607-2.409-1.226-3.891-1.796
			C365.648,598.328,363.722,597.791,361.591,597.359z"/>
		<path d="M5.257,176.61c1.068-7.194,1.4-15.781-0.005-24.778c-0.362-2.243-0.799-4.518-1.384-6.778
			c-0.274-1.145-0.653-2.241-0.906-3.436c-0.212-1.199-0.166-2.425-0.005-3.621c0.33-2.401,1.071-4.718,1.776-7.031
			c0.691-2.312,1.481-4.629,1.619-7.021c0.152-2.461-0.128-4.908-0.443-7.36c-0.061,0.3-0.122,0.6-0.209,0.911
			c-0.226,0.813-0.55,1.647-0.934,2.491c-0.385,0.85-0.823,1.709-1.432,2.583c-0.876,1.257-2.07,2.336-3.333,3.389v69.425
			c0.249-0.55,0.505-1.134,0.771-1.79C2.378,189.664,4.174,183.818,5.257,176.61z"/>
		<path d="M2.643,122.086c1.05-1.6,1.757-3.333,2.181-4.828c0.408-1.517,0.448-2.908,0.444-4.055
			c-0.011-1.15-0.086-2.059-0.126-2.676c-0.05-0.624-0.077-0.957-0.077-0.957l0.194-0.014c0-0.013-0.001-0.026-0.002-0.04
			c0.001-0.183,0.008-0.366,0.013-0.549c-0.065,0.116-0.13,0.231-0.202,0.357c-0.411,0.692-0.939,1.515-1.665,2.38
			c-0.713,0.869-1.643,1.769-2.81,2.534C0.405,114.36,0.2,114.472,0,114.587v10.319C1.026,124.004,1.956,123.098,2.643,122.086z"/>
		<path d="M10.591,4.094c0.591,2.621,1.584,5.625,3.161,8.59c1.563,2.963,3.703,5.897,6.361,8.277
			c1.314,1.205,2.809,2.177,4.378,2.963c1.56,0.793,3.193,1.355,4.824,1.658c1.632,0.301,3.246,0.369,4.779,0.37
			c0.759-0.004,1.53-0.007,2.227-0.04c0.695-0.05,1.371-0.183,2.024-0.323c1.304-0.284,2.528-0.589,3.682-0.647
			c0.231-0.014,0.456-0.006,0.68,0.005c-0.011-0.032-0.022-0.06-0.034-0.094c-1.24-1.074-2.478-2.146-3.665-3.255
			c-2.741-2.55-5.256-5.265-7.402-8.116c-2.15-2.846-3.944-5.813-5.335-8.771C25.528,3.127,24.905,1.551,24.376,0H9.885
			c0.019,0.159,0.037,0.316,0.059,0.481C10.082,1.566,10.289,2.783,10.591,4.094z"/>
		<path d="M2.703,111.125c0.666-0.821,1.157-1.616,1.535-2.278c0.366-0.66,0.64-1.2,0.811-1.591c0.179-0.38,0.274-0.583,0.274-0.583
			l0.159,0.077c0.052-0.286,0.113-0.57,0.189-0.852c0.305-1.178,0.781-2.296,1.333-3.347c1.106-2.099,2.454-3.995,3.082-6.127
			c0.321-1.075,0.477-2.104,0.483-3.248c-0.022-1.06-0.129-2.157-0.418-3.169c-0.582-2.045-1.861-3.746-3.304-5.212
			c-1.435-1.469-2.99-2.859-4.231-4.42C1.562,79.066,0.717,77.671,0,76.277v37.335c0.04-0.027,0.086-0.05,0.125-0.077
			C1.198,112.804,2.047,111.955,2.703,111.125z"/>
		<path d="M7.662,14.617c1.386,4.474,4.262,8.031,7.042,11.471c4.654,5.757,9.064,11.218,4.972,19.695
			c4.709,0.779,9.421,2.087,14.06,3.68c8.587,2.938,17.06,6.883,25.817,10.541c7.252,3.125,14.985,5.41,22.985,7.498
			c0.096-0.202,0.214-0.456,0.325-0.776c0.282-0.779,0.67-2.005,0.631-3.592c-0.012-1.583-0.503-3.514-1.613-5.483
			c-1.093-1.978-2.758-3.979-4.784-5.945c-1.011-0.987-2.117-1.967-3.277-2.971c-0.573-0.477-1.196-1.05-1.698-1.702
			c-0.509-0.644-0.943-1.355-1.316-2.102c-1.509-2.996-1.987-6.486-3.352-9.72c-0.683-1.609-1.697-3.117-3.25-4.052
			c-1.496-0.969-3.318-1.433-5.159-1.518c-1.849-0.104-3.73,0.08-5.632,0.095c-1.895,0.019-3.858-0.174-5.629-0.959
			c-0.542-0.237-1.052-0.538-1.542-0.866l-0.337,0.186c0,0.013-0.106-0.227-0.303-0.54c-0.04-0.063-0.091-0.138-0.144-0.213
			c-0.037-0.03-0.079-0.053-0.115-0.083c-0.395-0.334-0.766-0.685-1.135-1.034c-0.548-0.288-1.275-0.461-2.151-0.437
			c-1.04,0.02-2.235,0.275-3.567,0.527c-0.668,0.122-1.376,0.242-2.132,0.275c-0.754,0.016-1.485,0.011-2.269,0.001
			c-1.551-0.026-3.203-0.122-4.881-0.461c-1.677-0.34-3.354-0.949-4.934-1.785c-1.578-0.824-3.105-1.848-4.426-3.093
			c-2.667-2.456-4.783-5.448-6.318-8.455c-1.548-3.009-2.504-6.042-3.06-8.679c-0.284-1.319-0.475-2.542-0.598-3.63
			C9.852,0.321,9.835,0.162,9.818,0h-3.21C6.146,4.946,6.195,9.883,7.662,14.617z"/>
		<path d="M158.954,671.729c-2.084-11.175-5.537-21.95-6.729-33.639c-0.045-0.439-0.105-0.872-0.16-1.308
			c-0.016-18.71-1.86-41.054-1.86-50.503c0-14.858-1.792-30.027-2.691-44.854c-0.771-12.7-4.904-23.143-7-35.211
			c-2.729-15.707-3.026-26.331-10.492-37.679c-4.362-6.63-5.667-8.649-3.065-16.101c2.277-6.519,3.146-10.906,3.612-18.214
			c0.921-14.444-0.432-23.755-2.019-37.405c-3.39-29.156-2.167-62.262,2.171-89.041c2.349-14.498,3.712-28.437,10.313-41.067
			c3.097-5.925,3.56-11.711,4.937-17.045c0.565-2.188,0.934-5.313,1.419-8.436c0.83-1.022,1.701-2.048,2.608-3.073
			c5.339,25.846,17.095,47.786,18.548,52.131c4.179,12.495,7.056,13.151,11.515,25.269c4.939,13.418,4.485,21.418,7.399,33.911
			c3.252,13.947,4.196,27.766,11.638,40.349c16.62,28.102,23.91,63.398,37.941,93.188c10.498,22.287,21.865,44.147,33.018,66.108
			c0.25,0.492,0.508,0.988,0.762,1.481c-0.029-0.078-0.123-0.326-0.282-0.747c-0.16-0.521-0.383-1.292-0.565-2.296
			c-0.4-2.001-0.696-4.902-0.987-8.38c-0.153-1.739-0.284-3.624-0.559-5.6c-0.3-1.964-0.779-4.016-1.434-6.085
			c-1.294-4.153-3.311-8.342-5.039-12.69c-1.692-4.378-2.769-8.969-3.432-13.31c-0.169-1.085-0.299-2.166-0.425-3.204
			c-0.115-1.022-0.298-2.02-0.484-2.988c-0.396-1.935-0.881-3.745-1.387-5.396c-1.012-3.305-2.128-5.964-2.995-7.768
			c-0.436-0.911-0.783-1.575-1.057-2.06c-0.266-0.476-0.408-0.73-0.408-0.73l0.164-0.09c-2.252-3.929-4.489-7.914-6.663-11.939
			c-2.881-5.332-5.636-10.739-8.108-16.188c-2.447-5.457-4.643-10.955-6.071-16.539c-0.361-1.38-0.66-2.827-0.897-4.218
			c-0.098-0.702-0.21-1.346-0.296-2.086c-0.078-0.687-0.156-1.37-0.234-2.05c-0.327-2.716-0.575-5.386-0.828-7.984
			c-0.447-5.204-0.71-10.155-0.624-14.756c0.079-4.597,0.549-8.848,1.4-12.542c0.838-3.7,2.021-6.806,3.095-9.289
			c1.096-2.461,2.094-4.379,2.761-5.621c0.202-0.373,0.373-0.688,0.517-0.954c-2.183-1.941-4.517-3.826-6.922-5.741
			c-7.038-5.583-14.692-11.39-21.483-18.667c-3.375-3.642-6.516-7.666-9.02-12.166c-1.263-2.262-2.283-4.602-3.383-6.902
			c-1.071-2.327-2.147-4.665-3.228-7.013c-4.243-9.425-8.297-19.124-11.844-29.014c-3.557-9.884-6.637-19.942-9.145-29.97
			c-1.29-5.005-2.381-10.016-3.439-14.968c-1.011-4.955-2.061-9.844-2.872-14.706c-0.149-0.893-0.268-1.784-0.389-2.675
			c-0.42-1.375-1.129-2.913-2.328-4.446c-0.636-0.857-1.37-1.722-2.278-2.471c-0.908-0.76-1.984-1.409-3.152-2.008
			c-1.168-0.603-2.431-1.173-3.65-1.946c-1.224-0.758-2.331-1.836-3.256-3.021c-0.972-1.164-1.948-2.393-2.767-3.774
			c-0.816-1.381-1.435-2.926-1.776-4.557c-0.354-1.635-0.421-3.322-0.601-5.007c-0.185-1.686-0.396-3.391-0.67-5.1
			c-0.545-3.419-1.302-6.862-2.341-10.222c-1.05-3.356-2.407-6.616-4.055-9.661c-1.661-3.038-3.64-5.834-5.807-8.319
			c-4.343-4.984-9.438-8.614-14.024-11.203c-2.296-1.304-4.468-2.381-6.43-3.249c-0.977-0.445-1.899-0.842-2.763-1.182
			c-0.858-0.356-1.65-0.672-2.375-0.933c-1.439-0.552-2.585-0.942-3.368-1.205c-0.781-0.267-1.198-0.409-1.198-0.409
			s0.417,0.141,1.199,0.405c0.784,0.26,1.932,0.646,3.373,1.193c0.726,0.259,1.52,0.572,2.379,0.925
			c0.866,0.338,1.79,0.731,2.769,1.172c1.967,0.861,4.144,1.931,6.447,3.227c4.6,2.575,9.718,6.191,14.092,11.173
			c1.051,1.196,2.056,2.469,3.005,3.804c-0.126-0.273-0.284-0.61-0.478-1.008c-0.544-1.128-1.389-2.707-2.373-4.621
			c-0.968-1.917-2.102-4.18-2.823-6.785c-0.368-1.299-0.553-2.689-0.651-4.097c-0.106-1.41-0.138-2.845-0.143-4.279
			c-0.004-2.869,0.116-5.734,0.083-8.421c-0.01-1.344,0.007-2.644-0.108-3.87c-0.106-1.224-0.37-2.373-0.824-3.347
			c-0.452-0.977-1.089-1.746-1.697-2.369c-0.603-0.632-1.15-1.161-1.609-1.589c-0.918-0.855-1.475-1.306-1.475-1.306
			s0.56,0.449,1.482,1.3c0.46,0.426,1.01,0.953,1.616,1.583c0.611,0.621,1.254,1.39,1.713,2.369
			c0.461,0.975,0.731,2.129,0.843,3.356c0.121,1.229,0.11,2.531,0.126,3.874c0.045,2.689-0.061,5.556-0.044,8.421
			c0.011,1.432,0.049,2.865,0.162,4.269c0.105,1.406,0.293,2.781,0.664,4.069c0.725,2.583,1.864,4.835,2.838,6.744
			c0.99,1.907,1.842,3.485,2.392,4.615c0.556,1.131,0.835,1.789,0.835,1.789l-0.042,0.019c0.837,1.222,1.635,2.486,2.363,3.806
			c1.665,3.049,3.039,6.316,4.105,9.68c0.403,1.286,0.752,2.585,1.077,3.889c-0.022-0.145-0.044-0.298-0.069-0.465
			c-0.149-1.116-0.479-2.74-0.295-4.702c0.085-0.976,0.284-2.017,0.531-3.105c0.246-1.087,0.527-2.231,0.873-3.398
			c0.348-1.167,0.761-2.36,1.308-3.52c0.27-0.581,0.602-1.15,1.064-1.623c0.447-0.479,0.978-0.863,1.477-1.271
			c0.5-0.405,0.962-0.861,1.275-1.417c0.314-0.553,0.499-1.172,0.588-1.799c0.164-1.255,0.118-2.525-0.041-3.721
			c-0.165-1.202-0.498-2.331-0.825-3.394c-0.328-1.062-0.598-2.096-0.608-3.074c-0.021-0.977,0.176-1.863,0.427-2.61
			c0.253-0.749,0.539-1.378,0.8-1.881c0.52-1.008,0.871-1.554,0.871-1.554s-0.348,0.548-0.862,1.559
			c-0.258,0.504-0.54,1.135-0.788,1.884c-0.245,0.747-0.435,1.631-0.409,2.601c0.019,1.965,1.154,4.035,1.474,6.458
			c0.167,1.207,0.222,2.471,0.064,3.748c-0.086,0.636-0.271,1.271-0.59,1.842c-0.319,0.575-0.793,1.048-1.295,1.459
			c-0.501,0.414-1.023,0.798-1.456,1.268c-0.443,0.457-0.765,1.017-1.028,1.591c-0.535,1.153-0.938,2.342-1.277,3.505
			c-0.337,1.164-0.611,2.305-0.849,3.392c-0.24,1.085-0.432,2.118-0.51,3.08c-0.171,1.927,0.161,3.528,0.317,4.647
			c0.173,1.121,0.271,1.762,0.271,1.762l-0.123,0.018c0.388,1.69,0.717,3.387,0.993,5.077c0.281,1.713,0.499,3.422,0.691,5.114
			c0.185,1.691,0.262,3.375,0.62,4.97c0.346,1.601,0.959,3.105,1.767,4.456c0.811,1.351,1.784,2.561,2.757,3.714
			c0.947,1.194,1.985,2.186,3.191,2.93c1.193,0.747,2.449,1.307,3.631,1.908c1.184,0.598,2.295,1.257,3.239,2.039
			c0.956,0.78,1.714,1.669,2.361,2.529c0.739,0.931,1.301,1.884,1.737,2.806c-0.383-3.321-0.605-6.621-0.698-9.865
			c-0.15-4.734-0.154-9.364-0.156-13.871c0.008-2.253,0.016-4.475,0.023-6.664c0.031-2.188-0.031-4.344,0.122-6.468
			c0.292-4.234,0.763-8.303,1.162-12.215c0.824-7.82,1.505-14.997,1.865-21.376c0.362-6.377,0.441-11.954,0.18-16.534
			c-0.155-3.183-0.497-5.865-0.901-8.01c-1.065-2.873-2.153-5.73-3.283-8.562c-1.602-0.462-3.208-0.889-4.809-1.29
			c-5.828-1.452-11.598-2.618-17.204-3.798c-5.607-1.177-11.066-2.328-16.295-3.665c-5.222-1.342-10.252-2.812-14.823-4.895
			c-2.276-1.044-4.44-2.266-6.287-3.81c-1.848-1.552-3.341-3.409-4.501-5.381c-2.323-3.969-3.417-8.225-4.416-12.148
			c-0.976-3.943-1.831-7.654-3.055-10.949c-1.205-3.294-2.796-6.157-4.717-8.351c-1.203-1.396-2.503-2.524-3.797-3.439
			c-3.398-0.857-6.767-1.747-10.088-2.725c-4.731-1.386-9.381-3.007-13.81-4.856c-3.969-1.658-7.83-3.379-11.643-5.042
			c-0.053,0.189-0.113,0.386-0.188,0.598c-0.112,0.328-0.253,0.684-0.419,1.061l0.083,0.045c0,0-0.105,0.189-0.302,0.542
			c-0.104,0.178-0.224,0.396-0.313,0.641c-0.103,0.247-0.234,0.526-0.318,0.874c-0.22,0.673-0.341,1.537-0.268,2.525
			c0.071,0.988,0.369,2.096,0.903,3.23c1.063,2.281,3.009,4.606,5.269,6.89c2.25,2.307,4.871,4.568,7.204,7.154
			c1.174,1.292,2.169,2.76,2.837,4.355c0.694,1.575,1.128,3.198,1.768,4.669c0.63,1.477,1.49,2.784,2.434,3.915
			c0.954,1.126,2.023,2.031,3.015,2.863c2.002,1.638,3.64,3.068,4.576,4.264c0.468,0.595,0.786,1.099,0.979,1.454
			c0.184,0.36,0.282,0.553,0.282,0.553s-0.102-0.19-0.292-0.547c-0.199-0.352-0.526-0.848-1.003-1.432
			c-0.955-1.176-2.609-2.568-4.642-4.171c-1.004-0.812-2.105-1.71-3.092-2.833c-0.976-1.127-1.878-2.444-2.547-3.938
			c-0.678-1.488-1.143-3.105-1.849-4.63c-0.676-1.535-1.666-2.945-2.837-4.187c-2.341-2.503-5.003-4.72-7.316-7.005
			c-2.322-2.266-4.366-4.598-5.547-7.009c-0.591-1.198-0.947-2.41-1.047-3.518c-0.021-0.221-0.026-0.434-0.03-0.646
			c-0.45,0.982-0.826,2.138-1.187,3.333c-0.178,0.619-0.293,1.237-0.299,1.898c-0.008,0.663,0.043,1.37,0.071,2.088
			c0.059,1.445,0.07,2.914,0.189,4.406c0.116,1.489,0.302,2.999,0.678,4.459c0.184,0.732,0.482,1.382,0.926,1.978
			c0.439,0.595,0.987,1.133,1.419,1.787c0.917,1.335,0.855,3.012,0.568,4.399c-0.245,1.414-0.702,2.77-1.277,3.953
			c-0.568,1.194-1.228,2.251-1.64,3.313c-0.427,1.057-0.536,2.117-0.479,3.039c0.04,0.926,0.223,1.724,0.393,2.368
			c0.147,0.653,0.347,1.141,0.452,1.484c0.114,0.34,0.174,0.521,0.174,0.521s-0.064-0.18-0.185-0.517
			c-0.112-0.34-0.322-0.825-0.483-1.476c-0.183-0.642-0.384-1.438-0.443-2.374c-0.077-0.929,0.012-2.014,0.425-3.1
			c0.397-1.089,1.039-2.165,1.576-3.356c0.547-1.193,0.959-2.496,1.176-3.912c0.254-1.377,0.265-2.925-0.594-4.116
			c-0.41-0.597-0.964-1.121-1.443-1.741c-0.484-0.615-0.847-1.372-1.047-2.121c-0.827-2.997-0.915-6.118-1.067-8.959
			c-0.043-0.713-0.109-1.412-0.116-2.13c-0.01-0.721,0.111-1.445,0.284-2.091c0.362-1.291,0.718-2.48,1.198-3.57
			c0.445-1.016,0.925-1.892,1.318-2.682c0.016-0.04,0.033-0.085,0.049-0.123c0.114-0.307,0.232-0.528,0.328-0.702
			c0.02-0.037,0.035-0.065,0.052-0.098c0.223-0.502,0.417-0.975,0.546-1.381c0.086-0.259,0.142-0.48,0.193-0.69
			c-4.388-1.906-8.715-3.718-13.06-5.234c-8.362-2.955-16.842-4.915-24.974-4.454c-0.609,0.04-1.216,0.09-1.82,0.147
			c0.89,0.594,1.772,1.301,2.554,2.026c0.962,0.891,1.826,1.87,2.659,2.869c1.627,2.029,3.058,4.197,4.333,6.444
			c2.548,4.499,4.585,9.256,6.273,14.122c0.846,2.433,1.587,4.903,2.228,7.4c0.632,2.493,1.161,5.041,1.457,7.593
			c0.281,2.566,0.844,5.009,1.784,7.382c0.929,2.36,2.213,4.569,3.641,6.688c1.369,2.037,2.814,4.041,4.127,6.138l0.223-0.085
			c0,0,0.142,0.385,0.409,1.106c0.006,0.015,0.01,0.033,0.016,0.048c1.159,1.947,2.172,3.975,3.1,6.034
			c1.037,2.353,1.992,4.762,2.533,7.299c0.136,0.637,0.198,1.291,0.269,1.921c0.03,0.65,0.056,1.31-0.023,1.958
			c-0.125,1.3-0.567,2.572-1.252,3.675c-0.678,1.109-1.502,2.099-2.215,3.156c-0.72,1.051-1.32,2.183-1.715,3.393
			c-0.846,2.403-0.818,5.082,0.006,7.493c0.81,2.427,2.344,4.567,4.186,6.333c1.854,1.764,4.045,3.175,6.419,4.143
			c0.154-0.104,0.348-0.074,0.51-0.027c0.172,0.046,0.332,0.122,0.49,0.198c0.314,0.16,0.612,0.351,0.904,0.547
			c0.584,0.394,1.144,0.823,1.701,1.253l1.672,1.291c0.281,0.211,0.566,0.419,0.862,0.61c0.148,0.096,0.299,0.186,0.458,0.262
			c0.139,0.064,0.376,0.177,0.467-0.008c-0.091,0.185-0.329,0.073-0.468,0.01c-0.159-0.075-0.311-0.165-0.459-0.261
			c-0.296-0.191-0.581-0.397-0.864-0.608l-1.675-1.287c-0.558-0.429-1.119-0.856-1.703-1.248c-0.292-0.195-0.59-0.385-0.903-0.544
			c-0.158-0.076-0.318-0.151-0.487-0.196c-0.163-0.048-0.357-0.077-0.5,0.026l-0.005,0.004l-0.005-0.002
			c-2.385-0.948-4.596-2.342-6.475-4.098c-1.866-1.758-3.432-3.898-4.275-6.347c-0.857-2.433-0.913-5.163-0.073-7.618
			c0.391-1.235,0.994-2.398,1.714-3.468c0.713-1.076,1.527-2.074,2.178-3.162c0.658-1.083,1.066-2.299,1.176-3.554
			c0.123-1.239-0.023-2.54-0.274-3.77c-0.552-2.483-1.521-4.868-2.572-7.194c-0.71-1.537-1.467-3.052-2.292-4.526
			c0.092,0.501,0.152,1.043,0.235,1.657c0.235,2.926-0.055,7.137-1.52,11.901c-0.733,2.373-1.71,4.915-3.32,7.318
			c-0.819,1.216-1.864,2.24-2.806,3.359c-0.96,1.117-1.912,2.282-2.821,3.509c-1.83,2.448-3.426,5.182-4.902,8.045
			c-0.724,1.433-1.503,2.88-2.14,4.361c-0.629,1.481-1.038,3.046-1.211,4.659c-0.367,3.214,0.207,6.543-0.44,9.778
			c-0.151,0.805-0.374,1.588-0.63,2.356c-0.306,0.763-0.588,1.489-0.852,2.234c-0.275,0.743-0.424,1.501-0.632,2.247
			c-0.153,0.763-0.322,1.517-0.458,2.271c-0.544,3.02-0.868,5.977-1.148,8.779c-0.281,2.804-0.467,5.462-0.627,7.917
			c-0.304,4.91-0.443,9.009-0.501,11.879c-0.06,2.87-0.031,4.51-0.031,4.51s-0.044-1.64-0.011-4.511
			c0.031-2.871,0.131-6.971,0.388-11.887c0.138-2.457,0.298-5.119,0.552-7.929c0.254-2.809,0.55-5.772,1.067-8.813
			c0.13-0.76,0.293-1.521,0.44-2.291c0.203-0.759,0.356-1.553,0.624-2.297c0.258-0.749,0.544-1.51,0.828-2.235
			c0.243-0.752,0.454-1.518,0.593-2.304c0.605-3.15,0.004-6.443,0.343-9.757c0.16-1.65,0.573-3.295,1.208-4.826
			c0.641-1.527,1.395-2.957,2.113-4.413c1.455-2.889,3.047-5.678,4.879-8.178c0.91-1.253,1.861-2.44,2.82-3.577
			c0.954-1.152,1.978-2.182,2.722-3.317c1.515-2.305,2.457-4.807,3.148-7.131c1.39-4.674,1.625-8.788,1.375-11.571
			c-0.16-1.408-0.397-2.422-0.628-3.13c-0.274-0.719-0.42-1.102-0.42-1.102l0.221-0.084c-1.305-2.036-2.739-3.991-4.116-6
			c-1.457-2.12-2.79-4.362-3.764-6.772c-0.98-2.388-1.594-4.99-1.892-7.52c-0.312-2.545-0.844-5.029-1.487-7.505
			c-0.65-2.469-1.399-4.915-2.253-7.323c-1.703-4.816-3.753-9.52-6.292-13.939c-1.271-2.207-2.689-4.326-4.285-6.292
			C8.975,51.05,7.2,49.287,5.024,47.978l0.249-0.385c-1.108,0.126-2.205,0.291-3.281,0.528C1.305,48.24,0.652,48.415,0,48.591v25.65
			c0.125,0.284,0.234,0.565,0.367,0.85c0.768,1.626,1.698,3.258,2.898,4.764c1.2,1.528,2.681,2.865,4.153,4.391
			c1.464,1.504,2.844,3.346,3.454,5.557c0.303,1.105,0.41,2.228,0.424,3.404c-0.008,1.095-0.188,2.322-0.536,3.424
			c-0.689,2.264-2.09,4.194-3.172,6.227c-0.543,1.02-1.003,2.083-1.301,3.201c-0.088,0.321-0.155,0.647-0.212,0.977l0.15,0.072
			c0,0-0.082,0.167-0.229,0.466c-0.081,0.642-0.12,1.291-0.125,1.936l0.192-0.014c0,0,0.023,0.333,0.066,0.958
			c0.033,0.633,0.099,1.558,0.096,2.747c-0.003,0.319-0.011,0.663-0.027,1.022c0.369,3.206,0.891,6.452,0.67,9.761
			c-0.163,2.481-0.983,4.816-1.687,7.123c-0.721,2.307-1.469,4.603-1.807,6.949c-0.166,1.169-0.215,2.354-0.021,3.495
			c0.23,1.127,0.611,2.272,0.876,3.409c0.575,2.285,0.998,4.567,1.347,6.824c1.351,9.045,0.959,17.652-0.159,24.852
			c-1.133,7.214-2.97,13.054-4.604,16.977c-0.281,0.68-0.55,1.282-0.812,1.848V724h165.177c-0.255-6.422-0.538-12.853-0.841-19.299
			C163.795,693.206,161,682.701,158.954,671.729z"/>
		<path d="M270.076,408.434c0.204,2.376,0.52,4.997,0.845,7.869c0.135,1.261,0.263,2.571,0.352,3.933
			c0.09,1.33,0.175,2.715,0.3,4.103c0.229,2.779,0.525,5.743,0.835,8.815c1.262,12.308,2.91,26.665,4.744,42.034
			c0.933,7.678,1.882,15.63,2.943,23.665c1.076,8.019,2.654,16.088,5.846,23.621c1.566,3.77,3.459,7.408,5.533,10.927
			c2.033,3.547,4.387,6.849,6.783,10.142c1.082,1.49,2.147,3.009,3.137,4.572c0.253,0.305,0.54,0.631,0.861,0.977
			c-3.226-20.669-0.51-31.759,0.898-35.734c0.567-1.598,1.497-2.951,2.396-4.26c0.802-1.167,1.56-2.271,2.004-3.461
			c1.035-2.772,1.75-8.706,0.515-11.694l0.141-0.058c-0.095-0.239-0.193-0.478-0.287-0.717c-1.847-4.826-3.436-9.811-4.981-14.805
			c-3.058-9.998-5.836-20.069-8.421-29.511c-1.29-4.719-2.537-9.28-3.72-13.605c-0.598-2.158-1.185-4.256-1.784-6.259
			c-0.153-0.496-0.305-0.988-0.455-1.476c-0.157-0.462-0.278-0.864-0.487-1.359c-0.422-0.903-0.836-1.789-1.242-2.657
			c-1.664-3.533-3.258-6.711-4.697-9.565c-0.034-0.069-0.067-0.137-0.101-0.206c-1.754-0.464-3.716-1.112-5.837-2.041
			C274.252,410.842,272.193,409.75,270.076,408.434z"/>
		<path d="M271.567,394.657c-0.001,0.002-0.002,0.003-0.003,0.005c-0.127,0.307-0.299,0.663-0.443,1.083
			c-0.63,1.658-1.239,4.26-1.264,7.744c-0.009,0.492-0.002,1.005,0.012,1.529c2.616,1.721,5.132,3.074,7.452,4.05
			c1.091,0.465,2.133,0.846,3.124,1.169c-0.066-0.168-0.137-0.337-0.198-0.505c-0.505-1.373-0.838-2.655-1.105-3.785
			c-0.531-2.254-0.876-4.007-1.125-5.207C275.921,398.733,273.746,396.746,271.567,394.657z"/>
		<path d="M278.659,398.679l0.452-0.088l-0.634-0.089C278.538,398.561,278.598,398.62,278.659,398.679z"/>
		<path d="M293.828,419.256c-1.002-1.483-2.056-2.956-3.156-4.418l-0.008,0.156c0,0-0.327-0.019-0.961-0.056
			c-0.317-0.019-0.71-0.042-1.178-0.069c-0.493-0.057-1.064-0.123-1.71-0.197c-0.432-0.057-0.909-0.132-1.405-0.216
			c1.163,2.425,2.426,5.094,3.722,7.978c0.406,0.913,0.82,1.845,1.242,2.794c0.18,0.447,0.362,1.028,0.526,1.552
			c0.146,0.506,0.294,1.016,0.443,1.531c0.573,2.051,1.124,4.165,1.685,6.34c1.105,4.348,2.271,8.934,3.478,13.677
			c2.413,9.48,5.008,19.586,7.877,29.606c1.45,5.003,2.945,9.999,4.686,14.802c0.086,0.23,0.174,0.457,0.26,0.686l0.125-0.052
			c0.198,0.48,0.351,1.015,0.469,1.584c0.643,1.617,1.339,3.19,2.23,4.641c1.28,2.167,2.531,4.319,3.746,6.449
			c4.865,8.506,9.03,16.659,12.265,23.796c3.237,7.137,5.664,13.196,7.359,17.437c1.673,4.249,2.63,6.678,2.63,6.678
			s-1-2.41-2.75-6.629c-1.771-4.208-4.306-10.222-7.666-17.287c-3.358-7.066-7.657-15.119-12.662-23.515
			c-1.248-2.098-2.535-4.224-3.855-6.37c-0.358-0.56-0.686-1.138-0.994-1.727c-0.02,2.883-0.586,5.912-1.267,7.735
			c-0.404,1.083-1.022,2.081-1.669,3.043c-0.001,0.192-0.003,0.409-0.004,0.655c0.009,1.006-0.016,2.45,0.191,4.141
			c0.109,0.844,0.294,1.746,0.608,2.667c0.313,0.921,0.758,1.855,1.285,2.789c0.261,0.464,0.577,0.929,0.784,1.493
			c0.208,0.546,0.32,1.122,0.391,1.699c0.132,1.158,0.084,2.327,0.03,3.483c-0.054,1.156-0.125,2.307-0.053,3.428
			c0.06,1.118,0.346,2.199,0.887,3.115c0.531,0.922,1.269,1.671,2.019,2.309c0.752,0.641,1.515,1.193,2.178,1.758
			c0.666,0.56,1.226,1.145,1.608,1.746c0.384,0.6,0.576,1.201,0.662,1.699c0.089,0.501,0.081,0.902,0.07,1.172
			c-0.02,0.27-0.031,0.415-0.031,0.415s0.007-0.144,0.021-0.415c0.004-0.27,0.003-0.67-0.098-1.165
			c-0.097-0.493-0.301-1.081-0.693-1.662c-0.39-0.582-0.954-1.144-1.628-1.684c-0.67-0.545-1.445-1.078-2.221-1.707
			c-0.774-0.627-1.552-1.375-2.129-2.324c-0.592-0.942-0.914-2.079-0.992-3.232c-0.093-1.152-0.038-2.316-0.003-3.469
			c0.036-1.153,0.063-2.305-0.082-3.41c-0.077-0.55-0.192-1.088-0.39-1.583c-0.183-0.486-0.496-0.938-0.777-1.41
			c-0.557-0.942-1.038-1.898-1.384-2.854c-0.348-0.955-0.562-1.898-0.692-2.771c-0.221-1.55-0.248-2.85-0.272-3.836
			c-0.777,1.135-1.551,2.31-2.01,3.607c-1.414,3.99-4.178,15.383-0.504,37.001c0.42,0.369,0.873,0.744,1.363,1.117
			c1.974,1.529,4.486,3.027,7.228,4.626c1.409,0.807,2.594,2.057,3.626,3.35c1.038,1.31,2.072,2.584,3.366,3.664
			c0.628,0.55,1.255,1.112,1.946,1.537c0.689,0.427,1.479,0.689,2.255,0.981c1.562,0.571,3.061,1.207,4.554,1.703
			c1.489,0.504,2.959,0.914,4.382,1.134c1.425,0.222,2.792,0.082,4.052,0.021c1.26-0.076,2.42-0.127,3.447-0.077
			c1.027,0.044,1.915,0.192,2.629,0.376c0.413,0.115,0.76,0.239,1.052,0.358c-2.535-7.196-8.972-22.819-9.879-29.68
			c-3.193-24.172-10.106-47.085-15.992-70.439c-3.375-8.998-7.625-19.819-13.541-31.695
			C301.526,431.806,298.069,425.5,293.828,419.256z"/>
		<path d="M86.281,73.45c1.938,2.193,3.547,5.062,4.769,8.36c1.241,3.299,2.113,7.014,3.105,10.95
			c1.014,3.916,2.125,8.154,4.445,12.076c1.157,1.948,2.644,3.779,4.47,5.3c1.835,1.521,3.984,2.709,6.253,3.733
			c4.554,2.037,9.579,3.469,14.798,4.771c5.227,1.297,10.687,2.409,16.302,3.546c5.614,1.141,11.395,2.267,17.253,3.683
			c1.441,0.351,2.887,0.719,4.334,1.118c-0.644-1.597-1.298-3.189-1.98-4.766c-4.352-9.969-9.666-19.581-17.013-27.291
			c-1.826-1.919-3.804-3.708-5.876-5.29c-2.121-1.628-4.295-3.015-6.582-4.317c-4.55-2.585-9.371-4.599-14.252-6.293
			c-9.779-3.387-19.778-5.549-29.533-7.886c-1.404-0.344-2.803-0.691-4.198-1.043C83.838,70.998,85.105,72.097,86.281,73.45z"/>
		<path d="M172.708,152.718c3.705,10.461,6.923,21.114,9.843,31.856c5.849,21.485,10.198,43.344,13.962,64.907
			c1.879,10.785,3.617,21.5,5.339,32.081c0.214,1.311,0.428,2.621,0.641,3.928c0.244,1.313,0.487,2.625,0.73,3.934
			c0.292,1.268,0.583,2.534,0.874,3.797c0.318,1.263,0.679,2.524,1.015,3.782c1.428,5.02,3.147,9.927,5.095,14.699
			c3.882,9.554,8.695,18.547,13.998,26.947c2.661,4.195,5.482,8.231,8.466,12.044c2.985,3.724,6.248,7.32,9.488,10.781
			c6.512,6.934,13.117,13.459,19.422,19.873c1.574,1.606,3.145,3.191,4.662,4.808c1.51,1.613,3.007,3.211,4.49,4.795
			c2.277,2.343,4.658,4.578,6.985,6.815c0.111-0.736,0.319-2.12,0.62-4.118c0.416-3.052,1.029-7.519,0.628-13.196
			c-0.373-5.685-1.861-12.47-4.975-19.927c-1.487-3.737-3.204-7.694-5.064-11.844c-1.861-4.154-3.853-8.534-5.73-13.206
			c-0.934-2.338-1.834-4.747-2.698-7.221c-0.846-2.49-1.659-5.005-2.476-7.58c-1.636-5.15-3.27-10.486-4.868-15.998
			c-3.23-11.005-6.25-22.749-9.418-34.805c-1.672-5.941-4.149-11.787-6.461-17.805c-2.333-6.01-4.482-12.181-6.493-18.44
			c-3.916-12.55-7.768-25.288-12.546-37.719c-4.773-12.407-10.285-24.589-17.325-35.622c-3.493-5.526-7.426-10.71-11.77-15.41
			c-4.393-4.641-9.209-8.822-14.542-12.015c-2.607-1.682-5.453-2.871-8.343-3.85c-0.912-0.309-1.828-0.595-2.745-0.871
			c1.205,2.987,2.366,5.996,3.504,9.018C168.968,142.306,170.843,147.509,172.708,152.718z"/>
		<path d="M259.932,382.996c-6.395-6.296-13.114-12.718-19.79-19.597c-3.332-3.461-6.667-6.961-9.842-10.858
			c-3.066-3.891-5.945-7.987-8.667-12.249c-5.422-8.531-10.342-17.657-14.335-27.396c-1.997-4.866-3.793-9.873-5.244-15.033
			c-0.336-1.299-0.695-2.589-1.014-3.902c-0.293-1.325-0.587-2.653-0.881-3.983c-0.233-1.311-0.465-2.624-0.699-3.94
			c-0.207-1.331-0.414-2.664-0.622-4c-1.638-10.593-3.29-21.312-5.081-32.091c-3.575-21.556-7.61-43.386-12.95-64.921
			c-2.673-10.761-5.722-21.444-9.209-31.919c-1.766-5.244-3.648-10.429-5.552-15.594c-0.13-0.353-0.263-0.704-0.393-1.056
			c0.401,2.126,0.743,4.77,0.904,7.899c0.276,4.581,0.214,10.161-0.129,16.542c-0.341,6.382-1,13.564-1.799,21.387
			c-0.387,3.912-0.845,7.985-1.123,12.211c-0.154,2.107-0.064,4.268-0.067,6.455c0.018,2.188,0.037,4.41,0.056,6.663
			c0.055,4.504,0.114,9.132,0.32,13.853c0.174,4.302,0.569,8.675,1.288,13.068c0.252,1.038,0.397,1.891,0.506,2.517
			c0.133,0.816,0.204,1.251,0.204,1.251l-0.035,0.005c0.778,4.012,1.681,8.057,2.568,12.153c1.099,4.931,2.232,9.919,3.562,14.898
			c2.59,9.975,5.747,19.968,9.378,29.782c3.62,9.82,7.745,19.448,12.059,28.807c1.098,2.331,2.191,4.652,3.279,6.962
			c1.125,2.304,2.164,4.627,3.397,6.767c2.468,4.32,5.562,8.2,8.903,11.725c6.724,7.049,14.346,12.707,21.472,18.229
			c3.558,2.77,7.047,5.505,10.13,8.533c3.063,3.062,5.737,6.161,8.353,9.101c5.189,5.892,10.066,11.133,14.886,15.172
			c1.09,0.925,2.172,1.779,3.245,2.578c0.027-3.538,0.636-6.404,1.327-8.284c0.166-0.497,0.357-0.917,0.51-1.293
			c0.175-0.371,0.327-0.713,0.445-0.935c0.01-0.02,0.017-0.033,0.027-0.052c-0.025-0.026-0.051-0.049-0.077-0.075
			C266.219,389.231,263.143,386.151,259.932,382.996z"/>
		<path d="M201.033,82.777c-0.232,0.011-0.474,0.022-0.727,0.034c-0.252,0.02-0.517,0.006-0.785,0.054
			c-0.266,0.058-0.542,0.119-0.827,0.182c-0.142,0.032-0.286,0.065-0.433,0.098c-0.14,0.056-0.281,0.113-0.425,0.171
			c-0.286,0.119-0.587,0.225-0.882,0.363c-0.559,0.339-1.176,0.648-1.721,1.121c-0.589,0.413-1.1,0.965-1.661,1.496
			c-0.508,0.586-1.057,1.169-1.542,1.837c-1.014,1.299-1.959,2.763-2.899,4.3c-1.562,2.55-3.115,5.309-4.815,8.017
			c-0.086,0.176-0.171,0.345-0.26,0.51c0.29-0.133,0.605-0.258,0.961-0.365c0.642-0.204,1.383-0.33,2.186-0.412
			c1.608-0.144,3.459-0.048,5.413,0.093c1.953,0.125,4.034,0.309,6.085,0.101c1.02-0.108,2.038-0.294,2.971-0.672
			c0.931-0.376,1.765-0.93,2.447-1.603c0.683-0.677,1.169-1.487,1.562-2.28c0.193-0.399,0.325-0.814,0.483-1.202
			c0.127-0.399,0.224-0.794,0.331-1.169c0.126-0.587,0.231-1.127,0.306-1.64c-0.035-0.074-0.063-0.146-0.099-0.221
			c-1.413-2.955-2.982-5.875-4.709-8.708c-0.1-0.011-0.194-0.026-0.301-0.033C201.483,82.827,201.264,82.792,201.033,82.777z"/>
		<path d="M157.897,53.797c0.925,0.941,1.993,1.979,3.175,3.093c2.381,2.211,5.159,4.791,8.136,7.556
			c2.959,2.785,6.059,5.831,8.867,9.155c1.387,1.673,2.743,3.383,3.89,5.202c1.148,1.812,2.2,3.666,2.923,5.597
			c0.726,1.919,1.284,3.862,1.42,5.762c0.072,0.471,0.088,0.939,0.08,1.402c-0.002,0.462,0.018,0.918-0.004,1.365
			c-0.121,0.886-0.121,1.764-0.348,2.567c-0.173,0.814-0.342,1.593-0.622,2.299c-0.014,0.041-0.027,0.08-0.042,0.121
			c1.192-1.921,2.339-3.839,3.49-5.652c0.968-1.525,1.941-2.982,2.985-4.275c0.499-0.664,1.064-1.246,1.585-1.827
			c0.577-0.529,1.102-1.076,1.706-1.486c0.559-0.469,1.191-0.774,1.762-1.106c0.302-0.135,0.609-0.238,0.9-0.354
			c0.146-0.056,0.291-0.111,0.433-0.165c0.149-0.031,0.296-0.062,0.44-0.092c0.289-0.059,0.568-0.115,0.838-0.17
			c0.271-0.045,0.539-0.026,0.793-0.042c0.254-0.008,0.498-0.015,0.732-0.022c0.232,0.019,0.452,0.057,0.661,0.082
			c0.096,0.008,0.18,0.023,0.271,0.034c-5.041-8.258-11.45-15.764-19.439-21.15c-8.488-5.724-18.69-8.058-28.183-11.785
			c0.302,0.373,0.701,0.847,1.208,1.406C156.177,52.024,156.97,52.858,157.897,53.797z"/>
		<path d="M206.348,94.677c-0.149,0.399-0.271,0.824-0.456,1.239c-0.377,0.823-0.852,1.675-1.545,2.404
			c-0.69,0.725-1.552,1.335-2.518,1.759c-0.967,0.426-2.02,0.651-3.07,0.794c-2.11,0.277-4.224,0.151-6.178,0.085
			c-1.956-0.083-3.772-0.119-5.287,0.063c-0.753,0.1-1.432,0.238-1.998,0.437c-0.567,0.187-1.042,0.429-1.376,0.647
			c-0.166,0.112-0.313,0.212-0.442,0.299c-0.13,0.121-0.241,0.223-0.331,0.307c-0.153,0.142-0.23,0.213-0.255,0.236
			c-0.492,0.772-0.942,1.312-1.221,1.719c-0.3,0.41-0.46,0.628-0.46,0.628l-0.158-0.118c-0.404,0.528-0.805,1.06-1.23,1.565
			c-1.253,1.437-2.545,2.82-3.98,3.957c-0.682,0.611-1.445,1.094-2.162,1.607c-0.737,0.481-1.499,0.895-2.235,1.299
			c-0.773,0.33-1.499,0.722-2.251,0.971c-0.757,0.232-1.467,0.539-2.188,0.683c-0.719,0.151-1.402,0.337-2.063,0.439
			c-0.665,0.08-1.296,0.155-1.889,0.227c-1.191,0.089-2.25,0.079-3.106,0.089c-0.769-0.054-1.379-0.096-1.823-0.127
			c0.953,1.973,1.875,3.962,2.75,5.967c0.796,1.809,1.556,3.636,2.303,5.469c1.103,0.317,2.205,0.648,3.304,1.012
			c2.925,0.967,5.853,2.165,8.517,3.86c5.425,3.201,10.325,7.403,14.794,12.064c4.42,4.72,8.422,9.927,11.977,15.472
			c7.165,11.073,12.783,23.286,17.656,35.715c2.418,6.228,4.651,12.525,6.744,18.836c2.114,6.303,4.035,12.649,6.075,18.867
			c2.054,6.221,4.238,12.336,6.608,18.301c2.346,5.968,4.891,11.83,6.66,17.921c3.277,12.099,6.353,23.745,9.655,34.71
			c1.632,5.483,3.298,10.794,4.962,15.909c0.832,2.558,1.665,5.08,2.517,7.508c0.874,2.43,1.781,4.795,2.723,7.092
			c1.893,4.591,3.907,8.921,5.811,13.068c1.904,4.151,3.667,8.112,5.218,11.911c0.378,0.947,0.75,1.878,1.116,2.795
			c0.346,0.939,0.685,1.863,1.019,2.77c0.611,1.836,1.171,3.617,1.6,5.363c0.883,3.483,1.392,6.765,1.631,9.747
			c0.485,5.979-0.113,10.684-0.505,13.809c-0.34,2.431-0.553,3.956-0.63,4.506c0.054,0.29,0.153,0.826,0.294,1.591
			c0.053,0.279,0.111,0.595,0.175,0.933c3.506,3.511,6.695,7.172,9.561,10.909c0.099,0.005,0.164,0.008,0.164,0.008l-0.01,0.194
			c1.551,2.033,3.017,4.086,4.376,6.149c4.224,6.376,7.634,12.776,10.608,18.88c4.328,9.019,7.688,17.41,10.464,24.869
			c-1.56-6.522-3.007-13.09-4.227-19.745c-5.696-31.061-13.031-62.647-27.062-91.128c-6.078-12.337-15.803-22.647-21.534-34.967
			c-6.268-13.472-11.291-27.988-14.125-42.164c-3.708-18.537-14.723-54.506-27.23-80.972c-0.229-11.375-1.38-23.727-3.022-31.393
			c-1.481-6.915-6.133-22.678-6.504-30.054c-0.739-14.684,0.757-25.947-5.671-39.669c-0.061,0.468-0.141,0.956-0.238,1.485
			C206.55,93.866,206.465,94.269,206.348,94.677z"/>
		<path d="M282.888,408.788c0.259,0.755,0.592,1.548,0.966,2.377c1.263,0.278,2.382,0.455,3.309,0.569
			c0.438,0.047,0.825,0.089,1.184,0.127c-2.041-2.526-4.238-5.006-6.589-7.428c0.06,0.287,0.116,0.563,0.182,0.867
			C282.178,406.394,282.464,407.569,282.888,408.788z"/>
		<path d="M44.525,10.138c-0.289,0.787-0.613,1.561-0.857,2.361c-0.514,1.593-0.837,3.242-0.985,4.794
			c-0.058,0.777-0.095,1.53-0.066,2.241c0.013,0.711,0.081,1.381,0.176,1.991c0.09,0.611,0.206,1.165,0.344,1.645
			c0.123,0.488,0.272,0.886,0.388,1.216c0.104,0.303,0.227,0.551,0.302,0.73c0.442,0.115,0.849,0.276,1.181,0.494
			c0.755,0.48,1.163,1.039,1.427,1.427c0.26,0.395,0.334,0.569,0.346,0.575l-0.298,0.165c0.45,0.286,0.917,0.545,1.408,0.752
			c1.731,0.742,3.644,0.91,5.518,0.869c1.881-0.037,3.765-0.245,5.657-0.162c1.887,0.066,3.792,0.514,5.4,1.53
			c1.635,0.953,2.769,2.584,3.48,4.228c1.44,3.322,1.961,6.788,3.449,9.638c0.365,0.709,0.783,1.375,1.265,1.97
			c0.477,0.601,1.015,1.088,1.626,1.587c1.175,0.992,2.305,1.969,3.345,2.96c2.083,1.974,3.826,4.009,5.002,6.076
			c1.193,2.054,1.763,4.144,1.797,5.885c0.061,1.751-0.341,3.086-0.65,3.969c-0.097,0.282-0.189,0.5-0.268,0.679
			c1.279,0.33,2.564,0.657,3.855,0.981c9.688,2.511,19.706,4.928,29.555,8.573c9.8,3.621,19.556,8.754,26.936,16.818
			c5.691,6.061,10.065,13.214,13.768,20.723c0.38,0.033,1.2,0.103,2.392,0.205c0.825,0.001,1.818,0.026,2.964-0.04
			c0.573-0.059,1.182-0.122,1.824-0.189c0.639-0.088,1.297-0.257,1.993-0.391c0.699-0.126,1.384-0.413,2.117-0.623
			c0.73-0.227,1.433-0.596,2.186-0.9c0.716-0.38,1.46-0.767,2.182-1.222c0.702-0.487,1.451-0.943,2.125-1.528
			c1.416-1.083,2.703-2.419,3.96-3.812c0.423-0.487,0.824-1.002,1.229-1.513l-0.194-0.144c0,0,0.163-0.216,0.469-0.621
			c0.29-0.41,0.79-0.989,1.29-1.767c0.015-0.024,0.032-0.051,0.047-0.075l-0.011-0.012c0,0,0.025-0.022,0.04-0.034
			c0.469-0.761,1.061-1.649,1.56-2.779c0.136-0.293,0.302-0.585,0.425-0.904c0.116-0.322,0.236-0.654,0.358-0.994
			c0.279-0.672,0.449-1.412,0.625-2.186c0.231-0.764,0.237-1.6,0.368-2.445c0.027-0.426,0.013-0.863,0.022-1.305
			c0.015-0.443,0.007-0.891-0.057-1.344c-0.103-1.824-0.614-3.708-1.293-5.586c-0.675-1.889-1.68-3.723-2.785-5.524
			c-1.104-1.808-2.422-3.521-3.774-5.201c-2.74-3.339-5.786-6.422-8.701-9.246c-2.936-2.807-5.677-5.426-8.026-7.672
			c-1.167-1.132-2.22-2.186-3.133-3.141c-0.914-0.953-1.695-1.8-2.31-2.522c-0.509-0.579-0.907-1.065-1.205-1.446
			c-1.157-0.455-2.305-0.926-3.437-1.431c-10.808-4.825-10.101-7.566-24.222-11.887c-14.298-4.375-28.16-2.587-41.268-10.317
			C72.463,18.634,61.987,12.037,53.991,9.213c-4.531-1.601-6.93-2.401-7.955-4.306c-0.166,0.918-0.395,1.896-0.711,2.906
			C45.092,8.577,44.818,9.354,44.525,10.138z"/>
		<path d="M26.37,4.665c1.399,2.946,3.2,5.898,5.355,8.727c2.151,2.835,4.669,5.532,7.413,8.065
			c1.104,1.023,2.252,2.013,3.406,3.006c-0.101-0.317-0.209-0.666-0.296-1.069c-0.129-0.516-0.233-1.108-0.306-1.755
			c-0.078-0.647-0.125-1.352-0.115-2.095c-0.006-0.744,0.059-1.524,0.146-2.327c0.206-1.601,0.596-3.282,1.176-4.893
			c0.278-0.811,0.633-1.592,0.953-2.355c0.323-0.764,0.625-1.523,0.887-2.267c0.389-1.086,0.679-2.143,0.885-3.122
			C45.411,3.497,45.324,2.064,45.511,0h-21.04C25.002,1.536,25.628,3.097,26.37,4.665z"/>
		<path fill="#EE583C" d="M203.603,83.223c0.436,0.117,0.668,0.18,0.668,0.18s-0.231-0.066-0.665-0.191
			c-0.384-0.114-0.933-0.284-1.639-0.372c0.009,0.014,0.017,0.028,0.026,0.042C202.682,82.959,203.223,83.116,203.603,83.223z"/>
		<path fill="#EE583C" d="M344.503,569.904c0.35,0.182,0.537,0.279,0.537,0.279s-0.185-0.1-0.533-0.286
			c-0.146-0.076-0.333-0.161-0.545-0.247c0.002,0.007,0.005,0.014,0.007,0.02C344.176,569.751,344.359,569.831,344.503,569.904z"/>
		<path fill="#EE583C" d="M154.13,49.635c-0.32-0.394-0.49-0.605-0.49-0.605s0.167,0.213,0.482,0.612
			c0.058,0.076,0.126,0.163,0.195,0.251c0.01,0.004,0.02,0.008,0.03,0.012C154.269,49.809,154.193,49.716,154.13,49.635z"/>
		<path fill="#EE583C" d="M206.96,91.363c0.042-0.637,0.112-1.189,0.102-1.648c0.012-0.915,0.02-1.437,0.02-1.437
			s-0.023,0.522-0.063,1.435c-0.003,0.457-0.09,1.007-0.151,1.64c-0.014,0.145-0.046,0.305-0.068,0.457
			c0.03,0.064,0.055,0.126,0.085,0.189C206.914,91.784,206.947,91.564,206.96,91.363z"/>
		<path fill="#EE583C" d="M270.833,550.628c0,0-0.006-0.018-0.011-0.031c-0.001-0.002-0.002-0.003-0.003-0.005
			C270.826,550.609,270.833,550.628,270.833,550.628z"/>
		<path fill="#EE583C" d="M2.616,80.374c1.242,1.561,2.797,2.951,4.231,4.42c1.443,1.466,2.722,3.167,3.304,5.212
			c0.289,1.012,0.396,2.11,0.418,3.169c-0.007,1.144-0.162,2.173-0.483,3.248c-0.628,2.132-1.976,4.028-3.082,6.127
			c-0.552,1.051-1.027,2.17-1.333,3.347c-0.075,0.282-0.137,0.566-0.189,0.852l-0.159-0.077c0,0-0.095,0.203-0.274,0.583
			c-0.172,0.391-0.445,0.931-0.811,1.591c-0.378,0.661-0.869,1.456-1.535,2.278c-0.656,0.83-1.505,1.679-2.578,2.409
			c-0.04,0.027-0.085,0.05-0.125,0.077v0.976c0.2-0.115,0.405-0.227,0.594-0.351c1.167-0.765,2.097-1.664,2.81-2.534
			c0.726-0.864,1.253-1.687,1.665-2.38c0.073-0.126,0.137-0.241,0.202-0.357c-0.005,0.183-0.012,0.366-0.013,0.549
			c0,0.013,0.001,0.026,0.002,0.04l-0.194,0.014c0,0,0.027,0.333,0.077,0.957c0.04,0.617,0.115,1.526,0.126,2.676
			c0.004,1.147-0.036,2.538-0.444,4.055c-0.424,1.495-1.131,3.228-2.181,4.828c-0.688,1.013-1.617,1.918-2.643,2.821v1.053
			c1.263-1.053,2.457-2.131,3.333-3.389c0.609-0.875,1.047-1.733,1.432-2.583c0.385-0.844,0.708-1.678,0.934-2.491
			c0.087-0.312,0.149-0.612,0.209-0.911c0.315,2.452,0.595,4.899,0.443,7.36c-0.138,2.391-0.928,4.708-1.619,7.021
			c-0.705,2.313-1.446,4.63-1.776,7.031c-0.161,1.197-0.207,2.422,0.005,3.621c0.253,1.195,0.631,2.291,0.906,3.436
			c0.585,2.26,1.022,4.535,1.384,6.778c1.405,8.997,1.073,17.584,0.005,24.778c-1.083,7.208-2.879,13.054-4.486,16.985
			c-0.266,0.656-0.521,1.24-0.771,1.79v0.075c0.261-0.566,0.531-1.168,0.812-1.848c1.635-3.923,3.472-9.763,4.604-16.977
			c1.118-7.2,1.509-15.807,0.159-24.852c-0.349-2.257-0.771-4.539-1.347-6.824c-0.265-1.137-0.646-2.283-0.876-3.409
			c-0.194-1.141-0.145-2.326,0.021-3.495c0.338-2.345,1.086-4.642,1.807-6.949c0.705-2.307,1.524-4.642,1.687-7.123
			c0.222-3.309-0.301-6.556-0.67-9.761c0.016-0.359,0.025-0.703,0.027-1.022c0.002-1.189-0.063-2.114-0.096-2.747
			c-0.043-0.625-0.066-0.958-0.066-0.958l-0.192,0.014c0.006-0.645,0.044-1.295,0.125-1.936c0.147-0.299,0.229-0.466,0.229-0.466
			l-0.15-0.072c0.057-0.329,0.124-0.656,0.212-0.977c0.298-1.118,0.757-2.181,1.301-3.201c1.082-2.033,2.483-3.963,3.172-6.227
			c0.348-1.102,0.528-2.329,0.536-3.424c-0.014-1.176-0.12-2.299-0.424-3.404c-0.61-2.211-1.99-4.054-3.454-5.557
			c-1.472-1.526-2.953-2.863-4.153-4.391c-1.2-1.506-2.13-3.138-2.898-4.764C0.234,74.806,0.125,74.525,0,74.241v2.036
			C0.717,77.671,1.562,79.066,2.616,80.374z"/>
		<path fill="#EE583C" d="M44.99,7.702c-0.261,0.744-0.564,1.503-0.887,2.267c-0.319,0.763-0.675,1.543-0.953,2.355
			c-0.58,1.611-0.97,3.292-1.176,4.893c-0.088,0.802-0.152,1.583-0.146,2.327c-0.011,0.743,0.036,1.448,0.115,2.095
			c0.073,0.647,0.177,1.24,0.306,1.755c0.087,0.403,0.195,0.753,0.296,1.069c-1.154-0.992-2.302-1.983-3.406-3.006
			c-2.744-2.533-5.263-5.23-7.413-8.065c-2.155-2.83-3.956-5.782-5.355-8.727C25.628,3.097,25.002,1.536,24.471,0h-0.094
			c0.529,1.551,1.152,3.127,1.894,4.712c1.391,2.958,3.186,5.925,5.335,8.771c2.145,2.851,4.661,5.566,7.402,8.116
			c1.188,1.109,2.426,2.181,3.665,3.255c0.011,0.034,0.022,0.062,0.034,0.094c-0.224-0.011-0.449-0.019-0.68-0.005
			c-1.154,0.058-2.377,0.363-3.682,0.647c-0.652,0.14-1.329,0.272-2.024,0.323c-0.697,0.033-1.469,0.036-2.227,0.04
			c-1.533-0.001-3.147-0.069-4.779-0.37c-1.631-0.303-3.264-0.865-4.824-1.658c-1.569-0.786-3.064-1.759-4.378-2.963
			c-2.658-2.38-4.798-5.315-6.361-8.277c-1.577-2.965-2.571-5.969-3.161-8.59c-0.301-1.311-0.509-2.528-0.646-3.612
			C9.922,0.316,9.904,0.159,9.885,0H9.818c0.017,0.162,0.033,0.321,0.054,0.49c0.123,1.088,0.314,2.311,0.598,3.63
			c0.556,2.637,1.512,5.67,3.06,8.679c1.535,3.007,3.651,5.999,6.318,8.455c1.321,1.244,2.848,2.269,4.426,3.093
			c1.58,0.836,3.257,1.446,4.934,1.785c1.678,0.339,3.33,0.434,4.881,0.461c0.785,0.01,1.515,0.015,2.269-0.001
			c0.757-0.033,1.464-0.153,2.132-0.275c1.332-0.252,2.527-0.507,3.567-0.527c0.876-0.024,1.603,0.149,2.151,0.437
			c0.37,0.349,0.74,0.7,1.135,1.034c0.036,0.03,0.078,0.054,0.115,0.083c0.053,0.076,0.103,0.15,0.144,0.213
			c0.197,0.313,0.303,0.553,0.303,0.54l0.337-0.186c0.491,0.328,1,0.629,1.542,0.866c1.771,0.785,3.734,0.978,5.629,0.959
			c1.902-0.015,3.783-0.199,5.632-0.095c1.841,0.085,3.663,0.549,5.159,1.518c1.554,0.935,2.568,2.443,3.25,4.052
			c1.364,3.235,1.843,6.724,3.352,9.72c0.373,0.746,0.807,1.457,1.316,2.102c0.502,0.652,1.125,1.224,1.698,1.702
			c1.16,1.004,2.265,1.983,3.277,2.971c2.026,1.966,3.691,3.967,4.784,5.945c1.11,1.969,1.601,3.9,1.613,5.483
			c0.039,1.587-0.349,2.813-0.631,3.592c-0.111,0.32-0.23,0.574-0.325,0.776c-8-2.087-15.733-4.373-22.985-7.498
			c-8.757-3.658-17.229-7.603-25.817-10.541c-4.639-1.593-9.351-2.901-14.06-3.68c4.092-8.477-0.318-13.937-4.972-19.695
			c-2.781-3.44-5.656-6.997-7.042-11.471C6.195,9.883,6.146,4.946,6.608,0H5.603C5.14,5.02,5.199,10.047,6.707,14.913
			c1.443,4.657,4.38,8.291,7.22,11.804c4.681,5.79,8.753,10.84,4.712,18.903c-3.624-0.538-7.244-0.754-10.825-0.521
			c-2.132,0.144-4.241,0.421-6.282,0.913C1.02,46.112,0.509,46.247,0,46.392v2.199c0.652-0.176,1.305-0.351,1.992-0.47
			c1.076-0.237,2.173-0.402,3.281-0.528l-0.249,0.385c2.175,1.309,3.951,3.072,5.579,5.024c1.596,1.965,3.014,4.085,4.285,6.292
			c2.539,4.419,4.588,9.124,6.292,13.939c0.854,2.408,1.603,4.854,2.253,7.323c0.643,2.476,1.175,4.96,1.487,7.505
			c0.298,2.53,0.912,5.132,1.892,7.52c0.974,2.41,2.307,4.652,3.764,6.772c1.378,2.009,2.811,3.964,4.116,6l-0.221,0.084
			c0,0,0.146,0.383,0.42,1.102c0.231,0.708,0.468,1.722,0.628,3.13c0.251,2.783,0.015,6.897-1.375,11.571
			c-0.691,2.324-1.633,4.826-3.148,7.131c-0.744,1.135-1.768,2.166-2.722,3.317c-0.959,1.137-1.91,2.324-2.82,3.577
			c-1.832,2.5-3.424,5.289-4.879,8.178c-0.718,1.455-1.472,2.885-2.113,4.413c-0.635,1.531-1.048,3.176-1.208,4.826
			c-0.339,3.314,0.262,6.606-0.343,9.757c-0.139,0.786-0.35,1.552-0.593,2.304c-0.284,0.725-0.57,1.486-0.828,2.235
			c-0.267,0.744-0.421,1.538-0.624,2.297c-0.147,0.77-0.31,1.531-0.44,2.291c-0.517,3.04-0.813,6.004-1.067,8.813
			c-0.254,2.81-0.415,5.472-0.552,7.929c-0.257,4.916-0.357,9.017-0.388,11.887c-0.033,2.871,0.011,4.511,0.011,4.511
			s-0.028-1.641,0.031-4.51c0.059-2.87,0.198-6.968,0.501-11.879c0.161-2.454,0.347-5.113,0.627-7.917
			c0.28-2.802,0.604-5.759,1.148-8.779c0.136-0.755,0.305-1.508,0.458-2.271c0.208-0.746,0.357-1.504,0.632-2.247
			c0.264-0.745,0.546-1.472,0.852-2.234c0.257-0.768,0.48-1.552,0.63-2.356c0.647-3.235,0.073-6.564,0.44-9.778
			c0.174-1.613,0.583-3.178,1.211-4.659c0.637-1.481,1.416-2.928,2.14-4.361c1.476-2.863,3.073-5.597,4.902-8.045
			c0.909-1.227,1.861-2.392,2.821-3.509c0.942-1.119,1.986-2.143,2.806-3.359c1.609-2.403,2.587-4.945,3.32-7.318
			c1.465-4.764,1.755-8.975,1.52-11.901c-0.083-0.614-0.142-1.155-0.235-1.657c0.825,1.475,1.583,2.989,2.292,4.526
			c1.051,2.326,2.02,4.711,2.572,7.194c0.251,1.23,0.398,2.531,0.274,3.77c-0.11,1.255-0.519,2.471-1.176,3.554
			c-0.651,1.088-1.465,2.086-2.178,3.162c-0.719,1.07-1.323,2.233-1.714,3.468c-0.84,2.455-0.784,5.184,0.073,7.618
			c0.843,2.449,2.409,4.589,4.275,6.347c1.879,1.756,4.09,3.15,6.475,4.098l0.005,0.002l0.005-0.004
			c0.143-0.103,0.337-0.074,0.5-0.026c0.169,0.045,0.329,0.12,0.487,0.196c0.314,0.159,0.611,0.349,0.903,0.544
			c0.584,0.393,1.145,0.82,1.703,1.248l1.675,1.287c0.282,0.211,0.568,0.417,0.864,0.608c0.148,0.095,0.3,0.185,0.459,0.261
			c0.139,0.063,0.377,0.176,0.468-0.01c-0.091,0.185-0.328,0.072-0.467,0.008c-0.159-0.076-0.31-0.166-0.458-0.262
			c-0.295-0.191-0.58-0.399-0.862-0.61l-1.672-1.291c-0.557-0.43-1.117-0.859-1.701-1.253c-0.292-0.196-0.589-0.387-0.904-0.547
			c-0.159-0.076-0.319-0.153-0.49-0.198c-0.162-0.047-0.356-0.077-0.51,0.027c-2.373-0.968-4.565-2.379-6.419-4.143
			c-1.842-1.766-3.376-3.907-4.186-6.333c-0.824-2.412-0.852-5.091-0.006-7.493c0.395-1.21,0.995-2.342,1.715-3.393
			c0.713-1.057,1.537-2.046,2.215-3.156c0.685-1.104,1.128-2.375,1.252-3.675c0.079-0.648,0.053-1.308,0.023-1.958
			c-0.07-0.63-0.132-1.284-0.269-1.921c-0.541-2.538-1.496-4.946-2.533-7.299c-0.927-2.059-1.941-4.087-3.1-6.034
			c-0.006-0.015-0.01-0.034-0.016-0.048c-0.267-0.721-0.409-1.106-0.409-1.106l-0.223,0.085c-1.313-2.097-2.758-4.101-4.127-6.138
			c-1.428-2.119-2.712-4.327-3.641-6.688c-0.94-2.374-1.502-4.816-1.784-7.382c-0.296-2.552-0.824-5.1-1.457-7.593
			c-0.641-2.497-1.381-4.967-2.228-7.4c-1.689-4.866-3.725-9.623-6.273-14.122c-1.276-2.247-2.706-4.415-4.333-6.444
			c-0.834-0.998-1.698-1.978-2.659-2.869c-0.782-0.724-1.664-1.431-2.554-2.026c0.604-0.057,1.211-0.107,1.82-0.147
			c8.131-0.462,16.612,1.499,24.974,4.454c4.344,1.517,8.672,3.329,13.06,5.234c-0.051,0.21-0.107,0.43-0.193,0.69
			c-0.129,0.406-0.323,0.879-0.546,1.381c-0.018,0.034-0.033,0.061-0.052,0.098c-0.097,0.174-0.215,0.394-0.328,0.702
			c-0.016,0.038-0.033,0.084-0.049,0.123c-0.392,0.791-0.873,1.667-1.318,2.682c-0.48,1.09-0.837,2.279-1.198,3.57
			c-0.173,0.646-0.294,1.37-0.284,2.091c0.007,0.718,0.073,1.417,0.116,2.13c0.152,2.841,0.24,5.962,1.067,8.959
			c0.2,0.749,0.562,1.506,1.047,2.121c0.48,0.62,1.033,1.144,1.443,1.741c0.859,1.191,0.847,2.739,0.594,4.116
			c-0.217,1.416-0.629,2.719-1.176,3.912c-0.536,1.19-1.178,2.266-1.576,3.356c-0.413,1.086-0.502,2.17-0.425,3.1
			c0.059,0.935,0.26,1.732,0.443,2.374c0.161,0.651,0.371,1.136,0.483,1.476c0.121,0.337,0.185,0.517,0.185,0.517
			s-0.061-0.181-0.174-0.521c-0.105-0.342-0.305-0.831-0.452-1.484c-0.17-0.644-0.353-1.441-0.393-2.368
			c-0.057-0.922,0.052-1.982,0.479-3.039c0.411-1.062,1.072-2.119,1.64-3.313c0.575-1.183,1.032-2.539,1.277-3.953
			c0.287-1.387,0.35-3.064-0.568-4.399c-0.433-0.654-0.98-1.192-1.419-1.787c-0.444-0.596-0.742-1.247-0.926-1.978
			c-0.377-1.46-0.562-2.97-0.678-4.459c-0.119-1.492-0.13-2.961-0.189-4.406c-0.029-0.718-0.079-1.426-0.071-2.088
			c0.006-0.661,0.122-1.279,0.299-1.898c0.361-1.195,0.737-2.351,1.187-3.333c0.004,0.211,0.009,0.424,0.03,0.646
			c0.1,1.108,0.455,2.32,1.047,3.518c1.181,2.411,3.225,4.743,5.547,7.009c2.313,2.285,4.975,4.502,7.316,7.005
			c1.172,1.242,2.161,2.652,2.837,4.187c0.707,1.525,1.171,3.142,1.849,4.63c0.669,1.493,1.571,2.811,2.547,3.938
			c0.987,1.123,2.088,2.021,3.092,2.833c2.033,1.603,3.687,2.995,4.642,4.171c0.477,0.584,0.804,1.081,1.003,1.432
			c0.191,0.357,0.292,0.547,0.292,0.547s-0.098-0.192-0.282-0.553c-0.193-0.356-0.512-0.859-0.979-1.454
			c-0.936-1.196-2.574-2.627-4.576-4.264c-0.992-0.832-2.06-1.737-3.015-2.863c-0.945-1.132-1.804-2.439-2.434-3.915
			c-0.64-1.471-1.073-3.094-1.768-4.669c-0.668-1.595-1.664-3.063-2.837-4.355c-2.333-2.586-4.954-4.847-7.204-7.154
			c-2.26-2.284-4.207-4.609-5.269-6.89c-0.534-1.133-0.832-2.242-0.903-3.23c-0.073-0.988,0.047-1.852,0.268-2.525
			c0.084-0.349,0.215-0.627,0.318-0.874c0.089-0.245,0.209-0.463,0.313-0.641c0.197-0.354,0.302-0.542,0.302-0.542l-0.083-0.045
			c0.167-0.377,0.308-0.733,0.419-1.061c0.075-0.212,0.135-0.409,0.188-0.598c3.813,1.663,7.674,3.385,11.643,5.042
			c4.429,1.849,9.079,3.47,13.81,4.856c3.321,0.979,6.69,1.868,10.088,2.725c1.294,0.915,2.594,2.043,3.797,3.439
			c1.921,2.194,3.512,5.056,4.717,8.351c1.224,3.295,2.079,7.006,3.055,10.949c0.999,3.923,2.093,8.179,4.416,12.148
			c1.16,1.972,2.653,3.829,4.501,5.381c1.848,1.544,4.011,2.767,6.287,3.81c4.57,2.083,9.6,3.553,14.823,4.895
			c5.229,1.337,10.688,2.488,16.295,3.665c5.606,1.18,11.376,2.347,17.204,3.798c1.601,0.401,3.206,0.828,4.809,1.29
			c1.13,2.832,2.218,5.689,3.283,8.562c0.404,2.145,0.746,4.827,0.901,8.01c0.261,4.58,0.182,10.157-0.18,16.534
			c-0.361,6.379-1.042,13.556-1.865,21.376c-0.399,3.912-0.87,7.981-1.162,12.215c-0.153,2.124-0.091,4.279-0.122,6.468
			c-0.008,2.189-0.015,4.411-0.023,6.664c0.002,4.506,0.006,9.136,0.156,13.871c0.092,3.244,0.314,6.544,0.698,9.865
			c-0.436-0.922-0.997-1.875-1.737-2.806c-0.647-0.86-1.405-1.749-2.361-2.529c-0.944-0.781-2.055-1.44-3.239-2.039
			c-1.182-0.601-2.438-1.16-3.631-1.908c-1.206-0.744-2.244-1.737-3.191-2.93c-0.974-1.152-1.946-2.363-2.757-3.714
			c-0.808-1.351-1.421-2.855-1.767-4.456c-0.358-1.596-0.435-3.279-0.62-4.97c-0.192-1.692-0.41-3.401-0.691-5.114
			c-0.276-1.691-0.605-3.388-0.993-5.077l0.123-0.018c0,0-0.099-0.641-0.271-1.762c-0.156-1.119-0.489-2.72-0.317-4.647
			c0.078-0.962,0.271-1.995,0.51-3.08c0.239-1.086,0.512-2.227,0.849-3.392c0.339-1.163,0.742-2.352,1.277-3.505
			c0.263-0.574,0.585-1.134,1.028-1.591c0.433-0.47,0.955-0.854,1.456-1.268c0.502-0.411,0.976-0.885,1.295-1.459
			c0.32-0.572,0.504-1.206,0.59-1.842c0.158-1.276,0.103-2.541-0.064-3.748c-0.32-2.423-1.454-4.493-1.474-6.458
			c-0.026-0.971,0.164-1.854,0.409-2.601c0.248-0.749,0.53-1.379,0.788-1.884c0.513-1.011,0.862-1.559,0.862-1.559
			s-0.352,0.546-0.871,1.554c-0.261,0.503-0.547,1.132-0.8,1.881c-0.251,0.747-0.447,1.633-0.427,2.61
			c0.01,0.979,0.28,2.013,0.608,3.074c0.327,1.064,0.66,2.192,0.825,3.394c0.159,1.196,0.205,2.466,0.041,3.721
			c-0.089,0.627-0.274,1.246-0.588,1.799c-0.313,0.556-0.775,1.012-1.275,1.417c-0.499,0.408-1.03,0.792-1.477,1.271
			c-0.462,0.473-0.794,1.042-1.064,1.623c-0.547,1.16-0.96,2.353-1.308,3.52c-0.346,1.168-0.628,2.311-0.873,3.398
			c-0.247,1.088-0.446,2.129-0.531,3.105c-0.184,1.962,0.146,3.586,0.295,4.702c0.025,0.167,0.047,0.32,0.069,0.465
			c-0.324-1.304-0.674-2.604-1.077-3.889c-1.066-3.363-2.44-6.631-4.105-9.68c-0.728-1.32-1.526-2.584-2.363-3.806l0.042-0.019
			c0,0-0.279-0.658-0.835-1.789c-0.551-1.13-1.402-2.708-2.392-4.615c-0.974-1.91-2.112-4.161-2.838-6.744
			c-0.37-1.288-0.559-2.663-0.664-4.069c-0.113-1.404-0.151-2.837-0.162-4.269c-0.017-2.865,0.089-5.732,0.044-8.421
			c-0.016-1.343-0.005-2.645-0.126-3.874c-0.112-1.227-0.383-2.381-0.843-3.356c-0.459-0.979-1.102-1.748-1.713-2.369
			c-0.606-0.629-1.156-1.157-1.616-1.583c-0.922-0.851-1.482-1.3-1.482-1.3s0.558,0.451,1.475,1.306
			c0.458,0.428,1.006,0.958,1.609,1.589c0.608,0.624,1.245,1.392,1.697,2.369c0.454,0.973,0.718,2.123,0.824,3.347
			c0.115,1.225,0.098,2.526,0.108,3.87c0.032,2.687-0.087,5.552-0.083,8.421c0.004,1.434,0.036,2.869,0.143,4.279
			c0.098,1.408,0.283,2.798,0.651,4.097c0.721,2.605,1.855,4.868,2.823,6.785c0.984,1.914,1.828,3.493,2.373,4.621
			c0.194,0.398,0.352,0.735,0.478,1.008c-0.95-1.334-1.955-2.607-3.005-3.804c-4.374-4.982-9.492-8.598-14.092-11.173
			c-2.303-1.296-4.48-2.366-6.447-3.227c-0.979-0.441-1.903-0.835-2.769-1.172c-0.859-0.353-1.653-0.666-2.379-0.925
			c-1.441-0.547-2.589-0.933-3.373-1.193c-0.782-0.264-1.199-0.405-1.199-0.405s0.417,0.142,1.198,0.409
			c0.783,0.263,1.929,0.653,3.368,1.205c0.725,0.261,1.517,0.577,2.375,0.933c0.864,0.341,1.786,0.738,2.763,1.182
			c1.962,0.868,4.134,1.945,6.43,3.249c4.586,2.589,9.682,6.22,14.024,11.203c2.166,2.485,4.146,5.282,5.807,8.319
			c1.648,3.044,3.005,6.305,4.055,9.661c1.039,3.36,1.796,6.804,2.341,10.222c0.274,1.71,0.485,3.415,0.67,5.1
			c0.18,1.685,0.247,3.372,0.601,5.007c0.342,1.631,0.96,3.176,1.776,4.557c0.819,1.382,1.795,2.61,2.767,3.774
			c0.925,1.185,2.032,2.263,3.256,3.021c1.219,0.773,2.482,1.344,3.65,1.946c1.169,0.599,2.244,1.248,3.152,2.008
			c0.908,0.749,1.641,1.613,2.278,2.471c1.199,1.533,1.908,3.071,2.328,4.446c0.121,0.891,0.241,1.782,0.389,2.675
			c0.812,4.862,1.861,9.751,2.872,14.706c1.058,4.952,2.149,9.962,3.439,14.968c2.509,10.027,5.588,20.086,9.145,29.97
			c3.547,9.89,7.601,19.59,11.844,29.014c1.081,2.348,2.157,4.686,3.228,7.013c1.099,2.3,2.119,4.64,3.383,6.902
			c2.504,4.499,5.645,8.524,9.02,12.166c6.791,7.278,14.446,13.084,21.483,18.667c2.405,1.915,4.74,3.8,6.922,5.741
			c-0.145,0.267-0.315,0.581-0.517,0.954c-0.667,1.242-1.665,3.161-2.761,5.621c-1.073,2.483-2.257,5.59-3.095,9.289
			c-0.851,3.694-1.321,7.945-1.4,12.542c-0.086,4.601,0.177,9.552,0.624,14.756c0.254,2.598,0.501,5.268,0.828,7.984
			c0.077,0.68,0.155,1.363,0.234,2.05c0.086,0.74,0.198,1.384,0.296,2.086c0.237,1.391,0.536,2.838,0.897,4.218
			c1.429,5.584,3.624,11.083,6.071,16.539c2.472,5.449,5.227,10.856,8.108,16.188c2.174,4.024,4.411,8.01,6.663,11.939l-0.164,0.09
			c0,0,0.142,0.254,0.408,0.73c0.275,0.486,0.622,1.149,1.057,2.06c0.867,1.804,1.982,4.463,2.995,7.768
			c0.506,1.651,0.991,3.462,1.387,5.396c0.186,0.968,0.369,1.966,0.484,2.988c0.126,1.038,0.256,2.119,0.425,3.204
			c0.662,4.341,1.739,8.932,3.432,13.31c1.728,4.348,3.746,8.537,5.039,12.69c0.655,2.069,1.134,4.12,1.434,6.085
			c0.275,1.976,0.406,3.861,0.559,5.6c0.291,3.478,0.588,6.379,0.987,8.38c0.182,1.003,0.406,1.774,0.565,2.296
			c0.159,0.421,0.252,0.67,0.282,0.747c0.001,0.002,0.002,0.003,0.003,0.005c-0.025-0.069-0.114-0.321-0.269-0.757
			c-0.15-0.524-0.358-1.297-0.52-2.302c-0.361-2.004-0.601-4.904-0.826-8.386c-0.12-1.74-0.215-3.633-0.454-5.625
			c-0.259-1.996-0.695-4.075-1.31-6.18c-1.211-4.22-3.15-8.49-4.76-12.826c-1.569-4.348-2.529-8.896-3.085-13.19
			c-0.143-1.075-0.245-2.127-0.35-3.176c-0.103-1.067-0.273-2.095-0.448-3.093c-0.372-1.991-0.837-3.845-1.325-5.539
			c-0.152-0.526-0.306-1.031-0.462-1.526c2.021,3.443,4.026,6.832,5.98,10.145c2.885,4.883,5.663,9.609,8.247,14.118
			c1.292,2.253,2.535,4.459,3.713,6.594c1.166,2.147,2.141,4.285,2.961,6.397c1.653,4.215,2.749,8.235,3.888,11.744
			c1.113,3.516,2.321,6.523,3.653,8.819c1.319,2.305,2.704,3.891,3.711,4.885c0.511,0.493,0.91,0.861,1.196,1.092
			c0.279,0.238,0.422,0.361,0.422,0.361s-0.142-0.125-0.418-0.366c-0.282-0.234-0.677-0.607-1.181-1.106
			c-0.993-1.005-2.354-2.605-3.639-4.917c-1.299-2.304-2.463-5.311-3.53-8.835c-1.093-3.516-2.138-7.553-3.747-11.813
			c-0.795-2.128-1.759-4.312-2.9-6.479c-1.156-2.165-2.363-4.383-3.626-6.659c-2.521-4.55-5.234-9.318-8.048-14.243
			c-2.901-5.083-5.915-10.335-8.921-15.698c-0.079-0.178-0.159-0.358-0.235-0.523c-0.426-0.933-0.81-1.695-1.065-2.162
			c-0.258-0.48-0.396-0.737-0.396-0.737l-0.164,0.09c-2.195-3.958-4.371-7.97-6.482-12.016c-2.794-5.354-5.459-10.774-7.831-16.209
			c-2.347-5.438-4.433-10.903-5.739-16.338c-0.671-2.704-1.042-5.373-1.252-8.119c-0.273-2.71-0.466-5.364-0.667-7.946
			c-0.342-5.164-0.503-10.048-0.331-14.52c0.165-4.473,0.699-8.522,1.572-11.998c0.861-3.481,2.033-6.388,3.104-8.739
			c1.107-2.354,2.063-4.112,2.762-5.354c0.06-0.106,0.115-0.203,0.17-0.3c0.225,0.219,0.464,0.431,0.683,0.651
			c2.904,2.964,5.558,6.098,8.136,9.061c5.138,5.958,10.049,11.362,14.99,15.593c1.702,1.476,3.401,2.8,5.079,3.991
			c0.205,3.049,0.679,6.45,1.144,10.145c0.149,1.239,0.289,2.512,0.392,3.818c0.108,1.336,0.192,2.696,0.331,4.119
			c0.252,2.846,0.564,5.787,0.894,8.875c1.34,12.33,3.075,26.679,5.003,42.048c0.966,7.689,1.978,15.617,3.185,23.682
			c0.616,4.032,1.325,8.103,2.331,12.138c0.999,4.035,2.317,8.021,3.981,11.852c3.343,7.647,7.829,14.754,12.792,21.202
			c2.229,2.977,4.333,5.985,5.86,9.242c0.032,0.172,0.061,0.339,0.093,0.512l0.13-0.025c0.059,0.133,0.125,0.263,0.182,0.396
			c0.022,0.052,0.04,0.104,0.062,0.156c0.073,0.35,0.209,0.863,0.313,1.498c0.129,0.647,0.248,1.444,0.368,2.365
			c0.105,0.921,0.197,1.964,0.241,3.106c0.027,1.141,0.041,2.381-0.05,3.69c-0.084,1.308-0.218,2.687-0.453,4.101
			c-0.453,2.83-1.217,5.807-2.207,8.712c-0.979,2.91-2.164,5.751-3.263,8.423c-0.547,1.338-1.069,2.636-1.496,3.896
			c-0.412,1.266-0.742,2.474-0.984,3.61c-0.47,2.275-0.56,4.205-0.73,5.541c-0.157,1.339-0.246,2.104-0.246,2.104
			s0.108-0.763,0.297-2.097c0.203-1.331,0.341-3.263,0.862-5.506c0.265-1.118,0.63-2.319,1.061-3.561
			c0.448-1.24,0.992-2.523,1.563-3.848c0.59-1.359,1.204-2.767,1.804-4.208c-0.173,1.099-0.291,2.481-0.279,4.065
			c0.002,2.094,0.217,4.527,0.488,7.122c0.133,1.298,0.276,2.638,0.371,4.003c0.115,1.366,0.067,2.75-0.002,4.144
			c-0.021,0.695-0.021,1.399,0.097,2.088c0.111,0.689,0.328,1.351,0.57,1.992c0.256,0.635,0.476,1.278,0.712,1.907
			c0.182,0.645,0.407,1.27,0.543,1.908c0.331,1.262,0.5,2.514,0.639,3.701c0.097,1.191,0.154,2.321,0.121,3.365
			c-0.035,2.088-0.278,3.815-0.417,5.024c-0.165,1.208-0.164,1.905-0.164,1.905s0.002-0.698,0.17-1.905
			c0.143-1.208,0.392-2.935,0.433-5.024c0.036-1.044-0.017-2.176-0.11-3.368c-0.135-1.188-0.301-2.443-0.629-3.708
			c-0.134-0.64-0.358-1.267-0.538-1.915c-0.232-0.63-0.467-1.268-0.704-1.911c-0.235-0.641-0.444-1.301-0.547-1.983
			c-0.11-0.681-0.103-1.378-0.075-2.071c0.085-1.385,0.14-2.787,0.033-4.156c-0.086-1.369-0.221-2.712-0.345-4.01
			c-0.255-2.596-0.453-5.023-0.442-7.106c-0.002-2.083,0.217-3.809,0.488-4.986c0.025-0.107,0.049-0.185,0.073-0.282
			c0.396-0.981,0.783-1.971,1.143-2.976c1.053-2.907,1.885-5.903,2.4-8.768c0.266-1.431,0.429-2.832,0.541-4.163
			c0.118-1.332,0.128-2.598,0.123-3.766c-0.011-0.567-0.035-1.108-0.065-1.626c0.006,0.023,0.012,0.045,0.018,0.068
			c0.393,1.862,0.66,3.872,1.33,5.75c0.411,1.218,0.965,2.381,1.624,3.472c0.18,0.527,0.369,1.091,0.545,1.723
			c0.112,0.385,0.229,0.786,0.35,1.201c0.096,0.421,0.196,0.857,0.299,1.304c0.225,0.89,0.333,1.854,0.511,2.834
			c0.123,0.991,0.239,2.014,0.285,3.061c0.045,0.522,0.059,1.049,0.052,1.579c-0.007,0.53,0.027,1.061-0.016,1.593l-0.068,1.593
			c-0.051,0.528-0.102,1.054-0.152,1.576c-0.119,1.041-0.252,2.068-0.427,3.055c-0.183,0.985-0.345,1.942-0.555,2.839
			c-0.179,0.904-0.41,1.746-0.608,2.527c-0.193,0.783-0.412,1.489-0.576,2.126c-0.166,0.636-0.335,1.183-0.475,1.634
			c-0.265,0.908-0.416,1.427-0.416,1.427s0.218-0.495,0.599-1.361c0.186-0.435,0.413-0.964,0.645-1.582
			c0.233-0.617,0.528-1.304,0.762-2.083c0.25-0.774,0.537-1.608,0.777-2.511c0.269-0.895,0.506-1.852,0.712-2.852
			c0.203-1,0.398-2.041,0.521-3.108c0.057-0.534,0.115-1.073,0.173-1.614l0.065-1.223c0.099,0.252,0.198,0.535,0.287,0.864
			c0.222,0.734,0.35,1.668,0.683,2.71c0.325,1.045,1.051,2.125,2.122,2.935c1.073,0.793,2.26,1.599,3.219,2.779
			c0.973,1.158,1.682,2.61,2.531,4.033c0.423,0.712,0.846,1.448,1.391,2.114c0.542,0.669,1.175,1.266,1.849,1.821
			c1.346,1.11,2.857,2.051,4.141,3.265c0.638,0.606,1.225,1.278,1.663,2.038c0.372,0.792,0.633,1.636,0.895,2.464
			c0.512,1.664,0.956,3.319,1.377,4.922c0.838,3.209,1.567,6.217,2.192,8.795c0.625,2.578,1.145,4.727,1.51,6.231
			c0.367,1.504,0.617,2.352,0.617,2.352s-0.248-0.849-0.612-2.354c-0.361-1.505-0.878-3.655-1.497-6.234
			c-0.62-2.58-1.343-5.59-2.174-8.8c-0.418-1.605-0.859-3.261-1.367-4.927c-0.261-0.831-0.518-1.671-0.895-2.475
			c-0.439-0.768-1.023-1.448-1.661-2.062c-1.284-1.229-2.791-2.181-4.123-3.294c-0.667-0.555-1.292-1.154-1.82-1.815
			c-0.533-0.659-0.95-1.395-1.368-2.109c-0.838-1.424-1.538-2.885-2.52-4.071c-0.961-1.202-2.178-2.04-3.226-2.825
			c-1.044-0.803-1.726-1.836-2.037-2.851c-0.317-1.015-0.442-1.955-0.662-2.705c-0.148-0.562-0.331-1.019-0.489-1.373
			c0.022-0.493-0.005-0.987-0.003-1.479c0-0.545-0.02-1.087-0.072-1.624c-0.052-1.077-0.227-2.125-0.38-3.138
			c-0.201-1.004-0.389-1.979-0.674-2.873c-0.133-0.449-0.263-0.886-0.389-1.308c-0.138-0.383-0.271-0.751-0.4-1.108
			c0.02,0.025,0.037,0.054,0.057,0.079c1.2,1.543,2.626,2.847,4.083,4.029c2.93,2.348,5.907,4.421,8.434,6.881
			c1.27,1.206,2.401,2.565,3.798,3.659c1.36,1.106,2.917,1.973,4.573,2.425c3.367,0.928,6.65,0.055,9.677,0.326
			c1.524,0.096,2.983,0.475,4.33,1.036c1.344,0.573,2.564,1.344,3.68,2.186c1.087,0.865,2.145,1.788,3.294,2.498
			c1.137,0.726,2.33,1.287,3.521,1.718c2.39,0.863,4.741,1.198,6.864,1.653c2.131,0.432,4.058,0.969,5.743,1.61
			c1.482,0.57,2.768,1.189,3.891,1.796c-0.043-0.055-0.087-0.11-0.131-0.165c-1.079-0.591-2.306-1.193-3.714-1.753
			c-1.685-0.663-3.617-1.226-5.749-1.683c-2.124-0.48-4.464-0.843-6.808-1.721c-1.169-0.439-2.333-1.003-3.443-1.729
			c-1.122-0.711-2.132-1.615-3.242-2.519c-1.125-0.869-2.362-1.672-3.74-2.279c-1.379-0.594-2.891-1.005-4.459-1.122
			c-3.128-0.301-6.4,0.51-9.557-0.416c-1.563-0.447-3.028-1.281-4.327-2.362c-1.316-1.049-2.427-2.409-3.708-3.666
			c-2.076-2.077-4.462-3.901-6.824-5.782c0.443,0.242,0.911,0.483,1.436,0.703c0.837,0.366,1.788,0.691,2.837,0.827
			c1.046,0.158,2.18,0.049,3.284-0.257c1.103-0.316,2.173-0.806,3.369-0.848c1.181-0.095,2.392-0.005,3.601,0.063
			c1.207,0.072,2.436,0.112,3.621-0.075c1.186-0.173,2.327-0.452,3.454-0.577c1.122-0.13,2.239-0.066,3.215,0.283
			c0.979,0.359,1.809,0.896,2.539,1.436c0.731,0.539,1.384,1.059,2.009,1.455c0.622,0.401,1.214,0.669,1.719,0.829
			c0.508,0.154,0.924,0.215,1.206,0.232c0.284,0.017,0.435,0.026,0.435,0.026s-0.151-0.01-0.434-0.03
			c-0.282-0.02-0.697-0.084-1.203-0.241c-0.503-0.164-1.091-0.435-1.708-0.841c-0.62-0.4-1.269-0.924-1.996-1.47
			c-0.724-0.544-1.563-1.096-2.541-1.463c-0.99-0.363-2.119-0.435-3.252-0.313c-1.135,0.116-2.283,0.387-3.46,0.55
			c-1.178,0.176-2.388,0.127-3.596,0.045c-1.207-0.077-2.423-0.178-3.624-0.091c-1.218,0.032-2.335,0.53-3.409,0.834
			c-1.085,0.295-2.182,0.396-3.201,0.239c-1.021-0.137-1.953-0.458-2.776-0.823c-0.83-0.352-1.556-0.759-2.184-1.138
			c-0.228-0.128-0.423-0.258-0.621-0.388c-0.092-0.075-0.186-0.147-0.277-0.223c-1.417-1.182-2.771-2.46-3.888-3.938
			c-1.126-1.47-1.99-3.144-2.57-4.938c-0.612-1.787-0.834-3.675-1.221-5.662c-0.435-1.948-1.006-3.886-1.77-5.768
			c-0.023-0.056-0.05-0.11-0.073-0.166l0.146-0.028c-0.108-0.569-0.208-1.126-0.307-1.682c0.216,0.169,0.414,0.338,0.644,0.506
			c2.054,1.525,4.646,2.997,7.386,4.52c1.36,0.745,2.482,1.883,3.539,3.148c1.041,1.266,2.17,2.596,3.492,3.652
			c0.647,0.544,1.291,1.102,2.039,1.542c0.751,0.443,1.566,0.693,2.343,0.968c1.562,0.536,3.08,1.145,4.593,1.614
			c1.508,0.478,2.997,0.861,4.438,1.055c1.447,0.202,2.831,0.044,4.083-0.035c1.258-0.093,2.413-0.159,3.437-0.123
			c1.024,0.03,1.91,0.166,2.624,0.339c0.419,0.111,0.771,0.231,1.067,0.348c-0.002-0.007-0.005-0.014-0.007-0.02
			c-0.293-0.119-0.64-0.243-1.052-0.358c-0.714-0.183-1.602-0.332-2.629-0.376c-1.027-0.049-2.187,0.001-3.447,0.077
			c-1.26,0.061-2.626,0.202-4.052-0.021c-1.423-0.221-2.893-0.63-4.382-1.134c-1.493-0.496-2.992-1.132-4.554-1.703
			c-0.776-0.292-1.566-0.554-2.255-0.981c-0.692-0.425-1.319-0.986-1.946-1.537c-1.294-1.079-2.328-2.354-3.366-3.664
			c-1.032-1.292-2.218-2.543-3.626-3.35c-2.741-1.599-5.253-3.097-7.228-4.626c-0.49-0.374-0.943-0.748-1.363-1.117
			c-3.674-21.618-0.911-33.01,0.504-37.001c0.459-1.297,1.233-2.472,2.01-3.607c0.024,0.986,0.051,2.286,0.272,3.836
			c0.131,0.873,0.344,1.816,0.692,2.771c0.346,0.955,0.827,1.911,1.384,2.854c0.281,0.472,0.594,0.924,0.777,1.41
			c0.198,0.495,0.313,1.034,0.39,1.583c0.145,1.105,0.118,2.257,0.082,3.41c-0.035,1.154-0.089,2.318,0.003,3.469
			c0.077,1.153,0.4,2.29,0.992,3.232c0.577,0.949,1.355,1.697,2.129,2.324c0.776,0.63,1.551,1.162,2.221,1.707
			c0.673,0.54,1.238,1.102,1.628,1.684c0.391,0.581,0.596,1.169,0.693,1.662c0.1,0.495,0.102,0.895,0.098,1.165
			c-0.013,0.271-0.021,0.415-0.021,0.415s0.011-0.144,0.031-0.415c0.01-0.27,0.019-0.671-0.07-1.172
			c-0.086-0.498-0.278-1.1-0.662-1.699c-0.382-0.601-0.942-1.185-1.608-1.746c-0.663-0.566-1.426-1.117-2.178-1.758
			c-0.751-0.638-1.489-1.387-2.019-2.309c-0.541-0.915-0.827-1.997-0.887-3.115c-0.072-1.121-0.001-2.272,0.053-3.428
			c0.053-1.155,0.102-2.324-0.03-3.483c-0.071-0.577-0.184-1.153-0.391-1.699c-0.207-0.564-0.523-1.029-0.784-1.493
			c-0.527-0.934-0.972-1.868-1.285-2.789c-0.314-0.92-0.499-1.823-0.608-2.667c-0.207-1.691-0.182-3.135-0.191-4.141
			c0.002-0.245,0.003-0.462,0.004-0.655c0.647-0.962,1.265-1.96,1.669-3.043c0.681-1.823,1.247-4.852,1.267-7.735
			c0.309,0.589,0.637,1.167,0.994,1.727c1.32,2.146,2.607,4.271,3.855,6.37c5.005,8.396,9.304,16.45,12.662,23.515
			c3.36,7.065,5.895,13.078,7.666,17.287c1.75,4.218,2.75,6.629,2.75,6.629s-0.956-2.428-2.63-6.678
			c-1.695-4.241-4.122-10.3-7.359-17.437c-3.235-7.137-7.4-15.291-12.265-23.796c-1.215-2.13-2.466-4.282-3.746-6.449
			c-0.891-1.451-1.587-3.023-2.23-4.641c-0.118-0.569-0.271-1.104-0.469-1.584l-0.125,0.052c-0.086-0.229-0.174-0.456-0.26-0.686
			c-1.741-4.804-3.236-9.799-4.686-14.802c-2.869-10.02-5.464-20.126-7.877-29.606c-1.206-4.743-2.372-9.329-3.478-13.677
			c-0.561-2.175-1.112-4.289-1.685-6.34c-0.149-0.515-0.297-1.025-0.443-1.531c-0.164-0.524-0.346-1.105-0.526-1.552
			c-0.422-0.95-0.837-1.882-1.242-2.794c-1.296-2.885-2.559-5.554-3.722-7.978c0.496,0.084,0.973,0.159,1.405,0.216
			c0.646,0.074,1.217,0.14,1.71,0.197c0.468,0.027,0.861,0.05,1.178,0.069c0.634,0.037,0.961,0.056,0.961,0.056l0.008-0.156
			c1.099,1.462,2.153,2.935,3.156,4.418c4.241,6.243,7.698,12.55,10.722,18.579c5.916,11.876,10.166,22.697,13.541,31.695
			c-0.624-2.474-1.236-4.953-1.83-7.44c-2.776-7.459-6.136-15.85-10.464-24.869c-2.973-6.104-6.384-12.503-10.608-18.88
			c-1.359-2.063-2.825-4.116-4.376-6.149l0.01-0.194c0,0-0.065-0.003-0.164-0.008c-2.865-3.738-6.055-7.399-9.561-10.909
			c-0.063-0.338-0.122-0.654-0.175-0.933c-0.141-0.766-0.241-1.301-0.294-1.591c0.077-0.55,0.29-2.075,0.63-4.506
			c0.393-3.125,0.991-7.83,0.505-13.809c-0.238-2.981-0.748-6.263-1.631-9.747c-0.43-1.746-0.99-3.527-1.6-5.363
			c-0.334-0.907-0.673-1.83-1.019-2.77c-0.366-0.916-0.738-1.848-1.116-2.795c-1.551-3.8-3.314-7.76-5.218-11.911
			c-1.903-4.147-3.918-8.477-5.811-13.068c-0.942-2.298-1.849-4.663-2.723-7.092c-0.851-2.428-1.685-4.95-2.517-7.508
			c-1.664-5.115-3.331-10.426-4.962-15.909c-3.302-10.965-6.379-22.611-9.655-34.71c-1.769-6.091-4.314-11.953-6.66-17.921
			c-2.37-5.965-4.554-12.08-6.608-18.301c-2.04-6.218-3.961-12.564-6.075-18.867c-2.093-6.311-4.326-12.608-6.744-18.836
			c-4.873-12.429-10.49-24.642-17.656-35.715c-3.555-5.545-7.556-10.753-11.977-15.472c-4.469-4.662-9.37-8.863-14.794-12.064
			c-2.664-1.695-5.592-2.893-8.517-3.86c-1.1-0.364-2.202-0.694-3.304-1.012c-0.747-1.834-1.507-3.66-2.303-5.469
			c-0.876-2.005-1.797-3.994-2.75-5.967c0.444,0.031,1.054,0.073,1.823,0.127c0.855-0.01,1.915,0,3.106-0.089
			c0.593-0.071,1.224-0.147,1.889-0.227c0.661-0.102,1.345-0.288,2.063-0.439c0.722-0.144,1.432-0.451,2.188-0.683
			c0.752-0.249,1.478-0.641,2.251-0.971c0.736-0.405,1.498-0.818,2.235-1.299c0.717-0.513,1.48-0.997,2.162-1.607
			c1.435-1.136,2.727-2.52,3.98-3.957c0.425-0.505,0.825-1.037,1.23-1.565l0.158,0.118c0,0,0.16-0.218,0.46-0.628
			c0.279-0.406,0.729-0.947,1.221-1.719c0.024-0.022,0.102-0.094,0.255-0.236c0.09-0.083,0.201-0.186,0.331-0.307
			c0.128-0.087,0.276-0.187,0.442-0.299c0.335-0.218,0.809-0.461,1.376-0.647c0.566-0.2,1.245-0.338,1.998-0.437
			c1.514-0.182,3.331-0.146,5.287-0.063c1.954,0.066,4.069,0.192,6.178-0.085c1.05-0.143,2.102-0.368,3.07-0.794
			c0.967-0.424,1.828-1.034,2.518-1.759c0.693-0.729,1.168-1.581,1.545-2.404c0.185-0.414,0.307-0.84,0.456-1.239
			c0.117-0.409,0.203-0.811,0.3-1.193c0.098-0.529,0.177-1.018,0.238-1.485c-0.03-0.063-0.054-0.125-0.085-0.189
			c-0.075,0.512-0.18,1.053-0.306,1.64c-0.107,0.375-0.204,0.77-0.331,1.169c-0.159,0.388-0.29,0.802-0.483,1.202
			c-0.393,0.793-0.878,1.603-1.562,2.28c-0.682,0.673-1.515,1.227-2.447,1.603c-0.933,0.378-1.951,0.565-2.971,0.672
			c-2.051,0.208-4.132,0.024-6.085-0.101c-1.954-0.141-3.805-0.237-5.413-0.093c-0.803,0.081-1.543,0.208-2.186,0.412
			c-0.356,0.107-0.671,0.232-0.961,0.365c0.088-0.165,0.174-0.335,0.26-0.51c1.7-2.708,3.253-5.467,4.815-8.017
			c0.94-1.536,1.885-3.001,2.899-4.3c0.485-0.668,1.034-1.251,1.542-1.837c0.561-0.531,1.073-1.083,1.661-1.496
			c0.545-0.473,1.162-0.782,1.721-1.121c0.295-0.138,0.596-0.244,0.882-0.363c0.144-0.058,0.286-0.115,0.425-0.171
			c0.147-0.033,0.291-0.066,0.433-0.098c0.285-0.063,0.561-0.123,0.827-0.182c0.268-0.049,0.534-0.035,0.785-0.054
			c0.253-0.012,0.495-0.023,0.727-0.034c0.231,0.015,0.45,0.05,0.659,0.071c0.107,0.007,0.201,0.022,0.301,0.033
			c-0.009-0.014-0.017-0.028-0.026-0.042c-0.091-0.011-0.174-0.026-0.271-0.034c-0.209-0.025-0.429-0.063-0.661-0.082
			c-0.233,0.007-0.477,0.014-0.732,0.022c-0.254,0.016-0.522-0.003-0.793,0.042c-0.27,0.055-0.549,0.111-0.838,0.17
			c-0.144,0.03-0.291,0.061-0.44,0.092c-0.142,0.054-0.286,0.109-0.433,0.165c-0.291,0.116-0.598,0.219-0.9,0.354
			c-0.571,0.332-1.203,0.638-1.762,1.106c-0.604,0.41-1.129,0.958-1.706,1.486c-0.521,0.582-1.086,1.163-1.585,1.827
			c-1.043,1.293-2.017,2.75-2.985,4.275c-1.151,1.813-2.299,3.731-3.49,5.652c0.014-0.041,0.027-0.08,0.042-0.121
			c0.279-0.706,0.449-1.485,0.622-2.299c0.227-0.803,0.227-1.681,0.348-2.567c0.022-0.447,0.002-0.903,0.004-1.365
			c0.008-0.463-0.008-0.931-0.08-1.402c-0.136-1.901-0.694-3.843-1.42-5.762c-0.723-1.931-1.775-3.785-2.923-5.597
			c-1.147-1.819-2.503-3.529-3.89-5.202c-2.809-3.323-5.908-6.37-8.867-9.155c-2.977-2.764-5.755-5.344-8.136-7.556
			c-1.182-1.114-2.249-2.152-3.175-3.093c-0.927-0.939-1.72-1.774-2.343-2.486c-0.507-0.56-0.906-1.033-1.208-1.406
			c-0.01-0.004-0.02-0.008-0.03-0.012c0.299,0.381,0.696,0.867,1.205,1.446c0.614,0.722,1.396,1.569,2.31,2.522
			c0.912,0.955,1.966,2.01,3.133,3.141c2.349,2.245,5.089,4.865,8.026,7.672c2.915,2.823,5.962,5.907,8.701,9.246
			c1.352,1.68,2.67,3.393,3.774,5.201c1.105,1.801,2.111,3.635,2.785,5.524c0.679,1.878,1.191,3.762,1.293,5.586
			c0.064,0.453,0.072,0.901,0.057,1.344c-0.009,0.442,0.006,0.878-0.022,1.305c-0.131,0.845-0.138,1.681-0.368,2.445
			c-0.177,0.774-0.347,1.515-0.625,2.186c-0.123,0.34-0.242,0.672-0.358,0.994c-0.123,0.319-0.29,0.611-0.425,0.904
			c-0.498,1.13-1.09,2.018-1.56,2.779c-0.014,0.013-0.04,0.034-0.04,0.034l0.011,0.012c-0.015,0.024-0.032,0.051-0.047,0.075
			c-0.5,0.779-1,1.357-1.29,1.767c-0.306,0.405-0.469,0.621-0.469,0.621l0.194,0.144c-0.405,0.511-0.806,1.026-1.229,1.513
			c-1.257,1.394-2.544,2.729-3.96,3.812c-0.674,0.585-1.423,1.041-2.125,1.528c-0.722,0.455-1.466,0.842-2.182,1.222
			c-0.753,0.305-1.456,0.673-2.186,0.9c-0.734,0.21-1.419,0.497-2.117,0.623c-0.696,0.134-1.354,0.303-1.993,0.391
			c-0.642,0.066-1.252,0.129-1.824,0.189c-1.146,0.066-2.138,0.041-2.964,0.04c-1.192-0.102-2.012-0.173-2.392-0.205
			c-3.703-7.509-8.076-14.662-13.768-20.723c-7.38-8.064-17.136-13.197-26.936-16.818c-9.849-3.645-19.867-6.062-29.555-8.573
			c-1.292-0.324-2.576-0.651-3.855-0.981c0.079-0.179,0.17-0.396,0.268-0.679c0.309-0.882,0.711-2.217,0.65-3.969
			c-0.034-1.741-0.604-3.831-1.797-5.885c-1.177-2.067-2.919-4.102-5.002-6.076c-1.04-0.991-2.17-1.968-3.345-2.96
			c-0.611-0.499-1.149-0.986-1.626-1.587c-0.482-0.595-0.9-1.261-1.265-1.97c-1.488-2.851-2.009-6.316-3.449-9.638
			c-0.711-1.643-1.845-3.275-3.48-4.228c-1.609-1.016-3.513-1.464-5.4-1.53c-1.892-0.083-3.776,0.125-5.657,0.162
			c-1.874,0.041-3.787-0.127-5.518-0.869c-0.491-0.207-0.958-0.466-1.408-0.752l0.298-0.165c-0.011-0.007-0.086-0.18-0.346-0.575
			c-0.264-0.388-0.672-0.947-1.427-1.427c-0.332-0.218-0.738-0.379-1.181-0.494c-0.075-0.179-0.198-0.426-0.302-0.73
			c-0.117-0.33-0.266-0.728-0.388-1.216c-0.138-0.479-0.254-1.034-0.344-1.645c-0.095-0.61-0.163-1.28-0.176-1.991
			c-0.03-0.711,0.008-1.464,0.066-2.241c0.148-1.552,0.471-3.201,0.985-4.794c0.244-0.8,0.567-1.574,0.857-2.361
			c0.294-0.784,0.567-1.561,0.801-2.325c0.316-1.01,0.545-1.988,0.711-2.906c-0.057-0.106-0.112-0.214-0.161-0.327
			C45.669,5.559,45.379,6.616,44.99,7.702z M269.293,392.507c-0.117,0.222-0.27,0.564-0.445,0.935
			c-0.153,0.375-0.344,0.795-0.51,1.293c-0.691,1.88-1.3,4.746-1.327,8.284c-1.073-0.8-2.155-1.653-3.245-2.578
			c-4.82-4.038-9.697-9.28-14.886-15.172c-2.615-2.94-5.289-6.039-8.353-9.101c-3.083-3.028-6.572-5.763-10.13-8.533
			c-7.126-5.521-14.748-11.18-21.472-18.229c-3.341-3.525-6.435-7.405-8.903-11.725c-1.232-2.14-2.272-4.463-3.397-6.767
			c-1.088-2.31-2.182-4.631-3.279-6.962c-4.314-9.359-8.439-18.987-12.059-28.807c-3.631-9.814-6.788-19.807-9.378-29.782
			c-1.331-4.979-2.463-9.967-3.562-14.898c-0.887-4.096-1.79-8.141-2.568-12.153l0.035-0.005c0,0-0.071-0.435-0.204-1.251
			c-0.11-0.626-0.254-1.48-0.506-2.517c-0.719-4.393-1.115-8.766-1.288-13.068c-0.206-4.721-0.265-9.349-0.32-13.853
			c-0.019-2.252-0.037-4.474-0.056-6.663c0.003-2.188-0.087-4.348,0.067-6.455c0.278-4.226,0.737-8.299,1.123-12.211
			c0.799-7.823,1.459-15.005,1.799-21.387c0.343-6.381,0.404-11.961,0.129-16.542c-0.162-3.129-0.503-5.772-0.904-7.899
			c0.131,0.352,0.263,0.703,0.393,1.056c1.905,5.164,3.786,10.349,5.552,15.594c3.487,10.474,6.536,21.157,9.209,31.919
			c5.339,21.535,9.375,43.364,12.95,64.921c1.79,10.779,3.443,21.498,5.081,32.091c0.208,1.335,0.415,2.668,0.622,4
			c0.233,1.315,0.466,2.628,0.699,3.94c0.294,1.33,0.588,2.657,0.881,3.983c0.319,1.313,0.678,2.603,1.014,3.902
			c1.451,5.16,3.247,10.167,5.244,15.033c3.993,9.739,8.913,18.864,14.335,27.396c2.723,4.262,5.601,8.358,8.667,12.249
			c3.175,3.897,6.509,7.397,9.842,10.858c6.676,6.879,13.395,13.302,19.79,19.597c3.21,3.156,6.287,6.235,9.312,9.384
			c0.025,0.026,0.051,0.049,0.077,0.075C269.31,392.474,269.303,392.487,269.293,392.507z M288.347,411.861
			c-0.359-0.039-0.746-0.08-1.184-0.127c-0.927-0.114-2.046-0.291-3.309-0.569c-0.374-0.829-0.708-1.622-0.966-2.377
			c-0.424-1.219-0.71-2.394-0.948-3.489c-0.066-0.304-0.122-0.579-0.182-0.867C284.109,406.854,286.306,409.335,288.347,411.861z
			 M282.034,413.726c0.034,0.069,0.067,0.137,0.101,0.206c1.439,2.855,3.032,6.032,4.697,9.565c0.406,0.868,0.82,1.754,1.242,2.657
			c0.209,0.495,0.33,0.897,0.487,1.359c0.151,0.488,0.302,0.98,0.455,1.476c0.598,2.003,1.186,4.101,1.784,6.259
			c1.183,4.325,2.43,8.887,3.72,13.605c2.584,9.442,5.363,19.513,8.421,29.511c1.545,4.995,3.134,9.979,4.981,14.805
			c0.094,0.239,0.192,0.478,0.287,0.717l-0.141,0.058c1.235,2.988,0.52,8.922-0.515,11.694c-0.444,1.19-1.202,2.294-2.004,3.461
			c-0.899,1.309-1.829,2.662-2.396,4.26c-1.408,3.974-4.124,15.065-0.898,35.734c-0.321-0.346-0.609-0.672-0.861-0.977
			c-0.99-1.564-2.055-3.083-3.137-4.572c-2.396-3.293-4.75-6.595-6.783-10.142c-2.074-3.519-3.967-7.157-5.533-10.927
			c-3.192-7.533-4.77-15.601-5.846-23.621c-1.061-8.035-2.01-15.987-2.943-23.665c-1.833-15.369-3.481-29.726-4.744-42.034
			c-0.31-3.072-0.606-6.035-0.835-8.815c-0.125-1.388-0.21-2.773-0.3-4.103c-0.089-1.361-0.217-2.672-0.352-3.933
			c-0.325-2.872-0.641-5.493-0.845-7.869c2.117,1.316,4.176,2.409,6.121,3.25C278.318,412.613,280.28,413.262,282.034,413.726z
			 M280.248,409.732c0.061,0.168,0.132,0.337,0.198,0.505c-0.992-0.322-2.033-0.704-3.124-1.169c-2.32-0.976-4.837-2.329-7.452-4.05
			c-0.014-0.524-0.021-1.037-0.012-1.529c0.026-3.484,0.634-6.086,1.264-7.744c0.144-0.42,0.316-0.776,0.443-1.083
			c0.001-0.002,0.002-0.003,0.003-0.005c2.179,2.089,4.354,4.076,6.45,6.083c0.249,1.2,0.594,2.953,1.125,5.207
			C279.41,407.077,279.743,408.359,280.248,409.732z M278.659,398.679c-0.061-0.059-0.121-0.118-0.182-0.177l0.634,0.089
			L278.659,398.679z M166.254,129.009c2.89,0.978,5.736,2.168,8.343,3.85c5.333,3.193,10.148,7.374,14.542,12.015
			c4.344,4.699,8.278,9.883,11.77,15.41c7.04,11.033,12.552,23.215,17.325,35.622c4.778,12.431,8.63,25.169,12.546,37.719
			c2.011,6.259,4.16,12.43,6.493,18.44c2.313,6.018,4.789,11.864,6.461,17.805c3.169,12.055,6.189,23.8,9.418,34.805
			c1.599,5.512,3.232,10.848,4.868,15.998c0.817,2.574,1.631,5.09,2.476,7.58c0.864,2.474,1.764,4.883,2.698,7.221
			c1.878,4.672,3.869,9.053,5.73,13.206c1.859,4.15,3.577,8.107,5.064,11.844c3.114,7.457,4.602,14.242,4.975,19.927
			c0.401,5.678-0.212,10.145-0.628,13.196c-0.301,1.998-0.509,3.383-0.62,4.118c-2.327-2.238-4.709-4.472-6.985-6.815
			c-1.483-1.583-2.979-3.182-4.49-4.795c-1.517-1.617-3.088-3.202-4.662-4.808c-6.305-6.413-12.91-12.938-19.422-19.873
			c-3.24-3.461-6.503-7.057-9.488-10.781c-2.984-3.813-5.806-7.849-8.466-12.044c-5.303-8.399-10.116-17.393-13.998-26.947
			c-1.948-4.772-3.667-9.679-5.095-14.699c-0.336-1.258-0.698-2.519-1.015-3.782c-0.291-1.264-0.582-2.529-0.874-3.797
			c-0.243-1.309-0.486-2.621-0.73-3.934c-0.214-1.307-0.427-2.617-0.641-3.928c-1.721-10.582-3.46-21.297-5.339-32.081
			c-3.763-21.563-8.112-43.422-13.962-64.907c-2.92-10.742-6.139-21.395-9.843-31.856c-1.864-5.21-3.74-10.412-5.694-15.562
			c-1.138-3.022-2.298-6.031-3.504-9.018C164.427,128.414,165.343,128.7,166.254,129.009z M86.773,71.144
			c9.755,2.337,19.754,4.499,29.533,7.886c4.881,1.694,9.702,3.708,14.252,6.293c2.288,1.302,4.461,2.69,6.582,4.317
			c2.072,1.581,4.051,3.371,5.876,5.29c7.347,7.71,12.661,17.322,17.013,27.291c0.681,1.577,1.336,3.168,1.98,4.766
			c-1.447-0.399-2.893-0.767-4.334-1.118c-5.859-1.416-11.639-2.542-17.253-3.683c-5.615-1.137-11.074-2.249-16.302-3.546
			c-5.22-1.302-10.244-2.734-14.798-4.771c-2.269-1.023-4.418-2.212-6.253-3.733c-1.826-1.52-3.313-3.352-4.47-5.3
			c-2.319-3.922-3.431-8.16-4.445-12.076c-0.992-3.936-1.864-7.65-3.105-10.95c-1.222-3.299-2.832-6.167-4.769-8.36
			c-1.177-1.354-2.444-2.453-3.707-3.35C83.97,70.452,85.369,70.8,86.773,71.144z"/>
	</g>
</g>
<g id="Veins">
</g>
<g id="Background">
</g>
<g id="A_play_by_Kenneth_Vest">
</g>
<g id="Inside_Job_Title">
</g>
</svg>
