<?xml version="1.0" encoding="utf-8"?>
<!-- Generator: Adobe Illustrator 19.2.1, SVG Export Plug-In . SVG Version: 6.00 Build 0)  -->
<svg version="1.1" id="Layer_1" xmlns="http://www.w3.org/2000/svg" xmlns:xlink="http://www.w3.org/1999/xlink" x="0px" y="0px"
	 viewBox="0 0 395.8 724" style="enable-background:new 0 0 395.8 724;" xml:space="preserve">
<style type="text/css">
	.st0{opacity:0.6;}
	.st1{fill:#EE583C;}
</style>
<g id="Body" class="st0">
	<path d="M340.3,569c-1,0-2.2,0-3.4,0.1c-1.3,0.1-2.6,0.2-4.1,0c-1.4-0.2-2.9-0.6-4.4-1.1c-1.5-0.5-3-1.1-4.6-1.6
		c-0.8-0.3-1.6-0.5-2.3-1c-0.7-0.4-1.4-1-2-1.5c-1.3-1.1-2.5-2.4-3.5-3.7c-1.1-1.3-2.2-2.4-3.5-3.1c-2.7-1.5-5.3-3-7.4-4.5
		c-0.2-0.2-0.4-0.3-0.6-0.5c0.1,0.6,0.2,1.1,0.3,1.7l-0.1,0c0,0.1,0,0.1,0.1,0.2c0.8,1.9,1.3,3.8,1.8,5.8c0.4,2,0.6,3.9,1.2,5.7
		c0.6,1.8,1.4,3.5,2.6,4.9c1.1,1.5,2.5,2.8,3.9,3.9c0.1,0.1,0.2,0.1,0.3,0.2c0.2,0.1,0.4,0.3,0.6,0.4c0.6,0.4,1.4,0.8,2.2,1.1
		c0.8,0.4,1.8,0.7,2.8,0.8c1,0.2,2.1,0.1,3.2-0.2c1.1-0.3,2.2-0.8,3.4-0.8c1.2-0.1,2.4,0,3.6,0.1c1.2,0.1,2.4,0.1,3.6,0
		c1.2-0.2,2.3-0.4,3.5-0.5c1.1-0.1,2.3,0,3.3,0.3c1,0.4,1.8,0.9,2.5,1.5c0.7,0.5,1.4,1.1,2,1.5c0.6,0.4,1.2,0.7,1.7,0.8
		c0.5,0.2,0.9,0.2,1.2,0.2c0.3,0,0.4,0,0.4,0s-0.2,0-0.4,0c-0.3,0-0.7-0.1-1.2-0.2c-0.5-0.2-1.1-0.4-1.7-0.8c-0.6-0.4-1.3-0.9-2-1.5
		c-0.7-0.5-1.6-1.1-2.5-1.4c-1-0.3-2.1-0.4-3.2-0.3c-1.1,0.1-2.3,0.4-3.5,0.6c-1.2,0.2-2.4,0.1-3.6,0.1c-1.2-0.1-2.4-0.2-3.6-0.1
		c-1.2,0-2.3,0.5-3.4,0.8c-1.1,0.3-2.2,0.4-3.3,0.3c-1-0.1-2-0.5-2.8-0.8c-0.5-0.2-1-0.5-1.4-0.7c2.4,1.9,4.7,3.7,6.8,5.8
		c1.3,1.3,2.4,2.6,3.7,3.7c1.3,1.1,2.8,1.9,4.3,2.4c3.2,0.9,6.4,0.1,9.6,0.4c1.6,0.1,3.1,0.5,4.5,1.1c1.4,0.6,2.6,1.4,3.7,2.3
		c1.1,0.9,2.1,1.8,3.2,2.5c1.1,0.7,2.3,1.3,3.4,1.7c2.3,0.9,4.7,1.2,6.8,1.7c2.1,0.5,4.1,1,5.7,1.7c1.4,0.6,2.6,1.2,3.7,1.8
		c-0.9-1.1-1.8-2.1-3-3.1c-2.3-2.1-5-3.3-7.3-5.4c-2.8-2.4-4.3-3.3-6.6-6.1c-0.3-0.3-0.6-0.7-0.9-1.1c0-0.1-0.1-0.3-0.3-0.5l0,0
		c-1.7-2.3-3.8-5.2-6-7.1c-0.9-1.8-1.8-3.9-2.7-6.6c-0.1-0.3-0.2-0.6-0.3-1c-0.3-0.1-0.6-0.2-1.1-0.3
		C342.2,569.1,341.3,569,340.3,569z"/>
	<path d="M7.8,45.1c3.6-0.2,7.2,0,10.8,0.5c4-8.1,0-13.1-4.7-18.9c-2.8-3.5-5.8-7.1-7.2-11.8C5.2,10,5.1,5,5.6,0H0v46.4
		c0.5-0.1,1-0.3,1.5-0.4C3.6,45.5,5.7,45.2,7.8,45.1z"/>
	<path d="M361.6,597.4c-2.1-0.5-4.5-0.8-6.9-1.7c-1.2-0.4-2.4-1-3.5-1.7c-1.1-0.7-2.2-1.6-3.3-2.5c-1.1-0.8-2.3-1.6-3.7-2.2
		c-1.3-0.6-2.8-0.9-4.3-1c-3-0.3-6.3,0.6-9.7-0.3c-1.7-0.5-3.2-1.3-4.6-2.4c-1.4-1.1-2.5-2.5-3.8-3.7c-2.5-2.5-5.5-4.5-8.4-6.9
		c-1.5-1.2-2.9-2.5-4.1-4c0,0,0-0.1-0.1-0.1c0.1,0.4,0.3,0.7,0.4,1.1c0.1,0.4,0.3,0.9,0.4,1.3c0.3,0.9,0.5,1.9,0.7,2.9
		c0.2,1,0.3,2.1,0.4,3.1c0.1,0.5,0.1,1.1,0.1,1.6c0,0.5,0,1,0,1.5c0.2,0.4,0.3,0.8,0.5,1.4c0.2,0.8,0.3,1.7,0.7,2.7c0.3,1,1,2,2,2.9
		c1,0.8,2.3,1.6,3.2,2.8c1,1.2,1.7,2.6,2.5,4.1c0.4,0.7,0.8,1.5,1.4,2.1c0.5,0.7,1.2,1.3,1.8,1.8c1.3,1.1,2.8,2.1,4.1,3.3
		c0.6,0.6,1.2,1.3,1.7,2.1c0.4,0.8,0.6,1.6,0.9,2.5c0.5,1.7,1,3.3,1.4,4.9c0.8,3.2,1.6,6.2,2.2,8.8c0.6,2.6,1.1,4.7,1.5,6.2
		c0.4,1.5,0.6,2.4,0.6,2.4s-0.3-0.8-0.6-2.4c-0.4-1.5-0.9-3.7-1.5-6.2s-1.4-5.6-2.2-8.8c-0.4-1.6-0.9-3.3-1.4-4.9
		c-0.3-0.8-0.5-1.7-0.9-2.5c-0.4-0.8-1-1.4-1.7-2c-1.3-1.2-2.8-2.2-4.1-3.3c-0.7-0.6-1.3-1.2-1.8-1.8c-0.5-0.7-1-1.4-1.4-2.1
		c-0.8-1.4-1.6-2.9-2.5-4c-1-1.2-2.1-2-3.2-2.8c-1.1-0.8-1.8-1.9-2.1-2.9c-0.3-1-0.5-2-0.7-2.7c-0.1-0.3-0.2-0.6-0.3-0.9l-0.1,1.2
		c-0.1,0.5-0.1,1.1-0.2,1.6c-0.1,1.1-0.3,2.1-0.5,3.1c-0.2,1-0.4,2-0.7,2.9c-0.2,0.9-0.5,1.7-0.8,2.5c-0.2,0.8-0.5,1.5-0.8,2.1
		c-0.2,0.6-0.5,1.1-0.6,1.6c-0.4,0.9-0.6,1.4-0.6,1.4s0.2-0.5,0.4-1.4c0.1-0.5,0.3-1,0.5-1.6c0.2-0.6,0.4-1.3,0.6-2.1
		c0.2-0.8,0.4-1.6,0.6-2.5c0.2-0.9,0.4-1.9,0.6-2.8c0.2-1,0.3-2,0.4-3.1c0-0.5,0.1-1,0.2-1.6l0.1-1.6c0-0.5,0-1.1,0-1.6
		c0-0.5,0-1.1-0.1-1.6c0-1-0.2-2.1-0.3-3.1c-0.2-1-0.3-1.9-0.5-2.8c-0.1-0.4-0.2-0.9-0.3-1.3c-0.1-0.4-0.2-0.8-0.4-1.2
		c-0.2-0.6-0.4-1.2-0.5-1.7c-0.7-1.1-1.2-2.3-1.6-3.5c-0.7-1.9-0.9-3.9-1.3-5.8c0,0,0,0,0-0.1c0,0.5,0.1,1.1,0.1,1.6
		c0,1.2,0,2.4-0.1,3.8c-0.1,1.3-0.3,2.7-0.5,4.2c-0.5,2.9-1.3,5.9-2.4,8.8c-0.4,1-0.7,2-1.1,3c0,0.1,0,0.2-0.1,0.3
		c-0.3,1.2-0.5,2.9-0.5,5c0,2.1,0.2,4.5,0.4,7.1c0.1,1.3,0.3,2.6,0.3,4c0.1,1.4,0.1,2.8,0,4.2c0,0.7,0,1.4,0.1,2.1
		c0.1,0.7,0.3,1.3,0.5,2c0.2,0.6,0.5,1.3,0.7,1.9c0.2,0.6,0.4,1.3,0.5,1.9c0.3,1.3,0.5,2.5,0.6,3.7c0.1,1.2,0.1,2.3,0.1,3.4
		c0,2.1-0.3,3.8-0.4,5c-0.2,1.2-0.2,1.9-0.2,1.9s0-0.7,0.2-1.9c0.1-1.2,0.4-2.9,0.4-5c0-1,0-2.2-0.1-3.4c-0.1-1.2-0.3-2.4-0.6-3.7
		c-0.1-0.6-0.4-1.3-0.5-1.9c-0.2-0.6-0.5-1.3-0.7-1.9c-0.2-0.6-0.5-1.3-0.6-2c-0.1-0.7-0.1-1.4-0.1-2.1c0.1-1.4,0.1-2.8,0-4.1
		c-0.1-1.4-0.2-2.7-0.4-4c-0.3-2.6-0.5-5-0.5-7.1c0-1.6,0.1-3,0.3-4.1c-0.6,1.4-1.2,2.8-1.8,4.2c-0.6,1.3-1.1,2.6-1.6,3.8
		c-0.4,1.2-0.8,2.4-1.1,3.6c-0.5,2.2-0.7,4.2-0.9,5.5c-0.2,1.3-0.3,2.1-0.3,2.1s0.1-0.8,0.2-2.1c0.2-1.3,0.3-3.3,0.7-5.5
		c0.2-1.1,0.6-2.3,1-3.6c0.4-1.3,1-2.6,1.5-3.9c1.1-2.7,2.3-5.5,3.3-8.4c1-2.9,1.8-5.9,2.2-8.7c0.2-1.4,0.4-2.8,0.5-4.1
		c0.1-1.3,0.1-2.5,0-3.7c0-1.1-0.1-2.2-0.2-3.1c-0.1-0.9-0.2-1.7-0.4-2.4c-0.1-0.6-0.2-1.1-0.3-1.5c0-0.1,0-0.1-0.1-0.2
		c-0.1-0.1-0.1-0.3-0.2-0.4l-0.1,0c0-0.2-0.1-0.3-0.1-0.5c-1.5-3.3-3.6-6.3-5.9-9.2c-5-6.4-9.4-13.6-12.8-21.2
		c-1.7-3.8-3-7.8-4-11.9c-1-4-1.7-8.1-2.3-12.1c-1.2-8.1-2.2-16-3.2-23.7c-1.9-15.4-3.7-29.7-5-42c-0.3-3.1-0.6-6-0.9-8.9
		c-0.1-1.4-0.2-2.8-0.3-4.1c-0.1-1.3-0.2-2.6-0.4-3.8c-0.5-3.7-0.9-7.1-1.1-10.1c-1.7-1.2-3.4-2.5-5.1-4c-4.9-4.2-9.9-9.6-15-15.6
		c-2.6-3-5.2-6.1-8.1-9.1c-0.2-0.2-0.5-0.4-0.7-0.7c-0.1,0.1-0.1,0.2-0.2,0.3c-0.7,1.2-1.7,3-2.8,5.4c-1.1,2.4-2.2,5.3-3.1,8.7
		c-0.9,3.5-1.4,7.5-1.6,12c-0.2,4.5,0,9.4,0.3,14.5c0.2,2.6,0.4,5.2,0.7,7.9c0.2,2.7,0.6,5.4,1.3,8.1c1.3,5.4,3.4,10.9,5.7,16.3
		c2.4,5.4,5,10.9,7.8,16.2c2.1,4,4.3,8.1,6.5,12l0.2-0.1c0,0,0.1,0.3,0.4,0.7c0.3,0.5,0.6,1.2,1.1,2.2c0.1,0.2,0.2,0.3,0.2,0.5
		c3,5.4,6,10.6,8.9,15.7c2.8,4.9,5.5,9.7,8,14.2c1.3,2.3,2.5,4.5,3.6,6.7c1.1,2.2,2.1,4.4,2.9,6.5c1.6,4.3,2.7,8.3,3.7,11.8
		c1.1,3.5,2.2,6.5,3.5,8.8c1.3,2.3,2.6,3.9,3.6,4.9c0.5,0.5,0.9,0.9,1.2,1.1c0.3,0.2,0.4,0.4,0.4,0.4s-0.1-0.1-0.4-0.4
		c-0.3-0.2-0.7-0.6-1.2-1.1c-1-1-2.4-2.6-3.7-4.9c-1.3-2.3-2.5-5.3-3.7-8.8c-1.1-3.5-2.2-7.5-3.9-11.7c-0.8-2.1-1.8-4.3-3-6.4
		c-1.2-2.1-2.4-4.3-3.7-6.6c-2.6-4.5-5.4-9.2-8.2-14.1c-2-3.3-4-6.7-6-10.1c0.2,0.5,0.3,1,0.5,1.5c0.5,1.7,1,3.5,1.3,5.5
		c0.2,1,0.3,2,0.4,3.1c0.1,1,0.2,2.1,0.4,3.2c0.6,4.3,1.5,8.8,3.1,13.2c1.6,4.3,3.5,8.6,4.8,12.8c0.6,2.1,1.1,4.2,1.3,6.2
		c0.2,2,0.3,3.9,0.5,5.6c0.2,3.5,0.5,6.4,0.8,8.4c0.2,1,0.4,1.8,0.5,2.3c0.2,0.4,0.2,0.7,0.3,0.8c8.8,17.2,20,35.5,25.1,54.4
		c-1.1,2.6-1.9,5.2-1.9,7.7c0,6.8,0.9,13.4,2.7,20c1.7,6.3,3.7,11.3,5.8,17.5c1.2,3.5,1.3,5.5,2.5,6.5c2.6,2.1,10.6,9.4,13.3,11.5
		c1.6,1.2,2.7,2.5,4.9,2.3c3.3-0.3,7.4-2.5,7.9-2c4.9,4.9,8.3,7.5,8.9,7.5c2.2-0.1,6.8-1.4,9.7-2.1c1.3-0.3,2.4-0.7,2.6-0.7
		c2.7,0.9,7.8,2.9,9.9,3.2c0.1,0,1.7-0.5,3.3-1.2c1.7-0.7,1.9-1.1,3.5-1.6c2.8-0.9,6.6,1.2,9.6,1.5c2.6,0.3,5.3-2.8,7.6-4.1
		c2.7-1.6,9.8-7,3.6-9.7c0-1.4,0.5-3.5,0.2-4.6c-0.1-0.4,2.7-2,3.2-3.1c1.6-3.5,2.7-7.8,2.8-8.8c0.1-1.5-1.8-6.1-3-9.1
		c-1.1-2.9-1.6-8-2.7-10.8c-1.4-3.5-4.9-7.3-9.2-10.7c-3.1-2.4-5.8-4.8-7.1-8.6c-0.6-1.8-1.5-3.3-2.5-4.7c-1.1-0.6-2.4-1.2-3.9-1.8
		C365.6,598.3,363.7,597.8,361.6,597.4z"/>
	<path d="M5.3,176.6c1.1-7.2,1.4-15.8,0-24.8c-0.4-2.2-0.8-4.5-1.4-6.8c-0.3-1.1-0.7-2.2-0.9-3.4c-0.2-1.2-0.2-2.4,0-3.6
		c0.3-2.4,1.1-4.7,1.8-7c0.7-2.3,1.5-4.6,1.6-7c0.2-2.5-0.1-4.9-0.4-7.4c-0.1,0.3-0.1,0.6-0.2,0.9c-0.2,0.8-0.6,1.6-0.9,2.5
		c-0.4,0.8-0.8,1.7-1.4,2.6c-0.9,1.3-2.1,2.3-3.3,3.4v69.4c0.2-0.6,0.5-1.1,0.8-1.8C2.4,189.7,4.2,183.8,5.3,176.6z"/>
	<path d="M2.6,122.1c1-1.6,1.8-3.3,2.2-4.8c0.4-1.5,0.4-2.9,0.4-4.1c0-1.2-0.1-2.1-0.1-2.7c-0.1-0.6-0.1-1-0.1-1l0.2,0c0,0,0,0,0,0
		c0-0.2,0-0.4,0-0.5c-0.1,0.1-0.1,0.2-0.2,0.4c-0.4,0.7-0.9,1.5-1.7,2.4c-0.7,0.9-1.6,1.8-2.8,2.5c-0.2,0.1-0.4,0.2-0.6,0.3v10.3
		C1,124,2,123.1,2.6,122.1z"/>
	<path d="M10.6,4.1c0.6,2.6,1.6,5.6,3.2,8.6c1.6,3,3.7,5.9,6.4,8.3c1.3,1.2,2.8,2.2,4.4,3c1.6,0.8,3.2,1.4,4.8,1.7
		c1.6,0.3,3.2,0.4,4.8,0.4c0.8,0,1.5,0,2.2,0c0.7,0,1.4-0.2,2-0.3c1.3-0.3,2.5-0.6,3.7-0.6c0.2,0,0.5,0,0.7,0c0,0,0-0.1,0-0.1
		c-1.2-1.1-2.5-2.1-3.7-3.3c-2.7-2.5-5.3-5.3-7.4-8.1c-2.1-2.8-3.9-5.8-5.3-8.8c-0.7-1.6-1.4-3.2-1.9-4.7H9.9c0,0.2,0,0.3,0.1,0.5
		C10.1,1.6,10.3,2.8,10.6,4.1z"/>
	<path d="M2.7,111.1c0.7-0.8,1.2-1.6,1.5-2.3c0.4-0.7,0.6-1.2,0.8-1.6c0.2-0.4,0.3-0.6,0.3-0.6l0.2,0.1c0.1-0.3,0.1-0.6,0.2-0.9
		c0.3-1.2,0.8-2.3,1.3-3.3c1.1-2.1,2.5-4,3.1-6.1c0.3-1.1,0.5-2.1,0.5-3.2c0-1.1-0.1-2.2-0.4-3.2c-0.6-2-1.9-3.7-3.3-5.2
		c-1.4-1.5-3-2.9-4.2-4.4c-1.1-1.3-1.9-2.7-2.6-4.1v37.3c0,0,0.1-0.1,0.1-0.1C1.2,112.8,2,112,2.7,111.1z"/>
	<path d="M7.7,14.6c1.4,4.5,4.3,8,7,11.5c4.7,5.8,9.1,11.2,5,19.7c4.7,0.8,9.4,2.1,14.1,3.7c8.6,2.9,17.1,6.9,25.8,10.5
		c7.3,3.1,15,5.4,23,7.5c0.1-0.2,0.2-0.5,0.3-0.8c0.3-0.8,0.7-2,0.6-3.6c0-1.6-0.5-3.5-1.6-5.5c-1.1-2-2.8-4-4.8-5.9
		c-1-1-2.1-2-3.3-3c-0.6-0.5-1.2-1-1.7-1.7c-0.5-0.6-0.9-1.4-1.3-2.1c-1.5-3-2-6.5-3.4-9.7c-0.7-1.6-1.7-3.1-3.3-4.1
		c-1.5-1-3.3-1.4-5.2-1.5c-1.8-0.1-3.7,0.1-5.6,0.1c-1.9,0-3.9-0.2-5.6-1c-0.5-0.2-1.1-0.5-1.5-0.9l-0.3,0.2c0,0-0.1-0.2-0.3-0.5
		c0-0.1-0.1-0.1-0.1-0.2c0,0-0.1-0.1-0.1-0.1c-0.4-0.3-0.8-0.7-1.1-1c-0.5-0.3-1.3-0.5-2.2-0.4c-1,0-2.2,0.3-3.6,0.5
		c-0.7,0.1-1.4,0.2-2.1,0.3c-0.8,0-1.5,0-2.3,0c-1.6,0-3.2-0.1-4.9-0.5c-1.7-0.3-3.4-0.9-4.9-1.8c-1.6-0.8-3.1-1.8-4.4-3.1
		c-2.7-2.5-4.8-5.4-6.3-8.5c-1.5-3-2.5-6-3.1-8.7C10.2,2.8,10,1.6,9.9,0.5c0-0.2,0-0.3-0.1-0.5H6.6C6.1,4.9,6.2,9.9,7.7,14.6z"/>
	<path d="M159,671.7c-2.1-11.2-5.5-22-6.7-33.6c0-0.4-0.1-0.9-0.2-1.3c0-18.7-1.9-41.1-1.9-50.5c0-14.9-1.8-30-2.7-44.9
		c-0.8-12.7-4.9-23.1-7-35.2c-2.7-15.7-3-26.3-10.5-37.7c-4.4-6.6-5.7-8.6-3.1-16.1c2.3-6.5,3.1-10.9,3.6-18.2
		c0.9-14.4-0.4-23.8-2-37.4c-3.4-29.2-2.2-62.3,2.2-89c2.3-14.5,3.7-28.4,10.3-41.1c3.1-5.9,3.6-11.7,4.9-17
		c0.6-2.2,0.9-5.3,1.4-8.4c0.8-1,1.7-2,2.6-3.1c5.3,25.8,17.1,47.8,18.5,52.1c4.2,12.5,7.1,13.2,11.5,25.3
		c4.9,13.4,4.5,21.4,7.4,33.9c3.3,13.9,4.2,27.8,11.6,40.3c16.6,28.1,23.9,63.4,37.9,93.2c10.5,22.3,21.9,44.1,33,66.1
		c0.3,0.5,0.5,1,0.8,1.5c0-0.1-0.1-0.3-0.3-0.7c-0.2-0.5-0.4-1.3-0.6-2.3c-0.4-2-0.7-4.9-1-8.4c-0.2-1.7-0.3-3.6-0.6-5.6
		c-0.3-2-0.8-4-1.4-6.1c-1.3-4.2-3.3-8.3-5-12.7c-1.7-4.4-2.8-9-3.4-13.3c-0.2-1.1-0.3-2.2-0.4-3.2c-0.1-1-0.3-2-0.5-3
		c-0.4-1.9-0.9-3.7-1.4-5.4c-1-3.3-2.1-6-3-7.8c-0.4-0.9-0.8-1.6-1.1-2.1c-0.3-0.5-0.4-0.7-0.4-0.7l0.2-0.1
		c-2.3-3.9-4.5-7.9-6.7-11.9c-2.9-5.3-5.6-10.7-8.1-16.2c-2.4-5.5-4.6-11-6.1-16.5c-0.4-1.4-0.7-2.8-0.9-4.2
		c-0.1-0.7-0.2-1.3-0.3-2.1c-0.1-0.7-0.2-1.4-0.2-2c-0.3-2.7-0.6-5.4-0.8-8c-0.4-5.2-0.7-10.2-0.6-14.8c0.1-4.6,0.5-8.8,1.4-12.5
		c0.8-3.7,2-6.8,3.1-9.3c1.1-2.5,2.1-4.4,2.8-5.6c0.2-0.4,0.4-0.7,0.5-1c-2.2-1.9-4.5-3.8-6.9-5.7c-7-5.6-14.7-11.4-21.5-18.7
		c-3.4-3.6-6.5-7.7-9-12.2c-1.3-2.3-2.3-4.6-3.4-6.9c-1.1-2.3-2.1-4.7-3.2-7c-4.2-9.4-8.3-19.1-11.8-29c-3.6-9.9-6.6-19.9-9.1-30
		c-1.3-5-2.4-10-3.4-15c-1-5-2.1-9.8-2.9-14.7c-0.1-0.9-0.3-1.8-0.4-2.7c-0.4-1.4-1.1-2.9-2.3-4.4c-0.6-0.9-1.4-1.7-2.3-2.5
		c-0.9-0.8-2-1.4-3.2-2c-1.2-0.6-2.4-1.2-3.6-1.9c-1.2-0.8-2.3-1.8-3.3-3c-1-1.2-1.9-2.4-2.8-3.8c-0.8-1.4-1.4-2.9-1.8-4.6
		c-0.4-1.6-0.4-3.3-0.6-5c-0.2-1.7-0.4-3.4-0.7-5.1c-0.5-3.4-1.3-6.9-2.3-10.2c-1.1-3.4-2.4-6.6-4.1-9.7c-1.7-3-3.6-5.8-5.8-8.3
		c-4.3-5-9.4-8.6-14-11.2c-2.3-1.3-4.5-2.4-6.4-3.2c-1-0.4-1.9-0.8-2.8-1.2c-0.9-0.4-1.7-0.7-2.4-0.9c-1.4-0.6-2.6-0.9-3.4-1.2
		c-0.8-0.3-1.2-0.4-1.2-0.4s0.4,0.1,1.2,0.4c0.8,0.3,1.9,0.6,3.4,1.2c0.7,0.3,1.5,0.6,2.4,0.9c0.9,0.3,1.8,0.7,2.8,1.2
		c2,0.9,4.1,1.9,6.4,3.2c4.6,2.6,9.7,6.2,14.1,11.2c1.1,1.2,2.1,2.5,3,3.8c-0.1-0.3-0.3-0.6-0.5-1c-0.5-1.1-1.4-2.7-2.4-4.6
		c-1-1.9-2.1-4.2-2.8-6.8c-0.4-1.3-0.6-2.7-0.7-4.1c-0.1-1.4-0.1-2.8-0.1-4.3c0-2.9,0.1-5.7,0.1-8.4c0-1.3,0-2.6-0.1-3.9
		c-0.1-1.2-0.4-2.4-0.8-3.3c-0.5-1-1.1-1.7-1.7-2.4c-0.6-0.6-1.2-1.2-1.6-1.6c-0.9-0.9-1.5-1.3-1.5-1.3s0.6,0.4,1.5,1.3
		c0.5,0.4,1,1,1.6,1.6c0.6,0.6,1.3,1.4,1.7,2.4c0.5,1,0.7,2.1,0.8,3.4c0.1,1.2,0.1,2.5,0.1,3.9c0,2.7-0.1,5.6,0,8.4
		c0,1.4,0,2.9,0.2,4.3c0.1,1.4,0.3,2.8,0.7,4.1c0.7,2.6,1.9,4.8,2.8,6.7c1,1.9,1.8,3.5,2.4,4.6c0.6,1.1,0.8,1.8,0.8,1.8l0,0
		c0.8,1.2,1.6,2.5,2.4,3.8c1.7,3,3,6.3,4.1,9.7c0.4,1.3,0.8,2.6,1.1,3.9c0-0.1,0-0.3-0.1-0.5c-0.1-1.1-0.5-2.7-0.3-4.7
		c0.1-1,0.3-2,0.5-3.1c0.2-1.1,0.5-2.2,0.9-3.4c0.3-1.2,0.8-2.4,1.3-3.5c0.3-0.6,0.6-1.1,1.1-1.6c0.4-0.5,1-0.9,1.5-1.3
		c0.5-0.4,1-0.9,1.3-1.4c0.3-0.6,0.5-1.2,0.6-1.8c0.2-1.3,0.1-2.5,0-3.7c-0.2-1.2-0.5-2.3-0.8-3.4c-0.3-1.1-0.6-2.1-0.6-3.1
		c0-1,0.2-1.9,0.4-2.6c0.3-0.7,0.5-1.4,0.8-1.9c0.5-1,0.9-1.6,0.9-1.6s-0.3,0.5-0.9,1.6c-0.3,0.5-0.5,1.1-0.8,1.9
		c-0.2,0.7-0.4,1.6-0.4,2.6c0,2,1.2,4,1.5,6.5c0.2,1.2,0.2,2.5,0.1,3.7c-0.1,0.6-0.3,1.3-0.6,1.8c-0.3,0.6-0.8,1-1.3,1.5
		c-0.5,0.4-1,0.8-1.5,1.3c-0.4,0.5-0.8,1-1,1.6c-0.5,1.2-0.9,2.3-1.3,3.5c-0.3,1.2-0.6,2.3-0.8,3.4c-0.2,1.1-0.4,2.1-0.5,3.1
		c-0.2,1.9,0.2,3.5,0.3,4.6c0.2,1.1,0.3,1.8,0.3,1.8l-0.1,0c0.4,1.7,0.7,3.4,1,5.1c0.3,1.7,0.5,3.4,0.7,5.1c0.2,1.7,0.3,3.4,0.6,5
		c0.3,1.6,1,3.1,1.8,4.5c0.8,1.4,1.8,2.6,2.8,3.7c0.9,1.2,2,2.2,3.2,2.9c1.2,0.7,2.4,1.3,3.6,1.9c1.2,0.6,2.3,1.3,3.2,2
		c1,0.8,1.7,1.7,2.4,2.5c0.7,0.9,1.3,1.9,1.7,2.8c-0.4-3.3-0.6-6.6-0.7-9.9c-0.1-4.7-0.2-9.4-0.2-13.9c0-2.3,0-4.5,0-6.7
		c0-2.2,0-4.3,0.1-6.5c0.3-4.2,0.8-8.3,1.2-12.2c0.8-7.8,1.5-15,1.9-21.4c0.4-6.4,0.4-12,0.2-16.5c-0.2-3.2-0.5-5.9-0.9-8
		c-1.1-2.9-2.2-5.7-3.3-8.6c-1.6-0.5-3.2-0.9-4.8-1.3c-5.8-1.5-11.6-2.6-17.2-3.8c-5.6-1.2-11.1-2.3-16.3-3.7
		c-5.2-1.3-10.3-2.8-14.8-4.9c-2.3-1-4.4-2.3-6.3-3.8c-1.8-1.6-3.3-3.4-4.5-5.4c-2.3-4-3.4-8.2-4.4-12.1c-1-3.9-1.8-7.7-3.1-10.9
		c-1.2-3.3-2.8-6.2-4.7-8.4c-1.2-1.4-2.5-2.5-3.8-3.4c-3.4-0.9-6.8-1.7-10.1-2.7c-4.7-1.4-9.4-3-13.8-4.9c-4-1.7-7.8-3.4-11.6-5
		c-0.1,0.2-0.1,0.4-0.2,0.6c-0.1,0.3-0.3,0.7-0.4,1.1l0.1,0c0,0-0.1,0.2-0.3,0.5c-0.1,0.2-0.2,0.4-0.3,0.6c-0.1,0.2-0.2,0.5-0.3,0.9
		c-0.2,0.7-0.3,1.5-0.3,2.5c0.1,1,0.4,2.1,0.9,3.2c1.1,2.3,3,4.6,5.3,6.9c2.3,2.3,4.9,4.6,7.2,7.2c1.2,1.3,2.2,2.8,2.8,4.4
		c0.7,1.6,1.1,3.2,1.8,4.7c0.6,1.5,1.5,2.8,2.4,3.9c1,1.1,2,2,3,2.9c2,1.6,3.6,3.1,4.6,4.3c0.5,0.6,0.8,1.1,1,1.5
		c0.2,0.4,0.3,0.6,0.3,0.6s-0.1-0.2-0.3-0.5c-0.2-0.4-0.5-0.8-1-1.4c-1-1.2-2.6-2.6-4.6-4.2c-1-0.8-2.1-1.7-3.1-2.8
		c-1-1.1-1.9-2.4-2.5-3.9c-0.7-1.5-1.1-3.1-1.8-4.6c-0.7-1.5-1.7-2.9-2.8-4.2c-2.3-2.5-5-4.7-7.3-7c-2.3-2.3-4.4-4.6-5.5-7
		c-0.6-1.2-0.9-2.4-1-3.5c0-0.2,0-0.4,0-0.6c-0.5,1-0.8,2.1-1.2,3.3c-0.2,0.6-0.3,1.2-0.3,1.9c0,0.7,0,1.4,0.1,2.1
		c0.1,1.4,0.1,2.9,0.2,4.4c0.1,1.5,0.3,3,0.7,4.5c0.2,0.7,0.5,1.4,0.9,2c0.4,0.6,1,1.1,1.4,1.8c0.9,1.3,0.9,3,0.6,4.4
		c-0.2,1.4-0.7,2.8-1.3,4c-0.6,1.2-1.2,2.3-1.6,3.3c-0.4,1.1-0.5,2.1-0.5,3c0,0.9,0.2,1.7,0.4,2.4c0.1,0.7,0.3,1.1,0.5,1.5
		c0.1,0.3,0.2,0.5,0.2,0.5s-0.1-0.2-0.2-0.5c-0.1-0.3-0.3-0.8-0.5-1.5c-0.2-0.6-0.4-1.4-0.4-2.4c-0.1-0.9,0-2,0.4-3.1
		c0.4-1.1,1-2.2,1.6-3.4c0.5-1.2,1-2.5,1.2-3.9c0.3-1.4,0.3-2.9-0.6-4.1c-0.4-0.6-1-1.1-1.4-1.7c-0.5-0.6-0.8-1.4-1-2.1
		c-0.8-3-0.9-6.1-1.1-9c0-0.7-0.1-1.4-0.1-2.1c0-0.7,0.1-1.4,0.3-2.1c0.4-1.3,0.7-2.5,1.2-3.6c0.4-1,0.9-1.9,1.3-2.7
		c0,0,0-0.1,0-0.1c0.1-0.3,0.2-0.5,0.3-0.7c0,0,0-0.1,0.1-0.1c0.2-0.5,0.4-1,0.5-1.4c0.1-0.3,0.1-0.5,0.2-0.7
		c-4.4-1.9-8.7-3.7-13.1-5.2c-8.4-3-16.8-4.9-25-4.5c-0.6,0-1.2,0.1-1.8,0.1c0.9,0.6,1.8,1.3,2.6,2c1,0.9,1.8,1.9,2.7,2.9
		c1.6,2,3.1,4.2,4.3,6.4c2.5,4.5,4.6,9.3,6.3,14.1c0.8,2.4,1.6,4.9,2.2,7.4c0.6,2.5,1.2,5,1.5,7.6c0.3,2.6,0.8,5,1.8,7.4
		c0.9,2.4,2.2,4.6,3.6,6.7c1.4,2,2.8,4,4.1,6.1l0.2-0.1c0,0,0.1,0.4,0.4,1.1c0,0,0,0,0,0c1.2,1.9,2.2,4,3.1,6c1,2.4,2,4.8,2.5,7.3
		c0.1,0.6,0.2,1.3,0.3,1.9c0,0.7,0.1,1.3,0,2c-0.1,1.3-0.6,2.6-1.3,3.7c-0.7,1.1-1.5,2.1-2.2,3.2c-0.7,1.1-1.3,2.2-1.7,3.4
		c-0.8,2.4-0.8,5.1,0,7.5c0.8,2.4,2.3,4.6,4.2,6.3c1.9,1.8,4,3.2,6.4,4.1c0.2-0.1,0.3-0.1,0.5,0c0.2,0,0.3,0.1,0.5,0.2
		c0.3,0.2,0.6,0.4,0.9,0.5c0.6,0.4,1.1,0.8,1.7,1.3l1.7,1.3c0.3,0.2,0.6,0.4,0.9,0.6c0.1,0.1,0.3,0.2,0.5,0.3c0.1,0.1,0.4,0.2,0.5,0
		c-0.1,0.2-0.3,0.1-0.5,0c-0.2-0.1-0.3-0.2-0.5-0.3c-0.3-0.2-0.6-0.4-0.9-0.6l-1.7-1.3c-0.6-0.4-1.1-0.9-1.7-1.2
		c-0.3-0.2-0.6-0.4-0.9-0.5c-0.2-0.1-0.3-0.2-0.5-0.2c-0.2,0-0.4-0.1-0.5,0l0,0l0,0c-2.4-0.9-4.6-2.3-6.5-4.1
		c-1.9-1.8-3.4-3.9-4.3-6.3c-0.9-2.4-0.9-5.2-0.1-7.6c0.4-1.2,1-2.4,1.7-3.5c0.7-1.1,1.5-2.1,2.2-3.2c0.7-1.1,1.1-2.3,1.2-3.6
		c0.1-1.2,0-2.5-0.3-3.8c-0.6-2.5-1.5-4.9-2.6-7.2c-0.7-1.5-1.5-3.1-2.3-4.5c0.1,0.5,0.2,1,0.2,1.7c0.2,2.9-0.1,7.1-1.5,11.9
		c-0.7,2.4-1.7,4.9-3.3,7.3c-0.8,1.2-1.9,2.2-2.8,3.4c-1,1.1-1.9,2.3-2.8,3.5c-1.8,2.4-3.4,5.2-4.9,8c-0.7,1.4-1.5,2.9-2.1,4.4
		c-0.6,1.5-1,3-1.2,4.7c-0.4,3.2,0.2,6.5-0.4,9.8c-0.2,0.8-0.4,1.6-0.6,2.4c-0.3,0.8-0.6,1.5-0.9,2.2c-0.3,0.7-0.4,1.5-0.6,2.2
		c-0.2,0.8-0.3,1.5-0.5,2.3c-0.5,3-0.9,6-1.1,8.8c-0.3,2.8-0.5,5.5-0.6,7.9c-0.3,4.9-0.4,9-0.5,11.9c-0.1,2.9,0,4.5,0,4.5
		s0-1.6,0-4.5c0-2.9,0.1-7,0.4-11.9c0.1-2.5,0.3-5.1,0.6-7.9c0.3-2.8,0.6-5.8,1.1-8.8c0.1-0.8,0.3-1.5,0.4-2.3
		c0.2-0.8,0.4-1.6,0.6-2.3c0.3-0.7,0.5-1.5,0.8-2.2c0.2-0.8,0.5-1.5,0.6-2.3c0.6-3.1,0-6.4,0.3-9.8c0.2-1.6,0.6-3.3,1.2-4.8
		c0.6-1.5,1.4-3,2.1-4.4c1.5-2.9,3-5.7,4.9-8.2c0.9-1.3,1.9-2.4,2.8-3.6c1-1.2,2-2.2,2.7-3.3c1.5-2.3,2.5-4.8,3.1-7.1
		c1.4-4.7,1.6-8.8,1.4-11.6c-0.2-1.4-0.4-2.4-0.6-3.1c-0.3-0.7-0.4-1.1-0.4-1.1l0.2-0.1c-1.3-2-2.7-4-4.1-6
		c-1.5-2.1-2.8-4.4-3.8-6.8c-1-2.4-1.6-5-1.9-7.5c-0.3-2.5-0.8-5-1.5-7.5c-0.6-2.5-1.4-4.9-2.3-7.3c-1.7-4.8-3.8-9.5-6.3-13.9
		c-1.3-2.2-2.7-4.3-4.3-6.3C9,51,7.2,49.3,5,48l0.2-0.4c-1.1,0.1-2.2,0.3-3.3,0.5c-0.7,0.1-1.3,0.3-2,0.5v25.6
		c0.1,0.3,0.2,0.6,0.4,0.8c0.8,1.6,1.7,3.3,2.9,4.8c1.2,1.5,2.7,2.9,4.2,4.4c1.5,1.5,2.8,3.3,3.5,5.6c0.3,1.1,0.4,2.2,0.4,3.4
		c0,1.1-0.2,2.3-0.5,3.4c-0.7,2.3-2.1,4.2-3.2,6.2c-0.5,1-1,2.1-1.3,3.2c-0.1,0.3-0.2,0.6-0.2,1l0.2,0.1c0,0-0.1,0.2-0.2,0.5
		c-0.1,0.6-0.1,1.3-0.1,1.9l0.2,0c0,0,0,0.3,0.1,1c0,0.6,0.1,1.6,0.1,2.7c0,0.3,0,0.7,0,1c0.4,3.2,0.9,6.5,0.7,9.8
		c-0.2,2.5-1,4.8-1.7,7.1c-0.7,2.3-1.5,4.6-1.8,6.9c-0.2,1.2-0.2,2.4,0,3.5c0.2,1.1,0.6,2.3,0.9,3.4c0.6,2.3,1,4.6,1.3,6.8
		c1.4,9,1,17.7-0.2,24.9c-1.1,7.2-3,13.1-4.6,17c-0.3,0.7-0.6,1.3-0.8,1.8V724h165.2c-0.3-6.4-0.5-12.9-0.8-19.3
		C163.8,693.2,161,682.7,159,671.7z"/>
	<path d="M270.1,408.4c0.2,2.4,0.5,5,0.8,7.9c0.1,1.3,0.3,2.6,0.4,3.9c0.1,1.3,0.2,2.7,0.3,4.1c0.2,2.8,0.5,5.7,0.8,8.8
		c1.3,12.3,2.9,26.7,4.7,42c0.9,7.7,1.9,15.6,2.9,23.7c1.1,8,2.7,16.1,5.8,23.6c1.6,3.8,3.5,7.4,5.5,10.9c2,3.5,4.4,6.8,6.8,10.1
		c1.1,1.5,2.1,3,3.1,4.6c0.3,0.3,0.5,0.6,0.9,1c-3.2-20.7-0.5-31.8,0.9-35.7c0.6-1.6,1.5-3,2.4-4.3c0.8-1.2,1.6-2.3,2-3.5
		c1-2.8,1.8-8.7,0.5-11.7l0.1-0.1c-0.1-0.2-0.2-0.5-0.3-0.7c-1.8-4.8-3.4-9.8-5-14.8c-3.1-10-5.8-20.1-8.4-29.5
		c-1.3-4.7-2.5-9.3-3.7-13.6c-0.6-2.2-1.2-4.3-1.8-6.3c-0.2-0.5-0.3-1-0.5-1.5c-0.2-0.5-0.3-0.9-0.5-1.4c-0.4-0.9-0.8-1.8-1.2-2.7
		c-1.7-3.5-3.3-6.7-4.7-9.6c0-0.1-0.1-0.1-0.1-0.2c-1.8-0.5-3.7-1.1-5.8-2C274.3,410.8,272.2,409.8,270.1,408.4z"/>
	<path d="M271.6,394.7C271.6,394.7,271.6,394.7,271.6,394.7c-0.1,0.3-0.3,0.7-0.4,1.1c-0.6,1.7-1.2,4.3-1.3,7.7c0,0.5,0,1,0,1.5
		c2.6,1.7,5.1,3.1,7.5,4c1.1,0.5,2.1,0.8,3.1,1.2c-0.1-0.2-0.1-0.3-0.2-0.5c-0.5-1.4-0.8-2.7-1.1-3.8c-0.5-2.3-0.9-4-1.1-5.2
		C275.9,398.7,273.7,396.7,271.6,394.7z"/>
	<path d="M278.7,398.7l0.5-0.1l-0.6-0.1C278.5,398.6,278.6,398.6,278.7,398.7z"/>
	<path d="M293.8,419.3c-1-1.5-2.1-3-3.2-4.4l0,0.2c0,0-0.3,0-1-0.1c-0.3,0-0.7,0-1.2-0.1c-0.5-0.1-1.1-0.1-1.7-0.2
		c-0.4-0.1-0.9-0.1-1.4-0.2c1.2,2.4,2.4,5.1,3.7,8c0.4,0.9,0.8,1.8,1.2,2.8c0.2,0.4,0.4,1,0.5,1.6c0.1,0.5,0.3,1,0.4,1.5
		c0.6,2.1,1.1,4.2,1.7,6.3c1.1,4.3,2.3,8.9,3.5,13.7c2.4,9.5,5,19.6,7.9,29.6c1.5,5,2.9,10,4.7,14.8c0.1,0.2,0.2,0.5,0.3,0.7
		l0.1-0.1c0.2,0.5,0.4,1,0.5,1.6c0.6,1.6,1.3,3.2,2.2,4.6c1.3,2.2,2.5,4.3,3.7,6.4c4.9,8.5,9,16.7,12.3,23.8
		c3.2,7.1,5.7,13.2,7.4,17.4c1.7,4.2,2.6,6.7,2.6,6.7s-1-2.4-2.8-6.6c-1.8-4.2-4.3-10.2-7.7-17.3c-3.4-7.1-7.7-15.1-12.7-23.5
		c-1.2-2.1-2.5-4.2-3.9-6.4c-0.4-0.6-0.7-1.1-1-1.7c0,2.9-0.6,5.9-1.3,7.7c-0.4,1.1-1,2.1-1.7,3c0,0.2,0,0.4,0,0.7
		c0,1,0,2.5,0.2,4.1c0.1,0.8,0.3,1.7,0.6,2.7c0.3,0.9,0.8,1.9,1.3,2.8c0.3,0.5,0.6,0.9,0.8,1.5c0.2,0.5,0.3,1.1,0.4,1.7
		c0.1,1.2,0.1,2.3,0,3.5c-0.1,1.2-0.1,2.3-0.1,3.4c0.1,1.1,0.3,2.2,0.9,3.1c0.5,0.9,1.3,1.7,2,2.3c0.8,0.6,1.5,1.2,2.2,1.8
		c0.7,0.6,1.2,1.1,1.6,1.7c0.4,0.6,0.6,1.2,0.7,1.7c0.1,0.5,0.1,0.9,0.1,1.2c0,0.3,0,0.4,0,0.4s0-0.1,0-0.4c0-0.3,0-0.7-0.1-1.2
		c-0.1-0.5-0.3-1.1-0.7-1.7c-0.4-0.6-1-1.1-1.6-1.7c-0.7-0.5-1.4-1.1-2.2-1.7c-0.8-0.6-1.6-1.4-2.1-2.3c-0.6-0.9-0.9-2.1-1-3.2
		c-0.1-1.2,0-2.3,0-3.5c0-1.2,0.1-2.3-0.1-3.4c-0.1-0.5-0.2-1.1-0.4-1.6c-0.2-0.5-0.5-0.9-0.8-1.4c-0.6-0.9-1-1.9-1.4-2.9
		c-0.3-1-0.6-1.9-0.7-2.8c-0.2-1.5-0.2-2.9-0.3-3.8c-0.8,1.1-1.6,2.3-2,3.6c-1.4,4-4.2,15.4-0.5,37c0.4,0.4,0.9,0.7,1.4,1.1
		c2,1.5,4.5,3,7.2,4.6c1.4,0.8,2.6,2.1,3.6,3.3c1,1.3,2.1,2.6,3.4,3.7c0.6,0.5,1.3,1.1,1.9,1.5c0.7,0.4,1.5,0.7,2.3,1
		c1.6,0.6,3.1,1.2,4.6,1.7c1.5,0.5,3,0.9,4.4,1.1c1.4,0.2,2.8,0.1,4.1,0c1.3-0.1,2.4-0.1,3.4-0.1c1,0,1.9,0.2,2.6,0.4
		c0.4,0.1,0.8,0.2,1.1,0.4c-2.5-7.2-9-22.8-9.9-29.7c-3.2-24.2-10.1-47.1-16-70.4c-3.4-9-7.6-19.8-13.5-31.7
		C301.5,431.8,298.1,425.5,293.8,419.3z"/>
	<path d="M86.3,73.4c1.9,2.2,3.5,5.1,4.8,8.4c1.2,3.3,2.1,7,3.1,10.9c1,3.9,2.1,8.2,4.4,12.1c1.2,1.9,2.6,3.8,4.5,5.3
		c1.8,1.5,4,2.7,6.3,3.7c4.6,2,9.6,3.5,14.8,4.8c5.2,1.3,10.7,2.4,16.3,3.5c5.6,1.1,11.4,2.3,17.3,3.7c1.4,0.4,2.9,0.7,4.3,1.1
		c-0.6-1.6-1.3-3.2-2-4.8c-4.4-10-9.7-19.6-17-27.3c-1.8-1.9-3.8-3.7-5.9-5.3c-2.1-1.6-4.3-3-6.6-4.3c-4.6-2.6-9.4-4.6-14.3-6.3
		c-9.8-3.4-19.8-5.5-29.5-7.9c-1.4-0.3-2.8-0.7-4.2-1C83.8,71,85.1,72.1,86.3,73.4z"/>
	<path d="M172.7,152.7c3.7,10.5,6.9,21.1,9.8,31.9c5.8,21.5,10.2,43.3,14,64.9c1.9,10.8,3.6,21.5,5.3,32.1c0.2,1.3,0.4,2.6,0.6,3.9
		c0.2,1.3,0.5,2.6,0.7,3.9c0.3,1.3,0.6,2.5,0.9,3.8c0.3,1.3,0.7,2.5,1,3.8c1.4,5,3.1,9.9,5.1,14.7c3.9,9.6,8.7,18.5,14,26.9
		c2.7,4.2,5.5,8.2,8.5,12c3,3.7,6.2,7.3,9.5,10.8c6.5,6.9,13.1,13.5,19.4,19.9c1.6,1.6,3.1,3.2,4.7,4.8c1.5,1.6,3,3.2,4.5,4.8
		c2.3,2.3,4.7,4.6,7,6.8c0.1-0.7,0.3-2.1,0.6-4.1c0.4-3.1,1-7.5,0.6-13.2c-0.4-5.7-1.9-12.5-5-19.9c-1.5-3.7-3.2-7.7-5.1-11.8
		c-1.9-4.2-3.9-8.5-5.7-13.2c-0.9-2.3-1.8-4.7-2.7-7.2c-0.8-2.5-1.7-5-2.5-7.6c-1.6-5.1-3.3-10.5-4.9-16c-3.2-11-6.3-22.7-9.4-34.8
		c-1.7-5.9-4.1-11.8-6.5-17.8c-2.3-6-4.5-12.2-6.5-18.4c-3.9-12.6-7.8-25.3-12.5-37.7c-4.8-12.4-10.3-24.6-17.3-35.6
		c-3.5-5.5-7.4-10.7-11.8-15.4c-4.4-4.6-9.2-8.8-14.5-12c-2.6-1.7-5.5-2.9-8.3-3.9c-0.9-0.3-1.8-0.6-2.7-0.9c1.2,3,2.4,6,3.5,9
		C169,142.3,170.8,147.5,172.7,152.7z"/>
	<path d="M259.9,383c-6.4-6.3-13.1-12.7-19.8-19.6c-3.3-3.5-6.7-7-9.8-10.9c-3.1-3.9-5.9-8-8.7-12.2c-5.4-8.5-10.3-17.7-14.3-27.4
		c-2-4.9-3.8-9.9-5.2-15c-0.3-1.3-0.7-2.6-1-3.9c-0.3-1.3-0.6-2.7-0.9-4c-0.2-1.3-0.5-2.6-0.7-3.9c-0.2-1.3-0.4-2.7-0.6-4
		c-1.6-10.6-3.3-21.3-5.1-32.1c-3.6-21.6-7.6-43.4-12.9-64.9c-2.7-10.8-5.7-21.4-9.2-31.9c-1.8-5.2-3.6-10.4-5.6-15.6
		c-0.1-0.4-0.3-0.7-0.4-1.1c0.4,2.1,0.7,4.8,0.9,7.9c0.3,4.6,0.2,10.2-0.1,16.5c-0.3,6.4-1,13.6-1.8,21.4c-0.4,3.9-0.8,8-1.1,12.2
		c-0.2,2.1-0.1,4.3-0.1,6.5c0,2.2,0,4.4,0.1,6.7c0.1,4.5,0.1,9.1,0.3,13.9c0.2,4.3,0.6,8.7,1.3,13.1c0.3,1,0.4,1.9,0.5,2.5
		c0.1,0.8,0.2,1.3,0.2,1.3l0,0c0.8,4,1.7,8.1,2.6,12.2c1.1,4.9,2.2,9.9,3.6,14.9c2.6,10,5.7,20,9.4,29.8c3.6,9.8,7.7,19.4,12.1,28.8
		c1.1,2.3,2.2,4.7,3.3,7c1.1,2.3,2.2,4.6,3.4,6.8c2.5,4.3,5.6,8.2,8.9,11.7c6.7,7,14.3,12.7,21.5,18.2c3.6,2.8,7,5.5,10.1,8.5
		c3.1,3.1,5.7,6.2,8.4,9.1c5.2,5.9,10.1,11.1,14.9,15.2c1.1,0.9,2.2,1.8,3.2,2.6c0-3.5,0.6-6.4,1.3-8.3c0.2-0.5,0.4-0.9,0.5-1.3
		c0.2-0.4,0.3-0.7,0.4-0.9c0,0,0,0,0-0.1c0,0-0.1,0-0.1-0.1C266.2,389.2,263.1,386.2,259.9,383z"/>
	<path d="M201,82.8c-0.2,0-0.5,0-0.7,0c-0.3,0-0.5,0-0.8,0.1c-0.3,0.1-0.5,0.1-0.8,0.2c-0.1,0-0.3,0.1-0.4,0.1
		c-0.1,0.1-0.3,0.1-0.4,0.2c-0.3,0.1-0.6,0.2-0.9,0.4c-0.6,0.3-1.2,0.6-1.7,1.1c-0.6,0.4-1.1,1-1.7,1.5c-0.5,0.6-1.1,1.2-1.5,1.8
		c-1,1.3-2,2.8-2.9,4.3c-1.6,2.6-3.1,5.3-4.8,8c-0.1,0.2-0.2,0.3-0.3,0.5c0.3-0.1,0.6-0.3,1-0.4c0.6-0.2,1.4-0.3,2.2-0.4
		c1.6-0.1,3.5,0,5.4,0.1c2,0.1,4,0.3,6.1,0.1c1-0.1,2-0.3,3-0.7c0.9-0.4,1.8-0.9,2.4-1.6c0.7-0.7,1.2-1.5,1.6-2.3
		c0.2-0.4,0.3-0.8,0.5-1.2c0.1-0.4,0.2-0.8,0.3-1.2c0.1-0.6,0.2-1.1,0.3-1.6c0-0.1-0.1-0.1-0.1-0.2c-1.4-3-3-5.9-4.7-8.7
		c-0.1,0-0.2,0-0.3,0C201.5,82.8,201.3,82.8,201,82.8z"/>
	<path d="M157.9,53.8c0.9,0.9,2,2,3.2,3.1c2.4,2.2,5.2,4.8,8.1,7.6c3,2.8,6.1,5.8,8.9,9.2c1.4,1.7,2.7,3.4,3.9,5.2
		c1.1,1.8,2.2,3.7,2.9,5.6c0.7,1.9,1.3,3.9,1.4,5.8c0.1,0.5,0.1,0.9,0.1,1.4c0,0.5,0,0.9,0,1.4c-0.1,0.9-0.1,1.8-0.3,2.6
		c-0.2,0.8-0.3,1.6-0.6,2.3c0,0,0,0.1,0,0.1c1.2-1.9,2.3-3.8,3.5-5.7c1-1.5,1.9-3,3-4.3c0.5-0.7,1.1-1.2,1.6-1.8
		c0.6-0.5,1.1-1.1,1.7-1.5c0.6-0.5,1.2-0.8,1.8-1.1c0.3-0.1,0.6-0.2,0.9-0.4c0.1-0.1,0.3-0.1,0.4-0.2c0.1,0,0.3-0.1,0.4-0.1
		c0.3-0.1,0.6-0.1,0.8-0.2c0.3,0,0.5,0,0.8,0c0.3,0,0.5,0,0.7,0c0.2,0,0.5,0.1,0.7,0.1c0.1,0,0.2,0,0.3,0
		c-5-8.3-11.4-15.8-19.4-21.2c-8.5-5.7-18.7-8.1-28.2-11.8c0.3,0.4,0.7,0.8,1.2,1.4C156.2,52,157,52.9,157.9,53.8z"/>
	<path d="M206.3,94.7c-0.1,0.4-0.3,0.8-0.5,1.2c-0.4,0.8-0.9,1.7-1.5,2.4c-0.7,0.7-1.6,1.3-2.5,1.8c-1,0.4-2,0.7-3.1,0.8
		c-2.1,0.3-4.2,0.2-6.2,0.1c-2-0.1-3.8-0.1-5.3,0.1c-0.8,0.1-1.4,0.2-2,0.4c-0.6,0.2-1,0.4-1.4,0.6c-0.2,0.1-0.3,0.2-0.4,0.3
		c-0.1,0.1-0.2,0.2-0.3,0.3c-0.2,0.1-0.2,0.2-0.3,0.2c-0.5,0.8-0.9,1.3-1.2,1.7c-0.3,0.4-0.5,0.6-0.5,0.6l-0.2-0.1
		c-0.4,0.5-0.8,1.1-1.2,1.6c-1.3,1.4-2.5,2.8-4,4c-0.7,0.6-1.4,1.1-2.2,1.6c-0.7,0.5-1.5,0.9-2.2,1.3c-0.8,0.3-1.5,0.7-2.3,1
		c-0.8,0.2-1.5,0.5-2.2,0.7c-0.7,0.2-1.4,0.3-2.1,0.4c-0.7,0.1-1.3,0.2-1.9,0.2c-1.2,0.1-2.3,0.1-3.1,0.1c-0.8-0.1-1.4-0.1-1.8-0.1
		c1,2,1.9,4,2.8,6c0.8,1.8,1.6,3.6,2.3,5.5c1.1,0.3,2.2,0.6,3.3,1c2.9,1,5.9,2.2,8.5,3.9c5.4,3.2,10.3,7.4,14.8,12.1
		c4.4,4.7,8.4,9.9,12,15.5c7.2,11.1,12.8,23.3,17.7,35.7c2.4,6.2,4.7,12.5,6.7,18.8c2.1,6.3,4,12.6,6.1,18.9
		c2.1,6.2,4.2,12.3,6.6,18.3c2.3,6,4.9,11.8,6.7,17.9c3.3,12.1,6.4,23.7,9.7,34.7c1.6,5.5,3.3,10.8,5,15.9c0.8,2.6,1.7,5.1,2.5,7.5
		c0.9,2.4,1.8,4.8,2.7,7.1c1.9,4.6,3.9,8.9,5.8,13.1c1.9,4.2,3.7,8.1,5.2,11.9c0.4,0.9,0.8,1.9,1.1,2.8c0.3,0.9,0.7,1.9,1,2.8
		c0.6,1.8,1.2,3.6,1.6,5.4c0.9,3.5,1.4,6.8,1.6,9.7c0.5,6-0.1,10.7-0.5,13.8c-0.3,2.4-0.6,4-0.6,4.5c0.1,0.3,0.2,0.8,0.3,1.6
		c0.1,0.3,0.1,0.6,0.2,0.9c3.5,3.5,6.7,7.2,9.6,10.9c0.1,0,0.2,0,0.2,0l0,0.2c1.6,2,3,4.1,4.4,6.1c4.2,6.4,7.6,12.8,10.6,18.9
		c4.3,9,7.7,17.4,10.5,24.9c-1.6-6.5-3-13.1-4.2-19.7c-5.7-31.1-13-62.6-27.1-91.1c-6.1-12.3-15.8-22.6-21.5-35
		c-6.3-13.5-11.3-28-14.1-42.2c-3.7-18.5-14.7-54.5-27.2-81c-0.2-11.4-1.4-23.7-3-31.4c-1.5-6.9-6.1-22.7-6.5-30.1
		c-0.7-14.7,0.8-25.9-5.7-39.7c-0.1,0.5-0.1,1-0.2,1.5C206.6,93.9,206.5,94.3,206.3,94.7z"/>
	<path d="M282.9,408.8c0.3,0.8,0.6,1.5,1,2.4c1.3,0.3,2.4,0.5,3.3,0.6c0.4,0,0.8,0.1,1.2,0.1c-2-2.5-4.2-5-6.6-7.4
		c0.1,0.3,0.1,0.6,0.2,0.9C282.2,406.4,282.5,407.6,282.9,408.8z"/>
	<path d="M44.5,10.1c-0.3,0.8-0.6,1.6-0.9,2.4c-0.5,1.6-0.8,3.2-1,4.8c-0.1,0.8-0.1,1.5-0.1,2.2c0,0.7,0.1,1.4,0.2,2
		c0.1,0.6,0.2,1.2,0.3,1.6c0.1,0.5,0.3,0.9,0.4,1.2c0.1,0.3,0.2,0.6,0.3,0.7c0.4,0.1,0.8,0.3,1.2,0.5c0.8,0.5,1.2,1,1.4,1.4
		c0.3,0.4,0.3,0.6,0.3,0.6l-0.3,0.2c0.5,0.3,0.9,0.5,1.4,0.8c1.7,0.7,3.6,0.9,5.5,0.9c1.9,0,3.8-0.2,5.7-0.2
		c1.9,0.1,3.8,0.5,5.4,1.5c1.6,1,2.8,2.6,3.5,4.2c1.4,3.3,2,6.8,3.4,9.6c0.4,0.7,0.8,1.4,1.3,2c0.5,0.6,1,1.1,1.6,1.6
		c1.2,1,2.3,2,3.3,3c2.1,2,3.8,4,5,6.1c1.2,2.1,1.8,4.1,1.8,5.9c0.1,1.8-0.3,3.1-0.7,4c-0.1,0.3-0.2,0.5-0.3,0.7
		c1.3,0.3,2.6,0.7,3.9,1c9.7,2.5,19.7,4.9,29.6,8.6c9.8,3.6,19.6,8.8,26.9,16.8c5.7,6.1,10.1,13.2,13.8,20.7c0.4,0,1.2,0.1,2.4,0.2
		c0.8,0,1.8,0,3,0c0.6-0.1,1.2-0.1,1.8-0.2c0.6-0.1,1.3-0.3,2-0.4c0.7-0.1,1.4-0.4,2.1-0.6c0.7-0.2,1.4-0.6,2.2-0.9
		c0.7-0.4,1.5-0.8,2.2-1.2c0.7-0.5,1.5-0.9,2.1-1.5c1.4-1.1,2.7-2.4,4-3.8c0.4-0.5,0.8-1,1.2-1.5l-0.2-0.1c0,0,0.2-0.2,0.5-0.6
		c0.3-0.4,0.8-1,1.3-1.8c0,0,0-0.1,0-0.1l0,0c0,0,0,0,0,0c0.5-0.8,1.1-1.6,1.6-2.8c0.1-0.3,0.3-0.6,0.4-0.9c0.1-0.3,0.2-0.7,0.4-1
		c0.3-0.7,0.4-1.4,0.6-2.2c0.2-0.8,0.2-1.6,0.4-2.4c0-0.4,0-0.9,0-1.3c0-0.4,0-0.9-0.1-1.3c-0.1-1.8-0.6-3.7-1.3-5.6
		c-0.7-1.9-1.7-3.7-2.8-5.5c-1.1-1.8-2.4-3.5-3.8-5.2c-2.7-3.3-5.8-6.4-8.7-9.2c-2.9-2.8-5.7-5.4-8-7.7c-1.2-1.1-2.2-2.2-3.1-3.1
		c-0.9-1-1.7-1.8-2.3-2.5c-0.5-0.6-0.9-1.1-1.2-1.4c-1.2-0.5-2.3-0.9-3.4-1.4c-10.8-4.8-10.1-7.6-24.2-11.9
		c-14.3-4.4-28.2-2.6-41.3-10.3C72.5,18.6,62,12,54,9.2c-4.5-1.6-6.9-2.4-8-4.3c-0.2,0.9-0.4,1.9-0.7,2.9
		C45.1,8.6,44.8,9.4,44.5,10.1z"/>
	<path d="M26.4,4.7c1.4,2.9,3.2,5.9,5.4,8.7c2.2,2.8,4.7,5.5,7.4,8.1c1.1,1,2.3,2,3.4,3c-0.1-0.3-0.2-0.7-0.3-1.1
		c-0.1-0.5-0.2-1.1-0.3-1.8c-0.1-0.6-0.1-1.4-0.1-2.1c0-0.7,0.1-1.5,0.1-2.3c0.2-1.6,0.6-3.3,1.2-4.9c0.3-0.8,0.6-1.6,1-2.4
		c0.3-0.8,0.6-1.5,0.9-2.3c0.4-1.1,0.7-2.1,0.9-3.1c-0.5-1.1-0.5-2.5-0.4-4.6h-21C25,1.5,25.6,3.1,26.4,4.7z"/>
</g>
<g id="Veins">
	<path class="st1" d="M203.6,83.2c0.4,0.1,0.7,0.2,0.7,0.2S204,83.3,203.6,83.2c-0.4-0.1-0.9-0.3-1.6-0.4c0,0,0,0,0,0
		C202.7,83,203.2,83.1,203.6,83.2z"/>
	<path class="st1" d="M344.5,569.9c0.4,0.2,0.5,0.3,0.5,0.3S344.9,570.1,344.5,569.9c-0.1-0.1-0.3-0.2-0.5-0.3c0,0,0,0,0,0
		C344.2,569.8,344.4,569.8,344.5,569.9z"/>
	<path class="st1" d="M154.1,49.6c-0.3-0.4-0.5-0.6-0.5-0.6S153.8,49.2,154.1,49.6c0,0.1,0.1,0.2,0.2,0.3c0,0,0,0,0,0
		C154.3,49.8,154.2,49.7,154.1,49.6z"/>
	<path class="st1" d="M207,91.4c0-0.6,0.1-1.2,0.1-1.6c0-0.9,0-1.4,0-1.4s0,0.5-0.1,1.4C207,90.2,206.9,90.7,207,91.4
		c-0.1,0.1-0.1,0.3-0.2,0.4c0,0.1,0.1,0.1,0.1,0.2C206.9,91.8,206.9,91.6,207,91.4z"/>
	<path class="st1" d="M270.8,550.6C270.8,550.6,270.8,550.6,270.8,550.6C270.8,550.6,270.8,550.6,270.8,550.6
		C270.8,550.6,270.8,550.6,270.8,550.6z"/>
	<path class="st1" d="M2.6,80.4c1.2,1.6,2.8,3,4.2,4.4c1.4,1.5,2.7,3.2,3.3,5.2c0.3,1,0.4,2.1,0.4,3.2c0,1.1-0.2,2.2-0.5,3.2
		c-0.6,2.1-2,4-3.1,6.1c-0.6,1.1-1,2.2-1.3,3.3c-0.1,0.3-0.1,0.6-0.2,0.9l-0.2-0.1c0,0-0.1,0.2-0.3,0.6c-0.2,0.4-0.4,0.9-0.8,1.6
		c-0.4,0.7-0.9,1.5-1.5,2.3c-0.7,0.8-1.5,1.7-2.6,2.4c0,0-0.1,0.1-0.1,0.1v1c0.2-0.1,0.4-0.2,0.6-0.4c1.2-0.8,2.1-1.7,2.8-2.5
		c0.7-0.9,1.3-1.7,1.7-2.4c0.1-0.1,0.1-0.2,0.2-0.4c0,0.2,0,0.4,0,0.5c0,0,0,0,0,0l-0.2,0c0,0,0,0.3,0.1,1c0,0.6,0.1,1.5,0.1,2.7
		c0,1.1,0,2.5-0.4,4.1c-0.4,1.5-1.1,3.2-2.2,4.8C2,123.1,1,124,0,124.9v1.1c1.3-1.1,2.5-2.1,3.3-3.4c0.6-0.9,1-1.7,1.4-2.6
		c0.4-0.8,0.7-1.7,0.9-2.5c0.1-0.3,0.1-0.6,0.2-0.9c0.3,2.5,0.6,4.9,0.4,7.4c-0.1,2.4-0.9,4.7-1.6,7c-0.7,2.3-1.4,4.6-1.8,7
		c-0.2,1.2-0.2,2.4,0,3.6c0.3,1.2,0.6,2.3,0.9,3.4c0.6,2.3,1,4.5,1.4,6.8c1.4,9,1.1,17.6,0,24.8c-1.1,7.2-2.9,13.1-4.5,17
		c-0.3,0.7-0.5,1.2-0.8,1.8v0.1c0.3-0.6,0.5-1.2,0.8-1.8c1.6-3.9,3.5-9.8,4.6-17c1.1-7.2,1.5-15.8,0.2-24.9
		c-0.3-2.3-0.8-4.5-1.3-6.8c-0.3-1.1-0.6-2.3-0.9-3.4c-0.2-1.1-0.1-2.3,0-3.5c0.3-2.3,1.1-4.6,1.8-6.9c0.7-2.3,1.5-4.6,1.7-7.1
		c0.2-3.3-0.3-6.6-0.7-9.8c0-0.4,0-0.7,0-1c0-1.2-0.1-2.1-0.1-2.7c0-0.6-0.1-1-0.1-1l-0.2,0c0-0.6,0-1.3,0.1-1.9
		c0.1-0.3,0.2-0.5,0.2-0.5L6.1,107c0.1-0.3,0.1-0.7,0.2-1c0.3-1.1,0.8-2.2,1.3-3.2c1.1-2,2.5-4,3.2-6.2c0.3-1.1,0.5-2.3,0.5-3.4
		c0-1.2-0.1-2.3-0.4-3.4c-0.6-2.2-2-4.1-3.5-5.6c-1.5-1.5-3-2.9-4.2-4.4c-1.2-1.5-2.1-3.1-2.9-4.8c-0.1-0.3-0.2-0.6-0.4-0.8v2
		C0.7,77.7,1.6,79.1,2.6,80.4z"/>
	<path class="st1" d="M45,7.7c-0.3,0.7-0.6,1.5-0.9,2.3c-0.3,0.8-0.7,1.5-1,2.4c-0.6,1.6-1,3.3-1.2,4.9c-0.1,0.8-0.2,1.6-0.1,2.3
		c0,0.7,0,1.4,0.1,2.1c0.1,0.6,0.2,1.2,0.3,1.8c0.1,0.4,0.2,0.8,0.3,1.1c-1.2-1-2.3-2-3.4-3c-2.7-2.5-5.3-5.2-7.4-8.1
		c-2.2-2.8-4-5.8-5.4-8.7C25.6,3.1,25,1.5,24.5,0h-0.1c0.5,1.6,1.2,3.1,1.9,4.7c1.4,3,3.2,5.9,5.3,8.8c2.1,2.9,4.7,5.6,7.4,8.1
		c1.2,1.1,2.4,2.2,3.7,3.3c0,0,0,0.1,0,0.1c-0.2,0-0.4,0-0.7,0c-1.2,0.1-2.4,0.4-3.7,0.6c-0.7,0.1-1.3,0.3-2,0.3c-0.7,0-1.5,0-2.2,0
		c-1.5,0-3.1-0.1-4.8-0.4c-1.6-0.3-3.3-0.9-4.8-1.7c-1.6-0.8-3.1-1.8-4.4-3c-2.7-2.4-4.8-5.3-6.4-8.3c-1.6-3-2.6-6-3.2-8.6
		c-0.3-1.3-0.5-2.5-0.6-3.6c0-0.2,0-0.3-0.1-0.5H9.8c0,0.2,0,0.3,0.1,0.5c0.1,1.1,0.3,2.3,0.6,3.6c0.6,2.6,1.5,5.7,3.1,8.7
		c1.5,3,3.7,6,6.3,8.5c1.3,1.2,2.8,2.3,4.4,3.1c1.6,0.8,3.3,1.4,4.9,1.8c1.7,0.3,3.3,0.4,4.9,0.5c0.8,0,1.5,0,2.3,0
		c0.8,0,1.5-0.2,2.1-0.3c1.3-0.3,2.5-0.5,3.6-0.5c0.9,0,1.6,0.1,2.2,0.4c0.4,0.3,0.7,0.7,1.1,1c0,0,0.1,0.1,0.1,0.1
		c0.1,0.1,0.1,0.1,0.1,0.2c0.2,0.3,0.3,0.6,0.3,0.5l0.3-0.2c0.5,0.3,1,0.6,1.5,0.9c1.8,0.8,3.7,1,5.6,1c1.9,0,3.8-0.2,5.6-0.1
		c1.8,0.1,3.7,0.5,5.2,1.5c1.6,0.9,2.6,2.4,3.3,4.1c1.4,3.2,1.8,6.7,3.4,9.7c0.4,0.7,0.8,1.5,1.3,2.1c0.5,0.7,1.1,1.2,1.7,1.7
		c1.2,1,2.3,2,3.3,3c2,2,3.7,4,4.8,5.9c1.1,2,1.6,3.9,1.6,5.5c0,1.6-0.3,2.8-0.6,3.6c-0.1,0.3-0.2,0.6-0.3,0.8
		c-8-2.1-15.7-4.4-23-7.5c-8.8-3.7-17.2-7.6-25.8-10.5c-4.6-1.6-9.4-2.9-14.1-3.7c4.1-8.5-0.3-13.9-5-19.7c-2.8-3.4-5.7-7-7-11.5
		C6.2,9.9,6.1,4.9,6.6,0h-1C5.1,5,5.2,10,6.7,14.9c1.4,4.7,4.4,8.3,7.2,11.8c4.7,5.8,8.8,10.8,4.7,18.9c-3.6-0.5-7.2-0.8-10.8-0.5
		c-2.1,0.1-4.2,0.4-6.3,0.9c-0.5,0.1-1,0.2-1.5,0.4v2.2c0.7-0.2,1.3-0.4,2-0.5c1.1-0.2,2.2-0.4,3.3-0.5L5,48c2.2,1.3,4,3.1,5.6,5
		c1.6,2,3,4.1,4.3,6.3c2.5,4.4,4.6,9.1,6.3,13.9c0.9,2.4,1.6,4.9,2.3,7.3c0.6,2.5,1.2,5,1.5,7.5c0.3,2.5,0.9,5.1,1.9,7.5
		c1,2.4,2.3,4.7,3.8,6.8c1.4,2,2.8,4,4.1,6l-0.2,0.1c0,0,0.1,0.4,0.4,1.1c0.2,0.7,0.5,1.7,0.6,3.1c0.3,2.8,0,6.9-1.4,11.6
		c-0.7,2.3-1.6,4.8-3.1,7.1c-0.7,1.1-1.8,2.2-2.7,3.3c-1,1.1-1.9,2.3-2.8,3.6c-1.8,2.5-3.4,5.3-4.9,8.2c-0.7,1.5-1.5,2.9-2.1,4.4
		c-0.6,1.5-1,3.2-1.2,4.8c-0.3,3.3,0.3,6.6-0.3,9.8c-0.1,0.8-0.4,1.6-0.6,2.3c-0.3,0.7-0.6,1.5-0.8,2.2c-0.3,0.7-0.4,1.5-0.6,2.3
		c-0.1,0.8-0.3,1.5-0.4,2.3c-0.5,3-0.8,6-1.1,8.8c-0.3,2.8-0.4,5.5-0.6,7.9c-0.3,4.9-0.4,9-0.4,11.9c0,2.9,0,4.5,0,4.5s0-1.6,0-4.5
		c0.1-2.9,0.2-7,0.5-11.9c0.2-2.5,0.3-5.1,0.6-7.9c0.3-2.8,0.6-5.8,1.1-8.8c0.1-0.8,0.3-1.5,0.5-2.3c0.2-0.7,0.4-1.5,0.6-2.2
		c0.3-0.7,0.5-1.5,0.9-2.2c0.3-0.8,0.5-1.6,0.6-2.4c0.6-3.2,0.1-6.6,0.4-9.8c0.2-1.6,0.6-3.2,1.2-4.7c0.6-1.5,1.4-2.9,2.1-4.4
		c1.5-2.9,3.1-5.6,4.9-8c0.9-1.2,1.9-2.4,2.8-3.5c0.9-1.1,2-2.1,2.8-3.4c1.6-2.4,2.6-4.9,3.3-7.3c1.5-4.8,1.8-9,1.5-11.9
		c-0.1-0.6-0.1-1.2-0.2-1.7c0.8,1.5,1.6,3,2.3,4.5c1.1,2.3,2,4.7,2.6,7.2c0.3,1.2,0.4,2.5,0.3,3.8c-0.1,1.3-0.5,2.5-1.2,3.6
		c-0.7,1.1-1.5,2.1-2.2,3.2c-0.7,1.1-1.3,2.2-1.7,3.5c-0.8,2.5-0.8,5.2,0.1,7.6c0.8,2.4,2.4,4.6,4.3,6.3c1.9,1.8,4.1,3.1,6.5,4.1
		l0,0l0,0c0.1-0.1,0.3-0.1,0.5,0c0.2,0,0.3,0.1,0.5,0.2c0.3,0.2,0.6,0.3,0.9,0.5c0.6,0.4,1.1,0.8,1.7,1.2l1.7,1.3
		c0.3,0.2,0.6,0.4,0.9,0.6c0.1,0.1,0.3,0.2,0.5,0.3c0.1,0.1,0.4,0.2,0.5,0c-0.1,0.2-0.3,0.1-0.5,0c-0.2-0.1-0.3-0.2-0.5-0.3
		c-0.3-0.2-0.6-0.4-0.9-0.6l-1.7-1.3c-0.6-0.4-1.1-0.9-1.7-1.3c-0.3-0.2-0.6-0.4-0.9-0.5c-0.2-0.1-0.3-0.2-0.5-0.2
		c-0.2,0-0.4-0.1-0.5,0c-2.4-1-4.6-2.4-6.4-4.1c-1.8-1.8-3.4-3.9-4.2-6.3c-0.8-2.4-0.9-5.1,0-7.5c0.4-1.2,1-2.3,1.7-3.4
		c0.7-1.1,1.5-2,2.2-3.2c0.7-1.1,1.1-2.4,1.3-3.7c0.1-0.6,0.1-1.3,0-2c-0.1-0.6-0.1-1.3-0.3-1.9c-0.5-2.5-1.5-4.9-2.5-7.3
		c-0.9-2.1-1.9-4.1-3.1-6c0,0,0,0,0,0c-0.3-0.7-0.4-1.1-0.4-1.1l-0.2,0.1c-1.3-2.1-2.8-4.1-4.1-6.1c-1.4-2.1-2.7-4.3-3.6-6.7
		c-0.9-2.4-1.5-4.8-1.8-7.4c-0.3-2.6-0.8-5.1-1.5-7.6c-0.6-2.5-1.4-5-2.2-7.4c-1.7-4.9-3.7-9.6-6.3-14.1c-1.3-2.2-2.7-4.4-4.3-6.4
		c-0.8-1-1.7-2-2.7-2.9c-0.8-0.7-1.7-1.4-2.6-2c0.6-0.1,1.2-0.1,1.8-0.1c8.1-0.5,16.6,1.5,25,4.5c4.3,1.5,8.7,3.3,13.1,5.2
		c-0.1,0.2-0.1,0.4-0.2,0.7c-0.1,0.4-0.3,0.9-0.5,1.4c0,0,0,0.1-0.1,0.1c-0.1,0.2-0.2,0.4-0.3,0.7c0,0,0,0.1,0,0.1
		c-0.4,0.8-0.9,1.7-1.3,2.7c-0.5,1.1-0.8,2.3-1.2,3.6c-0.2,0.6-0.3,1.4-0.3,2.1c0,0.7,0.1,1.4,0.1,2.1c0.2,2.8,0.2,6,1.1,9
		c0.2,0.7,0.6,1.5,1,2.1c0.5,0.6,1,1.1,1.4,1.7c0.9,1.2,0.8,2.7,0.6,4.1c-0.2,1.4-0.6,2.7-1.2,3.9c-0.5,1.2-1.2,2.3-1.6,3.4
		c-0.4,1.1-0.5,2.2-0.4,3.1c0.1,0.9,0.3,1.7,0.4,2.4c0.2,0.7,0.4,1.1,0.5,1.5c0.1,0.3,0.2,0.5,0.2,0.5s-0.1-0.2-0.2-0.5
		c-0.1-0.3-0.3-0.8-0.5-1.5c-0.2-0.6-0.4-1.4-0.4-2.4c-0.1-0.9,0.1-2,0.5-3c0.4-1.1,1.1-2.1,1.6-3.3c0.6-1.2,1-2.5,1.3-4
		c0.3-1.4,0.3-3.1-0.6-4.4c-0.4-0.7-1-1.2-1.4-1.8c-0.4-0.6-0.7-1.2-0.9-2c-0.4-1.5-0.6-3-0.7-4.5c-0.1-1.5-0.1-3-0.2-4.4
		c0-0.7-0.1-1.4-0.1-2.1c0-0.7,0.1-1.3,0.3-1.9c0.4-1.2,0.7-2.4,1.2-3.3c0,0.2,0,0.4,0,0.6c0.1,1.1,0.5,2.3,1,3.5
		c1.2,2.4,3.2,4.7,5.5,7c2.3,2.3,5,4.5,7.3,7c1.2,1.2,2.2,2.7,2.8,4.2c0.7,1.5,1.2,3.1,1.8,4.6c0.7,1.5,1.6,2.8,2.5,3.9
		c1,1.1,2.1,2,3.1,2.8c2,1.6,3.7,3,4.6,4.2c0.5,0.6,0.8,1.1,1,1.4c0.2,0.4,0.3,0.5,0.3,0.5s-0.1-0.2-0.3-0.6c-0.2-0.4-0.5-0.9-1-1.5
		c-0.9-1.2-2.6-2.6-4.6-4.3c-1-0.8-2.1-1.7-3-2.9c-0.9-1.1-1.8-2.4-2.4-3.9c-0.6-1.5-1.1-3.1-1.8-4.7c-0.7-1.6-1.7-3.1-2.8-4.4
		c-2.3-2.6-5-4.8-7.2-7.2c-2.3-2.3-4.2-4.6-5.3-6.9c-0.5-1.1-0.8-2.2-0.9-3.2c-0.1-1,0-1.9,0.3-2.5c0.1-0.3,0.2-0.6,0.3-0.9
		c0.1-0.2,0.2-0.5,0.3-0.6c0.2-0.4,0.3-0.5,0.3-0.5l-0.1,0c0.2-0.4,0.3-0.7,0.4-1.1c0.1-0.2,0.1-0.4,0.2-0.6c3.8,1.7,7.7,3.4,11.6,5
		c4.4,1.8,9.1,3.5,13.8,4.9c3.3,1,6.7,1.9,10.1,2.7c1.3,0.9,2.6,2,3.8,3.4c1.9,2.2,3.5,5.1,4.7,8.4c1.2,3.3,2.1,7,3.1,10.9
		c1,3.9,2.1,8.2,4.4,12.1c1.2,2,2.7,3.8,4.5,5.4c1.8,1.5,4,2.8,6.3,3.8c4.6,2.1,9.6,3.6,14.8,4.9c5.2,1.3,10.7,2.5,16.3,3.7
		c5.6,1.2,11.4,2.3,17.2,3.8c1.6,0.4,3.2,0.8,4.8,1.3c1.1,2.8,2.2,5.7,3.3,8.6c0.4,2.1,0.7,4.8,0.9,8c0.3,4.6,0.2,10.2-0.2,16.5
		c-0.4,6.4-1,13.6-1.9,21.4c-0.4,3.9-0.9,8-1.2,12.2c-0.2,2.1-0.1,4.3-0.1,6.5c0,2.2,0,4.4,0,6.7c0,4.5,0,9.1,0.2,13.9
		c0.1,3.2,0.3,6.5,0.7,9.9c-0.4-0.9-1-1.9-1.7-2.8c-0.6-0.9-1.4-1.7-2.4-2.5c-0.9-0.8-2.1-1.4-3.2-2c-1.2-0.6-2.4-1.2-3.6-1.9
		c-1.2-0.7-2.2-1.7-3.2-2.9c-1-1.2-1.9-2.4-2.8-3.7c-0.8-1.4-1.4-2.9-1.8-4.5c-0.4-1.6-0.4-3.3-0.6-5c-0.2-1.7-0.4-3.4-0.7-5.1
		c-0.3-1.7-0.6-3.4-1-5.1l0.1,0c0,0-0.1-0.6-0.3-1.8c-0.2-1.1-0.5-2.7-0.3-4.6c0.1-1,0.3-2,0.5-3.1c0.2-1.1,0.5-2.2,0.8-3.4
		c0.3-1.2,0.7-2.4,1.3-3.5c0.3-0.6,0.6-1.1,1-1.6c0.4-0.5,1-0.9,1.5-1.3c0.5-0.4,1-0.9,1.3-1.5c0.3-0.6,0.5-1.2,0.6-1.8
		c0.2-1.3,0.1-2.5-0.1-3.7c-0.3-2.4-1.5-4.5-1.5-6.5c0-1,0.2-1.9,0.4-2.6c0.2-0.7,0.5-1.4,0.8-1.9c0.5-1,0.9-1.6,0.9-1.6
		s-0.4,0.5-0.9,1.6c-0.3,0.5-0.5,1.1-0.8,1.9c-0.3,0.7-0.4,1.6-0.4,2.6c0,1,0.3,2,0.6,3.1c0.3,1.1,0.7,2.2,0.8,3.4
		c0.2,1.2,0.2,2.5,0,3.7c-0.1,0.6-0.3,1.2-0.6,1.8c-0.3,0.6-0.8,1-1.3,1.4c-0.5,0.4-1,0.8-1.5,1.3c-0.5,0.5-0.8,1-1.1,1.6
		c-0.5,1.2-1,2.4-1.3,3.5c-0.3,1.2-0.6,2.3-0.9,3.4c-0.2,1.1-0.4,2.1-0.5,3.1c-0.2,2,0.1,3.6,0.3,4.7c0,0.2,0,0.3,0.1,0.5
		c-0.3-1.3-0.7-2.6-1.1-3.9c-1.1-3.4-2.4-6.6-4.1-9.7c-0.7-1.3-1.5-2.6-2.4-3.8l0,0c0,0-0.3-0.7-0.8-1.8c-0.6-1.1-1.4-2.7-2.4-4.6
		c-1-1.9-2.1-4.2-2.8-6.7c-0.4-1.3-0.6-2.7-0.7-4.1c-0.1-1.4-0.2-2.8-0.2-4.3c0-2.9,0.1-5.7,0-8.4c0-1.3,0-2.6-0.1-3.9
		c-0.1-1.2-0.4-2.4-0.8-3.4c-0.5-1-1.1-1.7-1.7-2.4c-0.6-0.6-1.2-1.2-1.6-1.6c-0.9-0.9-1.5-1.3-1.5-1.3s0.6,0.5,1.5,1.3
		c0.5,0.4,1,1,1.6,1.6c0.6,0.6,1.2,1.4,1.7,2.4c0.5,1,0.7,2.1,0.8,3.3c0.1,1.2,0.1,2.5,0.1,3.9c0,2.7-0.1,5.6-0.1,8.4
		c0,1.4,0,2.9,0.1,4.3c0.1,1.4,0.3,2.8,0.7,4.1c0.7,2.6,1.9,4.9,2.8,6.8c1,1.9,1.8,3.5,2.4,4.6c0.2,0.4,0.4,0.7,0.5,1
		c-0.9-1.3-2-2.6-3-3.8c-4.4-5-9.5-8.6-14.1-11.2c-2.3-1.3-4.5-2.4-6.4-3.2c-1-0.4-1.9-0.8-2.8-1.2c-0.9-0.4-1.7-0.7-2.4-0.9
		c-1.4-0.5-2.6-0.9-3.4-1.2c-0.8-0.3-1.2-0.4-1.2-0.4s0.4,0.1,1.2,0.4c0.8,0.3,1.9,0.7,3.4,1.2c0.7,0.3,1.5,0.6,2.4,0.9
		c0.9,0.3,1.8,0.7,2.8,1.2c2,0.9,4.1,1.9,6.4,3.2c4.6,2.6,9.7,6.2,14,11.2c2.2,2.5,4.1,5.3,5.8,8.3c1.6,3,3,6.3,4.1,9.7
		c1,3.4,1.8,6.8,2.3,10.2c0.3,1.7,0.5,3.4,0.7,5.1c0.2,1.7,0.2,3.4,0.6,5c0.3,1.6,1,3.2,1.8,4.6c0.8,1.4,1.8,2.6,2.8,3.8
		c0.9,1.2,2,2.3,3.3,3c1.2,0.8,2.5,1.3,3.6,1.9c1.2,0.6,2.2,1.2,3.2,2c0.9,0.7,1.6,1.6,2.3,2.5c1.2,1.5,1.9,3.1,2.3,4.4
		c0.1,0.9,0.2,1.8,0.4,2.7c0.8,4.9,1.9,9.8,2.9,14.7c1.1,5,2.1,10,3.4,15c2.5,10,5.6,20.1,9.1,30c3.5,9.9,7.6,19.6,11.8,29
		c1.1,2.3,2.2,4.7,3.2,7c1.1,2.3,2.1,4.6,3.4,6.9c2.5,4.5,5.6,8.5,9,12.2c6.8,7.3,14.4,13.1,21.5,18.7c2.4,1.9,4.7,3.8,6.9,5.7
		c-0.1,0.3-0.3,0.6-0.5,1c-0.7,1.2-1.7,3.2-2.8,5.6c-1.1,2.5-2.3,5.6-3.1,9.3c-0.9,3.7-1.3,7.9-1.4,12.5c-0.1,4.6,0.2,9.6,0.6,14.8
		c0.3,2.6,0.5,5.3,0.8,8c0.1,0.7,0.2,1.4,0.2,2c0.1,0.7,0.2,1.4,0.3,2.1c0.2,1.4,0.5,2.8,0.9,4.2c1.4,5.6,3.6,11.1,6.1,16.5
		c2.5,5.4,5.2,10.9,8.1,16.2c2.2,4,4.4,8,6.7,11.9l-0.2,0.1c0,0,0.1,0.3,0.4,0.7c0.3,0.5,0.6,1.1,1.1,2.1c0.9,1.8,2,4.5,3,7.8
		c0.5,1.7,1,3.5,1.4,5.4c0.2,1,0.4,2,0.5,3c0.1,1,0.3,2.1,0.4,3.2c0.7,4.3,1.7,8.9,3.4,13.3c1.7,4.3,3.7,8.5,5,12.7
		c0.7,2.1,1.1,4.1,1.4,6.1c0.3,2,0.4,3.9,0.6,5.6c0.3,3.5,0.6,6.4,1,8.4c0.2,1,0.4,1.8,0.6,2.3c0.2,0.4,0.3,0.7,0.3,0.7c0,0,0,0,0,0
		c0-0.1-0.1-0.3-0.3-0.8c-0.1-0.5-0.4-1.3-0.5-2.3c-0.4-2-0.6-4.9-0.8-8.4c-0.1-1.7-0.2-3.6-0.5-5.6c-0.3-2-0.7-4.1-1.3-6.2
		c-1.2-4.2-3.1-8.5-4.8-12.8c-1.6-4.3-2.5-8.9-3.1-13.2c-0.1-1.1-0.2-2.1-0.4-3.2c-0.1-1.1-0.3-2.1-0.4-3.1c-0.4-2-0.8-3.8-1.3-5.5
		c-0.2-0.5-0.3-1-0.5-1.5c2,3.4,4,6.8,6,10.1c2.9,4.9,5.7,9.6,8.2,14.1c1.3,2.3,2.5,4.5,3.7,6.6c1.2,2.1,2.1,4.3,3,6.4
		c1.7,4.2,2.7,8.2,3.9,11.7c1.1,3.5,2.3,6.5,3.7,8.8c1.3,2.3,2.7,3.9,3.7,4.9c0.5,0.5,0.9,0.9,1.2,1.1c0.3,0.2,0.4,0.4,0.4,0.4
		s-0.1-0.1-0.4-0.4c-0.3-0.2-0.7-0.6-1.2-1.1c-1-1-2.4-2.6-3.6-4.9c-1.3-2.3-2.5-5.3-3.5-8.8c-1.1-3.5-2.1-7.6-3.7-11.8
		c-0.8-2.1-1.8-4.3-2.9-6.5c-1.2-2.2-2.4-4.4-3.6-6.7c-2.5-4.5-5.2-9.3-8-14.2c-2.9-5.1-5.9-10.3-8.9-15.7c-0.1-0.2-0.2-0.4-0.2-0.5
		c-0.4-0.9-0.8-1.7-1.1-2.2c-0.3-0.5-0.4-0.7-0.4-0.7l-0.2,0.1c-2.2-4-4.4-8-6.5-12c-2.8-5.4-5.5-10.8-7.8-16.2
		c-2.3-5.4-4.4-10.9-5.7-16.3c-0.7-2.7-1-5.4-1.3-8.1c-0.3-2.7-0.5-5.4-0.7-7.9c-0.3-5.2-0.5-10-0.3-14.5c0.2-4.5,0.7-8.5,1.6-12
		c0.9-3.5,2-6.4,3.1-8.7c1.1-2.4,2.1-4.1,2.8-5.4c0.1-0.1,0.1-0.2,0.2-0.3c0.2,0.2,0.5,0.4,0.7,0.7c2.9,3,5.6,6.1,8.1,9.1
		c5.1,6,10,11.4,15,15.6c1.7,1.5,3.4,2.8,5.1,4c0.2,3,0.7,6.5,1.1,10.1c0.1,1.2,0.3,2.5,0.4,3.8c0.1,1.3,0.2,2.7,0.3,4.1
		c0.3,2.8,0.6,5.8,0.9,8.9c1.3,12.3,3.1,26.7,5,42c1,7.7,2,15.6,3.2,23.7c0.6,4,1.3,8.1,2.3,12.1c1,4,2.3,8,4,11.9
		c3.3,7.6,7.8,14.8,12.8,21.2c2.2,3,4.3,6,5.9,9.2c0,0.2,0.1,0.3,0.1,0.5l0.1,0c0.1,0.1,0.1,0.3,0.2,0.4c0,0.1,0,0.1,0.1,0.2
		c0.1,0.3,0.2,0.9,0.3,1.5c0.1,0.6,0.2,1.4,0.4,2.4c0.1,0.9,0.2,2,0.2,3.1c0,1.1,0,2.4,0,3.7c-0.1,1.3-0.2,2.7-0.5,4.1
		c-0.5,2.8-1.2,5.8-2.2,8.7c-1,2.9-2.2,5.8-3.3,8.4c-0.5,1.3-1.1,2.6-1.5,3.9c-0.4,1.3-0.7,2.5-1,3.6c-0.5,2.3-0.6,4.2-0.7,5.5
		c-0.2,1.3-0.2,2.1-0.2,2.1s0.1-0.8,0.3-2.1c0.2-1.3,0.3-3.3,0.9-5.5c0.3-1.1,0.6-2.3,1.1-3.6c0.4-1.2,1-2.5,1.6-3.8
		c0.6-1.4,1.2-2.8,1.8-4.2c-0.2,1.1-0.3,2.5-0.3,4.1c0,2.1,0.2,4.5,0.5,7.1c0.1,1.3,0.3,2.6,0.4,4c0.1,1.4,0.1,2.8,0,4.1
		c0,0.7,0,1.4,0.1,2.1c0.1,0.7,0.3,1.4,0.6,2c0.3,0.6,0.5,1.3,0.7,1.9c0.2,0.6,0.4,1.3,0.5,1.9c0.3,1.3,0.5,2.5,0.6,3.7
		c0.1,1.2,0.2,2.3,0.1,3.4c0,2.1-0.3,3.8-0.4,5c-0.2,1.2-0.2,1.9-0.2,1.9s0-0.7,0.2-1.9c0.1-1.2,0.4-2.9,0.4-5c0-1,0-2.2-0.1-3.4
		c-0.1-1.2-0.3-2.4-0.6-3.7c-0.1-0.6-0.4-1.3-0.5-1.9c-0.2-0.6-0.5-1.3-0.7-1.9c-0.2-0.6-0.4-1.3-0.5-2c-0.1-0.7-0.1-1.4-0.1-2.1
		c0.1-1.4,0.1-2.8,0-4.2c-0.1-1.4-0.2-2.7-0.3-4c-0.3-2.6-0.5-5-0.4-7.1c0-2.1,0.2-3.8,0.5-5c0-0.1,0-0.2,0.1-0.3c0.4-1,0.8-2,1.1-3
		c1.1-2.9,1.9-5.9,2.4-8.8c0.3-1.4,0.4-2.8,0.5-4.2c0.1-1.3,0.1-2.6,0.1-3.8c0-0.6,0-1.1-0.1-1.6c0,0,0,0,0,0.1
		c0.4,1.9,0.7,3.9,1.3,5.8c0.4,1.2,1,2.4,1.6,3.5c0.2,0.5,0.4,1.1,0.5,1.7c0.1,0.4,0.2,0.8,0.4,1.2c0.1,0.4,0.2,0.9,0.3,1.3
		c0.2,0.9,0.3,1.9,0.5,2.8c0.1,1,0.2,2,0.3,3.1c0,0.5,0.1,1,0.1,1.6c0,0.5,0,1.1,0,1.6l-0.1,1.6c-0.1,0.5-0.1,1.1-0.2,1.6
		c-0.1,1-0.3,2.1-0.4,3.1c-0.2,1-0.3,1.9-0.6,2.8c-0.2,0.9-0.4,1.7-0.6,2.5c-0.2,0.8-0.4,1.5-0.6,2.1c-0.2,0.6-0.3,1.2-0.5,1.6
		c-0.3,0.9-0.4,1.4-0.4,1.4s0.2-0.5,0.6-1.4c0.2-0.4,0.4-1,0.6-1.6c0.2-0.6,0.5-1.3,0.8-2.1c0.3-0.8,0.5-1.6,0.8-2.5
		c0.3-0.9,0.5-1.9,0.7-2.9c0.2-1,0.4-2,0.5-3.1c0.1-0.5,0.1-1.1,0.2-1.6l0.1-1.2c0.1,0.3,0.2,0.5,0.3,0.9c0.2,0.7,0.4,1.7,0.7,2.7
		c0.3,1,1.1,2.1,2.1,2.9c1.1,0.8,2.3,1.6,3.2,2.8c1,1.2,1.7,2.6,2.5,4c0.4,0.7,0.8,1.4,1.4,2.1c0.5,0.7,1.2,1.3,1.8,1.8
		c1.3,1.1,2.9,2.1,4.1,3.3c0.6,0.6,1.2,1.3,1.7,2c0.4,0.8,0.6,1.6,0.9,2.5c0.5,1.7,1,3.3,1.4,4.9c0.8,3.2,1.6,6.2,2.2,8.8
		s1.1,4.7,1.5,6.2c0.4,1.5,0.6,2.4,0.6,2.4s-0.2-0.8-0.6-2.4c-0.4-1.5-0.9-3.7-1.5-6.2c-0.6-2.6-1.3-5.6-2.2-8.8
		c-0.4-1.6-0.9-3.3-1.4-4.9c-0.3-0.8-0.5-1.7-0.9-2.5c-0.4-0.8-1-1.4-1.7-2.1c-1.3-1.2-2.8-2.2-4.1-3.3c-0.7-0.6-1.3-1.2-1.8-1.8
		c-0.5-0.7-1-1.4-1.4-2.1c-0.8-1.4-1.5-2.9-2.5-4.1c-1-1.2-2.2-2-3.2-2.8c-1-0.8-1.7-1.8-2-2.9c-0.3-1-0.4-2-0.7-2.7
		c-0.1-0.6-0.3-1-0.5-1.4c0-0.5,0-1,0-1.5c0-0.5,0-1.1-0.1-1.6c-0.1-1.1-0.2-2.1-0.4-3.1c-0.2-1-0.4-2-0.7-2.9
		c-0.1-0.4-0.3-0.9-0.4-1.3c-0.1-0.4-0.3-0.8-0.4-1.1c0,0,0,0.1,0.1,0.1c1.2,1.5,2.6,2.8,4.1,4c2.9,2.3,5.9,4.4,8.4,6.9
		c1.3,1.2,2.4,2.6,3.8,3.7c1.4,1.1,2.9,2,4.6,2.4c3.4,0.9,6.6,0.1,9.7,0.3c1.5,0.1,3,0.5,4.3,1c1.3,0.6,2.6,1.3,3.7,2.2
		c1.1,0.9,2.1,1.8,3.3,2.5c1.1,0.7,2.3,1.3,3.5,1.7c2.4,0.9,4.7,1.2,6.9,1.7c2.1,0.4,4.1,1,5.7,1.6c1.5,0.6,2.8,1.2,3.9,1.8
		c0-0.1-0.1-0.1-0.1-0.2c-1.1-0.6-2.3-1.2-3.7-1.8c-1.7-0.7-3.6-1.2-5.7-1.7c-2.1-0.5-4.5-0.8-6.8-1.7c-1.2-0.4-2.3-1-3.4-1.7
		c-1.1-0.7-2.1-1.6-3.2-2.5c-1.1-0.9-2.4-1.7-3.7-2.3c-1.4-0.6-2.9-1-4.5-1.1c-3.1-0.3-6.4,0.5-9.6-0.4c-1.6-0.4-3-1.3-4.3-2.4
		c-1.3-1-2.4-2.4-3.7-3.7c-2.1-2.1-4.5-3.9-6.8-5.8c0.4,0.2,0.9,0.5,1.4,0.7c0.8,0.4,1.8,0.7,2.8,0.8c1,0.2,2.2,0,3.3-0.3
		c1.1-0.3,2.2-0.8,3.4-0.8c1.2-0.1,2.4,0,3.6,0.1c1.2,0.1,2.4,0.1,3.6-0.1c1.2-0.2,2.3-0.5,3.5-0.6c1.1-0.1,2.2-0.1,3.2,0.3
		c1,0.4,1.8,0.9,2.5,1.4c0.7,0.5,1.4,1.1,2,1.5c0.6,0.4,1.2,0.7,1.7,0.8c0.5,0.2,0.9,0.2,1.2,0.2c0.3,0,0.4,0,0.4,0s-0.2,0-0.4,0
		c-0.3,0-0.7-0.1-1.2-0.2c-0.5-0.2-1.1-0.4-1.7-0.8c-0.6-0.4-1.3-0.9-2-1.5c-0.7-0.5-1.6-1.1-2.5-1.5c-1-0.4-2.1-0.4-3.3-0.3
		c-1.1,0.1-2.3,0.4-3.5,0.5c-1.2,0.2-2.4,0.1-3.6,0c-1.2-0.1-2.4-0.2-3.6-0.1c-1.2,0-2.3,0.5-3.4,0.8c-1.1,0.3-2.2,0.4-3.2,0.2
		c-1-0.1-2-0.5-2.8-0.8c-0.8-0.4-1.6-0.8-2.2-1.1c-0.2-0.1-0.4-0.3-0.6-0.4c-0.1-0.1-0.2-0.1-0.3-0.2c-1.4-1.2-2.8-2.5-3.9-3.9
		c-1.1-1.5-2-3.1-2.6-4.9c-0.6-1.8-0.8-3.7-1.2-5.7c-0.4-1.9-1-3.9-1.8-5.8c0-0.1,0-0.1-0.1-0.2l0.1,0c-0.1-0.6-0.2-1.1-0.3-1.7
		c0.2,0.2,0.4,0.3,0.6,0.5c2.1,1.5,4.6,3,7.4,4.5c1.4,0.7,2.5,1.9,3.5,3.1c1,1.3,2.2,2.6,3.5,3.7c0.6,0.5,1.3,1.1,2,1.5
		c0.8,0.4,1.6,0.7,2.3,1c1.6,0.5,3.1,1.1,4.6,1.6c1.5,0.5,3,0.9,4.4,1.1c1.4,0.2,2.8,0,4.1,0c1.3-0.1,2.4-0.2,3.4-0.1
		c1,0,1.9,0.2,2.6,0.3c0.4,0.1,0.8,0.2,1.1,0.3c0,0,0,0,0,0c-0.3-0.1-0.6-0.2-1.1-0.4c-0.7-0.2-1.6-0.3-2.6-0.4c-1,0-2.2,0-3.4,0.1
		c-1.3,0.1-2.6,0.2-4.1,0c-1.4-0.2-2.9-0.6-4.4-1.1c-1.5-0.5-3-1.1-4.6-1.7c-0.8-0.3-1.6-0.6-2.3-1c-0.7-0.4-1.3-1-1.9-1.5
		c-1.3-1.1-2.3-2.4-3.4-3.7c-1-1.3-2.2-2.5-3.6-3.3c-2.7-1.6-5.3-3.1-7.2-4.6c-0.5-0.4-0.9-0.7-1.4-1.1c-3.7-21.6-0.9-33,0.5-37
		c0.5-1.3,1.2-2.5,2-3.6c0,1,0.1,2.3,0.3,3.8c0.1,0.9,0.3,1.8,0.7,2.8c0.3,1,0.8,1.9,1.4,2.9c0.3,0.5,0.6,0.9,0.8,1.4
		c0.2,0.5,0.3,1,0.4,1.6c0.1,1.1,0.1,2.3,0.1,3.4c0,1.2-0.1,2.3,0,3.5c0.1,1.2,0.4,2.3,1,3.2c0.6,0.9,1.4,1.7,2.1,2.3
		c0.8,0.6,1.6,1.2,2.2,1.7c0.7,0.5,1.2,1.1,1.6,1.7c0.4,0.6,0.6,1.2,0.7,1.7c0.1,0.5,0.1,0.9,0.1,1.2c0,0.3,0,0.4,0,0.4s0-0.1,0-0.4
		c0-0.3,0-0.7-0.1-1.2c-0.1-0.5-0.3-1.1-0.7-1.7c-0.4-0.6-0.9-1.2-1.6-1.7c-0.7-0.6-1.4-1.1-2.2-1.8c-0.8-0.6-1.5-1.4-2-2.3
		c-0.5-0.9-0.8-2-0.9-3.1c-0.1-1.1,0-2.3,0.1-3.4c0.1-1.2,0.1-2.3,0-3.5c-0.1-0.6-0.2-1.2-0.4-1.7c-0.2-0.6-0.5-1-0.8-1.5
		c-0.5-0.9-1-1.9-1.3-2.8c-0.3-0.9-0.5-1.8-0.6-2.7c-0.2-1.7-0.2-3.1-0.2-4.1c0-0.2,0-0.5,0-0.7c0.6-1,1.3-2,1.7-3
		c0.7-1.8,1.2-4.9,1.3-7.7c0.3,0.6,0.6,1.2,1,1.7c1.3,2.1,2.6,4.3,3.9,6.4c5,8.4,9.3,16.5,12.7,23.5c3.4,7.1,5.9,13.1,7.7,17.3
		c1.8,4.2,2.8,6.6,2.8,6.6s-1-2.4-2.6-6.7c-1.7-4.2-4.1-10.3-7.4-17.4c-3.2-7.1-7.4-15.3-12.3-23.8c-1.2-2.1-2.5-4.3-3.7-6.4
		c-0.9-1.5-1.6-3-2.2-4.6c-0.1-0.6-0.3-1.1-0.5-1.6l-0.1,0.1c-0.1-0.2-0.2-0.5-0.3-0.7c-1.7-4.8-3.2-9.8-4.7-14.8
		c-2.9-10-5.5-20.1-7.9-29.6c-1.2-4.7-2.4-9.3-3.5-13.7c-0.6-2.2-1.1-4.3-1.7-6.3c-0.1-0.5-0.3-1-0.4-1.5c-0.2-0.5-0.3-1.1-0.5-1.6
		c-0.4-1-0.8-1.9-1.2-2.8c-1.3-2.9-2.6-5.6-3.7-8c0.5,0.1,1,0.2,1.4,0.2c0.6,0.1,1.2,0.1,1.7,0.2c0.5,0,0.9,0,1.2,0.1
		c0.6,0,1,0.1,1,0.1l0-0.2c1.1,1.5,2.2,2.9,3.2,4.4c4.2,6.2,7.7,12.5,10.7,18.6c5.9,11.9,10.2,22.7,13.5,31.7
		c-0.6-2.5-1.2-5-1.8-7.4c-2.8-7.5-6.1-15.9-10.5-24.9c-3-6.1-6.4-12.5-10.6-18.9c-1.4-2.1-2.8-4.1-4.4-6.1l0-0.2c0,0-0.1,0-0.2,0
		c-2.9-3.7-6.1-7.4-9.6-10.9c-0.1-0.3-0.1-0.7-0.2-0.9c-0.1-0.8-0.2-1.3-0.3-1.6c0.1-0.5,0.3-2.1,0.6-4.5c0.4-3.1,1-7.8,0.5-13.8
		c-0.2-3-0.7-6.3-1.6-9.7c-0.4-1.7-1-3.5-1.6-5.4c-0.3-0.9-0.7-1.8-1-2.8c-0.4-0.9-0.7-1.8-1.1-2.8c-1.6-3.8-3.3-7.8-5.2-11.9
		c-1.9-4.1-3.9-8.5-5.8-13.1c-0.9-2.3-1.8-4.7-2.7-7.1c-0.9-2.4-1.7-5-2.5-7.5c-1.7-5.1-3.3-10.4-5-15.9c-3.3-11-6.4-22.6-9.7-34.7
		c-1.8-6.1-4.3-12-6.7-17.9c-2.4-6-4.6-12.1-6.6-18.3c-2-6.2-4-12.6-6.1-18.9c-2.1-6.3-4.3-12.6-6.7-18.8
		c-4.9-12.4-10.5-24.6-17.7-35.7c-3.6-5.5-7.6-10.8-12-15.5c-4.5-4.7-9.4-8.9-14.8-12.1c-2.7-1.7-5.6-2.9-8.5-3.9
		c-1.1-0.4-2.2-0.7-3.3-1c-0.7-1.8-1.5-3.7-2.3-5.5c-0.9-2-1.8-4-2.8-6c0.4,0,1.1,0.1,1.8,0.1c0.9,0,1.9,0,3.1-0.1
		c0.6-0.1,1.2-0.1,1.9-0.2c0.7-0.1,1.3-0.3,2.1-0.4c0.7-0.1,1.4-0.5,2.2-0.7c0.8-0.2,1.5-0.6,2.3-1c0.7-0.4,1.5-0.8,2.2-1.3
		c0.7-0.5,1.5-1,2.2-1.6c1.4-1.1,2.7-2.5,4-4c0.4-0.5,0.8-1,1.2-1.6l0.2,0.1c0,0,0.2-0.2,0.5-0.6c0.3-0.4,0.7-0.9,1.2-1.7
		c0,0,0.1-0.1,0.3-0.2c0.1-0.1,0.2-0.2,0.3-0.3c0.1-0.1,0.3-0.2,0.4-0.3c0.3-0.2,0.8-0.5,1.4-0.6c0.6-0.2,1.2-0.3,2-0.4
		c1.5-0.2,3.3-0.1,5.3-0.1c2,0.1,4.1,0.2,6.2-0.1c1.1-0.1,2.1-0.4,3.1-0.8c1-0.4,1.8-1,2.5-1.8c0.7-0.7,1.2-1.6,1.5-2.4
		c0.2-0.4,0.3-0.8,0.5-1.2c0.1-0.4,0.2-0.8,0.3-1.2c0.1-0.5,0.2-1,0.2-1.5c0-0.1-0.1-0.1-0.1-0.2c-0.1,0.5-0.2,1.1-0.3,1.6
		c-0.1,0.4-0.2,0.8-0.3,1.2c-0.2,0.4-0.3,0.8-0.5,1.2c-0.4,0.8-0.9,1.6-1.6,2.3c-0.7,0.7-1.5,1.2-2.4,1.6c-0.9,0.4-2,0.6-3,0.7
		c-2.1,0.2-4.1,0-6.1-0.1c-2-0.1-3.8-0.2-5.4-0.1c-0.8,0.1-1.5,0.2-2.2,0.4c-0.4,0.1-0.7,0.2-1,0.4c0.1-0.2,0.2-0.3,0.3-0.5
		c1.7-2.7,3.3-5.5,4.8-8c0.9-1.5,1.9-3,2.9-4.3c0.5-0.7,1-1.3,1.5-1.8c0.6-0.5,1.1-1.1,1.7-1.5c0.5-0.5,1.2-0.8,1.7-1.1
		c0.3-0.1,0.6-0.2,0.9-0.4c0.1-0.1,0.3-0.1,0.4-0.2c0.1,0,0.3-0.1,0.4-0.1c0.3-0.1,0.6-0.1,0.8-0.2c0.3,0,0.5,0,0.8-0.1
		c0.3,0,0.5,0,0.7,0c0.2,0,0.4,0.1,0.7,0.1c0.1,0,0.2,0,0.3,0c0,0,0,0,0,0c-0.1,0-0.2,0-0.3,0c-0.2,0-0.4-0.1-0.7-0.1
		c-0.2,0-0.5,0-0.7,0c-0.3,0-0.5,0-0.8,0c-0.3,0.1-0.5,0.1-0.8,0.2c-0.1,0-0.3,0.1-0.4,0.1c-0.1,0.1-0.3,0.1-0.4,0.2
		c-0.3,0.1-0.6,0.2-0.9,0.4c-0.6,0.3-1.2,0.6-1.8,1.1c-0.6,0.4-1.1,1-1.7,1.5c-0.5,0.6-1.1,1.2-1.6,1.8c-1,1.3-2,2.8-3,4.3
		c-1.2,1.8-2.3,3.7-3.5,5.7c0,0,0-0.1,0-0.1c0.3-0.7,0.4-1.5,0.6-2.3c0.2-0.8,0.2-1.7,0.3-2.6c0-0.4,0-0.9,0-1.4
		c0-0.5,0-0.9-0.1-1.4c-0.1-1.9-0.7-3.8-1.4-5.8c-0.7-1.9-1.8-3.8-2.9-5.6c-1.1-1.8-2.5-3.5-3.9-5.2c-2.8-3.3-5.9-6.4-8.9-9.2
		c-3-2.8-5.8-5.3-8.1-7.6c-1.2-1.1-2.2-2.2-3.2-3.1c-0.9-0.9-1.7-1.8-2.3-2.5c-0.5-0.6-0.9-1-1.2-1.4c0,0,0,0,0,0
		c0.3,0.4,0.7,0.9,1.2,1.4c0.6,0.7,1.4,1.6,2.3,2.5c0.9,1,2,2,3.1,3.1c2.3,2.2,5.1,4.9,8,7.7c2.9,2.8,6,5.9,8.7,9.2
		c1.4,1.7,2.7,3.4,3.8,5.2c1.1,1.8,2.1,3.6,2.8,5.5c0.7,1.9,1.2,3.8,1.3,5.6c0.1,0.5,0.1,0.9,0.1,1.3c0,0.4,0,0.9,0,1.3
		c-0.1,0.8-0.1,1.7-0.4,2.4c-0.2,0.8-0.3,1.5-0.6,2.2c-0.1,0.3-0.2,0.7-0.4,1c-0.1,0.3-0.3,0.6-0.4,0.9c-0.5,1.1-1.1,2-1.6,2.8
		c0,0,0,0,0,0l0,0c0,0,0,0.1,0,0.1c-0.5,0.8-1,1.4-1.3,1.8c-0.3,0.4-0.5,0.6-0.5,0.6l0.2,0.1c-0.4,0.5-0.8,1-1.2,1.5
		c-1.3,1.4-2.5,2.7-4,3.8c-0.7,0.6-1.4,1-2.1,1.5c-0.7,0.5-1.5,0.8-2.2,1.2c-0.8,0.3-1.5,0.7-2.2,0.9c-0.7,0.2-1.4,0.5-2.1,0.6
		c-0.7,0.1-1.4,0.3-2,0.4c-0.6,0.1-1.3,0.1-1.8,0.2c-1.1,0.1-2.1,0-3,0c-1.2-0.1-2-0.2-2.4-0.2c-3.7-7.5-8.1-14.7-13.8-20.7
		c-7.4-8.1-17.1-13.2-26.9-16.8c-9.8-3.6-19.9-6.1-29.6-8.6c-1.3-0.3-2.6-0.7-3.9-1c0.1-0.2,0.2-0.4,0.3-0.7c0.3-0.9,0.7-2.2,0.7-4
		c0-1.7-0.6-3.8-1.8-5.9c-1.2-2.1-2.9-4.1-5-6.1c-1-1-2.2-2-3.3-3c-0.6-0.5-1.1-1-1.6-1.6c-0.5-0.6-0.9-1.3-1.3-2
		c-1.5-2.9-2-6.3-3.4-9.6c-0.7-1.6-1.8-3.3-3.5-4.2c-1.6-1-3.5-1.5-5.4-1.5c-1.9-0.1-3.8,0.1-5.7,0.2c-1.9,0-3.8-0.1-5.5-0.9
		c-0.5-0.2-1-0.5-1.4-0.8l0.3-0.2c0,0-0.1-0.2-0.3-0.6c-0.3-0.4-0.7-0.9-1.4-1.4c-0.3-0.2-0.7-0.4-1.2-0.5c-0.1-0.2-0.2-0.4-0.3-0.7
		c-0.1-0.3-0.3-0.7-0.4-1.2c-0.1-0.5-0.3-1-0.3-1.6c-0.1-0.6-0.2-1.3-0.2-2c0-0.7,0-1.5,0.1-2.2c0.1-1.6,0.5-3.2,1-4.8
		c0.2-0.8,0.6-1.6,0.9-2.4c0.3-0.8,0.6-1.6,0.8-2.3c0.3-1,0.5-2,0.7-2.9c-0.1-0.1-0.1-0.2-0.2-0.3C45.7,5.6,45.4,6.6,45,7.7z
		 M269.3,392.5c-0.1,0.2-0.3,0.6-0.4,0.9c-0.2,0.4-0.3,0.8-0.5,1.3c-0.7,1.9-1.3,4.7-1.3,8.3c-1.1-0.8-2.2-1.7-3.2-2.6
		c-4.8-4-9.7-9.3-14.9-15.2c-2.6-2.9-5.3-6-8.4-9.1c-3.1-3-6.6-5.8-10.1-8.5c-7.1-5.5-14.7-11.2-21.5-18.2
		c-3.3-3.5-6.4-7.4-8.9-11.7c-1.2-2.1-2.3-4.5-3.4-6.8c-1.1-2.3-2.2-4.6-3.3-7c-4.3-9.4-8.4-19-12.1-28.8
		c-3.6-9.8-6.8-19.8-9.4-29.8c-1.3-5-2.5-10-3.6-14.9c-0.9-4.1-1.8-8.1-2.6-12.2l0,0c0,0-0.1-0.4-0.2-1.3c-0.1-0.6-0.3-1.5-0.5-2.5
		c-0.7-4.4-1.1-8.8-1.3-13.1c-0.2-4.7-0.3-9.3-0.3-13.9c0-2.3,0-4.5-0.1-6.7c0-2.2-0.1-4.3,0.1-6.5c0.3-4.2,0.7-8.3,1.1-12.2
		c0.8-7.8,1.5-15,1.8-21.4c0.3-6.4,0.4-12,0.1-16.5c-0.2-3.1-0.5-5.8-0.9-7.9c0.1,0.4,0.3,0.7,0.4,1.1c1.9,5.2,3.8,10.3,5.6,15.6
		c3.5,10.5,6.5,21.2,9.2,31.9c5.3,21.5,9.4,43.4,12.9,64.9c1.8,10.8,3.4,21.5,5.1,32.1c0.2,1.3,0.4,2.7,0.6,4
		c0.2,1.3,0.5,2.6,0.7,3.9c0.3,1.3,0.6,2.7,0.9,4c0.3,1.3,0.7,2.6,1,3.9c1.5,5.2,3.2,10.2,5.2,15c4,9.7,8.9,18.9,14.3,27.4
		c2.7,4.3,5.6,8.4,8.7,12.2c3.2,3.9,6.5,7.4,9.8,10.9c6.7,6.9,13.4,13.3,19.8,19.6c3.2,3.2,6.3,6.2,9.3,9.4
		C269.3,392.4,269.3,392.4,269.3,392.5C269.3,392.5,269.3,392.5,269.3,392.5z M288.3,411.9c-0.4,0-0.7-0.1-1.2-0.1
		c-0.9-0.1-2-0.3-3.3-0.6c-0.4-0.8-0.7-1.6-1-2.4c-0.4-1.2-0.7-2.4-0.9-3.5c-0.1-0.3-0.1-0.6-0.2-0.9
		C284.1,406.9,286.3,409.3,288.3,411.9z M282,413.7c0,0.1,0.1,0.1,0.1,0.2c1.4,2.9,3,6,4.7,9.6c0.4,0.9,0.8,1.8,1.2,2.7
		c0.2,0.5,0.3,0.9,0.5,1.4c0.2,0.5,0.3,1,0.5,1.5c0.6,2,1.2,4.1,1.8,6.3c1.2,4.3,2.4,8.9,3.7,13.6c2.6,9.4,5.4,19.5,8.4,29.5
		c1.5,5,3.1,10,5,14.8c0.1,0.2,0.2,0.5,0.3,0.7l-0.1,0.1c1.2,3,0.5,8.9-0.5,11.7c-0.4,1.2-1.2,2.3-2,3.5c-0.9,1.3-1.8,2.7-2.4,4.3
		c-1.4,4-4.1,15.1-0.9,35.7c-0.3-0.3-0.6-0.7-0.9-1c-1-1.6-2.1-3.1-3.1-4.6c-2.4-3.3-4.8-6.6-6.8-10.1c-2.1-3.5-4-7.2-5.5-10.9
		c-3.2-7.5-4.8-15.6-5.8-23.6c-1.1-8-2-16-2.9-23.7c-1.8-15.4-3.5-29.7-4.7-42c-0.3-3.1-0.6-6-0.8-8.8c-0.1-1.4-0.2-2.8-0.3-4.1
		c-0.1-1.4-0.2-2.7-0.4-3.9c-0.3-2.9-0.6-5.5-0.8-7.9c2.1,1.3,4.2,2.4,6.1,3.3C278.3,412.6,280.3,413.3,282,413.7z M280.2,409.7
		c0.1,0.2,0.1,0.3,0.2,0.5c-1-0.3-2-0.7-3.1-1.2c-2.3-1-4.8-2.3-7.5-4c0-0.5,0-1,0-1.5c0-3.5,0.6-6.1,1.3-7.7
		c0.1-0.4,0.3-0.8,0.4-1.1c0,0,0,0,0,0c2.2,2.1,4.4,4.1,6.5,6.1c0.2,1.2,0.6,3,1.1,5.2C279.4,407.1,279.7,408.4,280.2,409.7z
		 M278.7,398.7c-0.1-0.1-0.1-0.1-0.2-0.2l0.6,0.1L278.7,398.7z M166.3,129c2.9,1,5.7,2.2,8.3,3.9c5.3,3.2,10.1,7.4,14.5,12
		c4.3,4.7,8.3,9.9,11.8,15.4c7,11,12.6,23.2,17.3,35.6c4.8,12.4,8.6,25.2,12.5,37.7c2,6.3,4.2,12.4,6.5,18.4
		c2.3,6,4.8,11.9,6.5,17.8c3.2,12.1,6.2,23.8,9.4,34.8c1.6,5.5,3.2,10.8,4.9,16c0.8,2.6,1.6,5.1,2.5,7.6c0.9,2.5,1.8,4.9,2.7,7.2
		c1.9,4.7,3.9,9.1,5.7,13.2c1.9,4.1,3.6,8.1,5.1,11.8c3.1,7.5,4.6,14.2,5,19.9c0.4,5.7-0.2,10.1-0.6,13.2c-0.3,2-0.5,3.4-0.6,4.1
		c-2.3-2.2-4.7-4.5-7-6.8c-1.5-1.6-3-3.2-4.5-4.8c-1.5-1.6-3.1-3.2-4.7-4.8c-6.3-6.4-12.9-12.9-19.4-19.9c-3.2-3.5-6.5-7.1-9.5-10.8
		c-3-3.8-5.8-7.8-8.5-12c-5.3-8.4-10.1-17.4-14-26.9c-1.9-4.8-3.7-9.7-5.1-14.7c-0.3-1.3-0.7-2.5-1-3.8c-0.3-1.3-0.6-2.5-0.9-3.8
		c-0.2-1.3-0.5-2.6-0.7-3.9c-0.2-1.3-0.4-2.6-0.6-3.9c-1.7-10.6-3.5-21.3-5.3-32.1c-3.8-21.6-8.1-43.4-14-64.9
		c-2.9-10.7-6.1-21.4-9.8-31.9c-1.9-5.2-3.7-10.4-5.7-15.6c-1.1-3-2.3-6-3.5-9C164.4,128.4,165.3,128.7,166.3,129z M86.8,71.1
		c9.8,2.3,19.8,4.5,29.5,7.9c4.9,1.7,9.7,3.7,14.3,6.3c2.3,1.3,4.5,2.7,6.6,4.3c2.1,1.6,4.1,3.4,5.9,5.3c7.3,7.7,12.7,17.3,17,27.3
		c0.7,1.6,1.3,3.2,2,4.8c-1.4-0.4-2.9-0.8-4.3-1.1c-5.9-1.4-11.6-2.5-17.3-3.7c-5.6-1.1-11.1-2.2-16.3-3.5
		c-5.2-1.3-10.2-2.7-14.8-4.8c-2.3-1-4.4-2.2-6.3-3.7c-1.8-1.5-3.3-3.4-4.5-5.3c-2.3-3.9-3.4-8.2-4.4-12.1c-1-3.9-1.9-7.7-3.1-10.9
		c-1.2-3.3-2.8-6.2-4.8-8.4c-1.2-1.4-2.4-2.5-3.7-3.3C84,70.5,85.4,70.8,86.8,71.1z"/>
</g>
</svg>
