<svg id="Layer_1" preserveAspectRatio="xMinYMid" data-name="Layer 1" xmlns="http://www.w3.org/2000/svg" viewBox="0 0 396.1 724.2"><defs><style>.cls-1{opacity:0.6;}.cls-2{fill:#ee583c;}</style></defs><title>body</title><g id="Body" class="cls-1"><path d="M340.3,569c-1,0-2.2,0-3.4.1a18.71,18.71,0,0,1-4.1,0,25.73,25.73,0,0,1-4.4-1.1c-1.5-.5-3-1.1-4.6-1.6a9.43,9.43,0,0,1-2.3-1,14.91,14.91,0,0,1-2-1.5,24.4,24.4,0,0,1-3.5-3.7,12.61,12.61,0,0,0-3.5-3.1,80.1,80.1,0,0,1-7.4-4.5c-0.2-.2-0.4-0.3-0.6-0.5,0.1,0.6.2,1.1,0.3,1.7h-0.1a0.2,0.2,0,0,0,.1.2,38.94,38.94,0,0,1,1.8,5.8,47.76,47.76,0,0,0,1.2,5.7,14.43,14.43,0,0,0,2.6,4.9,20.58,20.58,0,0,0,3.9,3.9c0.1,0.1.2,0.1,0.3,0.2s0.4,0.3.6,0.4a11.29,11.29,0,0,0,2.2,1.1,8.29,8.29,0,0,0,2.8.8,7,7,0,0,0,3.2-.2,13,13,0,0,1,3.4-.8,21.67,21.67,0,0,1,3.6.1,21.64,21.64,0,0,0,3.6,0c1.2-.2,2.3-0.4,3.5-0.5a9.06,9.06,0,0,1,3.3.3,8.74,8.74,0,0,1,2.5,1.5c0.7,0.5,1.4,1.1,2,1.5a5.14,5.14,0,0,0,1.7.8,3,3,0,0,0,1.2.2h0a7.38,7.38,0,0,1-1.2-.2,8.49,8.49,0,0,1-1.7-.8,20.79,20.79,0,0,1-2-1.5,10.1,10.1,0,0,0-2.5-1.4,8.52,8.52,0,0,0-3.2-.3c-1.1.1-2.3,0.4-3.5,0.6a21.66,21.66,0,0,1-3.6.1,21.66,21.66,0,0,0-3.6-.1,13,13,0,0,0-3.4.8,9.26,9.26,0,0,1-3.3.3,11.46,11.46,0,0,1-2.8-.8c-0.5-.2-1-0.5-1.4-0.7a76.83,76.83,0,0,1,6.8,5.8c1.3,1.3,2.4,2.6,3.7,3.7a13.12,13.12,0,0,0,4.3,2.4c3.2,0.9,6.4.1,9.6,0.4a13.51,13.51,0,0,1,4.5,1.1,15.39,15.39,0,0,1,3.7,2.3,34.89,34.89,0,0,0,3.2,2.5,18,18,0,0,0,3.4,1.7,48.24,48.24,0,0,0,6.8,1.7,35.21,35.21,0,0,1,5.7,1.7c1.4,0.6,2.6,1.2,3.7,1.8a21.8,21.8,0,0,0-3-3.1c-2.3-2.1-5-3.3-7.3-5.4-2.8-2.4-4.3-3.3-6.6-6.1a10.63,10.63,0,0,1-.9-1.1,0.91,0.91,0,0,0-.3-0.5h0a45.12,45.12,0,0,0-6-7.1,49.43,49.43,0,0,1-2.7-6.6c-0.1-.3-0.2-0.6-0.3-1a8.11,8.11,0,0,0-1.1-.3A6.06,6.06,0,0,0,340.3,569Z" transform="translate(0.2 0.2)"/><path d="M7.8,45.1a55.85,55.85,0,0,1,10.8.5c4-8.1,0-13.1-4.7-18.9-2.8-3.5-5.8-7.1-7.2-11.8A37.54,37.54,0,0,1,5.6,0H0V46.4c0.5-.1,1-0.3,1.5-0.4A34.17,34.17,0,0,1,7.8,45.1Z" transform="translate(0.2 0.2)"/><path d="M361.6,597.4a53.13,53.13,0,0,1-6.9-1.7,16.15,16.15,0,0,1-3.5-1.7,35.84,35.84,0,0,1-3.3-2.5,19,19,0,0,0-3.7-2.2,12.3,12.3,0,0,0-4.3-1c-3-.3-6.3.6-9.7-0.3a13.5,13.5,0,0,1-4.6-2.4c-1.4-1.1-2.5-2.5-3.8-3.7-2.5-2.5-5.5-4.5-8.4-6.9a25.86,25.86,0,0,1-4.1-4,0.1,0.1,0,0,0-.1-0.1c0.1,0.4.3,0.7,0.4,1.1s0.3,0.9.4,1.3a24.61,24.61,0,0,1,.7,2.9c0.2,1,.3,2.1.4,3.1a8.6,8.6,0,0,1,.1,1.6v1.5a10.87,10.87,0,0,1,.5,1.4,18,18,0,0,0,.7,2.7,6.63,6.63,0,0,0,2,2.9,16.48,16.48,0,0,1,3.2,2.8,23.56,23.56,0,0,1,2.5,4.1,9.61,9.61,0,0,0,1.4,2.1,10.22,10.22,0,0,0,1.8,1.8c1.3,1.1,2.8,2.1,4.1,3.3a12,12,0,0,1,1.7,2.1,18.41,18.41,0,0,1,.9,2.5c0.5,1.7,1,3.3,1.4,4.9,0.8,3.2,1.6,6.2,2.2,8.8s1.1,4.7,1.5,6.2,0.6,2.4.6,2.4a16,16,0,0,1-.6-2.4c-0.4-1.5-.9-3.7-1.5-6.2s-1.4-5.6-2.2-8.8c-0.4-1.6-.9-3.3-1.4-4.9a25,25,0,0,0-.9-2.5,6.48,6.48,0,0,0-1.7-2c-1.3-1.2-2.8-2.2-4.1-3.3a15.27,15.27,0,0,1-1.8-1.8c-0.5-.7-1-1.4-1.4-2.1a30.43,30.43,0,0,0-2.5-4,16.48,16.48,0,0,0-3.2-2.8,5.71,5.71,0,0,1-2.1-2.9c-0.3-1-.5-2-0.7-2.7l-0.3-.9-0.1,1.2c-0.1.5-.1,1.1-0.2,1.6a28.68,28.68,0,0,1-.5,3.1,24.6,24.6,0,0,1-.7,2.9,18.29,18.29,0,0,1-.8,2.5,10.23,10.23,0,0,1-.8,2.1,16.59,16.59,0,0,0-.6,1.6c-0.4.9-.6,1.4-0.6,1.4a10,10,0,0,0,.4-1.4,14.24,14.24,0,0,1,.5-1.6q0.3-.9.6-2.1c0.2-.8.4-1.6,0.6-2.5s0.4-1.9.6-2.8a29.09,29.09,0,0,0,.4-3.1,10,10,0,0,1,.2-1.6l0.1-1.6v-1.6a8.6,8.6,0,0,0-.1-1.6c0-1-.2-2.1-0.3-3.1s-0.3-1.9-.5-2.8c-0.1-.4-0.2-0.9-0.3-1.3a5.64,5.64,0,0,0-.4-1.2,15.42,15.42,0,0,1-.5-1.7,15.76,15.76,0,0,1-1.6-3.5,40.28,40.28,0,0,1-1.3-5.8v-0.1c0,0.5.1,1.1,0.1,1.6,0,1.2,0,2.4-.1,3.8s-0.3,2.7-.5,4.2a48,48,0,0,1-2.4,8.8c-0.4,1-.7,2-1.1,3a0.37,0.37,0,0,1-.1.3,21.4,21.4,0,0,0-.5,5c0,2.1.2,4.5,0.4,7.1,0.1,1.3.3,2.6,0.3,4a29.44,29.44,0,0,1,0,4.2,14.77,14.77,0,0,0,.1,2.1,14.62,14.62,0,0,0,.5,2c0.2,0.6.5,1.3,0.7,1.9a13.32,13.32,0,0,1,.5,1.9,25.83,25.83,0,0,1,.6,3.7c0.1,1.2.1,2.3,0.1,3.4a48.08,48.08,0,0,1-.4,5,12.85,12.85,0,0,0-.2,1.9,12.85,12.85,0,0,1,.2-1.9,48.08,48.08,0,0,0,.4-5c0-1,0-2.2-.1-3.4a25.83,25.83,0,0,0-.6-3.7c-0.1-.6-0.4-1.3-0.5-1.9s-0.5-1.3-.7-1.9a11.69,11.69,0,0,1-.6-2,14.77,14.77,0,0,1-.1-2.1,28,28,0,0,0,0-4.1c-0.1-1.4-.2-2.7-0.4-4a63.79,63.79,0,0,1-.5-7.1,23.74,23.74,0,0,1,.3-4.1L299,587c-0.6,1.3-1.1,2.6-1.6,3.8s-0.8,2.4-1.1,3.6c-0.5,2.2-.7,4.2-0.9,5.5s-0.3,2.1-.3,2.1,0.1-.8.2-2.1,0.3-3.3.7-5.5a33.38,33.38,0,0,1,1-3.6c0.4-1.3,1-2.6,1.5-3.9,1.1-2.7,2.3-5.5,3.3-8.4a48.27,48.27,0,0,0,2.2-8.7c0.2-1.4.4-2.8,0.5-4.1a22.84,22.84,0,0,0,0-3.7,28.51,28.51,0,0,0-.2-3.1,15,15,0,0,0-.4-2.4q-0.15-.9-0.3-1.5a0.2,0.2,0,0,0-.1-0.2c-0.1-.1-0.1-0.3-0.2-0.4h-0.1c0-.2-0.1-0.3-0.1-0.5a44.94,44.94,0,0,0-5.9-9.2,103.1,103.1,0,0,1-12.8-21.2,69.35,69.35,0,0,1-4-11.9c-1-4-1.7-8.1-2.3-12.1-1.2-8.1-2.2-16-3.2-23.7-1.9-15.4-3.7-29.7-5-42-0.3-3.1-.6-6-0.9-8.9-0.1-1.4-.2-2.8-0.3-4.1s-0.2-2.6-.4-3.8c-0.5-3.7-.9-7.1-1.1-10.1a59.34,59.34,0,0,1-5.1-4,141.35,141.35,0,0,1-15-15.6c-2.6-3-5.2-6.1-8.1-9.1a4.62,4.62,0,0,1-.7-0.7c-0.1.1-.1,0.2-0.2,0.3-0.7,1.2-1.7,3-2.8,5.4a54.08,54.08,0,0,0-3.1,8.7,59.12,59.12,0,0,0-1.6,12,143.78,143.78,0,0,0,.3,14.5c0.2,2.6.4,5.2,0.7,7.9a45.53,45.53,0,0,0,1.3,8.1,105.45,105.45,0,0,0,5.7,16.3c2.4,5.4,5,10.9,7.8,16.2,2.1,4,4.3,8.1,6.5,12l0.2-.1a2.77,2.77,0,0,0,.4.7c0.3,0.5.6,1.2,1.1,2.2a1.06,1.06,0,0,1,.2.5c3,5.4,6,10.6,8.9,15.7,2.8,4.9,5.5,9.7,8,14.2,1.3,2.3,2.5,4.5,3.6,6.7s2.1,4.4,2.9,6.5c1.6,4.3,2.7,8.3,3.7,11.8a47.3,47.3,0,0,0,3.5,8.8,22.91,22.91,0,0,0,3.6,4.9,10,10,0,0,0,1.2,1.1,1.2,1.2,0,0,1,.4.4l-0.4-.4a10,10,0,0,1-1.2-1.1,22.7,22.7,0,0,1-3.7-4.9,54.23,54.23,0,0,1-3.7-8.8c-1.1-3.5-2.2-7.5-3.9-11.7a46,46,0,0,0-3-6.4c-1.2-2.1-2.4-4.3-3.7-6.6-2.6-4.5-5.4-9.2-8.2-14.1-2-3.3-4-6.7-6-10.1,0.2,0.5.3,1,.5,1.5a40.39,40.39,0,0,1,1.3,5.5,29.09,29.09,0,0,1,.4,3.1c0.1,1,.2,2.1.4,3.2a64.62,64.62,0,0,0,3.1,13.2c1.6,4.3,3.5,8.6,4.8,12.8a36.11,36.11,0,0,1,1.3,6.2c0.2,2,.3,3.9.5,5.6,0.2,3.5.5,6.4,0.8,8.4,0.2,1,.4,1.8.5,2.3s0.2,0.7.3,0.8c8.8,17.2,20,35.5,25.1,54.4a20.26,20.26,0,0,0-1.9,7.7,75.32,75.32,0,0,0,2.7,20c1.7,6.3,3.7,11.3,5.8,17.5,1.2,3.5,1.3,5.5,2.5,6.5,2.6,2.1,10.6,9.4,13.3,11.5,1.6,1.2,2.7,2.5,4.9,2.3,3.3-.3,7.4-2.5,7.9-2,4.9,4.9,8.3,7.5,8.9,7.5,2.2-.1,6.8-1.4,9.7-2.1,1.3-.3,2.4-0.7,2.6-0.7,2.7,0.9,7.8,2.9,9.9,3.2a24.82,24.82,0,0,0,3.3-1.2,35.17,35.17,0,0,1,3.5-1.6c2.8-.9,6.6,1.2,9.6,1.5,2.6,0.3,5.3-2.8,7.6-4.1,2.7-1.6,9.8-7,3.6-9.7,0-1.4.5-3.5,0.2-4.6-0.1-.4,2.7-2,3.2-3.1a40.23,40.23,0,0,0,2.8-8.8c0.1-1.5-1.8-6.1-3-9.1s-1.6-8-2.7-10.8c-1.4-3.5-4.9-7.3-9.2-10.7-3.1-2.4-5.8-4.8-7.1-8.6a17.55,17.55,0,0,0-2.5-4.7,36.57,36.57,0,0,0-3.9-1.8A20.36,20.36,0,0,0,361.6,597.4Z" transform="translate(0.2 0.2)"/><path d="M5.3,176.6a82.23,82.23,0,0,0,0-24.8c-0.4-2.2-.8-4.5-1.4-6.8a33.74,33.74,0,0,1-.9-3.4A10.88,10.88,0,0,1,3,138a42.31,42.31,0,0,1,1.8-7,28.42,28.42,0,0,0,1.6-7,36.76,36.76,0,0,0-.4-7.4c-0.1.3-.1,0.6-0.2,0.9-0.2.8-.6,1.6-0.9,2.5a22.56,22.56,0,0,1-1.4,2.6A21.17,21.17,0,0,1,.2,126v69.4c0.2-.6.5-1.1,0.8-1.8A91.72,91.72,0,0,0,5.3,176.6Z" transform="translate(0.2 0.2)"/><path d="M2.6,122.1a18.5,18.5,0,0,0,2.2-4.8,15.34,15.34,0,0,0,.4-4.1c0-1.2-.1-2.1-0.1-2.7a6.73,6.73,0,0,1-.1-1H5.2V109a1.47,1.47,0,0,0-.2.4,13.58,13.58,0,0,1-1.7,2.4,9.81,9.81,0,0,1-2.8,2.5l-0.6.3v10.3A11.79,11.79,0,0,0,2.6,122.1Z" transform="translate(0.2 0.2)"/><path d="M10.6,4.1a35.21,35.21,0,0,0,3.2,8.6A29.82,29.82,0,0,0,20.2,21a19,19,0,0,0,4.4,3,18.42,18.42,0,0,0,4.8,1.7,25.92,25.92,0,0,0,4.8.4h2.2a12,12,0,0,0,2-.3,16.76,16.76,0,0,1,3.7-.6h0.7V25.1c-1.2-1.1-2.5-2.1-3.7-3.3a62.29,62.29,0,0,1-7.4-8.1,50.17,50.17,0,0,1-5.3-8.8C25.7,3.3,25,1.7,24.5.2H9.9a0.9,0.9,0,0,0,.1.5A30.93,30.93,0,0,0,10.6,4.1Z" transform="translate(0.2 0.2)"/><path d="M2.7,111.1a9,9,0,0,0,1.5-2.3c0.4-.7.6-1.2,0.8-1.6l0.3-.6,0.2,0.1c0.1-.3.1-0.6,0.2-0.9A16.21,16.21,0,0,1,7,102.5c1.1-2.1,2.5-4,3.1-6.1a11.85,11.85,0,0,0,.5-3.2,11.24,11.24,0,0,0-.4-3.2,13.58,13.58,0,0,0-3.3-5.2c-1.4-1.5-3-2.9-4.2-4.4A20.14,20.14,0,0,1,.1,76.3v37.3l0.1-.1A11.43,11.43,0,0,0,2.7,111.1Z" transform="translate(0.2 0.2)"/><path d="M7.7,14.6c1.4,4.5,4.3,8,7,11.5,4.7,5.8,9.1,11.2,5,19.7a91.67,91.67,0,0,1,14.1,3.7c8.6,2.9,17.1,6.9,25.8,10.5a167.26,167.26,0,0,0,23,7.5,6.89,6.89,0,0,0,.3-0.8,8.36,8.36,0,0,0,.6-3.6,11.66,11.66,0,0,0-1.6-5.5,25.42,25.42,0,0,0-4.8-5.9q-1.5-1.5-3.3-3A9.12,9.12,0,0,1,72.1,47a14.8,14.8,0,0,1-1.3-2.1c-1.5-3-2-6.5-3.4-9.7a8.77,8.77,0,0,0-3.3-4.1,10.19,10.19,0,0,0-5.2-1.5c-1.8-.1-3.7.1-5.6,0.1a13.26,13.26,0,0,1-5.6-1,4.62,4.62,0,0,1-1.5-.9l-0.3.2a5.19,5.19,0,0,0-.3-0.5c0-.1-0.1-0.1-0.1-0.2l-0.1-.1a11,11,0,0,1-1.1-1,3.63,3.63,0,0,0-2.2-.4,30.57,30.57,0,0,0-3.6.5l-2.1.3H34.1a20.92,20.92,0,0,1-4.9-.5,14.49,14.49,0,0,1-4.9-1.8,16.71,16.71,0,0,1-4.4-3.1,28.48,28.48,0,0,1-6.3-8.5A38.11,38.11,0,0,1,10.5,4,23.34,23.34,0,0,1,9.9.5,0.9,0.9,0,0,0,9.8,0H6.6A35.94,35.94,0,0,0,7.7,14.6Z" transform="translate(0.2 0.2)"/><path d="M159,671.7c-2.1-11.2-5.5-22-6.7-33.6a5.85,5.85,0,0,0-.2-1.3c0-18.7-1.9-41.1-1.9-50.5,0-14.9-1.8-30-2.7-44.9-0.8-12.7-4.9-23.1-7-35.2-2.7-15.7-3-26.3-10.5-37.7-4.4-6.6-5.7-8.6-3.1-16.1a60.07,60.07,0,0,0,3.6-18.2c0.9-14.4-.4-23.8-2-37.4a337.5,337.5,0,0,1,2.2-89c2.3-14.5,3.7-28.4,10.3-41.1,3.1-5.9,3.6-11.7,4.9-17,0.6-2.2.9-5.3,1.4-8.4,0.8-1,1.7-2,2.6-3.1,5.3,25.8,17.1,47.8,18.5,52.1,4.2,12.5,7.1,13.2,11.5,25.3,4.9,13.4,4.5,21.4,7.4,33.9,3.3,13.9,4.2,27.8,11.6,40.3,16.6,28.1,23.9,63.4,37.9,93.2,10.5,22.3,21.9,44.1,33,66.1,0.3,0.5.5,1,.8,1.5a2.6,2.6,0,0,0-.3-0.7,14.6,14.6,0,0,1-.6-2.3c-0.4-2-.7-4.9-1-8.4-0.2-1.7-.3-3.6-0.6-5.6a48.38,48.38,0,0,0-1.4-6.1c-1.3-4.2-3.3-8.3-5-12.7a60.52,60.52,0,0,1-3.4-13.3c-0.2-1.1-.3-2.2-0.4-3.2s-0.3-2-.5-3c-0.4-1.9-.9-3.7-1.4-5.4a51.52,51.52,0,0,0-3-7.8,19,19,0,0,0-1.1-2.1c-0.3-.5-0.4-0.7-0.4-0.7l0.2-.1c-2.3-3.9-4.5-7.9-6.7-11.9q-4.35-7.95-8.1-16.2a122.33,122.33,0,0,1-6.1-16.5,31.48,31.48,0,0,1-.9-4.2c-0.1-.7-0.2-1.3-0.3-2.1a15,15,0,0,1-.2-2c-0.3-2.7-.6-5.4-0.8-8-0.4-5.2-.7-10.2-0.6-14.8a58.94,58.94,0,0,1,1.4-12.5,48.06,48.06,0,0,1,3.1-9.3,57,57,0,0,1,2.8-5.6,9.25,9.25,0,0,0,.5-1q-3.3-2.85-6.9-5.7c-7-5.6-14.7-11.4-21.5-18.7a61.11,61.11,0,0,1-9-12.2c-1.3-2.3-2.3-4.6-3.4-6.9s-2.1-4.7-3.2-7c-4.2-9.4-8.3-19.1-11.8-29a295.16,295.16,0,0,1-9.1-30c-1.3-5-2.4-10-3.4-15s-2.1-9.8-2.9-14.7c-0.1-.9-0.3-1.8-0.4-2.7a12.47,12.47,0,0,0-2.3-4.4,13.38,13.38,0,0,0-2.3-2.5,14.49,14.49,0,0,0-3.2-2c-1.2-.6-2.4-1.2-3.6-1.9a15.47,15.47,0,0,1-3.3-3,37.32,37.32,0,0,1-2.8-3.8,17,17,0,0,1-1.8-4.6,40.2,40.2,0,0,1-.6-5c-0.2-1.7-.4-3.4-0.7-5.1a71.59,71.59,0,0,0-2.3-10.2,55.34,55.34,0,0,0-4.1-9.7,49.21,49.21,0,0,0-5.8-8.3,52.22,52.22,0,0,0-14-11.2,63.42,63.42,0,0,0-6.4-3.2c-1-.4-1.9-0.8-2.8-1.2a18.63,18.63,0,0,0-2.4-.9c-1.4-.6-2.6-0.9-3.4-1.2a12.55,12.55,0,0,0-1.2-.4,12.56,12.56,0,0,1,1.2.4c0.8,0.3,1.9.6,3.4,1.2q1,0.45,2.4.9a21.41,21.41,0,0,1,2.8,1.2c2,0.9,4.1,1.9,6.4,3.2a54.15,54.15,0,0,1,14.1,11.2,35.72,35.72,0,0,1,3,3.8,9.25,9.25,0,0,0-.5-1c-0.5-1.1-1.4-2.7-2.4-4.6a33.15,33.15,0,0,1-2.8-6.8,18.51,18.51,0,0,1-.7-4.1c-0.1-1.4-.1-2.8-0.1-4.3,0-2.9.1-5.7,0.1-8.4,0-1.3,0-2.6-.1-3.9a10.65,10.65,0,0,0-.8-3.3,11.33,11.33,0,0,0-1.7-2.4l-1.6-1.6a11.18,11.18,0,0,0-1.5-1.3,11.18,11.18,0,0,1,1.5,1.3c0.5,0.4,1,1,1.6,1.6a7.36,7.36,0,0,1,1.7,2.4,9,9,0,0,1,.8,3.4c0.1,1.2.1,2.5,0.1,3.9,0,2.7-.1,5.6,0,8.4a31,31,0,0,0,.2,4.3,18.51,18.51,0,0,0,.7,4.1,38.63,38.63,0,0,0,2.8,6.7c1,1.9,1.8,3.5,2.4,4.6a9.89,9.89,0,0,1,.8,1.8h0c0.8,1.2,1.6,2.5,2.4,3.8a52.31,52.31,0,0,1,4.1,9.7c0.4,1.3.8,2.6,1.1,3.9a1.09,1.09,0,0,0-.1-0.5,20.39,20.39,0,0,1-.3-4.7c0.1-1,.3-2,0.5-3.1a24.59,24.59,0,0,1,.9-3.4,20.94,20.94,0,0,1,1.3-3.5,5.72,5.72,0,0,1,1.1-1.6,9.34,9.34,0,0,1,1.5-1.3,5.71,5.71,0,0,0,1.3-1.4,6.36,6.36,0,0,0,.6-1.8,15.26,15.26,0,0,0,0-3.7,33.83,33.83,0,0,0-.8-3.4,12.1,12.1,0,0,1-.6-3.1,9.47,9.47,0,0,1,.4-2.6,18.19,18.19,0,0,1,.8-1.9,16.35,16.35,0,0,1,.9-1.6s-0.3.5-.9,1.6a12.07,12.07,0,0,0-.8,1.9,9.47,9.47,0,0,0-.4,2.6c0,2,1.2,4,1.5,6.5a15.28,15.28,0,0,1,.1,3.7,5.46,5.46,0,0,1-.6,1.8,6.1,6.1,0,0,1-1.3,1.5,17.38,17.38,0,0,0-1.5,1.3,5.37,5.37,0,0,0-1,1.6c-0.5,1.2-.9,2.3-1.3,3.5s-0.6,2.3-.8,3.4-0.4,2.1-.5,3.1a19.9,19.9,0,0,0,.3,4.6c0.2,1.1.3,1.8,0.3,1.8h-0.1c0.4,1.7.7,3.4,1,5.1s0.5,3.4.7,5.1,0.3,3.4.6,5a14.64,14.64,0,0,0,1.8,4.5,21.13,21.13,0,0,0,2.8,3.7,11,11,0,0,0,3.2,2.9c1.2,0.7,2.4,1.3,3.6,1.9a19.48,19.48,0,0,1,3.2,2,18.5,18.5,0,0,1,2.4,2.5,14,14,0,0,1,1.7,2.8c-0.4-3.3-.6-6.6-0.7-9.9-0.1-4.7-.2-9.4-0.2-13.9V201c0-2.2,0-4.3.1-6.5,0.3-4.2.8-8.3,1.2-12.2,0.8-7.8,1.5-15,1.9-21.4a156.25,156.25,0,0,0,.2-16.5,66.54,66.54,0,0,0-.9-8c-1.1-2.9-2.2-5.7-3.3-8.6-1.6-.5-3.2-0.9-4.8-1.3-5.8-1.5-11.6-2.6-17.2-3.8s-11.1-2.3-16.3-3.7a82.87,82.87,0,0,1-14.8-4.9,28.54,28.54,0,0,1-6.3-3.8,23.1,23.1,0,0,1-4.5-5.4,46.71,46.71,0,0,1-4.4-12.1A89.13,89.13,0,0,0,91,81.9a27.06,27.06,0,0,0-4.7-8.4,19.78,19.78,0,0,0-3.8-3.4c-3.4-.9-6.8-1.7-10.1-2.7a125.17,125.17,0,0,1-13.8-4.9c-4-1.7-7.8-3.4-11.6-5-0.1.2-.1,0.4-0.2,0.6s-0.3.7-.4,1.1h0.1a5.19,5.19,0,0,1-.3.5l-0.3.6a4.65,4.65,0,0,0-.3.9,9,9,0,0,0-.3,2.5,10.33,10.33,0,0,0,.9,3.2,26.59,26.59,0,0,0,5.3,6.9c2.3,2.3,4.9,4.6,7.2,7.2a13.71,13.71,0,0,1,2.8,4.4c0.7,1.6,1.1,3.2,1.8,4.7A15.1,15.1,0,0,0,65.7,94a40.36,40.36,0,0,0,3,2.9,33.42,33.42,0,0,1,4.6,4.3,7.69,7.69,0,0,1,1,1.5l0.3,0.6a5.2,5.2,0,0,0-.3-0.5,7.57,7.57,0,0,0-1-1.4,33.71,33.71,0,0,0-4.6-4.2,26.13,26.13,0,0,1-3.1-2.8,13,13,0,0,1-2.5-3.9c-0.7-1.5-1.1-3.1-1.8-4.6a19.22,19.22,0,0,0-2.8-4.2c-2.3-2.5-5-4.7-7.3-7s-4.4-4.6-5.5-7a9.81,9.81,0,0,1-1-3.5V63.6a25.32,25.32,0,0,0-1.2,3.3,5.82,5.82,0,0,0-.3,1.9,14.77,14.77,0,0,0,.1,2.1c0.1,1.4.1,2.9,0.2,4.4a23.38,23.38,0,0,0,.7,4.5,7.22,7.22,0,0,0,.9,2c0.4,0.6,1,1.1,1.4,1.8a5.69,5.69,0,0,1,.6,4.4,13.41,13.41,0,0,1-1.3,4c-0.6,1.2-1.2,2.3-1.6,3.3a8.33,8.33,0,0,0-.1,5.4,4.37,4.37,0,0,0,.5,1.5,4.2,4.2,0,0,0,.2.5,4.2,4.2,0,0,1-.2-0.5c-0.1-.3-0.3-0.8-0.5-1.5a7.46,7.46,0,0,1-.4-2.4,7,7,0,0,1,.4-3.1,34,34,0,0,1,1.6-3.4,16.12,16.12,0,0,0,1.2-3.9,4.93,4.93,0,0,0-.6-4.1c-0.4-.6-1-1.1-1.4-1.7a5.8,5.8,0,0,1-1-2.1,47.07,47.07,0,0,1-1.1-9c0-.7-0.1-1.4-0.1-2.1a7.61,7.61,0,0,1,.3-2.1,30.36,30.36,0,0,1,1.2-3.6c0.4-1,.9-1.9,1.3-2.7V60.4a4.88,4.88,0,0,1,.3-0.7,0.1,0.1,0,0,1,.1-0.1,12.13,12.13,0,0,0,.5-1.4,6.37,6.37,0,0,1,.2-0.7c-4.4-1.9-8.7-3.7-13.1-5.2-8.4-3-16.8-4.9-25-4.5-0.6,0-1.2.1-1.8,0.1a25.6,25.6,0,0,1,2.6,2A37.06,37.06,0,0,1,12,52.8a44.76,44.76,0,0,1,4.3,6.4,93.38,93.38,0,0,1,6.3,14.1c0.8,2.4,1.6,4.9,2.2,7.4a63.83,63.83,0,0,1,1.5,7.6,26.71,26.71,0,0,0,1.8,7.4,33.22,33.22,0,0,0,3.6,6.7c1.4,2,2.8,4,4.1,6.1l0.2-.1a8.17,8.17,0,0,0,.4,1.1h0a48.72,48.72,0,0,1,3.1,6,39.36,39.36,0,0,1,2.5,7.3c0.1,0.6.2,1.3,0.3,1.9a13.35,13.35,0,0,1,0,2,8.23,8.23,0,0,1-1.3,3.7c-0.7,1.1-1.5,2.1-2.2,3.2a15.44,15.44,0,0,0-1.7,3.4,12,12,0,0,0,0,7.5,14.9,14.9,0,0,0,4.2,6.3,18.93,18.93,0,0,0,6.4,4.1,0.45,0.45,0,0,1,.5,0,1.06,1.06,0,0,1,.5.2,4.05,4.05,0,0,0,.9.5,19.22,19.22,0,0,1,1.7,1.3l1.7,1.3,0.9,0.6a2.19,2.19,0,0,0,.5.3c0.1,0.1.4,0.2,0.5,0-0.1.2-.3,0.1-0.5,0s-0.3-.2-0.5-0.3l-0.9-.6-1.7-1.3a17.68,17.68,0,0,0-1.7-1.2,4.05,4.05,0,0,0-.9-0.5,1.06,1.06,0,0,0-.5-0.2,0.83,0.83,0,0,0-.5,0h0a19.34,19.34,0,0,1-6.5-4.1,16.88,16.88,0,0,1-4.3-6.3,11.65,11.65,0,0,1-.1-7.6,16.15,16.15,0,0,1,1.7-3.5c0.7-1.1,1.5-2.1,2.2-3.2a7.71,7.71,0,0,0,1.2-3.6,12.46,12.46,0,0,0-.3-3.8,36.39,36.39,0,0,0-2.6-7.2c-0.7-1.5-1.5-3.1-2.3-4.5a7.93,7.93,0,0,1,.2,1.7,35.18,35.18,0,0,1-1.5,11.9,26.21,26.21,0,0,1-3.3,7.3c-0.8,1.2-1.9,2.2-2.8,3.4s-1.9,2.3-2.8,3.5a63.2,63.2,0,0,0-4.9,8c-0.7,1.4-1.5,2.9-2.1,4.4a18,18,0,0,0-1.2,4.7c-0.4,3.2.2,6.5-.4,9.8l-0.6,2.4c-0.3.8-.6,1.5-0.9,2.2a18,18,0,0,0-.6,2.2c-0.2.8-.3,1.5-0.5,2.3-0.5,3-.9,6-1.1,8.8s-0.5,5.5-.6,7.9c-0.3,4.9-.4,9-0.5,11.9s0,4.5,0,4.5v-4.5c0-2.9.1-7,.4-11.9,0.1-2.5.3-5.1,0.6-7.9s0.6-5.8,1.1-8.8c0.1-.8.3-1.5,0.4-2.3s0.4-1.6.6-2.3,0.5-1.5.8-2.2a19.48,19.48,0,0,0,.6-2.3c0.6-3.1,0-6.4.3-9.8a19.87,19.87,0,0,1,1.2-4.8c0.6-1.5,1.4-3,2.1-4.4a55.55,55.55,0,0,1,4.9-8.2c0.9-1.3,1.9-2.4,2.8-3.6a35.84,35.84,0,0,0,2.7-3.3,24.38,24.38,0,0,0,3.1-7.1,33.11,33.11,0,0,0,1.4-11.6,24.35,24.35,0,0,0-.6-3.1,8.17,8.17,0,0,1-.4-1.1l0.2-.1c-1.3-2-2.7-4-4.1-6A34.81,34.81,0,0,1,27.4,96a28.51,28.51,0,0,1-1.9-7.5A49.79,49.79,0,0,0,24,81a61.82,61.82,0,0,0-2.3-7.3,87,87,0,0,0-6.3-13.9,53.86,53.86,0,0,0-4.3-6.3A23.55,23.55,0,0,0,5,48l0.2-.4c-1.1.1-2.2,0.3-3.3,0.5a14.62,14.62,0,0,0-2,.5V74.2a2,2,0,0,0,.4.8,26.67,26.67,0,0,0,2.9,4.8,56.84,56.84,0,0,0,4.2,4.4,13.38,13.38,0,0,1,3.5,5.6,12.67,12.67,0,0,1,.4,3.4,13.32,13.32,0,0,1-.5,3.4c-0.7,2.3-2.1,4.2-3.2,6.2A17.88,17.88,0,0,0,6.3,106a3,3,0,0,0-.2,1l0.2,0.1a4.2,4.2,0,0,0-.2.5,12.1,12.1,0,0,0-.1,1.9H6.2a8.15,8.15,0,0,0,.1,1c0,0.6.1,1.6,0.1,2.7v1a53.24,53.24,0,0,1,.7,9.8,33.44,33.44,0,0,1-1.7,7.1A43.86,43.86,0,0,0,3.6,138a10.28,10.28,0,0,0,0,3.5c0.2,1.1.6,2.3,0.9,3.4a58,58,0,0,1,1.3,6.8,79.32,79.32,0,0,1-.2,24.9,75.85,75.85,0,0,1-4.6,17c-0.3.7-.6,1.3-0.8,1.8V724H165.4c-0.3-6.4-.5-12.9-0.8-19.3C163.8,693.2,161,682.7,159,671.7Z" transform="translate(0.2 0.2)"/><path d="M270.1,408.4c0.2,2.4.5,5,.8,7.9,0.1,1.3.3,2.6,0.4,3.9s0.2,2.7.3,4.1c0.2,2.8.5,5.7,0.8,8.8,1.3,12.3,2.9,26.7,4.7,42,0.9,7.7,1.9,15.6,2.9,23.7s2.7,16.1,5.8,23.6a101,101,0,0,0,5.5,10.9,111.5,111.5,0,0,0,6.8,10.1c1.1,1.5,2.1,3,3.1,4.6,0.3,0.3.5,0.6,0.9,1-3.2-20.7-.5-31.8.9-35.7a19.87,19.87,0,0,1,2.4-4.3,15.64,15.64,0,0,0,2-3.5c1-2.8,1.8-8.7.5-11.7l0.1-.1c-0.1-.2-0.2-0.5-0.3-0.7-1.8-4.8-3.4-9.8-5-14.8-3.1-10-5.8-20.1-8.4-29.5-1.3-4.7-2.5-9.3-3.7-13.6q-0.9-3.3-1.8-6.3c-0.2-.5-0.3-1-0.5-1.5s-0.3-.9-0.5-1.4l-1.2-2.7c-1.7-3.5-3.3-6.7-4.7-9.6,0-.1-0.1-0.1-0.1-0.2a44.69,44.69,0,0,1-5.8-2A27.37,27.37,0,0,1,270.1,408.4Z" transform="translate(0.2 0.2)"/><path d="M271.6,394.7h0c-0.1.3-.3,0.7-0.4,1.1a25.73,25.73,0,0,0-1.3,7.7V405a39.39,39.39,0,0,0,7.5,4c1.1,0.5,2.1.8,3.1,1.2-0.1-.2-0.1-0.3-0.2-0.5-0.5-1.4-.8-2.7-1.1-3.8-0.5-2.3-.9-4-1.1-5.2C275.9,398.7,273.7,396.7,271.6,394.7Z" transform="translate(0.2 0.2)"/><path d="M278.7,398.7l0.5-.1-0.6-.1C278.5,398.6,278.6,398.6,278.7,398.7Z" transform="translate(0.2 0.2)"/><path d="M293.8,419.3c-1-1.5-2.1-3-3.2-4.4v0.2a8.15,8.15,0,0,1-1-.1,5.74,5.74,0,0,1-1.2-.1c-0.5-.1-1.1-0.1-1.7-0.2-0.4-.1-0.9-0.1-1.4-0.2,1.2,2.4,2.4,5.1,3.7,8,0.4,0.9.8,1.8,1.2,2.8a6,6,0,0,1,.5,1.6c0.1,0.5.3,1,.4,1.5,0.6,2.1,1.1,4.2,1.7,6.3,1.1,4.3,2.3,8.9,3.5,13.7,2.4,9.5,5,19.6,7.9,29.6,1.5,5,2.9,10,4.7,14.8,0.1,0.2.2,0.5,0.3,0.7l0.1-.1a7.49,7.49,0,0,1,.5,1.6,24.35,24.35,0,0,0,2.2,4.6c1.3,2.2,2.5,4.3,3.7,6.4,4.9,8.5,9,16.7,12.3,23.8s5.7,13.2,7.4,17.4,2.6,6.7,2.6,6.7-1-2.4-2.8-6.6-4.3-10.2-7.7-17.3-7.7-15.1-12.7-23.5c-1.2-2.1-2.5-4.2-3.9-6.4a15.05,15.05,0,0,1-1-1.7,23.24,23.24,0,0,1-1.3,7.7,11.09,11.09,0,0,1-1.7,3v0.7a32.56,32.56,0,0,0,.2,4.1,16.75,16.75,0,0,0,.6,2.7,17.53,17.53,0,0,0,1.3,2.8,7.14,7.14,0,0,1,.8,1.5,8.47,8.47,0,0,1,.4,1.7,20.45,20.45,0,0,1,0,3.5c-0.1,1.2-.1,2.3-0.1,3.4a6.58,6.58,0,0,0,.9,3.1,9,9,0,0,0,2,2.3c0.8,0.6,1.5,1.2,2.2,1.8a8.32,8.32,0,0,1,1.6,1.7,4.72,4.72,0,0,1,.7,1.7,5.74,5.74,0,0,1,.1,1.2v0a5.74,5.74,0,0,0-.1-1.2,4.72,4.72,0,0,0-.7-1.7,12.48,12.48,0,0,0-1.6-1.7c-0.7-.5-1.4-1.1-2.2-1.7a7.71,7.71,0,0,1-2.1-2.3,7.08,7.08,0,0,1-1-3.2c-0.1-1.2,0-2.3,0-3.5a19,19,0,0,0-.1-3.4,9.36,9.36,0,0,0-.4-1.6,10,10,0,0,0-.8-1.4,15.5,15.5,0,0,1-1.4-2.9,16.37,16.37,0,0,1-.7-2.8c-0.2-1.5-.2-2.9-0.3-3.8a12.74,12.74,0,0,0-2,3.6c-1.4,4-4.2,15.4-.5,37a17.08,17.08,0,0,0,1.4,1.1,82.94,82.94,0,0,0,7.2,4.6,14.17,14.17,0,0,1,3.6,3.3,23.7,23.7,0,0,0,3.4,3.7c0.6,0.5,1.3,1.1,1.9,1.5a16,16,0,0,0,2.3,1c1.6,0.6,3.1,1.2,4.6,1.7a25.73,25.73,0,0,0,4.4,1.1,18.73,18.73,0,0,0,4.1,0c1.3-.1,2.4-0.1,3.4-0.1a9.47,9.47,0,0,1,2.6.4,3.58,3.58,0,0,1,1.1.4c-2.5-7.2-9-22.8-9.9-29.7-3.2-24.2-10.1-47.1-16-70.4a338.09,338.09,0,0,0-13.5-31.7A134.65,134.65,0,0,0,293.8,419.3Z" transform="translate(0.2 0.2)"/><path d="M86.3,73.4a29.37,29.37,0,0,1,4.8,8.4c1.2,3.3,2.1,7,3.1,10.9s2.1,8.2,4.4,12.1a20.48,20.48,0,0,0,4.5,5.3,26.12,26.12,0,0,0,6.3,3.7,95,95,0,0,0,14.8,4.8c5.2,1.3,10.7,2.4,16.3,3.5s11.4,2.3,17.3,3.7c1.4,0.4,2.9.7,4.3,1.1-0.6-1.6-1.3-3.2-2-4.8-4.4-10-9.7-19.6-17-27.3a49.57,49.57,0,0,0-5.9-5.3,57.44,57.44,0,0,0-6.6-4.3,86.35,86.35,0,0,0-14.3-6.3c-9.8-3.4-19.8-5.5-29.5-7.9-1.4-.3-2.8-0.7-4.2-1A38.11,38.11,0,0,1,86.3,73.4Z" transform="translate(0.2 0.2)"/><path d="M172.7,152.7c3.7,10.5,6.9,21.1,9.8,31.9,5.8,21.5,10.2,43.3,14,64.9,1.9,10.8,3.6,21.5,5.3,32.1l0.6,3.9c0.2,1.3.5,2.6,0.7,3.9s0.6,2.5.9,3.8,0.7,2.5,1,3.8a127.73,127.73,0,0,0,5.1,14.7,171,171,0,0,0,14,26.9c2.7,4.2,5.5,8.2,8.5,12s6.2,7.3,9.5,10.8c6.5,6.9,13.1,13.5,19.4,19.9,1.6,1.6,3.1,3.2,4.7,4.8l4.5,4.8c2.3,2.3,4.7,4.6,7,6.8,0.1-.7.3-2.1,0.6-4.1a62.29,62.29,0,0,0,.6-13.2,63.63,63.63,0,0,0-5-19.9c-1.5-3.7-3.2-7.7-5.1-11.8s-3.9-8.5-5.7-13.2q-1.35-3.45-2.7-7.2c-0.8-2.5-1.7-5-2.5-7.6-1.6-5.1-3.3-10.5-4.9-16-3.2-11-6.3-22.7-9.4-34.8-1.7-5.9-4.1-11.8-6.5-17.8s-4.5-12.2-6.5-18.4c-3.9-12.6-7.8-25.3-12.5-37.7s-10.3-24.6-17.3-35.6A104.69,104.69,0,0,0,189,145a71.77,71.77,0,0,0-14.5-12,39.14,39.14,0,0,0-8.3-3.9l-2.7-.9c1.2,3,2.4,6,3.5,9C169,142.3,170.8,147.5,172.7,152.7Z" transform="translate(0.2 0.2)"/><path d="M259.9,383c-6.4-6.3-13.1-12.7-19.8-19.6-3.3-3.5-6.7-7-9.8-10.9s-5.9-8-8.7-12.2a177.58,177.58,0,0,1-14.3-27.4,133,133,0,0,1-5.2-15c-0.3-1.3-.7-2.6-1-3.9s-0.6-2.7-.9-4-0.5-2.6-.7-3.9-0.4-2.7-.6-4q-2.4-15.9-5.1-32.1c-3.6-21.6-7.6-43.4-12.9-64.9-2.7-10.8-5.7-21.4-9.2-31.9-1.8-5.2-3.6-10.4-5.6-15.6-0.1-.4-0.3-0.7-0.4-1.1a67.06,67.06,0,0,1,.9,7.9,153.09,153.09,0,0,1-.1,16.5c-0.3,6.4-1,13.6-1.8,21.4-0.4,3.9-.8,8-1.1,12.2-0.2,2.1-.1,4.3-0.1,6.5s0,4.4.1,6.7c0.1,4.5.1,9.1,0.3,13.9a118.53,118.53,0,0,0,1.3,13.1,18.14,18.14,0,0,1,.5,2.5c0.1,0.8.2,1.3,0.2,1.3h0c0.8,4,1.7,8.1,2.6,12.2,1.1,4.9,2.2,9.9,3.6,14.9a293.63,293.63,0,0,0,9.4,29.8c3.6,9.8,7.7,19.4,12.1,28.8,1.1,2.3,2.2,4.7,3.3,7s2.2,4.6,3.4,6.8a64.46,64.46,0,0,0,8.9,11.7c6.7,7,14.3,12.7,21.5,18.2a122.36,122.36,0,0,1,10.1,8.5c3.1,3.1,5.7,6.2,8.4,9.1a154.7,154.7,0,0,0,14.9,15.2c1.1,0.9,2.2,1.8,3.2,2.6a24.8,24.8,0,0,1,1.3-8.3,11.21,11.21,0,0,0,.5-1.3c0.2-.4.3-0.7,0.4-0.9v-0.1a0.1,0.1,0,0,1-.1-0.1C266.2,389.2,263.1,386.2,259.9,383Z" transform="translate(0.2 0.2)"/><path d="M201,82.8h-0.7a2.2,2.2,0,0,0-.8.1c-0.3.1-.5,0.1-0.8,0.2-0.1,0-.3.1-0.4,0.1s-0.3.1-.4,0.2a3.55,3.55,0,0,0-.9.4,6.19,6.19,0,0,0-1.7,1.1c-0.6.4-1.1,1-1.7,1.5s-1.1,1.2-1.5,1.8a46.07,46.07,0,0,0-2.9,4.3c-1.6,2.6-3.1,5.3-4.8,8-0.1.2-.2,0.3-0.3,0.5a10.38,10.38,0,0,1,1-.4,12.4,12.4,0,0,1,2.2-.4,50,50,0,0,1,5.4.1,41.19,41.19,0,0,0,6.1.1,10.88,10.88,0,0,0,3-.7,6.74,6.74,0,0,0,2.4-1.6,8.68,8.68,0,0,0,1.6-2.3c0.2-.4.3-0.8,0.5-1.2l0.3-1.2c0.1-.6.2-1.1,0.3-1.6,0-.1-0.1-0.1-0.1-0.2a90.85,90.85,0,0,0-4.7-8.7h-0.3A2.2,2.2,0,0,0,201,82.8Z" transform="translate(0.2 0.2)"/><path d="M157.9,53.8c0.9,0.9,2,2,3.2,3.1,2.4,2.2,5.2,4.8,8.1,7.6a97.45,97.45,0,0,1,8.9,9.2,64.06,64.06,0,0,1,3.9,5.2,33.11,33.11,0,0,1,2.9,5.6,20.45,20.45,0,0,1,1.4,5.8,6.6,6.6,0,0,1,.1,1.4v1.4a20.62,20.62,0,0,1-.3,2.6,15.45,15.45,0,0,1-.6,2.3v0.1c1.2-1.9,2.3-3.8,3.5-5.7a46.67,46.67,0,0,1,3-4.3c0.5-.7,1.1-1.2,1.6-1.8s1.1-1.1,1.7-1.5a8.71,8.71,0,0,1,1.8-1.1,3.55,3.55,0,0,0,.9-0.4c0.1-.1.3-0.1,0.4-0.2s0.3-.1.4-0.1c0.3-.1.6-0.1,0.8-0.2h1.5c0.2,0,.5.1,0.7,0.1h0.3c-5-8.3-11.4-15.8-19.4-21.2-8.5-5.7-18.7-8.1-28.2-11.8,0.3,0.4.7,0.8,1.2,1.4A21.83,21.83,0,0,0,157.9,53.8Z" transform="translate(0.2 0.2)"/><path d="M206.3,94.7a6.12,6.12,0,0,1-.5,1.2,12,12,0,0,1-1.5,2.4,11.38,11.38,0,0,1-2.5,1.8,10.89,10.89,0,0,1-3.1.8,32.24,32.24,0,0,1-6.2.1,30.19,30.19,0,0,0-5.3.1,10.08,10.08,0,0,0-2,.4,9.75,9.75,0,0,0-1.4.6,1.38,1.38,0,0,0-.4.3l-0.3.3a1.44,1.44,0,0,1-.3.2c-0.5.8-.9,1.3-1.2,1.7a6.12,6.12,0,0,1-.5.6l-0.2-.1c-0.4.5-.8,1.1-1.2,1.6a37.77,37.77,0,0,1-4,4,17.68,17.68,0,0,1-2.2,1.6,25.29,25.29,0,0,1-2.2,1.3c-0.8.3-1.5,0.7-2.3,1s-1.5.5-2.2,0.7a15.52,15.52,0,0,1-2.1.4,13.66,13.66,0,0,1-1.9.2c-1.2.1-2.3,0.1-3.1,0.1a13.57,13.57,0,0,0-1.8-.1c1,2,1.9,4,2.8,6,0.8,1.8,1.6,3.6,2.3,5.5,1.1,0.3,2.2.6,3.3,1a38.44,38.44,0,0,1,8.5,3.9,70.69,70.69,0,0,1,14.8,12.1,108.44,108.44,0,0,1,12,15.5c7.2,11.1,12.8,23.3,17.7,35.7,2.4,6.2,4.7,12.5,6.7,18.8s4,12.6,6.1,18.9,4.2,12.3,6.6,18.3,4.9,11.8,6.7,17.9c3.3,12.1,6.4,23.7,9.7,34.7,1.6,5.5,3.3,10.8,5,15.9,0.8,2.6,1.7,5.1,2.5,7.5s1.8,4.8,2.7,7.1c1.9,4.6,3.9,8.9,5.8,13.1s3.7,8.1,5.2,11.9c0.4,0.9.8,1.9,1.1,2.8s0.7,1.9,1,2.8a55.17,55.17,0,0,1,1.6,5.4,54.28,54.28,0,0,1,1.6,9.7,62,62,0,0,1-.5,13.8c-0.3,2.4-.6,4-0.6,4.5a9.11,9.11,0,0,1,.3,1.6c0.1,0.3.1,0.6,0.2,0.9a120.83,120.83,0,0,1,9.6,10.9h0.2v0.2c1.6,2,3,4.1,4.4,6.1a174,174,0,0,1,10.6,18.9c4.3,9,7.7,17.4,10.5,24.9-1.6-6.5-3-13.1-4.2-19.7-5.7-31.1-13-62.6-27.1-91.1-6.1-12.3-15.8-22.6-21.5-35a187,187,0,0,1-14.1-42.2c-3.7-18.5-14.7-54.5-27.2-81-0.2-11.4-1.4-23.7-3-31.4-1.5-6.9-6.1-22.7-6.5-30.1-0.7-14.7.8-25.9-5.7-39.7-0.1.5-.1,1-0.2,1.5S206.5,94.3,206.3,94.7Z" transform="translate(0.2 0.2)"/><path d="M282.9,408.8c0.3,0.8.6,1.5,1,2.4a29.7,29.7,0,0,0,3.3.6c0.4,0,.8.1,1.2,0.1a89.82,89.82,0,0,0-6.6-7.4c0.1,0.3.1,0.6,0.2,0.9A29,29,0,0,0,282.9,408.8Z" transform="translate(0.2 0.2)"/><path d="M44.5,10.1l-0.9,2.4a27.34,27.34,0,0,0-1,4.8,17,17,0,0,0-.1,2.2,12.31,12.31,0,0,0,.2,2c0.1,0.6.2,1.2,0.3,1.6a8.34,8.34,0,0,0,.4,1.2,2.39,2.39,0,0,0,.3.7,6.12,6.12,0,0,1,1.2.5,3.64,3.64,0,0,1,1.4,1.4,1.2,1.2,0,0,1,.3.6l-0.3.2c0.5,0.3.9,0.5,1.4,0.8a14.45,14.45,0,0,0,5.5.9c1.9,0,3.8-.2,5.7-0.2a11.23,11.23,0,0,1,5.4,1.5,9.46,9.46,0,0,1,3.5,4.2c1.4,3.3,2,6.8,3.4,9.6a13.73,13.73,0,0,0,1.3,2,12.09,12.09,0,0,0,1.6,1.6q1.8,1.5,3.3,3a27.39,27.39,0,0,1,5,6.1,12.09,12.09,0,0,1,1.8,5.9,8.43,8.43,0,0,1-.7,4,4.87,4.87,0,0,1-.3.7c1.3,0.3,2.6.7,3.9,1,9.7,2.5,19.7,4.9,29.6,8.6s19.6,8.8,26.9,16.8a85,85,0,0,1,13.8,20.7c0.4,0,1.2.1,2.4,0.2h3c0.6-.1,1.2-0.1,1.8-0.2s1.3-.3,2-0.4a16.55,16.55,0,0,0,2.1-.6c0.7-.2,1.4-0.6,2.2-0.9s1.5-.8,2.2-1.2a15.94,15.94,0,0,0,2.1-1.5,35.47,35.47,0,0,0,4-3.8l1.2-1.5-0.2-.1a6.12,6.12,0,0,0,.5-0.6c0.3-.4.8-1,1.3-1.8v-0.1h0a17.39,17.39,0,0,0,1.6-2.8c0.1-.3.3-0.6,0.4-0.9a4.18,4.18,0,0,1,.4-1,14.13,14.13,0,0,0,.6-2.2c0.2-.8.2-1.6,0.4-2.4V91.8a5.7,5.7,0,0,0-.1-1.3,19.7,19.7,0,0,0-1.3-5.6,31.67,31.67,0,0,0-2.8-5.5,46,46,0,0,0-3.8-5.2,109.39,109.39,0,0,0-8.7-9.2c-2.9-2.8-5.7-5.4-8-7.7-1.2-1.1-2.2-2.2-3.1-3.1s-1.7-1.8-2.3-2.5-0.9-1.1-1.2-1.4c-1.2-.5-2.3-0.9-3.4-1.4-10.8-4.8-10.1-7.6-24.2-11.9-14.3-4.4-28.2-2.6-41.3-10.3C72.5,18.6,62,12,54,9.2c-4.5-1.6-6.9-2.4-8-4.3-0.2.9-.4,1.9-0.7,2.9A15.55,15.55,0,0,1,44.5,10.1Z" transform="translate(0.2 0.2)"/><path d="M26.4,4.7a47.83,47.83,0,0,0,5.4,8.7,79.68,79.68,0,0,0,7.4,8.1c1.1,1,2.3,2,3.4,3-0.1-.3-0.2-0.7-0.3-1.1s-0.2-1.1-.3-1.8a14.08,14.08,0,0,1-.1-2.1c0-.7.1-1.5,0.1-2.3a21.9,21.9,0,0,1,1.2-4.9,24.42,24.42,0,0,1,1-2.4c0.3-.8.6-1.5,0.9-2.3A21.16,21.16,0,0,0,46,4.5C45.5,3.4,45.5,2,45.6-.1h-21A23.45,23.45,0,0,0,26.4,4.7Z" transform="translate(0.2 0.2)"/></g><g id="Veins"><path class="cls-2" d="M203.6,83.2c0.4,0.1.7,0.2,0.7,0.2s-0.3-.1-0.7-0.2a12.26,12.26,0,0,0-1.6-.4h0C202.7,83,203.2,83.1,203.6,83.2Z" transform="translate(0.2 0.2)"/><path class="cls-2" d="M344.5,569.9a2.23,2.23,0,0,1,.5.3,2.23,2.23,0,0,0-.5-0.3,2.19,2.19,0,0,0-.5-0.3h0A3.22,3.22,0,0,0,344.5,569.9Z" transform="translate(0.2 0.2)"/><path class="cls-2" d="M154.1,49.6a6.12,6.12,0,0,0-.5-0.6,6.12,6.12,0,0,1,.5.6,0.53,0.53,0,0,0,.2.3h0A0.53,0.53,0,0,0,154.1,49.6Z" transform="translate(0.2 0.2)"/><path class="cls-2" d="M207,91.4c0-.6.1-1.2,0.1-1.6V88.4s0,0.5-.1,1.4a8.38,8.38,0,0,0,0,1.6c-0.1.1-.1,0.3-0.2,0.4s0.1,0.1.1,0.2A1.27,1.27,0,0,1,207,91.4Z" transform="translate(0.2 0.2)"/><path class="cls-2" d="M270.8,550.6h0Z" transform="translate(0.2 0.2)"/><path class="cls-2" d="M2.6,80.4a43.67,43.67,0,0,0,4.2,4.4A13.58,13.58,0,0,1,10.1,90a11.24,11.24,0,0,1,.4,3.2,11.27,11.27,0,0,1-.5,3.2c-0.6,2.1-2,4-3.1,6.1a15.07,15.07,0,0,0-1.3,3.3c-0.1.3-.1,0.6-0.2,0.9l-0.2-.1-0.3.6c-0.2.4-.4,0.9-0.8,1.6a22.22,22.22,0,0,1-1.5,2.3A12.14,12.14,0,0,1,0,113.5l-0.1.1v1a2.09,2.09,0,0,0,.6-0.4,14.09,14.09,0,0,0,2.8-2.5A22.18,22.18,0,0,0,5,109.3a1.47,1.47,0,0,0,.2-0.4v0.5H5a8.15,8.15,0,0,0,.1,1c0,0.6.1,1.5,0.1,2.7a16.09,16.09,0,0,1-.4,4.1A15.69,15.69,0,0,1,2.6,122,11.8,11.8,0,0,1,0,124.9V126a15.1,15.1,0,0,0,3.3-3.4A16.53,16.53,0,0,0,4.7,120a12.54,12.54,0,0,0,.9-2.5c0.1-.3.1-0.6,0.2-0.9a36.76,36.76,0,0,1,.4,7.4,28.42,28.42,0,0,1-1.6,7,55.26,55.26,0,0,0-1.8,7,10.88,10.88,0,0,0,0,3.6c0.3,1.2.6,2.3,0.9,3.4,0.6,2.3,1,4.5,1.4,6.8a82.23,82.23,0,0,1,0,24.8,76.57,76.57,0,0,1-4.5,17c-0.3.7-.5,1.2-0.8,1.8v0.1c0.3-.6.5-1.2,0.8-1.8a75.85,75.85,0,0,0,4.6-17,85.76,85.76,0,0,0,.2-24.9c-0.3-2.3-.8-4.5-1.3-6.8-0.3-1.1-.6-2.3-0.9-3.4a13.66,13.66,0,0,1,0-3.5A43.86,43.86,0,0,1,5,131.2a33.44,33.44,0,0,0,1.7-7.1,53.24,53.24,0,0,0-.7-9.8v-1c0-1.2-.1-2.1-0.1-2.7a4.54,4.54,0,0,0-.1-1H5.6a12.1,12.1,0,0,1,.1-1.9,4.2,4.2,0,0,1,.2-0.5l0.2-.2c0.1-.3.1-0.7,0.2-1a17.88,17.88,0,0,1,1.3-3.2,36.37,36.37,0,0,0,3.2-6.2,13.32,13.32,0,0,0,.5-3.4,12.67,12.67,0,0,0-.4-3.4,13,13,0,0,0-3.5-5.6,56.84,56.84,0,0,1-4.2-4.4A23.6,23.6,0,0,1,.3,75a2,2,0,0,0-.4-0.8v2A30.12,30.12,0,0,0,2.6,80.4Z" transform="translate(0.2 0.2)"/><path class="cls-2" d="M45,7.7c-0.3.7-.6,1.5-0.9,2.3s-0.7,1.5-1,2.4a21.9,21.9,0,0,0-1.2,4.9,9.06,9.06,0,0,0-.1,2.3,14.77,14.77,0,0,0,.1,2.1l0.3,1.8c0.1,0.4.2,0.8,0.3,1.1-1.2-1-2.3-2-3.4-3a56.42,56.42,0,0,1-7.4-8.1,47.83,47.83,0,0,1-5.4-8.7q-1-2.55-1.8-4.8H24.4a46.23,46.23,0,0,0,1.9,4.7,54.12,54.12,0,0,0,5.3,8.8A56.42,56.42,0,0,0,39,21.6c1.2,1.1,2.4,2.2,3.7,3.3V25H42c-1.2.1-2.4,0.4-3.7,0.6a13.8,13.8,0,0,1-2,.3H34.1a27.41,27.41,0,0,1-4.8-.4,17.22,17.22,0,0,1-4.8-1.7,19,19,0,0,1-4.4-3,29.82,29.82,0,0,1-6.4-8.3,35.21,35.21,0,0,1-3.2-8.6A27,27,0,0,1,9.9.3,0.9,0.9,0,0,0,9.8-.2h0a0.9,0.9,0,0,0,.1.5,27,27,0,0,0,.6,3.6,35.24,35.24,0,0,0,3.1,8.7,31.79,31.79,0,0,0,6.3,8.5,19.42,19.42,0,0,0,4.4,3.1A24.25,24.25,0,0,0,29.2,26a42.85,42.85,0,0,0,4.9.5h2.3a11.76,11.76,0,0,0,2.1-.3,16.34,16.34,0,0,1,3.6-.5,4.81,4.81,0,0,1,2.2.4c0.4,0.3.7,0.7,1.1,1l0.1,0.1a0.2,0.2,0,0,1,.1.2,2.23,2.23,0,0,0,.3.5l0.3-.2,1.5,0.9a13.55,13.55,0,0,0,5.6,1c1.9,0,3.8-.2,5.6-0.1A10.48,10.48,0,0,1,64.1,31a7.9,7.9,0,0,1,3.3,4.1c1.4,3.2,1.8,6.7,3.4,9.7a14.79,14.79,0,0,0,1.3,2.1,9.12,9.12,0,0,0,1.7,1.7q1.8,1.5,3.3,3a30.36,30.36,0,0,1,4.8,5.9A11.66,11.66,0,0,1,83.5,63a10.23,10.23,0,0,1-.6,3.6,6.89,6.89,0,0,1-.3.8,167.26,167.26,0,0,1-23-7.5c-8.8-3.7-17.2-7.6-25.8-10.5a88.78,88.78,0,0,0-14.1-3.7c4.1-8.5-.3-13.9-5-19.7-2.8-3.4-5.7-7-7-11.5A35.32,35.32,0,0,1,6.6,0h-1A37.54,37.54,0,0,0,6.7,14.9c1.4,4.7,4.4,8.3,7.2,11.8,4.7,5.8,8.8,10.8,4.7,18.9a48.91,48.91,0,0,0-10.8-.5,34.17,34.17,0,0,0-6.3.9,8.33,8.33,0,0,0-1.5.4v2.2a14.62,14.62,0,0,1,2-.5c1.1-.2,2.2-0.4,3.3-0.5L5,48a22.33,22.33,0,0,1,5.6,5,53.86,53.86,0,0,1,4.3,6.3,87,87,0,0,1,6.3,13.9c0.9,2.4,1.6,4.9,2.3,7.3A66.34,66.34,0,0,1,25,88a28.51,28.51,0,0,0,1.9,7.5,34.81,34.81,0,0,0,3.8,6.8c1.4,2,2.8,4,4.1,6l-0.2.1a8.17,8.17,0,0,0,.4,1.1,14.06,14.06,0,0,1,.6,3.1,30.89,30.89,0,0,1-1.4,11.6,27.4,27.4,0,0,1-3.1,7.1,39.16,39.16,0,0,1-2.7,3.3,34.4,34.4,0,0,0-2.8,3.6,65.81,65.81,0,0,0-4.9,8.2c-0.7,1.5-1.5,2.9-2.1,4.4a19.87,19.87,0,0,0-1.2,4.8c-0.3,3.3.3,6.6-.3,9.8a15.45,15.45,0,0,1-.6,2.3,19.45,19.45,0,0,0-.8,2.2,15.45,15.45,0,0,0-.6,2.3c-0.1.8-.3,1.5-0.4,2.3-0.5,3-.8,6-1.1,8.8s-0.4,5.5-.6,7.9c-0.3,4.9-.4,9-0.4,11.9v0c0.1-2.9.2-7,.5-11.9,0.2-2.5.3-5.1,0.6-7.9s0.6-5.8,1.1-8.8a18.92,18.92,0,0,1,.5-2.3c0.2-.7.4-1.5,0.6-2.2a20.36,20.36,0,0,1,.9-2.2,10.55,10.55,0,0,0,.6-2.4c0.6-3.2.1-6.6,0.4-9.8a19.1,19.1,0,0,1,1.2-4.7c0.6-1.5,1.4-2.9,2.1-4.4a56.82,56.82,0,0,1,4.9-8c0.9-1.2,1.9-2.4,2.8-3.5a31.68,31.68,0,0,0,2.8-3.4,26.21,26.21,0,0,0,3.3-7.3,30.73,30.73,0,0,0,1.5-11.9c-0.1-.6-0.1-1.2-0.2-1.7,0.8,1.5,1.6,3,2.3,4.5a36.39,36.39,0,0,1,2.6,7.2,12,12,0,0,1,.3,3.8,7.71,7.71,0,0,1-1.2,3.6c-0.7,1.1-1.5,2.1-2.2,3.2a14.19,14.19,0,0,0-1.7,3.5,11.64,11.64,0,0,0,.1,7.6,15.13,15.13,0,0,0,4.3,6.3,21,21,0,0,0,6.5,4.1h0a0.45,0.45,0,0,1,.5,0,1.06,1.06,0,0,1,.5.2c0.3,0.2.6,0.3,0.9,0.5,0.6,0.4,1.1.8,1.7,1.2l1.7,1.3,0.9,0.6a2.19,2.19,0,0,0,.5.3c0.1,0.1.4,0.2,0.5,0-0.1.2-.3,0.1-0.5,0s-0.3-.2-0.5-0.3l-0.9-.6-1.7-1.3c-0.6-.4-1.1-0.9-1.7-1.3a4.05,4.05,0,0,0-.9-0.5,1.06,1.06,0,0,0-.5-0.2,0.83,0.83,0,0,0-.5,0,21.26,21.26,0,0,1-6.4-4.1,16.62,16.62,0,0,1-4.2-6.3,11.35,11.35,0,0,1,0-7.5,15.44,15.44,0,0,1,1.7-3.4c0.7-1.1,1.5-2,2.2-3.2a9.63,9.63,0,0,0,1.3-3.7,6.69,6.69,0,0,0,0-2,12.5,12.5,0,0,0-.3-1.9A39.36,39.36,0,0,0,39,115a42.5,42.5,0,0,0-3.1-6h0a8.17,8.17,0,0,1-.4-1.1l-0.2.1c-1.3-2.1-2.8-4.1-4.1-6.1a33.22,33.22,0,0,1-3.6-6.7,30.79,30.79,0,0,1-1.8-7.4,48.65,48.65,0,0,0-1.5-7.6c-0.6-2.5-1.4-5-2.2-7.4a80.9,80.9,0,0,0-6.3-14.1,55,55,0,0,0-4.3-6.4,24.43,24.43,0,0,0-2.7-2.9,25.6,25.6,0,0,0-2.6-2A10.87,10.87,0,0,1,8,47.3c8.1-.5,16.6,1.5,25,4.5,4.3,1.5,8.7,3.3,13.1,5.2a6.37,6.37,0,0,0-.2.7,12.13,12.13,0,0,1-.5,1.4,0.1,0.1,0,0,1-.1.1,4.88,4.88,0,0,0-.3.7V60c-0.4.8-.9,1.7-1.3,2.7a30.36,30.36,0,0,0-1.2,3.6,7.11,7.11,0,0,0-.3,2.1c0,0.7.1,1.4,0.1,2.1,0.2,2.8.2,6,1.1,9a8.11,8.11,0,0,0,1,2.1,21,21,0,0,1,1.4,1.7,5.33,5.33,0,0,1,.6,4.1,12.66,12.66,0,0,1-1.2,3.9c-0.5,1.2-1.2,2.3-1.6,3.4a7,7,0,0,0-.4,3.1c0.1,0.9.3,1.7,0.4,2.4s0.4,1.1.5,1.5a4.2,4.2,0,0,0,.2.5,4.2,4.2,0,0,1-.2-0.5c-0.1-.3-0.3-0.8-0.5-1.5a7.46,7.46,0,0,1-.4-2.4,6.54,6.54,0,0,1,.5-3c0.4-1.1,1.1-2.1,1.6-3.3a15.65,15.65,0,0,0,1.3-4,5.69,5.69,0,0,0-.6-4.4c-0.4-.7-1-1.2-1.4-1.8a6.11,6.11,0,0,1-.9-2,23.38,23.38,0,0,1-.7-4.5c-0.1-1.5-.1-3-0.2-4.4,0-.7-0.1-1.4-0.1-2.1a5.82,5.82,0,0,1,.3-1.9,20.89,20.89,0,0,1,1.2-3.3v0.6a12.41,12.41,0,0,0,1,3.5,28.61,28.61,0,0,0,5.5,7c2.3,2.3,5,4.5,7.3,7a12.88,12.88,0,0,1,2.8,4.2c0.7,1.5,1.2,3.1,1.8,4.6a18.66,18.66,0,0,0,2.5,3.9,26.14,26.14,0,0,0,3.1,2.8,28.57,28.57,0,0,1,4.6,4.2,13.69,13.69,0,0,1,1,1.4,2.23,2.23,0,0,0,.3.5l-0.3-.6a7.69,7.69,0,0,0-1-1.5,33.69,33.69,0,0,0-4.6-4.3,16.3,16.3,0,0,1-3-2.9,15.1,15.1,0,0,1-2.4-3.9c-0.6-1.5-1.1-3.1-1.8-4.7a18.28,18.28,0,0,0-2.8-4.4c-2.3-2.6-5-4.8-7.2-7.2a26.59,26.59,0,0,1-5.3-6.9,10.33,10.33,0,0,1-.9-3.2,4.78,4.78,0,0,1,.3-2.5l0.3-.9a3.33,3.33,0,0,1,.3-0.6,2.23,2.23,0,0,1,.3-0.5H45.9a4.87,4.87,0,0,0,.4-1.1c0.1-.2.1-0.4,0.2-0.6,3.8,1.7,7.7,3.4,11.6,5,4.4,1.8,9.1,3.5,13.8,4.9,3.3,1,6.7,1.9,10.1,2.7A19.78,19.78,0,0,1,85.8,73a27.06,27.06,0,0,1,4.7,8.4c1.2,3.3,2.1,7,3.1,10.9s2.1,8.2,4.4,12.1a23.1,23.1,0,0,0,4.5,5.4,26.41,26.41,0,0,0,6.3,3.8,85.62,85.62,0,0,0,14.8,4.9c5.2,1.3,10.7,2.5,16.3,3.7s11.4,2.3,17.2,3.8c1.6,0.4,3.2.8,4.8,1.3,1.1,2.8,2.2,5.7,3.3,8.6a66.54,66.54,0,0,1,.9,8,132.93,132.93,0,0,1-.2,16.5c-0.4,6.4-1,13.6-1.9,21.4-0.4,3.9-.9,8-1.2,12.2-0.2,2.1-.1,4.3-0.1,6.5v6.7c0,4.5,0,9.1.2,13.9,0.1,3.2.3,6.5,0.7,9.9a14,14,0,0,0-1.7-2.8,11.23,11.23,0,0,0-2.4-2.5,17.27,17.27,0,0,0-3.2-2c-1.2-.6-2.4-1.2-3.6-1.9a12.4,12.4,0,0,1-3.2-2.9c-1-1.2-1.9-2.4-2.8-3.7a17.65,17.65,0,0,1-1.8-4.5,40.2,40.2,0,0,1-.6-5c-0.2-1.7-.4-3.4-0.7-5.1s-0.6-3.4-1-5.1h0.1l-0.3-1.8a15.54,15.54,0,0,1-.3-4.6c0.1-1,.3-2,0.5-3.1s0.5-2.2.8-3.4a14.76,14.76,0,0,1,1.3-3.5,8.64,8.64,0,0,1,1-1.6,9.34,9.34,0,0,1,1.5-1.3,4.71,4.71,0,0,0,1.3-1.5,6.36,6.36,0,0,0,.6-1.8,11.42,11.42,0,0,0-.1-3.7c-0.3-2.4-1.5-4.5-1.5-6.5a9.47,9.47,0,0,1,.4-2.6,8.35,8.35,0,0,1,.8-1.9,16.35,16.35,0,0,1,.9-1.6,8.26,8.26,0,0,0-.9,1.6,12.07,12.07,0,0,0-.8,1.9,6.77,6.77,0,0,0-.4,2.6,12.1,12.1,0,0,0,.6,3.1,18.73,18.73,0,0,1,.8,3.4,11.48,11.48,0,0,1,0,3.7,6.36,6.36,0,0,1-.6,1.8,4.36,4.36,0,0,1-1.3,1.4,17.38,17.38,0,0,0-1.5,1.3,5.72,5.72,0,0,0-1.1,1.6,30.43,30.43,0,0,0-1.3,3.5c-0.3,1.2-.6,2.3-0.9,3.4s-0.4,2.1-.5,3.1a16,16,0,0,0,.3,4.7,0.9,0.9,0,0,0,.1.5c-0.3-1.3-.7-2.6-1.1-3.9a55.34,55.34,0,0,0-4.1-9.7,30.3,30.3,0,0,0-2.4-3.8h0s-0.3-.7-0.8-1.8-1.4-2.7-2.4-4.6a34.61,34.61,0,0,1-2.8-6.7,18.51,18.51,0,0,1-.7-4.1c-0.1-1.4-.2-2.8-0.2-4.3,0-2.9.1-5.7,0-8.4,0-1.3,0-2.6-.1-3.9a12.09,12.09,0,0,0-.8-3.4,11.33,11.33,0,0,0-1.7-2.4l-1.6-1.6a11.18,11.18,0,0,0-1.5-1.3s0.6,0.5,1.5,1.3c0.5,0.4,1,1,1.6,1.6a9.23,9.23,0,0,1,1.7,2.4,8.9,8.9,0,0,1,.8,3.3c0.1,1.2.1,2.5,0.1,3.9,0,2.7-.1,5.6-0.1,8.4,0,1.4,0,2.9.1,4.3a18.51,18.51,0,0,0,.7,4.1,39.88,39.88,0,0,0,2.8,6.8c1,1.9,1.8,3.5,2.4,4.6a9.25,9.25,0,0,1,.5,1c-0.9-1.3-2-2.6-3-3.8A54.15,54.15,0,0,0,116.9,161a63.42,63.42,0,0,0-6.4-3.2c-1-.4-1.9-0.8-2.8-1.2a18.63,18.63,0,0,0-2.4-.9c-1.4-.5-2.6-0.9-3.4-1.2a12.55,12.55,0,0,0-1.2-.4,12.56,12.56,0,0,1,1.2.4c0.8,0.3,1.9.7,3.4,1.2q1,0.45,2.4.9a21.41,21.41,0,0,1,2.8,1.2c2,0.9,4.1,1.9,6.4,3.2a52.22,52.22,0,0,1,14,11.2,49.21,49.21,0,0,1,5.8,8.3,60.09,60.09,0,0,1,4.1,9.7,74.8,74.8,0,0,1,2.3,10.2c0.3,1.7.5,3.4,0.7,5.1a40.19,40.19,0,0,0,.6,5,15.2,15.2,0,0,0,1.8,4.6,26.61,26.61,0,0,0,2.8,3.8,10.49,10.49,0,0,0,3.3,3c1.2,0.8,2.5,1.3,3.6,1.9a17.27,17.27,0,0,1,3.2,2,13.66,13.66,0,0,1,2.3,2.5,13.36,13.36,0,0,1,2.3,4.4,25.12,25.12,0,0,0,.4,2.7c0.8,4.9,1.9,9.8,2.9,14.7s2.1,10,3.4,15c2.5,10,5.6,20.1,9.1,30s7.6,19.6,11.8,29c1.1,2.3,2.2,4.7,3.2,7s2.1,4.6,3.4,6.9a64.11,64.11,0,0,0,9,12.2c6.8,7.3,14.4,13.1,21.5,18.7q3.6,2.85,6.9,5.7a9.25,9.25,0,0,1-.5,1c-0.7,1.2-1.7,3.2-2.8,5.6a48.06,48.06,0,0,0-3.1,9.3,58.94,58.94,0,0,0-1.4,12.5c-0.1,4.6.2,9.6,0.6,14.8,0.3,2.6.5,5.3,0.8,8a15,15,0,0,1,.2,2l0.3,2.1a31.48,31.48,0,0,0,.9,4.2,93.88,93.88,0,0,0,6.1,16.5c2.5,5.4,5.2,10.9,8.1,16.2,2.2,4,4.4,8,6.7,11.9l-0.2.1a2.77,2.77,0,0,0,.4.7c0.3,0.5.6,1.1,1.1,2.1a51.52,51.52,0,0,1,3,7.8c0.5,1.7,1,3.5,1.4,5.4,0.2,1,.4,2,0.5,3s0.3,2.1.4,3.2a66.69,66.69,0,0,0,3.4,13.3c1.7,4.3,3.7,8.5,5,12.7a35.58,35.58,0,0,1,1.4,6.1c0.3,2,.4,3.9.6,5.6,0.3,3.5.6,6.4,1,8.4a14.6,14.6,0,0,0,.6,2.3,5.94,5.94,0,0,1,.3.7h0a4.42,4.42,0,0,0-.3-0.8,17,17,0,0,1-.5-2.3,68.41,68.41,0,0,1-.8-8.4c-0.1-1.7-.2-3.6-0.5-5.6a49,49,0,0,0-1.3-6.2c-1.2-4.2-3.1-8.5-4.8-12.8a63.12,63.12,0,0,1-3.1-13.2c-0.1-1.1-.2-2.1-0.4-3.2s-0.3-2.1-.4-3.1c-0.4-2-.8-3.8-1.3-5.5-0.2-.5-0.3-1-0.5-1.5,2,3.4,4,6.8,6,10.1,2.9,4.9,5.7,9.6,8.2,14.1,1.3,2.3,2.5,4.5,3.7,6.6a61.34,61.34,0,0,1,3,6.4c1.7,4.2,2.7,8.2,3.9,11.7a40.85,40.85,0,0,0,3.7,8.8,22.7,22.7,0,0,0,3.7,4.9,10,10,0,0,0,1.2,1.1,1.2,1.2,0,0,1,.4.4l-0.4-.4a10,10,0,0,1-1.2-1.1,20,20,0,0,1-3.6-4.9,41.27,41.27,0,0,1-3.5-8.8c-1.1-3.5-2.1-7.6-3.7-11.8-0.8-2.1-1.8-4.3-2.9-6.5s-2.4-4.4-3.6-6.7c-2.5-4.5-5.2-9.3-8-14.2-2.9-5.1-5.9-10.3-8.9-15.7a1.69,1.69,0,0,1-.2-0.5,22.22,22.22,0,0,0-1.1-2.2c-0.3-.5-0.4-0.7-0.4-0.7l-0.2.1c-2.2-4-4.4-8-6.5-12-2.8-5.4-5.5-10.8-7.8-16.2a105.45,105.45,0,0,1-5.7-16.3,56.87,56.87,0,0,1-1.3-8.1c-0.3-2.7-.5-5.4-0.7-7.9a144.34,144.34,0,0,1-.3-14.5,59.11,59.11,0,0,1,1.6-12,47.85,47.85,0,0,1,3.1-8.7c1.1-2.4,2.1-4.1,2.8-5.4,0.1-.1.1-0.2,0.2-0.3a4.62,4.62,0,0,1,.7.7c2.9,3,5.6,6.1,8.1,9.1a132.74,132.74,0,0,0,15,15.6,59.34,59.34,0,0,0,5.1,4c0.2,3,.7,6.5,1.1,10.1,0.1,1.2.3,2.5,0.4,3.8s0.2,2.7.3,4.1c0.3,2.8.6,5.8,0.9,8.9,1.3,12.3,3.1,26.7,5,42,1,7.7,2,15.6,3.2,23.7,0.6,4,1.3,8.1,2.3,12.1a75.68,75.68,0,0,0,4,11.9A98.88,98.88,0,0,0,296.6,544a65.06,65.06,0,0,1,5.9,9.2c0,0.2.1,0.3,0.1,0.5h0.1c0.1,0.1.1,0.3,0.2,0.4a0.2,0.2,0,0,0,.1.2,13,13,0,0,1,.3,1.5c0.1,0.6.2,1.4,0.4,2.4a28.51,28.51,0,0,1,.2,3.1V565a30.53,30.53,0,0,1-.5,4.1,58.39,58.39,0,0,1-2.2,8.7c-1,2.9-2.2,5.8-3.3,8.4-0.5,1.3-1.1,2.6-1.5,3.9s-0.7,2.5-1,3.6a37.17,37.17,0,0,0-.7,5.5,15.32,15.32,0,0,0-.2,2.1s0.1-.8.3-2.1a40.88,40.88,0,0,1,.9-5.5,35.49,35.49,0,0,1,1.1-3.6,38.93,38.93,0,0,1,1.6-3.8l1.8-4.2a23.73,23.73,0,0,0-.3,4.1,63.79,63.79,0,0,0,.5,7.1c0.1,1.3.3,2.6,0.4,4a28,28,0,0,1,0,4.1,14.77,14.77,0,0,0,.1,2.1,6.64,6.64,0,0,0,.6,2,14.58,14.58,0,0,1,.7,1.9,13.32,13.32,0,0,1,.5,1.9,25.83,25.83,0,0,1,.6,3.7,19.6,19.6,0,0,1,.1,3.4,48.08,48.08,0,0,1-.4,5,12.85,12.85,0,0,0-.2,1.9,12.85,12.85,0,0,1,.2-1.9,48.08,48.08,0,0,0,.4-5c0-1,0-2.2-.1-3.4a25.83,25.83,0,0,0-.6-3.7c-0.1-.6-0.4-1.3-0.5-1.9s-0.5-1.3-.7-1.9a11.7,11.7,0,0,1-.5-2,14.77,14.77,0,0,1-.1-2.1,29.44,29.44,0,0,0,0-4.2c-0.1-1.4-.2-2.7-0.3-4a45.34,45.34,0,0,1-.4-7.1,21.4,21.4,0,0,1,.5-5,0.37,0.37,0,0,1,.1-0.3c0.4-1,.8-2,1.1-3a48,48,0,0,0,2.4-8.8,30.07,30.07,0,0,0,.5-4.2c0.1-1.3.1-2.6,0.1-3.8a8.08,8.08,0,0,0-.1-1.6v0.1c0.4,1.9.7,3.9,1.3,5.8a22.13,22.13,0,0,0,1.6,3.5,8.45,8.45,0,0,1,.5,1.7,5.64,5.64,0,0,0,.4,1.2c0.1,0.4.2,0.9,0.3,1.3,0.2,0.9.3,1.9,0.5,2.8s0.2,2,.3,3.1c0,0.5.1,1,.1,1.6v1.6l-0.1,1.6c-0.1.5-.1,1.1-0.2,1.6-0.1,1-.3,2.1-0.4,3.1a23,23,0,0,1-.6,2.8c-0.2.9-.4,1.7-0.6,2.5s-0.4,1.5-.6,2.1a15.6,15.6,0,0,1-.5,1.6,13.08,13.08,0,0,0-.4,1.4s0.2-.5.6-1.4a13.78,13.78,0,0,0,.6-1.6c0.2-.6.5-1.3,0.8-2.1s0.5-1.6.8-2.5a24.61,24.61,0,0,0,.7-2.9,28.68,28.68,0,0,0,.5-3.1c0.1-.5.1-1.1,0.2-1.6l0.1-1.2a9.43,9.43,0,0,1,.3.9c0.2,0.7.4,1.7,0.7,2.7a6.36,6.36,0,0,0,2.1,2.9,14,14,0,0,1,3.2,2.8,27,27,0,0,1,2.5,4,12.77,12.77,0,0,0,1.4,2.1,10.22,10.22,0,0,0,1.8,1.8c1.3,1.1,2.9,2.1,4.1,3.3a16.32,16.32,0,0,1,1.7,2,18.41,18.41,0,0,1,.9,2.5c0.5,1.7,1,3.3,1.4,4.9,0.8,3.2,1.6,6.2,2.2,8.8s1.1,4.7,1.5,6.2,0.6,2.4.6,2.4l-0.6-2.4c-0.4-1.5-.9-3.7-1.5-6.2s-1.3-5.6-2.2-8.8c-0.4-1.6-.9-3.3-1.4-4.9a25,25,0,0,0-.9-2.5,8.26,8.26,0,0,0-1.7-2.1c-1.3-1.2-2.8-2.2-4.1-3.3a15.27,15.27,0,0,1-1.8-1.8c-0.5-.7-1-1.4-1.4-2.1a28,28,0,0,0-2.5-4.1,20,20,0,0,0-3.2-2.8,5.68,5.68,0,0,1-2-2.9c-0.3-1-.4-2-0.7-2.7a4.57,4.57,0,0,0-.5-1.4v-1.5a8.6,8.6,0,0,0-.1-1.6,29.1,29.1,0,0,0-.4-3.1,24.6,24.6,0,0,0-.7-2.9c-0.1-.4-0.3-0.9-0.4-1.3s-0.3-.8-0.4-1.1a0.1,0.1,0,0,0,.1.1,25.86,25.86,0,0,0,4.1,4,96.5,96.5,0,0,1,8.4,6.9c1.3,1.2,2.4,2.6,3.8,3.7a12,12,0,0,0,4.6,2.4c3.4,0.9,6.6.1,9.7,0.3a15,15,0,0,1,4.3,1,17.22,17.22,0,0,1,3.7,2.2,26,26,0,0,0,3.3,2.5,16.15,16.15,0,0,0,3.5,1.7,49.45,49.45,0,0,0,6.9,1.7,35.62,35.62,0,0,1,5.7,1.6,36.57,36.57,0,0,1,3.9,1.8c0-.1-0.1-0.1-0.1-0.2-1.1-.6-2.3-1.2-3.7-1.8a38.53,38.53,0,0,0-5.7-1.7,48.24,48.24,0,0,1-6.8-1.7,15.44,15.44,0,0,1-3.4-1.7,34.89,34.89,0,0,1-3.2-2.5,17.62,17.62,0,0,0-3.7-2.3,13.51,13.51,0,0,0-4.5-1.1c-3.1-.3-6.4.5-9.6-0.4a10.81,10.81,0,0,1-4.3-2.4,43,43,0,0,1-3.7-3.7c-2.1-2.1-4.5-3.9-6.8-5.8,0.4,0.2.9,0.5,1.4,0.7a8.29,8.29,0,0,0,2.8.8,7.57,7.57,0,0,0,3.3-.3,13,13,0,0,1,3.4-.8,21.67,21.67,0,0,1,3.6.1,14.48,14.48,0,0,0,3.6-.1c1.2-.2,2.3-0.5,3.5-0.6a6.88,6.88,0,0,1,3.2.3,11.71,11.71,0,0,1,2.5,1.4c0.7,0.5,1.4,1.1,2,1.5a5.14,5.14,0,0,0,1.7.8,3,3,0,0,0,1.2.2h0a7.38,7.38,0,0,1-1.2-.2,8.49,8.49,0,0,1-1.7-.8,20.79,20.79,0,0,1-2-1.5,15,15,0,0,0-2.5-1.5,7.18,7.18,0,0,0-3.3-.3c-1.1.1-2.3,0.4-3.5,0.5a14.46,14.46,0,0,1-3.6,0,21.66,21.66,0,0,0-3.6-.1,13,13,0,0,0-3.4.8,7,7,0,0,1-3.2.2,11.46,11.46,0,0,1-2.8-.8l-2.2-1.1c-0.2-.1-0.4-0.3-0.6-0.4s-0.2-.1-0.3-0.2a28.74,28.74,0,0,1-3.9-3.9,17.72,17.72,0,0,1-2.6-4.9,47.77,47.77,0,0,1-1.2-5.7,32.24,32.24,0,0,0-1.8-5.8,0.2,0.2,0,0,0-.1-0.2h0.1c-0.1-.6-0.2-1.1-0.3-1.7,0.2,0.2.4,0.3,0.6,0.5a68.63,68.63,0,0,0,7.4,4.5,11.51,11.51,0,0,1,3.5,3.1,24.4,24.4,0,0,0,3.5,3.7,14.91,14.91,0,0,0,2,1.5c0.8,0.4,1.6.7,2.3,1,1.6,0.5,3.1,1.1,4.6,1.6a25.73,25.73,0,0,0,4.4,1.1,28,28,0,0,0,4.1,0,20.12,20.12,0,0,1,3.4-.1,17,17,0,0,1,2.6.3c0.4,0.1.8,0.2,1.1,0.3h0c-0.3-.1-0.6-0.2-1.1-0.4a15.9,15.9,0,0,0-2.6-.4c-1,0-2.2,0-3.4.1a18.71,18.71,0,0,1-4.1,0,25.73,25.73,0,0,1-4.4-1.1c-1.5-.5-3-1.1-4.6-1.7a16,16,0,0,1-2.3-1,13.93,13.93,0,0,1-1.9-1.5,29.84,29.84,0,0,1-3.4-3.7,12.56,12.56,0,0,0-3.6-3.3,70,70,0,0,1-7.2-4.6l-1.4-1.1c-3.7-21.6-.9-33,0.5-37a15.8,15.8,0,0,1,2-3.6,30,30,0,0,0,.3,3.8,10.44,10.44,0,0,0,.7,2.8,12.83,12.83,0,0,0,1.4,2.9,10,10,0,0,1,.8,1.4,7.49,7.49,0,0,1,.4,1.6c0.1,1.1.1,2.3,0.1,3.4s-0.1,2.3,0,3.5a6.71,6.71,0,0,0,1,3.2,11.74,11.74,0,0,0,2.1,2.3c0.8,0.6,1.6,1.2,2.2,1.7a6.37,6.37,0,0,1,1.6,1.7,4.72,4.72,0,0,1,.7,1.7,5.74,5.74,0,0,1,.1,1.2v0a5.74,5.74,0,0,0-.1-1.2,4.72,4.72,0,0,0-.7-1.7,6.37,6.37,0,0,0-1.6-1.7c-0.7-.6-1.4-1.1-2.2-1.8a7.4,7.4,0,0,1-2-2.3,8,8,0,0,1-.9-3.1,19.33,19.33,0,0,1,.1-3.4,20.45,20.45,0,0,0,0-3.5,8.47,8.47,0,0,0-.4-1.7,7.15,7.15,0,0,0-.8-1.5,17.54,17.54,0,0,1-1.3-2.8,13.1,13.1,0,0,1-.6-2.7,33.37,33.37,0,0,1-.2-4.1v-0.7a22.8,22.8,0,0,0,1.7-3,26.76,26.76,0,0,0,1.3-7.7,9.5,9.5,0,0,0,1,1.7c1.3,2.1,2.6,4.3,3.9,6.4,5,8.4,9.3,16.5,12.7,23.5s5.9,13.1,7.7,17.3,2.8,6.6,2.8,6.6-1-2.4-2.6-6.7-4.1-10.3-7.4-17.4-7.4-15.3-12.3-23.8c-1.2-2.1-2.5-4.3-3.7-6.4a27.68,27.68,0,0,1-2.2-4.6,7.49,7.49,0,0,0-.5-1.6l-0.1.1c-0.1-.2-0.2-0.5-0.3-0.7-1.7-4.8-3.2-9.8-4.7-14.8-2.9-10-5.5-20.1-7.9-29.6-1.2-4.7-2.4-9.3-3.5-13.7-0.6-2.2-1.1-4.3-1.7-6.3-0.1-.5-0.3-1-0.4-1.5s-0.3-1.1-.5-1.6c-0.4-1-.8-1.9-1.2-2.8-1.3-2.9-2.6-5.6-3.7-8a7.84,7.84,0,0,0,1.4.2c0.6,0.1,1.2.1,1.7,0.2a4.12,4.12,0,0,1,1.2.1,4.54,4.54,0,0,1,1,.1v-0.2c1.1,1.5,2.2,2.9,3.2,4.4a155.08,155.08,0,0,1,10.7,18.6,313.3,313.3,0,0,1,13.5,31.7c-0.6-2.5-1.2-5-1.8-7.4-2.8-7.5-6.1-15.9-10.5-24.9a174,174,0,0,0-10.6-18.9c-1.4-2.1-2.8-4.1-4.4-6.1v-0.2h-0.2a120.82,120.82,0,0,0-9.6-10.9c-0.1-.3-0.1-0.7-0.2-0.9a9.12,9.12,0,0,0-.3-1.6c0.1-.5.3-2.1,0.6-4.5a62,62,0,0,0,.5-13.8,51.54,51.54,0,0,0-1.6-9.7c-0.4-1.7-1-3.5-1.6-5.4-0.3-.9-0.7-1.8-1-2.8s-0.7-1.8-1.1-2.8c-1.6-3.8-3.3-7.8-5.2-11.9s-3.9-8.5-5.8-13.1c-0.9-2.3-1.8-4.7-2.7-7.1s-1.7-5-2.5-7.5c-1.7-5.1-3.3-10.4-5-15.9-3.3-11-6.4-22.6-9.7-34.7-1.8-6.1-4.3-12-6.7-17.9s-4.6-12.1-6.6-18.3-4-12.6-6.1-18.9-4.3-12.6-6.7-18.8c-4.9-12.4-10.5-24.6-17.7-35.7a114.33,114.33,0,0,0-12-15.5,70.69,70.69,0,0,0-14.8-12.1,40.64,40.64,0,0,0-8.5-3.9c-1.1-.4-2.2-0.7-3.3-1-0.7-1.8-1.5-3.7-2.3-5.5-0.9-2-1.8-4-2.8-6,0.4,0,1.1.1,1.8,0.1,0.9,0,1.9,0,3.1-.1,0.6-.1,1.2-0.1,1.9-0.2s1.3-.3,2.1-0.4,1.4-.5,2.2-0.7a11.46,11.46,0,0,0,2.3-1,25.29,25.29,0,0,0,2.2-1.3c0.7-.5,1.5-1,2.2-1.6a30.21,30.21,0,0,0,4-4c0.4-.5.8-1,1.2-1.6l0.2,0.1a6.12,6.12,0,0,0,.5-0.6c0.3-.4.7-0.9,1.2-1.7a1.24,1.24,0,0,1,.3-0.2l0.3-.3c0.1-.1.3-0.2,0.4-0.3a3.67,3.67,0,0,1,1.4-.6,10.08,10.08,0,0,1,2-.4,44.55,44.55,0,0,1,5.3-.1,32.25,32.25,0,0,0,6.2-.1,10.89,10.89,0,0,0,3.1-.8,6.42,6.42,0,0,0,2.5-1.8,6.87,6.87,0,0,0,1.5-2.4c0.2-.4.3-0.8,0.5-1.2l0.3-1.2a7.72,7.72,0,0,0,.2-1.5c0-.1-0.1-0.1-0.1-0.2-0.1.5-.2,1.1-0.3,1.6l-0.3,1.2c-0.2.4-.3,0.8-0.5,1.2a8.68,8.68,0,0,1-1.6,2.3,7.76,7.76,0,0,1-2.4,1.6,10.1,10.1,0,0,1-3,.7,41.19,41.19,0,0,1-6.1-.1,50.37,50.37,0,0,0-5.4-.1,14.34,14.34,0,0,0-2.2.4,3,3,0,0,0-1,.4c0.1-.2.2-0.3,0.3-0.5,1.7-2.7,3.3-5.5,4.8-8a46.07,46.07,0,0,1,2.9-4.3,14.28,14.28,0,0,1,1.5-1.8c0.6-.5,1.1-1.1,1.7-1.5a8.16,8.16,0,0,1,1.7-1.1,3.55,3.55,0,0,0,.9-0.4c0.1-.1.3-0.1,0.4-0.2s0.3-.1.4-0.1c0.3-.1.6-0.1,0.8-0.2a2.2,2.2,0,0,0,.8-0.1h0.7c0.2,0,.4.1,0.7,0.1h0c-0.2,0-.4-0.1-0.7-0.1h-1.5c-0.3.1-.5,0.1-0.8,0.2-0.1,0-.3.1-0.4,0.1s-0.3.1-.4,0.2a3.55,3.55,0,0,0-.9.4,8.71,8.71,0,0,0-1.8,1.1c-0.6.4-1.1,1-1.7,1.5s-1.1,1.2-1.6,1.8c-1,1.3-2,2.8-3,4.3-1.2,1.8-2.3,3.7-3.5,5.7V97.3a15.45,15.45,0,0,0,.6-2.3,20.62,20.62,0,0,0,.3-2.6V91a6.6,6.6,0,0,0-.1-1.4,21.29,21.29,0,0,0-1.4-5.8,33.12,33.12,0,0,0-2.9-5.6,47,47,0,0,0-3.9-5.2,111.22,111.22,0,0,0-8.9-9.2c-3-2.8-5.8-5.3-8.1-7.6-1.2-1.1-2.2-2.2-3.2-3.1s-1.7-1.8-2.3-2.5-0.9-1-1.2-1.4h0a13,13,0,0,0,1.2,1.4c0.6,0.7,1.4,1.6,2.3,2.5s2,2,3.1,3.1c2.3,2.2,5.1,4.9,8,7.7a109.4,109.4,0,0,1,8.7,9.2,46,46,0,0,1,3.8,5.2,31.67,31.67,0,0,1,2.8,5.5,19.7,19.7,0,0,1,1.3,5.6,6.15,6.15,0,0,1,.1,1.3V92a9.27,9.27,0,0,1-.4,2.4,14.13,14.13,0,0,1-.6,2.2,4.18,4.18,0,0,1-.4,1c-0.1.3-.3,0.6-0.4,0.9a23.23,23.23,0,0,1-1.6,2.8h0v0.1c-0.5.8-1,1.4-1.3,1.8a6.12,6.12,0,0,1-.5.6l0.2,0.1-1.2,1.5a28.63,28.63,0,0,1-4,3.8c-0.7.6-1.4,1-2.1,1.5a23.85,23.85,0,0,1-2.2,1.2c-0.8.3-1.5,0.7-2.2,0.9a16.55,16.55,0,0,1-2.1.6c-0.7.1-1.4,0.3-2,.4s-1.3.1-1.8,0.2a29.94,29.94,0,0,1-3,0c-1.2-.1-2-0.2-2.4-0.2-3.7-7.5-8.1-14.7-13.8-20.7C135.5,85,125.8,79.9,116,76.3s-19.9-6.1-29.6-8.6c-1.3-.3-2.6-0.7-3.9-1a4.88,4.88,0,0,0,.3-0.7,12,12,0,0,0,.7-4,12.4,12.4,0,0,0-1.8-5.9,27.39,27.39,0,0,0-5-6.1c-1-1-2.2-2-3.3-3a12.09,12.09,0,0,1-1.6-1.6,13.73,13.73,0,0,1-1.3-2c-1.5-2.9-2-6.3-3.4-9.6a8.42,8.42,0,0,0-3.5-4.2,10.23,10.23,0,0,0-5.4-1.5,54.29,54.29,0,0,0-5.7.2,12.75,12.75,0,0,1-5.5-.9,6.38,6.38,0,0,1-1.4-.8l0.3-.2-0.3-.6a6.09,6.09,0,0,0-1.4-1.4,3.34,3.34,0,0,0-1.2-.5,4.88,4.88,0,0,1-.3-0.7,8.34,8.34,0,0,1-.4-1.2,7.58,7.58,0,0,1-.3-1.6,12.31,12.31,0,0,1-.2-2,16.2,16.2,0,0,1,.1-2.2,20.53,20.53,0,0,1,1-4.8A23.4,23.4,0,0,1,43.8,9c0.3-.8.6-1.6,0.8-2.3,0.3-1,.5-2,0.7-2.9-0.1-.1-0.1-0.2-0.2-0.3A5.78,5.78,0,0,1,45,7.7ZM269.3,392.5a7.93,7.93,0,0,0-.4.9c-0.2.4-.3,0.8-0.5,1.3a24.35,24.35,0,0,0-1.3,8.3,40.31,40.31,0,0,1-3.2-2.6A144.31,144.31,0,0,1,249,385.2c-2.6-2.9-5.3-6-8.4-9.1a119.34,119.34,0,0,0-10.1-8.5c-7.1-5.5-14.7-11.2-21.5-18.2a64.46,64.46,0,0,1-8.9-11.7c-1.2-2.1-2.3-4.5-3.4-6.8s-2.2-4.6-3.3-7c-4.3-9.4-8.4-19-12.1-28.8s-6.8-19.8-9.4-29.8c-1.3-5-2.5-10-3.6-14.9-0.9-4.1-1.8-8.1-2.6-12.2h0a11.14,11.14,0,0,1-.2-1.3c-0.1-.6-0.3-1.5-0.5-2.5a118.53,118.53,0,0,1-1.3-13.1c-0.2-4.7-.3-9.3-0.3-13.9,0-2.3,0-4.5-.1-6.7s-0.1-4.3.1-6.5c0.3-4.2.7-8.3,1.1-12.2,0.8-7.8,1.5-15,1.8-21.4a153.18,153.18,0,0,0,.1-16.5,67.06,67.06,0,0,0-.9-7.9c0.1,0.4.3,0.7,0.4,1.1,1.9,5.2,3.8,10.3,5.6,15.6,3.5,10.5,6.5,21.2,9.2,31.9,5.3,21.5,9.4,43.4,12.9,64.9,1.8,10.8,3.4,21.5,5.1,32.1,0.2,1.3.4,2.7,0.6,4s0.5,2.6.7,3.9,0.6,2.7.9,4,0.7,2.6,1,3.9a139.32,139.32,0,0,0,5.2,15A177.57,177.57,0,0,0,221.4,340a121.61,121.61,0,0,0,8.7,12.2c3.2,3.9,6.5,7.4,9.8,10.9,6.7,6.9,13.4,13.3,19.8,19.6,3.2,3.2,6.3,6.2,9.3,9.4,0.3,0.3.3,0.3,0.3,0.4h0Zm19,19.4c-0.4,0-.7-0.1-1.2-0.1a29.69,29.69,0,0,1-3.3-.6,24.42,24.42,0,0,1-1-2.4,25.8,25.8,0,0,1-.9-3.5c-0.1-.3-0.1-0.6-0.2-0.9A90.86,90.86,0,0,1,288.3,411.9Zm-6.3,1.8c0,0.1.1,0.1,0.1,0.2,1.4,2.9,3,6,4.7,9.6l1.2,2.7c0.2,0.5.3,0.9,0.5,1.4s0.3,1,.5,1.5q0.9,3,1.8,6.3c1.2,4.3,2.4,8.9,3.7,13.6,2.6,9.4,5.4,19.5,8.4,29.5,1.5,5,3.1,10,5,14.8,0.1,0.2.2,0.5,0.3,0.7l-0.1.1c1.2,3,.5,8.9-0.5,11.7a15.64,15.64,0,0,1-2,3.5,19.87,19.87,0,0,0-2.4,4.3c-1.4,4-4.1,15.1-.9,35.7-0.3-.3-0.6-0.7-0.9-1-1-1.6-2.1-3.1-3.1-4.6a111.5,111.5,0,0,1-6.8-10.1,79.51,79.51,0,0,1-5.5-10.9c-3.2-7.5-4.8-15.6-5.8-23.6s-2-16-2.9-23.7c-1.8-15.4-3.5-29.7-4.7-42-0.3-3.1-.6-6-0.8-8.8-0.1-1.4-.2-2.8-0.3-4.1s-0.2-2.7-.4-3.9c-0.3-2.9-.6-5.5-0.8-7.9a62.42,62.42,0,0,0,6.1,3.3C278.3,412.6,280.3,413.3,282,413.7Zm-1.8-4c0.1,0.2.1,0.3,0.2,0.5a24.48,24.48,0,0,1-3.1-1.2,56,56,0,0,1-7.5-4v-1.5a19.82,19.82,0,0,1,1.3-7.7c0.1-.4.3-0.8,0.4-1.1h0c2.2,2.1,4.4,4.1,6.5,6.1,0.2,1.2.6,3,1.1,5.2A36.81,36.81,0,0,0,280.2,409.7Zm-1.5-11-0.2-.2,0.6,0.1ZM166.3,129a37,37,0,0,1,8.3,3.9,71.77,71.77,0,0,1,14.5,12,112.07,112.07,0,0,1,11.8,15.4,195.31,195.31,0,0,1,17.3,35.6c4.8,12.4,8.6,25.2,12.5,37.7,2,6.3,4.2,12.4,6.5,18.4s4.8,11.9,6.5,17.8c3.2,12.1,6.2,23.8,9.4,34.8,1.6,5.5,3.2,10.8,4.9,16,0.8,2.6,1.6,5.1,2.5,7.6s1.8,4.9,2.7,7.2c1.9,4.7,3.9,9.1,5.7,13.2s3.6,8.1,5.1,11.8a64.29,64.29,0,0,1,5,19.9,62.29,62.29,0,0,1-.6,13.2c-0.3,2-.5,3.4-0.6,4.1-2.3-2.2-4.7-4.5-7-6.8l-4.5-4.8c-1.5-1.6-3.1-3.2-4.7-4.8-6.3-6.4-12.9-12.9-19.4-19.9-3.2-3.5-6.5-7.1-9.5-10.8s-5.8-7.8-8.5-12a175.51,175.51,0,0,1-14-26.9,150.12,150.12,0,0,1-5.1-14.7c-0.3-1.3-.7-2.5-1-3.8s-0.6-2.5-.9-3.8-0.5-2.6-.7-3.9l-0.6-3.9c-1.7-10.6-3.5-21.3-5.3-32.1-3.8-21.6-8.1-43.4-14-64.9-2.9-10.7-6.1-21.4-9.8-31.9-1.9-5.2-3.7-10.4-5.7-15.6-1.1-3-2.3-6-3.5-9A16.94,16.94,0,0,0,166.3,129ZM86.8,71.1c9.8,2.3,19.8,4.5,29.5,7.9a86.35,86.35,0,0,1,14.3,6.3,57.44,57.44,0,0,1,6.6,4.3,49.57,49.57,0,0,1,5.9,5.3c7.3,7.7,12.7,17.3,17,27.3,0.7,1.6,1.3,3.2,2,4.8-1.4-.4-2.9-0.8-4.3-1.1-5.9-1.4-11.6-2.5-17.3-3.7s-11.1-2.2-16.3-3.5a85.45,85.45,0,0,1-14.8-4.8,28.19,28.19,0,0,1-6.3-3.7,22.63,22.63,0,0,1-4.5-5.3c-2.3-3.9-3.4-8.2-4.4-12.1a111.4,111.4,0,0,0-3.1-10.9,25.34,25.34,0,0,0-4.8-8.4,16,16,0,0,0-3.7-3.3Z" transform="translate(0.2 0.2)"/></g></svg>