<?xml version="1.0" encoding="utf-8"?>
<!-- Generator: Adobe Illustrator 19.2.1, SVG Export Plug-In . SVG Version: 6.00 Build 0)  -->
<svg version="1.1" xmlns="http://www.w3.org/2000/svg" xmlns:xlink="http://www.w3.org/1999/xlink" x="0px" y="0px"
	 viewBox="0 0 512.117 316.449" enable-background="new 0 0 512.117 316.449" xml:space="preserve">
<g id="Labels">
</g>
<g id="Obtion_B">
</g>
<g id="Cover_Photo">
	<path d="M15.303,245.291c-3.482,2.321-6.365,4.827-9.062,8.249c1.15-0.841,2.429-1.693,3.671-2.249
		c-2.246,2.843-3.221,4.655-4.631,8.043c-1.23,2.97-2.846,5.336-5.281,7.475c1.424-0.31,3.059-1.181,4.639-2.325
		c-0.604,2.059-1.343,4.132-2.422,5.799c1.341-0.383,2.954-1.934,3.83-2.96c-0.249,2.089-0.992,4.365-2.279,5.926
		c0.522-0.198,0.972-0.486,1.379-0.83c-0.284,2.277,0.434,5.34,0.558,6.846c0.216,2.647,0.04,7.632-1.721,9.598
		c2.195-1.254,2.331-2.73,2.669-4.581c0.197,0.34,0.291,0.722,0.363,1.107c-0.974,2.213-0.933,4.724-0.144,6.099
		c0.623,1.248,1.417,1.787,1.675,2c-0.33-0.463-1.386-2.583-0.979-5.206c1.324,3.5,5.064,6.634,4.334,10.524
		c0.273-1.183,0.379-2.407,0.452-3.557c0.298,0.503,0.637,0.955,0.917,1.277c0.049,0.056,0.098,0.103,0.148,0.155
		c0.273,0.635,0.621,1.229,1.264,1.62c0.276,0.68,0.592,1.294,0.932,1.828c1.114,1.837,2.261,2.932,2.923,3.494
		c-0.777-0.798-2.186-2.548-3.199-5.006c0.166,0.051,0.345,0.091,0.513,0.118c1.91,2.838,7.658,2.525,8.631,5.774
		c-0.193-1.925-3.506-3.595-4.891-4.675c-0.583-0.45-1.038-0.859-1.416-1.318c0.077-0.021,0.153-0.055,0.229-0.082
		c0.291,0.255,0.599,0.504,0.929,0.731c3.785,1.877,7.223,1.388,9.567,0.624c2.353,1.044,3.858,1.635,5.957,1.086
		c0.325-0.085,0.632-0.179,0.923-0.276c1.048,0.237,1.939,0.786,2.338,1.4c0.664,1.01,2.112,2.416,3.776,3.863
		c1.661,1.439,2.37,2.244,4.36,4.193c1.994,1.955,4.618-0.116,5.059-2.207c0.313-1.5,2.159-1.222,3.182-0.939
		c0.255,1.145,0.371,1.315,1.597,1.074c1.603-0.32,2.546-2.744,2.546-2.744c0.055,2.853,2.199,1.995,3.052,1.079
		c0.848-0.913,1.733-0.945,3.603,0.542c1.871,1.489,5.319,0.689,7.105-1.557c1.787-2.248,2.683-7.523,2.825-9.242
		c0.145-1.721,9.14-1.834,12.38-3.145c4.575-1.851,12.376-3.345,12.403-3.594c0.321,0.054,2.169,0.015,5.06-0.17
		c4.25,1.743,11.656,4.465,18.914,5.51c11.045,1.603,22.297,3.968,34.518-1.055c9.735-4,16.523-10.272,22.143-14.03
		c2.376,1.487,6.64,4.122,9.067,5.373c1.729,0.891,2.907,1.77,3.846,2.458c-0.506,1.5-1.345,4.785-0.523,8.498
		c1.125,5.064,1.094,5.972,2.129,7.355c0,0,1.275,4.536,1.139,5.409c-0.113,0.71,0.414,1.84,1.185,3.256c0,0,0.729,2.436,0.45,3.217
		c-0.28,0.774,0.357,1.761,1.929,1.066c1.566-0.693,2.624-1.994,2.566-4.984c-0.032-1.467-0.646-2.566-1.227-3.79
		c0.012-1.303-0.16-4.614,1.207-7.097c0.197-0.298,0.4-0.625,0.606-0.969c0,0,3.069,7.868,4.06,9.81
		c0.987,1.944,2.373,5.081,3.506,6.322c1.133,1.239,3.548-0.015,3.331-1.853c-0.062-0.525-0.789-2.324-1.791-4.617
		c0,0-1.914-5.412-2.011-6.07c0,0-0.85-2.801-1.587-4.551c0.611,0.078,1.38,0.109,2.045-0.077c0.681,1.285,2.177,4.077,2.89,5.172
		c0,0,0.617,2.378,2.347,5.915c0,0,1.114,3.832,1.909,5.404c0.796,1.572,1.942,0.938,2.35,0.573c0.404-0.369,0.4-1.724,0.431-2.349
		c0.025-0.623-0.966-4.434-1.019-4.964c-0.064-0.522-1.516-4.543-2.272-6.278c-0.136-0.308-0.804-1.764-1.447-3.151
		c0.77,0.78,1.536,1.737,1.623,1.922c0.676,1.457,1.78,3.252,2.122,4.359c0.345,1.1,2.006,7,3.486,7.661
		c1.479,0.657,1.752-0.169,1.925-1.069c0.168-0.906-0.979-5.51-1.343-6.652c-0.264-0.811-1.395-3.442-1.84-5.188
		c0.741,0.897,1.443,1.374,1.535,1.614c0.309,0.792,1.738,3.855,2.472,4.93c0.73,1.072,2.406,0.944,2.897,0.134
		c0.491-0.807-1.461-3.355-2.076-4.952c-0.622-1.602-2.074-5.919-2.463-6.372c-0.389-0.454-4.087-5.666-5.447-6.661
		c-1.353-0.993-3.341-1.903-5.477-2.599c-2.138-0.702-7.547-5.499-7.547-5.499c-1.345-3.153-1.77-4.885-3.088-5.215
		c-0.363-0.091-1.097-0.349-2.034-0.725c-1.447-1.362-3.075-3.101-4.338-4.502c4.172-2.563,13.137-7.758,15.734-8.526
		c3.417-1.015,4.499-1.844,6.581-1.669c1.986,0.164,27.469-12.242,41.127-15.472c1.928,0.771,3.987,1.408,6.145,1.77
		c4.219,1.114,8.34,1.591,12.51,1.672c10.832,1.047,25.336,2.393,34.954-0.358c4.097-1.172,7.844-2.161,11.341-3.068
		c13.623-0.616,23.483-10.334,37.625-13.135c11.211-2.212,16.25-3.534,17.854-15.765c0.462-3.528,0.773-7.982,0.48-12.429
		c1.111-2.175,1.821-4.42,1.983-6.724c0.58-8.207-5.122-12.435-8.086-19.443c-1.256-2.975-1.942-6.102-2.465-9.273
		c2.641-1.202,5.447-3.441,7.377-8.779c3.396-3.582,6.542-8.835,9.305-10.947c7.289-5.575,12.94-10.455,19.201-17.322
		c5.958-6.533,13.843-14.412,17.715-22.465c11.064-3.772,15.875-12.876,27.49-16.983c-0.347-1.285-0.996-2.463-1.863-3.544
		c2.478-1.736,4.681-3.126,7.018-4.263c0.121-0.06,0.252-0.121,0.381-0.186c0.852,1.05,2.193,2.225,3.768,1.969
		c2.733-0.447,9.762-6.855,13.816-9.97c4.053-3.114,22.13-10.618,25.502-13.622c3.367-3.008,12.271-8.67,10.137-17.441
		c-2.131-8.777-16.468-10.652-29.41-6.09c-12.938,4.563-17.965,8.19-22.857,8.285l-2.498-2.403c0,0-14.401-0.11-19.821,3.226
		c-3.669,2.26-5.761,9.24-3.156,13.477c-0.583,2.265-1.235,5.329-0.678,6.099c0.282,0.395-0.183,1.661-0.753,3.242
		c-1.689,1.301-3.777,2.685-5.793,4.007c-6.686-3.699-14.543-7.769-22.062-5.417c1.359,3.241,0.249,6.404,0.066,8.972
		c-4.874,10.242-14.079,10.492-15.942,17.859c-4.241,0.785-10.147,2.276-12.847,5.734c-4.463,2.438-10.832,7.609-16.586,18.46
		c-2.582-10.856-7.028-21.817-9.572-31.736c-1.367-5.321-1.922-11.736-5.348-15.699c-0.539-0.616-1.168-1.22-1.862-1.786
		c-0.503-3.478-0.954-6.26-0.954-6.26s0.038-0.516,0.08-1.4c2.018-2.493,3.551-5.168,3.083-7.182
		c-1.175-5.076,0.063-16.854-0.077-24.197c-0.146-7.346,2.894-12.4,2.973-18.377c0.037-3.021-1.473-5.152-2.983-6.533
		c0.188-0.291,0.321-0.551,0.392-0.766c0.926-2.959-4.023-5.312-4.023-5.312c-8.938-1-16.881,8.364-23.75,17.903
		c-6.873,9.539-8.858,23.195-7.568,28.948c0.166,0.759,0.265,1.448,0.301,2.106l-3.561,1.585c0,0-6.946,15.515-4.181,21.732
		c1.274,2.857,3.788,3.799,6.135,3.758c1.157,1.504,3.561,4.152,6.949,5.57c0.976,3.431,2.74,3.864,4.112,3.572
		c0,0.027,0.007,0.061,0.006,0.088c-0.02,0.643-0.006,2.535,0.034,5.244c-5.41,0.715-12.048,2.79-14.03,5.45
		c5.923,5.757,3.863,11.228,5.023,18.349c0.896,5.55,6.478,13.031,4.967,18.624c-1.096,4.063-5.62,3.786-5.658,9.133
		c-0.01,1.084,0.679,2.93,1.566,4.861c-0.78,0.139-1.593,0.279-2.419,0.435c-11.193-0.862-21.922-4.087-32.747,2.501
		c-1.416,0.858-3.881,2.381-6.447,4.269c-28.057-3.759-42.172,5.415-48.361,11.741c-7.867,4.568-12.875,10.381-15.893,14.958
		c-0.194,0.137-0.399,0.28-0.595,0.417c-3.445-3.063-7.474-5.469-10.688-6.725c-0.214-0.146-0.342-0.207-0.355-0.141
		c-2.882,3.488-5.942,6.74-9.171,9.762c-2.68,0.985-4.9,1.225-4.9,1.225s-6.77,1.331-11.138,5.302
		c-2.493,2.26-5.067,5.218-6.826,7.344c-3.536,0.501-7.059,1.375-9.118,2.611c-3.612,2.171-14.361,4.655-19.763,6.315
		c-4.124-0.082-7.78,0.324-10.876,0.936c3.633-5.124,3.778-8.752,6.42-10.705c2.167-1.596,3.093-4.566,1.973-7.801
		c0.538-0.825,1.014-1.536,1.381-2.032c1.804-2.459,2.946-4.148,5.166-6.964c2.215-2.816,8.778-7.645,9.184-18.565
		c0.407-10.921,0.613-18.171,1.432-21.924c0.431-1.963,1.158-4.558,1.752-6.59c1.42-0.668,3.035-1.963,4.541-3.24
		c2.692-2.291,3.855-5.191,3.814-5.227c0.208-0.13,0.393-0.255,0.553-0.37c1.664-1.187,1.464-2.934,1.464-2.934
		c0.306-0.119,0.57-0.274,0.807-0.442c0.862,1.236,1.879,1.419,3.009,1.37c1.804-0.076,2.706-3.216,2.241-3.487
		c-0.257-0.151-0.917-0.808-1.442-1.355c0.167-1.285-0.217-1.978-1.388-2.881c-1.392-1.08-3.443-0.731-4.69-0.833
		c-0.653-0.05-1.503-0.395-2.164-0.71c-0.01-0.044-0.016-0.067-0.031-0.112c0.405-0.738,0.699-1.746,0.699-1.746
		c1.342,0.189,2.416-0.492,3.086-1.223c1.05-1.143-0.199-3.395-1.167-3.977c-0.97-0.586-1.242-1.627-2.915-1.863
		c-1.672-0.232-2.975,1.207-3.418,1.664c-0.449,0.464-2.258,1.725-2.258,1.725c-0.435-0.053-0.836-0.193-1.176-0.35
		c0.318-0.619,0.339-1.429,0.298-1.982c0.645-0.241,1.335-0.633,1.958-1.126c1.515-1.191,0.307-3.746-0.543-4.392
		c-0.848-0.65-1.786-1.324-3.051-1.461c-1.27-0.136-2.684,0.857-3.264,1.457c-0.569,0.596-1.454,3.479-1.466,3.517
		c-1.355,1.158-3.009,0.309-3.026,0.295c-0.065-0.527-0.177-1.084-0.302-1.615c0.392-1.386-1.356-5.229-2.426-5.535
		c-1.254-0.36-2.612-0.662-3.48-0.049c-0.869,0.615-2.61,2.638-2.631,3.838c-0.015,1.201,1.12,2.004,1.12,2.004
		c-0.506,1.095-0.296,2.486-0.296,2.486c-0.569,0.654-0.83,1.639-1.02,2.482c-0.301,1.359-0.953,1.85-1.594,3.795
		c-0.64,1.938-2.735,4.816-3.681,6.925c-0.941,2.11-5.846,7.149-6.262,7.31c-1.008,0.377-1.937,0.76-2.621,1.053
		c-2.314-0.084-3.301,0.162-5.258,2.793c-2.346,3.151-0.016,5.685,2.324,6.101c1.916,0.335,4.503-0.487,6.401-2.083
		c0,0,1.309,0.973,4.447,0.682c1.171-0.105,2.425-0.439,3.651-0.758c0,0-0.458,5.326-6.135,10.325
		c-5.672,4.994-9.544,14.677-9.914,18.05c-0.371,3.372-0.541,6.64-1.509,8.231c-0.544,0.9-2.903,3.608-5.195,6.43
		c-1.113-0.299-2.641-0.174-4.039,1.789c-2.607,3.653-1.199,6.186-8.31,13.664c-7.109,7.48-14.805,23.452-18.63,26.906
		c-3.828,3.446-8.108,12.446-5.841,20.9c0.827,3.066,2.24,5.894,3.791,8.257l-0.07,0.06c0,0,0.535,1.984,0.635,3.875
		c-0.096-0.005-0.181,0-0.284-0.006c-1.576-0.087-3.297-0.828-5.146-1.908c1.821-0.035,3.561,0.263,4.941,1.256
		c-1.32-0.973-2.677-1.824-4.341-2.024c0.477-0.064,1.987-0.419,2.616-0.939c-1.684-0.757-3.806-0.561-5.621-1.274
		c-1.129-0.452-3.865-1.39-4.417-1.973c2.054,0.43,3.553,0.801,5.454-0.171c-4.67-0.475-8.025-2.308-11.912-4.793
		c-6.951-4.449-14.938-5.363-22.942-3.976c-4.138,0.711-6.265,2.407-8.616,5.758c-0.264,0.38-0.561,0.721-0.864,1.057
		c-5.073-0.413-11.813,4.344-15.754,6.635C9.171,247.657,12.261,246.425,15.303,245.291z M333.042,188.761
		c0.281,2.386,0.845,4.724,1.7,6.679c-6.96-1.102-17.551-2.799-16.936-2.758L333.042,188.761z M72.849,252.253
		c0.106-0.007,0.205-0.021,0.312-0.033c-0.002,0.239-0.01,0.47-0.033,0.689c-0.887-0.184-1.745-0.381-2.544-0.597
		c-0.124-0.116-0.271-0.244-0.445-0.382C71.09,252.196,72.003,252.325,72.849,252.253z"/>
</g>
<g id="Black_Bars">
</g>
<g id="Silhouette">
</g>
<g id="Veins">
</g>
<g id="Background">
</g>
<g id="A_play_by_Kenneth_Vest">
</g>
<g id="Inside_Job_Title">
</g>
</svg>
