<?xml version="1.0" encoding="utf-8"?>
<!-- Generator: Adobe Illustrator 19.2.1, SVG Export Plug-In . SVG Version: 6.00 Build 0)  -->
<svg version="1.1" id="Layer_1" xmlns="http://www.w3.org/2000/svg" xmlns:xlink="http://www.w3.org/1999/xlink" x="0px" y="0px"
	 viewBox="0 0 286 210.3" style="enable-background:new 0 0 286 210.3;" xml:space="preserve">
<style type="text/css">
	.st0{fill:#FFFFFF;}
</style>
<g id="Inside_Job_Title">
	<g>
		<path class="st0" d="M0,98.6h0.5l0.8,0.8v0.5H0.8L0,99.2V98.6z M3.3,22c0.3,0,1.4,2.5,3.3,7.4c-0.2,2.4-0.6,3.6-1.3,3.6H4.6v-0.5
			L2.8,22.2L3,22H3.3z M3,98.9l0.3,0.3h0.3l1.3-0.3l0.5,0.5l0.3-0.3h0.3l1.5,0.5l1.3-0.3l0.5,1l1-0.5l0.3,0.3v0.5l-0.5,0.5l-1-0.3
			l-2,0.5c-0.1-0.4-0.8-0.8-2-1.3l-0.8-0.8l-0.3,0.3H3.6L3,99.2V98.9z M12.4,22.2h4.3c0.9,0,1.6,0.3,2.3,0.8l3-0.8
			c1.2,0,1.9,0.8,2,2.5c-0.3,0.5-0.6,1.5-0.8,3l0.8,1.3c0,0.8-0.2,1.3-0.5,1.3l0.3,0.3v0.3l-0.3,1.8l0.8,0.8l-0.5,0.5v0.8l0.5,1.5
			c0.3,0,0.5,0.4,0.5,1.3c0.5,0,0.8,0.2,0.8,0.5v0.3c-1.4,0-2,0.8-2,2.5c-0.8,0.1-1.5,0.5-2,1.3h-0.3c-0.4,0-0.8-1.1-1.3-3.3h-1.3
			L18,38.2c0,0.8-0.8,1.3-2.3,1.3c0-0.4-0.3-0.7-1-0.8c-0.6,0-1.5,0.5-2.8,1.5h-0.8l-0.3-0.8l0.3-2l-0.3-4.1l0.3-0.8h-0.3
			c0.2-1.2,0.5-1.8,0.8-1.8c-0.1-1-0.3-1.7-0.8-2.3v-4.8C10.9,22.7,11.4,22.2,12.4,22.2z M23.9,51.4c1.2,2.9,2,4.4,2.3,4.6l-0.5,1.5
			c0.7,0.2,1,0.7,1,1.5c-0.5,0-0.8,0.3-0.8,1h-0.3c-0.3,0-0.5-0.3-0.5-0.8L24.9,59h-0.3l-1.5,0.8l-1-1.3h-0.3
			c-0.8,0-1.3,0.4-1.3,1.3c-1,0-1.5,0.2-1.5,0.5v0.5l0.8,1.3l1.8-0.3h1c0,0.5,0.4,0.8,1.3,0.8c0.3,1.2,0.6,1.8,1,1.8v0.5
			c-0.7,0-1,0.7-1,2c0.7,0.2,1,0.7,1,1.5l0.8,0.3v0.5L24.9,70c0,0.9,0.3,1.7,1,2.5v0.3l-0.8,1l0.5,0.5l0.8-0.3l0.5,1.3l-0.8,0.5
			l-1-0.3v0.3l0.5,0.5l0.3-0.3h0.3l0.3,0.3v0.8h-0.3l-1.3-0.3v0.8c0.5,0,1,0.6,1.5,1.8l-1.5,1v0.3l0.3,0.3v0.3l-1.5,0.3
			c1.2,0.8,1.8,1.6,1.8,2.3h0.8c0.1-0.7,0.3-1,0.8-1l0.5,0.5l-0.3,0.8l0.8,0.8l-0.3,0.3h0.3l-0.8,1.3l0.3,0.3V87l-1,1.5l-1-0.3h-0.5
			v0.3c0.7,0,1.3,0.4,1.8,1.3V90h-0.8l-1-0.8l-0.5,0.5v0.5l0.3,0.3l-1,3.8l-1.3-0.5h-0.3v0.3c1.4,0.3,2,0.8,2,1.5l-0.5,0.8l0.5,1.5
			v0.8h1.3v0.3c-0.6,0-1.1,0.3-1.5,0.8l0.3,1.3v1.8c0,0.5-0.3,0.8-1,0.8l-3.6-0.3l-0.3,0.3H19l-1.5-0.5l-0.3,0.3H17l-0.3-0.3
			l-2.5,0.3h-1.3c-1,0-1.5-0.5-1.5-1.5v-5.8l-0.3-2.3l0.5-1.5l-0.3-1l0.5-0.5l5.8,2v-0.5c-3.6-0.9-5.6-1.7-6.1-2.3v-1l0.5-0.5
			l-0.5-2c0-1.3,0.5-2.4,1.5-3.3l0.8,0.5l0.8-2H15v-0.8h-0.8l-0.8,0.5h-0.8c0-0.8-0.5-1.3-1.5-1.3l0.5-1.3l-0.3-2.3l0.3-2l-0.3-1
			l0.3-1L11.4,72v-0.3l0.3-0.3v-0.3l-0.8-2.3h0.5l-0.3-1.8v-0.5c0-0.3,0.3-0.5,0.8-0.5s0.8,0.4,0.8,1.3h2l2.5-0.8v0.8
			c-0.7,0.8-1,1.7-1,2.5l1,0.5l1.5-0.8l0.8,0.8h0.3v-0.8l-1.3-2.3l0.5-1.3h-1.5c0-0.8-0.8-1.5-2.3-2L15,62.8v-0.3
			c0.5,0,0.8-0.3,0.8-0.8h0.5l0.3,0.3h0.3v-0.8l-0.5-0.8v-0.8c0.7,0,1-0.3,1-1h0.3l-0.3-0.3v-0.3l0.3-0.8l-0.3-0.8h0.3l1.8,0.5h1.5
			v-0.5c-0.8-0.1-1.3-0.4-1.3-0.8s0.5-1.1,1.5-2v-0.5c0.8,0,1.3-0.6,1.3-1.8h0.3l0.8,0.3L23.9,51.4z M18.3,46.1h0.3v0.5
			c0,0.9-0.8,2.2-2.5,3.8l0.3,1l-0.5,1.5h0.8v-0.5h0.8v0.5c0,0.4-1.2,0.7-3.6,1c-1.2-0.3-1.8-0.6-1.8-1v-0.8c0.5,0,0.8-0.2,0.8-0.5
			v-0.5c-0.7,0-1-0.3-1-0.8c0-1.2,1.6-2.2,4.8-3v0.3L18.3,46.1z M12.7,70v1.3h0.3l1-1L13.7,70H12.7z M14.2,84.2v0.5l1.5,0.3v-0.5
			l-0.5-0.5L14.2,84.2z M14.5,50.7v1.3l0.5-0.5v-0.3L14.5,50.7z M16.5,58.5v1H16V59L16.5,58.5z M17,24.5v0.3l0.3,0.3v0.3l-0.3,1
			c0.3,0.4,0.5,1,0.5,1.8H18c0.3,0,0.5-0.3,0.5-0.8c0-0.5-0.3-1.2-1-2l0.3-0.3v-0.3l-0.3-0.3C17.5,24.5,17,24.5,17,24.5z M17.3,62.6
			v1.3c0.3,0.8,0.9,1.3,1.8,1.3l0.8-0.8c-0.3-1.4-0.8-2-1.8-2L17.3,62.6z M17.5,78.1v0.8H18v-0.8H17.5z M17.8,79.1
			c0.1,1.4,0.4,2,0.8,2l0.3-0.3v-0.3l-0.3-1.5L17.8,79.1L17.8,79.1z M19,28.1v0.5l0.5,0.5l0.3-0.3v-0.5L19,28.1z M19.3,92.8v0.5
			l2.3,0.5h0.3v-0.3l-2.3-0.8H19.3z M20.1,26.3v0.3h1.3l0.3-0.8l-0.3-0.3h-0.5L20.1,26.3z M20.1,27.5v1l1,0.5v-0.5
			c-0.3-0.7-0.5-1-0.8-1H20.1z M20.8,39.2V40h0.8l-0.3-0.8H20.8z M22.3,59.8l0.3,0.3v0.8h-1l-0.8-0.8L22.3,59.8z M21.6,62.6
			l-0.5,0.8l0.5,0.5l0.5-0.5v-0.3L21.6,62.6z M21.8,66.4v0.5l0.5,0.5l0.5-0.5l-0.8-0.5H21.8z M23.4,37.7l0.3,0.3h0.3l0.5-0.5v-0.3
			h-0.5L23.4,37.7z M23.6,57.8v0.5h0.3l0.5-0.5H23.6z M27.7,100.9h0.3l0.5,0.5l-0.3,0.3h-0.3l-0.3-0.3V100.9z M28.4,85.4h0.5
			l0.3,0.3l3.6,2.3v0.5l-1.5-0.8V88L30,87.2l-1.3,0.5L28.2,87l0.5-0.8L28.4,86L28.4,85.4L28.4,85.4z M34.5,83.2l0.5,0.8v0.3
			l-1.3-0.3L34.5,83.2z"/>
		<path class="st0" d="M24.5,2.5l1.8,0.3v0.5l-0.8,0.8h-0.3C24.8,3.9,24.5,3.4,24.5,2.5z M26.8,10.7l0.5,1.3l-1-0.8L26.8,10.7z
			 M29.1,4.3h0.5v0.8l0.3,1.8h-0.8l-0.8-1.5L29.1,4.3z M30.1,21.3h0.8c0,0.7,0.4,1,1.3,1v1h-0.5C30.6,22.8,30.1,22.1,30.1,21.3z
			 M32.9,10.2l-0.8,0.8h-0.5v-0.5L32.9,10.2z M66.7,20.8c0,0.7,1,1,3,1h0.5l0.3-0.3l0.8,0.3c4.7,0,7.1,0.4,7.1,1.3l0.8,4.8l-0.5,1.5
			l1,1.5v0.8c-0.7,0-1,1.1-1,3.3l0.5,1l-0.8,0.8c0,0.5,0.4,0.8,1.3,0.8c0,2-0.2,3.3-0.5,4.1c0.3,1.2,0.8,1.8,1.5,1.8v0.5h-1.3
			c-0.3,0-0.6,0.6-0.8,1.8c0.5,1.4,1.3,2,2.3,2v0.5c0,0.5-0.8,0.9-2.3,1.3v1.3l0.3,1l-0.3,0.3v0.3l0.3,1.3l-0.3,1.8l0.3,2.5l-0.3,3
			l0.3,3l-0.3,1.8l0.3,0.3v0.3L78.6,67l0.3,1.5l-0.3,2l0.3,0.3v0.3l-0.3,0.3l0.3,3.8v1.3l-0.3,2.8l0.5,1.3l-0.3,0.8v0.5h0.3
			l-0.5,5.6l0.3,1.8l-0.3,1.3l0.3,2l-0.3,1l0.3,2.8v5.3c0,0.8-0.3,1.4-1,1.5l-0.8-0.3l-3.8,0.3h-4.6l-1-0.3l-1.3,0.5
			c-0.5,0-1.2-1.6-2.3-4.8L55,70.6c0.3-0.4,0.5-1,0.5-1.8H56v-0.3h-0.3L55,68.8v-0.3l-1-1.3v-0.5l0.3-0.8H54c-0.6,0-1.3-1.9-2-5.6
			l0.5-0.5v-0.3c-1,0-2.1-2.3-3.3-6.9h-0.8v0.3l0.3,1.8l-0.3,1.8h0.3l-0.3,0.8l0.3,2l-0.3,2.3h0.3L48.4,62v0.3l0.3,2.5l-0.3,1.8h0.3
			l-0.5,0.8l0.5,4.1l-0.3,2.3l0.5,1.3l-0.3,4.3v6.3l0.3,8.1L48.6,97l0.3,0.8l-0.3,1.5l0.3,3c-0.2,0.7-0.7,1-1.5,1h-0.5l-2.5-0.3
			l-1.5,0.3l-2.3-0.3l-3.3,0.3c-0.3-0.7-0.5-1.6-0.5-2.8V99l0.3-1.8L36.7,95v-5.1l0.3-1l-0.5-1.3l0.5-1.5l-0.3-1.3l0.3-0.3l-0.3-1.8
			V82l0.3-1.5L36.4,79l0.5-2.5l-0.5-2l0.5-1.3l-0.5-1.3l0.3-1.3l-0.3-3.8V50.5l-0.3-0.3l0.3-0.3v-2.3l-0.3-1.5l0.3-1.3l-0.3-1l0.3-1
			l-0.3-1.3h0.3l-0.3-0.3l0.3-1.3V35l-0.3-0.3l0.5-0.8l-0.5-3.6l0.5-4.3l-0.5-0.8l0.5-1.3l-0.3-1.5h0.3l2.3-0.5h10.7
			c0.3,0,1.6,3.6,3.8,10.9l-1,2l0.8,0.5l0.8-0.3v0.3c0.8,2.8,2.1,7.1,3.8,12.7l2.8,9.1l-0.3,0.3h-0.3l-0.3-0.8h-0.5v0.8
			c1.5,0.5,2.3,1.2,2.3,2.3l0.8,2.5l-0.3,0.3V63c2,5.1,3,8.6,3,10.7v1.3c0.8,0,1.3-1.3,1.3-3.8v-0.8l-0.3-0.3l0.3-0.3L66.1,66v-5.6
			l0.3-1l-0.3-1l0.3-6.9l-0.3-0.8l0.3-1.3l-0.3-4.1l0.5-1.3l-0.3-0.8l0.3-0.3l1,0.5l0.3-0.3l-0.3-0.3v-0.3l0.5-1
			c-0.5,0-0.9-0.8-1.3-2.5h0.5v-0.5l-0.8,0.5c-1.4-1.1-2-2.4-2-3.8c1,0,1.5-1,1.5-3v-1l-0.3-0.3l0.3-0.3l-0.3-3v-0.8l-1-0.3
			c0.2-0.7,0.5-1,1-1v-1.8l-0.5-0.8l0.5-1l-0.3-1.3L66.7,20.8z M37.2,0.3L37.5,0h0.8l1.3,0.3V1l-1,2.5h-0.3
			C37.9,3.6,37.5,2.5,37.2,0.3z M37.5,54.8l-0.3,0.3v0.3l0.3,0.3h0.3l0.3-0.3v-0.3l-0.3-0.3H37.5z M38,13.2v0.3h0.8v-0.8h-0.3
			L38,13.2z M39.7,11.2l-0.3,1l0.3,0.3H40l0.5-0.5L39.7,11.2z M41.3,33.8V34l1.5,1.3l0.8-1.3L43,33.5L41.3,33.8z M43.8,0.3h0.5
			l1,0.8h0.3c0.1-0.7,0.3-1,0.8-1h2l1.5,0.5l0.8,2v2h-0.8c-0.6-0.5-1.1-1.3-1.5-2.3c-0.6,0-1.2-0.3-1.8-1l-2.3,0.5V1.5l-2.5,0.8
			C41.8,0.9,42.4,0.3,43.8,0.3z M45.3,34.8V35h1v-0.3l-0.5-0.5L45.3,34.8z M45.3,42.2l0.3,0.8h0.8v-0.5l-0.5-0.5l-0.3,0.3
			C45.6,42.2,45.3,42.2,45.3,42.2z M45.6,49.8V50h1.8v-1h-1L45.6,49.8z M46.6,51.5v0.8h0.8v-0.8H46.6z M49.1,7.4
			c0.3,0,0.5,0.5,0.5,1.5l0.8,0.8v0.8l-2.8-2.8l0.3-0.3H49.1z M48.4,4.8v0.8l-0.5-0.5l0.3-0.3H48.4z M49.9,48v0.3l0.5,0.5l0.3-0.3
			V48H49.9z M51.2,34.3l-0.3,0.3V35l1,0.3l0.3-0.3v-0.5L51.2,34.3z M54,60.9v0.8h0.3l0.5-0.5l-0.3-0.3H54z M55.5,49.5l-0.3,1.3
			c0.8,0,1.3,0.2,1.3,0.5c0.8-0.3,1.3-0.8,1.3-1.5h-0.3l-1,0.3L56,49.5C56,49.5,55.5,49.5,55.5,49.5z M56.8,60.2v0.8h0.5l0.5-0.5
			v-0.8h-0.5L56.8,60.2z M56.8,64.2v0.5c0.7,0,1,0.3,1,1h0.8v-0.3c-0.3-0.8-0.7-1.2-1-1.3C57.5,64.2,56.8,64.2,56.8,64.2z
			 M57.3,54.8l0.3,0.3v0.3l0.3-0.3h0.5l0.8,0.5h0.3v-0.8c-0.7,0-1-0.2-1-0.5h-0.5L57.3,54.8z M64.9,15.7l0.8,0.8h1l1.8-0.3l0.3,0.3
			v0.8L67.2,17l-0.8,0.3v0.5l0.8,0.8l0.8-0.5h0.3c0,0.5-0.3,1.1-0.8,1.8l-1.3-0.3l-0.8,0.5h-0.8v-0.3c0-0.9,0.5-1.4,1.5-1.5V18
			c-1-0.8-1.6-1.4-1.8-2l0.3-0.3C64.6,15.7,64.9,15.7,64.9,15.7z M64.4,95.7V98l0.5,0.5h0.3l0.3-1.8v-0.3l-0.8-0.8H64.4z M64.6,91.9
			v1.5l0.5-0.5v-1.5L64.6,91.9z M65.1,83.5l-0.3,0.8l0.3,1l-0.3,1h0.5l0.3-2.5l-0.3-0.3L65.1,83.5L65.1,83.5z M65.1,75.9v0.3
			l0.3,0.8l-0.3,1.3V82l0.3-0.3l0.3-0.8h0.3l-0.3-1.8v-0.5l0.3-1.5C65.7,76.3,65.4,75.9,65.1,75.9z M65.6,100v0.8h0.3l0.5-0.5
			l-0.3-0.8L65.6,100z M72.2,10.2h0.5v0.8c-0.5,0-1,0.3-1.5,0.8L71,11.4v-0.3L72.2,10.2z M72,12.2l0.5,0.5v0.3l-1,0.3v-0.5L72,12.2z
			 M73.8,35.3v0.8H75l0.3-0.8H73.8z M80.9,15.2l0.8,0.3l0.8-0.3l0.5,0.5h0.3l0.3-0.3h0.3l0.8,1v0.3l-3.6-1L80.9,15.2L80.9,15.2z
			 M81.6,43.9h0.3c1,0,1.5,0.3,1.5,0.8h-0.5l-1.3-0.3L81.6,43.9L81.6,43.9z M86,42.9l1.3,0.3v0.5h-2v0.5h-0.8v-0.3
			c0-0.3,0.5-0.6,1.5-0.8V42.9z M88.7,68.8H89v1.8l0.5,0.8v0.3c-1.2,0-1.9-0.3-2-0.8C87.5,69.9,87.9,69.2,88.7,68.8z M91.3,41.9H92
			l0.3,0.3l0.3-0.3h0.3c1,0.3,1.5,0.7,1.5,1L92,43.4l-0.3-0.3h-1l-0.3,0.3h-0.3v-0.3L91.3,41.9z M95.3,42.4c1.5,0.2,2.3,0.4,2.3,0.8
			l-0.5,0.5l-2.8-0.5l0.3-0.3l0.8-0.3L95.3,42.4L95.3,42.4z M99.7,72.9h0.5v0.8h-0.5V72.9z"/>
		<path class="st0" d="M81.8,3.8l1,0.3v0.3c0,0.3-1.2,0.7-3.6,1V5.1C79.3,4.7,80.1,4.3,81.8,3.8z M85.6,55.4v0.8h-0.5v-0.3
			L85.6,55.4z M86.1,3.3l1,0.3v0.5l-0.5,0.5c-0.8-0.2-1.3-0.5-1.3-0.8V3.6L86.1,3.3z M89.9,4.3h0.8L91,5.6h-0.8L89.9,4.3z M101.4,79
			c0.5,0,0.8,0.4,0.8,1.3l1,0.8l-0.8,0.3c0,2.7,0.9,5.5,2.8,8.4v0.5l-0.3,1.5l0.5,2.3l-0.5,3.6l0.3,0.8l-1,2.5h-0.3l-1.5-0.8
			l-0.3,0.8h-0.3c-2.4-0.7-4.3-2.2-5.8-4.6l0.3-1.5l-0.5-0.5H96l0.8,0.5l0.3-0.3h0.3c-0.3-0.8-0.8-1.4-1.5-1.8h-0.3
			c-0.3,0-0.5,0.5-0.5,1.5h-0.5c-1.4-1.5-2.7-4.3-3.8-8.4l0.5-0.5c-0.7-0.2-1-0.7-1-1.5v-0.3c0-1.9,0.5-2.8,1.5-2.8
			c0.8,0,1.3-0.3,1.3-1l0.3,0.3h0.3l2.8-0.5l1,0.3C97.8,79.3,99.1,79.1,101.4,79z M104.2,20.8h0.5l1.3,1.5c-0.1,1.8-0.4,2.9-0.8,3.3
			l0.8,1l-0.3,0.3v0.3l0.5,1.5l-0.3,0.8l0.3,1.3c0,1.1-0.7,3-2,5.6c-0.3,0.7-0.5,1.8-0.5,3.3v0.5c0,2,0.9,5.2,2.8,9.6l-0.5,0.5
			c-0.3,0-0.5-0.3-0.5-0.8h-0.5l-0.3,0.3h-0.3c-0.1-0.8-0.4-1.3-0.8-1.3c-0.6,0-1,0.8-1.3,2.5l0.8,0.3V51l0.3,0.3h1.5l0.3,1
			l-0.3,0.3l0.3,1.3v2l0.8,0.3l0.3-0.3v1.3l-0.8,0.8v-0.5h-0.3v0.8l0.3,1.5c-0.2,2.7-0.6,4.1-1,4.1c-4.7-4-8-7.5-9.9-10.7
			c-0.8-1.4-1.3-3.3-1.3-5.8v-0.8L92.7,46v2h-0.3c-0.8,0-1.4-2.2-1.5-6.6l1.5-0.5l-0.3,0.3v0.5l0.3,0.3v0.3L92,42.7v0.3h0.5v1.3
			l0.5,0.5v-0.3l-0.3-2.3l0.5-0.5c-0.3-0.3-0.5-1.1-0.5-2.5l-0.3-0.3h-0.3L92,40.4c-0.8-0.4-1.3-1.3-1.3-2.5
			c0.3-0.5,0.6-1.7,0.8-3.8H92l-0.3,0.8l0.5,3.3h0.3l0.5-3l-0.5-1c0-2,0.4-3.5,1.3-4.6l0.3,0.3h0.8l-0.3-1.8
			c1.9-3.1,4.8-5.4,8.6-6.9L104.2,20.8z M91.5,4.1L92,4.6l-0.3,0.3v0.3L91,4.8V4.6L91.5,4.1z M93,4.6h0.8l-0.5,0.5H93V4.6z
			 M93.5,82.8v0.8H94v-0.8H93.5z M94.5,84.8v0.8H95v-0.8H94.5z M95,47.5v0.8h0.5l0.5-0.5v-0.3H95z M96.8,28.9v0.3
			c0,0.4,0.9,0.8,2.8,1.3l-0.3-0.3v-0.8l0.3-0.3v-0.3l-0.5-0.5v-0.8l0.3-0.3v-0.3h-0.5C97.9,27.7,97.2,28.3,96.8,28.9z M97.3,80.2
			v1.3h0.5v-0.8L97.3,80.2z M102.6,6.9l0.3,0.3v0.3l-2,1l-0.3-0.3h-0.3l-1.5,0.3l-1.3-0.5V7.6l0.3-0.3V7.1l0.3,0.3h0.8l1.5-0.3
			l0.8,0.3L102.6,6.9z M98.6,86.1l0.3,1.8h0.3l0.3-1.3l-0.5-0.5L98.6,86.1L98.6,86.1z M100.1,24.6v0.3h1v-0.3l-0.5-0.5L100.1,24.6z
			 M100.9,33.5v0.8h0.5v-0.8H100.9z M101.9,24.4v0.8l0.8,0.8l0.5-0.8l-0.3-1.3h-0.5L101.9,24.4z M104.2,101.6h0.3l0.5,0.5h-0.3
			L104.2,101.6z M104.2,103.9l0.5,0.5v0.3h-0.5V103.9z M107.5,50.5l1.5,2l-2,1.8c-0.4,0-0.7-0.8-1-2.5L107.5,50.5z M106.7,60.9h0.5
			c1.9,1.1,2.8,2.6,2.8,4.6l0.3,0.3v0.5c-0.3,0-0.5,0.3-0.5,0.8l-0.3,1l-0.3,0.3H109l-3-3v-0.5h1.5v-0.5c-0.8-0.8-1.3-1.7-1.3-2.8
			L106.7,60.9z M109.2,19.8c4,0,8.5,1.2,13.5,3.6l0.8-0.3c0.5,1,1.4,1.5,2.8,1.5l0.3,0.3v0.3l-1.3,1c1.5,1.5,2.5,2.3,3,2.3
			c0,1.2,0.8,1.8,2.5,1.8c0.3,0.8,0.9,1.3,1.8,1.3l0.5-0.5h0.8l-1,1.5l0.8,0.3v0.5h-0.5c0,0.5-0.6,1-1.8,1.5l-0.3-0.3h-1.8v0.8
			c0,0.5,0.3,1.2,1,2v0.3c-0.4,0.8-1.4,1.3-2.8,1.3c-0.3,0-0.5,0.3-0.5,0.8l-0.3,0.3H123c-0.8,0-1.3,0.2-1.3,0.5l-0.3-0.3h-0.3
			l-1.5,0.5v-0.3l-0.3,0.3h-1.5v-0.5l0.3-1.3c-0.4,0-1-1.4-1.8-4.1c-0.6-1.3-2.4-2.7-5.6-4.1v-0.3l-1.3,0.3c-1-0.5-1.5-1.1-1.5-2
			l0.3-2.3l-0.3-1.3l0.5-0.5v-0.5c-0.5-0.6-0.8-1.2-0.8-1.8v-1.8C107.7,20.3,108.2,20,109.2,19.8z M109.5,55.1h0.3v0.3l-0.5,0.5H109
			v-0.3L109.5,55.1z M112.8,55.9h0.5c5.7,4.4,9.9,8.7,12.7,12.9c0,0.4,0.8,1.7,2.3,3.8l0.3,1.5c0,0.8-0.6,1.3-1.8,1.3v0.3l1.3,0.8
			h0.8v-0.5c1,0,1.6,2.4,1.8,7.1c0.2,3.9-1.3,8.4-4.3,13.5c-0.7,0-1.1,0.3-1.3,1l-0.3-0.3H124l0.3,1.3c-3.5,2.5-5.9,3.8-7.4,3.8
			l-0.3-0.3h-0.3l-1,0.3h-0.3v-0.8l-1,1.3h-1.8l-0.8-0.5l-1.5,0.5l-0.5-1.8l0.5-0.8c-0.7-0.9-1-2.2-1-3.8c0-3.2,0.5-4.8,1.5-4.8
			c1.9,0,4-0.9,6.1-2.8c0.9,2.3,1.6,3.6,2,3.8v-0.5c-0.8-2.2-1.3-3.9-1.3-5.3c0.5-0.7,0.8-2.6,0.8-5.6h-0.3l0.3-0.3v-0.3
			c-0.9-3.3-2.3-5.8-4.1-7.6l0.3-1.3v-0.5c-0.7,0-1-0.7-1-2l-0.3-0.8h-0.3l0.5-2.8l-0.5-0.5v-1.5c0-1.4,0.8-2.5,2.3-3l0.3-0.3v-0.3
			l-0.3-0.8h0.8v-0.8C114.5,58.7,113.4,57.7,112.8,55.9z M113.3,26.4l-0.3-0.3h-0.5c-1.5,0.3-2.3,0.6-2.3,1v0.5l1.8,0.3l2.5-1.5
			l1.5,0.3h0.3l-2-1h-0.3L113.3,26.4z M112,94v0.3l0.5,0.5l0.3-0.3v-0.3l-0.3-0.3C112.5,94,112,94,112,94z M113.6,99l-0.3,1.3v1h0.3
			l0.5-0.5V99L113.6,99L113.6,99z M114.1,68.8l-0.5,1l0.8,0.3l0.3-0.3v-0.5L114.1,68.8z M115.8,70.3l-0.5,0.8v0.5l0.5,0.5h0.8l1-0.5
			C117.4,70.8,116.8,70.3,115.8,70.3z M118.1,33.5v0.8h0.3l0.5-0.5v-0.3H118.1z M119.4,90.7v0.5h0.3l0.5-0.5H119.4z M119.9,71.1v0.3
			l1,1h0.5v-1L119.9,71.1z M119.9,89.1v0.5h0.8v-0.5H119.9z M121.2,81v0.5l0.5,0.5l1.5-1.3l-0.5-0.5h-0.8L121.2,81z M121.4,67v0.3
			h0.5l0.3-0.3h0.3l-0.3-0.8L121.4,67z M123.2,68.1v0.3l0.5,0.5v-0.8H123.2z M124.7,85.6v0.8h0.8v-0.3l-0.5-0.5H124.7z M126.8,72.9
			l-0.3,0.8h0.3l0.5-0.5v-0.3H126.8z M126.8,85.3v0.5h0.8v-0.5H126.8z M127.8,77.4v0.8l0.5-0.5v-0.3H127.8z M127.8,79.5v0.3l0.3,0.8
			h0.8v-0.3L127.8,79.5z M147.1,49.3c0,0.7,0.9,1.6,2.8,2.5l0.5-0.5l2,0.3v-1l1.5,0.3l0.8-0.3l0.3,0.3V51l-2.8,1.5h-1.3l-0.3,0.8
			l-0.8-0.5l-0.3,0.3l-1.5-0.3l-2.8,0.3l-0.5-0.5h-0.3v1.3l-2-0.5l-0.5,0.5l-0.3-0.3h-0.3l-1,0.3l-2.8-1.3v0.3l0.3,1v0.3l-0.3,0.3
			l0.3,0.8l4.1-0.5l0.8,0.3v0.5c-2.4,0.2-3.6,0.6-3.6,1l-1.3-0.3l-1.5,0.5l-1.3-0.3v1.3l-1.3-0.3h-0.3c-1.2,1.1-1.8,2-1.8,2.8
			l-1.3-0.3l0.5,1.5l-1.3,0.3c-0.5-0.2-0.8-0.7-0.8-1.5l1.3-1l0.8,0.3l0.8-3.6l-0.3-0.3v-0.3l0.3-1l1.8,0.3v-0.5l1.3,0.3
			c0-0.7,0.3-1,0.8-1l1.3-1l-0.5-0.5v-0.3l0.8-0.3l0.8,0.3l0.5-1h0.3l0.3,1.3l-0.3,0.8l0.3,0.3h0.3l0.3-0.3l0.5,0.5h1l3-1.8v-0.5
			l-0.3-0.3v-0.3L147.1,49.3z M130.3,27.9h0.8v0.3l-0.5,0.5l-0.3-0.3V27.9z M131.3,52.6v0.8h-0.5v-0.3L131.3,52.6z M133.9,32.8h0.8
			l0.5,0.5l-1.3,0.3L133.9,32.8L133.9,32.8z M135.1,31.2l1.5,0.3l0.3-0.3h0.3l0.3,1h0.8c0-0.5,0.2-0.8,0.5-0.8v0.3l-0.3,0.3l0.5,1
			l-0.5,1.5v1.3h-0.3c-0.8-0.2-1.7-1.1-2.8-2.8l0.8-0.3v-0.3l-0.5-0.5l-0.3,0.3l-0.8-0.3v-0.3L135.1,31.2z M135.4,55.1l1.3,0.8
			l0.3-0.3v-0.5l-0.5-0.5h-0.5L135.4,55.1z M139.5,30.7h0.3l1.8,0.5v0.5h-0.8L139.5,30.7z M143,31.2l-0.5,0.5h-0.8v-0.3L143,31.2z
			 M146.8,53.6l0.3,0.3h0.3l1.5-0.3c0,0.4,0.3,0.6,0.8,0.5l3.3-0.3c0,1-1.1,1.7-3.3,2l-0.8-0.3l-2,0.8h-1c-1.1,0-1.8-0.3-2-1h-0.5
			v-0.3l1.8-1h0.5c0,0.5,0.2,0.8,0.5,0.8h0.3C146.3,54,146.5,53.6,146.8,53.6z M145,31l2.5,0.5V32h-1.8v0.5h-0.5l-1.5-1.3L145,31z
			 M148.1,43.4h0.5v1l-0.5,0.5h-0.8v-0.5l-1.8,0.5l-0.3-0.3v-0.3l2.5-0.8L148.1,43.4z M148.6,49.3h0.3c1,0,1.5,0.5,1.5,1.5V51h-0.8
			l-1-1.3V49.3z M149.6,31.5h0.5l0.5,0.5l-0.3,0.3h-0.3l-1-0.3L149.6,31.5z M154.2,42.4h1v0.5l-3,0.3h-0.8l-0.5,1.8h-0.3l-1.5-1.5
			C149.6,42.7,151.3,42.4,154.2,42.4z M151.7,44.2l0.8,0.3v0.5h-1v-0.3l0.3-0.3L151.7,44.2L151.7,44.2z M153.4,53.6h0.8l0.3,0.3v0.3
			h-0.3l-0.8-0.3V53.6z M154.2,39.9c1,0.2,1.5,0.4,1.5,0.8l-0.3,0.3H155l-0.8-0.8L154.2,39.9L154.2,39.9z M157.5,35.3l0.8,0.8v0.5
			l-1.3-0.3v-0.5L157.5,35.3z"/>
		<path class="st0" d="M132,98.6h0.5l0.8,0.8v0.5h-0.5l-0.8-0.8V98.6z M135.3,22c0.3,0,1.4,2.5,3.3,7.4c-0.2,2.4-0.6,3.6-1.3,3.6
			h-0.8v-0.5l-1.8-10.2l0.3-0.3H135.3z M135.1,98.9l0.3,0.3h0.3l1.3-0.3l0.5,0.5l0.3-0.3h0.3l1.5,0.5l1.3-0.3l0.5,1l1-0.5l0.3,0.3
			v0.5l-0.5,0.5l-1-0.3l-2,0.5c-0.1-0.4-0.8-0.8-2-1.3l-0.8-0.8l-0.3,0.3h-0.3l-0.5-0.5L135.1,98.9L135.1,98.9z M144.5,22.2h4.3
			c0.9,0,1.6,0.3,2.3,0.8l3-0.8c1.2,0,1.9,0.8,2,2.5c-0.3,0.5-0.6,1.5-0.8,3l0.8,1.3c0,0.8-0.2,1.3-0.5,1.3l0.3,0.3v0.3l-0.3,1.8
			l0.8,0.8l-0.5,0.5v0.8l0.5,1.5c0.3,0,0.5,0.4,0.5,1.3c0.5,0,0.8,0.2,0.8,0.5v0.3c-1.4,0-2,0.8-2,2.5c-0.8,0.1-1.5,0.5-2,1.3h-0.3
			c-0.4,0-0.8-1.1-1.3-3.3h-1.3l-0.8-0.5c0,0.8-0.8,1.3-2.3,1.3c0-0.4-0.3-0.7-1-0.8c-0.6,0-1.5,0.5-2.8,1.5h-0.8l-0.3-0.8l0.3-2
			l-0.3-4.1l0.3-0.8H143c0.2-1.2,0.5-1.8,0.8-1.8c-0.1-1-0.3-1.7-0.8-2.3v-4.8C143,22.7,143.5,22.2,144.5,22.2z M155.9,51.4
			c1.2,2.9,2,4.4,2.3,4.6l-0.5,1.5c0.7,0.2,1,0.7,1,1.5c-0.5,0-0.8,0.3-0.8,1h-0.3c-0.3,0-0.5-0.3-0.5-0.8l-0.3-0.3h-0.3l-1.5,0.8
			l-1-1.3h-0.3c-0.8,0-1.3,0.4-1.3,1.3c-1,0-1.5,0.2-1.5,0.5v0.5l0.8,1.3l1.8-0.3h1c0,0.5,0.4,0.8,1.3,0.8c0.3,1.2,0.6,1.8,1,1.8
			v0.5c-0.7,0-1,0.7-1,2c0.7,0.2,1,0.7,1,1.5l0.8,0.3v0.5l-0.8,0.8c0,0.9,0.3,1.7,1,2.5v0.3l-0.8,1l0.5,0.5l0.8-0.3l0.5,1.3
			l-0.8,0.5l-1-0.3v0.3l0.5,0.5l0.3-0.3h0.3l0.3,0.3v0.8h-0.3l-1.3-0.3v0.8c0.5,0,1,0.6,1.5,1.8l-1.5,1v0.3l0.3,0.3v0.3l-1.5,0.3
			c1.2,0.8,1.8,1.6,1.8,2.3h0.8c0.1-0.7,0.3-1,0.8-1l0.5,0.5l-0.3,0.8l0.8,0.8l-0.3,0.3h0.3l-0.8,1.3l0.3,0.3V87l-1,1.5l-1-0.3h-0.5
			v0.3c0.7,0,1.3,0.4,1.8,1.3V90h-0.8l-1-0.8l-0.5,0.5v0.5l0.3,0.3l-1,3.8l-1.3-0.5h-0.3v0.3c1.4,0.3,2,0.8,2,1.5l-0.5,0.8l0.5,1.5
			v0.8h1.3v0.3c-0.6,0-1.1,0.3-1.5,0.8l0.3,1.3v1.8c0,0.5-0.3,0.8-1,0.8l-3.6-0.3l-0.3,0.3h-0.3l-1.5-0.5l-0.3,0.3H149l-0.3-0.3
			l-2.5,0.3H145c-1,0-1.5-0.5-1.5-1.5v-5.8l-0.3-2.3l0.5-1.5l-0.3-1l0.5-0.5l5.8,2v-0.5c-3.6-0.9-5.6-1.7-6.1-2.3v-1l0.5-0.5l-0.5-2
			c0-1.3,0.5-2.4,1.5-3.3l0.8,0.5l0.8-2h0.3v-0.8h-0.8l-0.8,0.5h-0.8c0-0.8-0.5-1.3-1.5-1.3l0.5-1.3l-0.3-2.3l0.3-2l-0.3-1l0.3-1
			l-0.3-0.3v-0.3l0.3-0.3v-0.3l-0.8-2.3h0.5l-0.3-1.8v-0.5c0-0.3,0.3-0.5,0.8-0.5s0.8,0.4,0.8,1.3h2l2.5-0.8v0.8
			c-0.7,0.8-1,1.7-1,2.5l1,0.5l1.5-0.8l0.8,0.8h0.3v-0.8l-1.3-2.3l0.5-1.3h-1.5c0-0.8-0.8-1.5-2.3-2l-0.3-1.3v-0.3
			c0.5,0,0.8-0.3,0.8-0.8h0.5l0.3,0.3h0.3v-0.8l-0.5-0.8v-0.8c0.7,0,1-0.3,1-1h0.3l-0.3-0.3v-0.3l0.3-0.8l-0.3-0.8h0.3l1.8,0.5h1.5
			v-0.5c-0.8-0.1-1.3-0.4-1.3-0.8s0.5-1.1,1.5-2v-0.5c0.8,0,1.3-0.6,1.3-1.8h0.3l0.8,0.3L155.9,51.4z M150.3,46.1h0.3v0.5
			c0,0.9-0.8,2.2-2.5,3.8l0.3,1l-0.5,1.5h0.8v-0.5h0.8v0.5c0,0.4-1.2,0.7-3.6,1c-1.2-0.3-1.8-0.6-1.8-1v-0.8c0.5,0,0.8-0.2,0.8-0.5
			v-0.5c-0.7,0-1-0.3-1-0.8c0-1.2,1.6-2.2,4.8-3v0.3L150.3,46.1z M144.7,70v1.3h0.3l1-1l-0.3-0.3H144.7z M146.3,84.2v0.5l1.5,0.3
			v-0.5l-0.5-0.5L146.3,84.2z M146.5,50.7v1.3l0.5-0.5v-0.3L146.5,50.7z M148.5,58.5v1H148V59L148.5,58.5z M149,24.5v0.3l0.3,0.3
			v0.3l-0.3,1c0.3,0.4,0.5,1,0.5,1.8h0.5c0.3,0,0.5-0.3,0.5-0.8c0-0.5-0.3-1.2-1-2l0.3-0.3v-0.3l-0.3-0.3
			C149.6,24.5,149,24.5,149,24.5z M149.3,62.6v1.3c0.3,0.8,0.9,1.3,1.8,1.3l0.8-0.8c-0.3-1.4-0.8-2-1.8-2L149.3,62.6z M149.6,78.1
			v0.8h0.5v-0.8H149.6z M149.8,79.1c0.1,1.4,0.4,2,0.8,2l0.3-0.3v-0.3l-0.3-1.5L149.8,79.1L149.8,79.1z M151.1,28.1v0.5l0.5,0.5
			l0.3-0.3v-0.5L151.1,28.1z M151.3,92.8v0.5l2.3,0.5h0.3v-0.3l-2.3-0.8H151.3z M152.1,26.3v0.3h1.3l0.3-0.8l-0.3-0.3h-0.5
			L152.1,26.3z M152.1,27.5v1l1,0.5v-0.5c-0.3-0.7-0.5-1-0.8-1H152.1z M152.9,39.2V40h0.8l-0.3-0.8H152.9z M154.4,59.8l0.3,0.3v0.8
			h-1l-0.8-0.8L154.4,59.8z M153.6,62.6l-0.5,0.8l0.5,0.5l0.5-0.5v-0.3L153.6,62.6z M153.9,66.4v0.5l0.5,0.5l0.5-0.5l-0.8-0.5H153.9
			z M155.4,37.7l0.3,0.3h0.3l0.5-0.5v-0.3h-0.5L155.4,37.7z M155.6,57.8v0.5h0.3l0.5-0.5H155.6z M159.7,100.9h0.3l0.5,0.5l-0.3,0.3
			H160l-0.3-0.3V100.9z M160.5,85.4h0.5l0.3,0.3l3.6,2.3v0.5l-1.5-0.8V88l-1.3-0.8l-1.3,0.5l-0.5-0.8l0.5-0.8l-0.3-0.3L160.5,85.4
			L160.5,85.4z M166.6,83.2l0.5,0.8v0.3l-1.3-0.3L166.6,83.2z"/>
		<path class="st0" d="M189.7,20.5l6.1,2h0.3l3.3-0.5l0.5,0.5h1l0.3-0.3h0.3V23l-2.3,0.8v0.3c0.1,0.5,1.2,0.9,3.3,1.3l0.3,0.3
			l0.3-0.3v-0.3c3.3,0.5,5.3,1.1,5.8,1.5h0.5c0.8,0,1.3-0.2,1.3-0.5l0.3,0.3h1.8l0.3-0.3h0.3l0.3,0.3v0.3h-0.5v0.8l1,0.3l-0.5,1
			h-0.3l-2-0.5h-0.3c0,0.5-0.3,0.8-0.8,0.8l-2.3-0.5c-0.6,0.2-1,0.8-1.3,1.8l0.3,0.3h0.5l-0.3-0.3v-0.3l0.5-0.5h0.8l0.8,0.5h0.5
			c0.6,0,1.3-0.3,2-1l0.8,0.5l0.8-0.5h1.3c0,0.7-0.5,1.4-1.5,2v0.3h-1.3c0-0.5-0.2-0.8-0.5-0.8h-0.5v0.5l3,2h1l0.8-0.5l-0.3-0.8h-1
			c0,0.5-0.3,0.8-1,0.8v-0.8c0-0.3,0.8-0.7,2.5-1c0,1.3,0.7,2.3,2,3l-0.3,0.3h-1.5v-0.5h-0.5l-1.8,1l0.8,1.5h1l0.3-1
			c0.6,0.2,0.9,0.5,1,1h0.5v0.5c-0.7,0-1,0.7-1,2c0.7,0.9,1,1.7,1,2.3c0.8-1,1.7-1.5,2.8-1.5h1l0.5,0.5v0.3c-1.2,0-1.8,0.4-1.8,1.3
			h-0.5c0-0.5-0.2-0.8-0.5-0.8l-1.3,1v0.5l0.5,0.5h0.5l0.8-0.8c1.9,0.1,2.8,0.4,2.8,0.8v0.3c-1.3,0-2.1,0.4-2.5,1.3l-1.8,0.5
			l-0.8-0.3c0,0.5-0.8,0.9-2.5,1.3l-0.8-0.3v0.3l-0.3,0.3l0.3,0.8l1.5-0.3l0.8,0.3v0.3l-1.3,0.3h-2l-0.3-0.3l-1.5,0.3v0.5l1,0.3
			l1.3-0.3h1l0.8,0.5l0.8-0.5h0.3l0.5,0.5l-0.5,0.5v0.5l0.5,0.5v-0.3l2,1V51h-0.3l-0.8-0.5h-0.3l-3,1.8l0.8,0.8v0.3l0.3-0.3h0.8
			l0.5,0.5v0.3h-0.3l-1.3-0.3l-0.5,0.5h-0.3c-0.3,0-0.6-0.6-0.8-1.8l-2.5-0.3l-0.5,0.5c0,0.5,0.8,0.8,2.5,0.8l0.3,0.3v0.3l-0.3,0.3
			l-0.3-0.3h-0.3c-1.9,0.4-2.8,0.8-2.8,1.3l0.3,2l-0.8,0.8l0.3,1l-0.3,0.3h-0.3l-1.3-0.3l-0.8,0.3l0.5,0.5l1-0.3
			c0,0.7,0.3,1.7,1,2.8v0.5l-0.5,0.8c0.1,1,0.4,1.5,0.8,1.5l0.8-0.3v0.3l-0.3,1l1,0.8l-0.5,1.5l0.5,0.5V69c0,0.3-0.7,0.6-2,0.8V70
			l0.3,0.3h0.3L209,71c0.1,1.1,0.5,2.1,1.3,3l-2.3,4.3l1.3,0.5v0.5c0,0.5-0.3,0.8-1,0.8v0.5c0,0.3,0.3,0.5,0.8,0.5l-0.5,2v0.5
			c0,0.3,0.5,0.5,1.5,0.5v1l-1,0.5l-0.3-0.3V86h0.5v0.3l-0.3,0.3v0.3l1,0.8l-0.8,0.3l-1-0.3l-0.3,0.3l0.3,1.3v0.3
			c-0.8,0.6-1.3,1.2-1.3,1.8c-0.8,0.8-1.4,1.8-1.8,3c-5.3,5.4-10,8.1-14,8.1l-2.8,0.5l-1-0.3h-0.5v0.3l-1.3-0.3h-4.1l-1.5,0.3
			l-1-0.3l-1.3,0.3c-2.4-0.2-3.6-0.6-3.6-1.3l0.3-1.5v-0.3h-1.8l-2,1.8h-0.3c0-0.4-0.3-1-1-1.8v-0.3l-0.3-3.3l0.3-1l-0.3-1.8
			c0-1.2,0.3-1.8,0.8-1.8v-0.8h-0.5v-1.5h0.3l1.5,0.5l-0.3-1.3l0.3-0.8h-0.5v-0.3l0.3-0.8l-1.5-0.3v-0.8l-0.3-1l0.3-1l-0.3-0.3
			l0.5-0.5v-0.3c-0.3-0.3-0.6-1.5-0.8-3.6l0.5-6.6l-0.3-1.3V71l0.8-0.8l-0.3-1.3v-0.5l1.8-0.3h0.8c0.4,0,0.7,0.8,0.8,2.5l-0.3,2.3
			c0.3,0.7,0.5,1,0.8,1h0.3c0-0.5,0.3-0.8,0.8-0.8c0.7,0.2,1,0.7,1,1.5v0.3l-0.8,1l0.3,0.8h0.5c0.5-1.5,1.1-2.3,1.8-2.3v-0.5
			l-0.3-0.3l0.5-2.3l-0.3-0.8c1.1,0,2.2-0.8,3.3-2.3c0-0.5,0.3-0.8,0.8-0.8c0-0.8,0.2-1.3,0.5-1.3V66c-0.5-0.6-0.8-1.2-0.8-1.8v-0.3
			l1.3-0.3l1.3,1.3c-0.7,0.6-1.2,1.4-1.5,2.3l0.3,0.3h0.3l1.3-0.3v0.3c0,0.4-0.5,1.1-1.5,2v0.8l0.5,0.8v0.3l-0.8,2
			c0.4,0,0.7,0.6,1,1.8h0.5c0-1,0.3-1.5,1-1.5v-1.3c0.3,0,0.6,0.4,0.8,1.3l-0.5,0.8l0.3,0.3v0.3l-0.5,1l0.5,0.5v0.3
			c-0.7,0-1,0.7-1,2l-0.8-0.8v-0.3l0.5-0.8h-0.3c-0.5,0-1.1,1-1.8,3v0.3l1.3,0.3h1v0.5l-1.5,1.5v0.3l0.8,2h-1.3l0.3-0.3V84h-0.3
			l-0.5,0.5c0.5,0,0.8,0.8,1,2.5l0.5,0.5v0.8c-0.7,0-1,0.2-1,0.5c0.3,0,0.5,0.4,0.5,1.3l0.3,0.3h1.8l1.3,0.3c4.5,0,7.6-1.3,9.1-3.8
			l1-4.6l-0.3-0.3v-4.3l0.5-1.8l-0.5-0.5l0.5-2.3l-0.5-2.8l0.3-0.8l-0.3-1l1.3-0.5l1,0.3h0.5l-1-1l-0.3,0.3h-0.3
			c-0.4,0-0.6-0.4-0.8-1.3l0.5-1h-0.5v0.5h-0.8v-0.3l0.5-1.5l-0.3-0.3c0-0.4,0.8-0.9,2.5-1.5v-0.5l-0.8-0.8h-1.5v-0.8
			c0.5,0,0.8-0.3,0.8-1h0.3c-0.2-0.8-0.6-1.4-1.3-1.8l-0.3-0.3v-0.3l1-1l-0.5-1l1.5-0.3v-1l-0.3-0.3V53h0.5v-0.3h-0.3l-2,0.5v-0.8
			c0-0.3,0.5-0.5,1.5-0.5v-0.5c-1,0-1.5-0.5-1.5-1.5v-3.6c0-1.4,0.5-2,1.5-2v-0.3c-1-0.8-1.5-1.5-1.5-2.3v-2l-0.8-1.3l0.3-1
			c-1-1.4-2-2-3-2c-0.5,0-0.8-0.3-0.8-0.8h-0.5l-0.5,0.5l0.5,0.5L190,37l-0.3-0.3h-0.3l-0.3,0.3H189c0-0.7-0.3-1-0.8-1l-0.5-0.5
			l0.8-0.5l1,0.3l-1-0.8V34h-0.3c-0.6,0-1.1,0.3-1.8,0.8h-0.3l-2.3-1.3l-0.8,0.3l0.8,2.5h0.8l0.3-1.3h0.8v0.3c0,1.1-0.3,1.9-1,2.5
			v0.5l1,0.3v-0.3l0.3,0.3h0.8c1,0,1.5-0.5,1.5-1.5h0.8v0.8h0.5l0.3-0.3h0.3v0.8c-1,0-2.2,0.7-3.8,2c-0.5,0-0.8-0.3-0.8-0.8h-0.3
			l-0.3,0.3h-0.3l0.3,0.3v0.8l-0.5,0.8v0.3l0.8,1.3l-0.3,0.8l-1-0.3c-1,0.2-1.5,0.4-1.5,0.8s0.3,0.5,0.8,0.5l0.3,0.3v0.5
			c-0.7,0.1-1,0.3-1,0.8v0.3c0.5,0,0.8,0.2,0.8,0.5c-0.5,0.6-0.8,1.2-0.8,1.8c0.8,0,1.3,0.3,1.3,1c-1.4,0.5-2,1.1-2,1.8l0.8,1.3
			l-0.3,0.3l0.3,0.3v0.8l-0.3-0.3h-0.3l-0.3,0.8l0.5,1.5c-0.5,0.2-0.8,0.7-0.8,1.5l0.3,0.3l0.3-0.3h0.3l0.5,0.5v0.3h-0.5v0.3
			c-0.4,0-1.7-0.8-3.8-2.3l0.8-2V54c-0.3-1.2-1.1-1.8-2.3-1.8l-1.3,0.3c-1.1-2.4-2.2-3.6-3.3-3.6c-0.5,0-0.8,0.5-0.8,1.5H171
			c0-0.7-0.4-1-1.3-1l-0.8-2.3l0.3-1.5v-0.8h0.5v-0.8l-0.8-1v-1l0.3-0.8l-0.3-1.3v-4.8l-0.3-0.3l0.3-0.3v-0.5l-0.3-1.3l0.3-1
			l-0.3-5.8c-0.1-2.8,0.1-4.3,0.8-4.3l8.9-0.5l1,0.5l2-0.5h3.6l0.8,0.5c0.4-0.5,1.4-0.8,3-0.8l0.3-0.3L189.7,20.5z M169.9,62.7
			l0.5,1.3h-0.8l-0.3-0.3h-0.3C169.4,63,169.7,62.7,169.9,62.7z M169.4,65.4c0.7,0.2,1,0.6,1,1.3h-0.3l-0.8,0.3l-0.3-0.3V66l0.3-0.3
			L169.4,65.4L169.4,65.4z M173.5,50.7l0.3,0.8c0,0.5-0.5,0.8-1.5,0.8v1H172c-0.6-0.5-1.3-0.8-2.3-0.8l-0.3-0.3V52l1-0.8l1.5,0.5
			L173.5,50.7z M170.4,25.1v0.8h0.3l0.3-0.8H170.4z M170.9,81.7l0.5,0.5l0.3-0.3v-0.3C171.7,81.7,170.9,81.7,170.9,81.7z
			 M170.9,101.8h0.3l0.8,0.3v0.5h-0.5l-0.5-0.5V101.8z M171.2,70v0.3l0.5,0.5l0.3-0.3v-0.3l-0.3-0.3C171.7,70,171.2,70,171.2,70z
			 M173.2,76.9v0.8h0.5l0.5-0.5l-0.3-0.3H173.2z M174.8,48.4v0.5l0.5,0.5l0.3-0.3v-0.8C175.5,48.4,174.8,48.4,174.8,48.4z
			 M177.8,75.9c-0.5,0.6-0.8,1.2-0.8,1.8v0.5h0.5c1.5-0.3,2.3-0.8,2.3-1.3C179,76.2,178.4,75.9,177.8,75.9z M178.8,82.7l-0.3,0.3
			v0.8l0.8,0.3l0.3-0.3V83L178.8,82.7z M179.8,25.8v0.3c0.5,0.8,1.1,1.3,1.8,1.3v-1l-0.5-0.5H179.8z M179.8,65.2h0.3
			c0.5,0.2,0.8,0.7,0.8,1.5l-0.5,0.5L179.8,65.2z M180.3,80.2v0.8h0.3l0.8-0.8H180.3z M181.4,61.1v0.8l-0.5,1h-0.3v-1L181.4,61.1z
			 M182.1,27.6v0.5h0.8v-0.5H182.1z M184.2,26.6v0.3h0.8v-0.5L184.2,26.6z M185.7,26.9v1c0.6,0,1.4,0.4,2.5,1.3h0.3
			c-0.1,0.8-1,1.4-2.5,1.8l-0.3,0.3v0.5l2,1.3h0.3c0.9-0.9,2.1-1.7,3.6-2.5l2,0.5l0.3-0.3v-0.8l-1.3-1l-1,0.8l-1.5-1.8h-1.8
			C188.2,27.2,187.4,26.9,185.7,26.9z M185.7,49.5h1l-0.5,0.5h-0.5L185.7,49.5L185.7,49.5z M188.5,25.6v1.5h0.5v-0.5h0.3
			C189,25.9,188.7,25.6,188.5,25.6z M189,23v0.8h0.8V23H189z M191,66.5h0.3V67l-0.5,0.5l-0.3-0.3V67L191,66.5z M192,24.3l0.3,0.3
			h0.5l0.5-0.5v-0.3h-0.8L192,24.3z M196.1,34.2V35c1,0.3,1.5,0.8,1.5,1.5h0.5c0-0.7,0.3-1,0.8-1h0.3V35l-1.5-0.5l-1,0.3L196.1,34.2
			z M197.1,26.6l-0.3,0.3c0.5,1.6,0.9,2.5,1.3,2.5h0.5v-0.3C198.6,27.4,198.1,26.6,197.1,26.6z M198.1,58.8v1.3h0.3l0.8-0.8v-0.5
			H198.1z M199.4,57.1l-0.3,0.3v0.8h0.5l0.5-0.5L199.4,57.1z M199.6,28.1v1l1,1h1v-0.8l0.3-1.3l-0.3-0.3h-0.3L199.6,28.1z M208,45.4
			l-0.8-0.5H207c-2.2,1.1-3.3,1.7-3.3,2c0,0.3,1.1,0.9,3.3,1.8c0.2,0.7,0.7,1,1.5,1V50l0.8-0.3l-0.3-1.3c0.7,0,1-0.6,1-1.8h0.5
			c0-0.5,0.2-0.8,0.5-0.8l0.3,0.3h0.3l0.5-0.8l-2-1C209.5,44.4,208.8,44.7,208,45.4z M204,55l0.5,1.5l-0.8,1.3v0.8l1.3-0.3
			c0.3,0.7,0.5,1,0.8,1h0.3l0.8-2h-1.3v-0.3l0.5-0.8v-0.5c-0.7,0-1-0.4-1-1.3l0.5-0.5l-0.8-0.5c-0.3,0-0.5,0.5-0.5,1.5L204,55
			L204,55L204,55z M204,43.1v0.8h0.5v-0.3L204,43.1z M205.2,30.7l0.3,1.3v0.8h0.5v-0.3l-0.3-1.8H205.2z M207,46.2l0.3,0.3v0.3
			l-0.3,0.3h-0.5v-0.3L207,46.2z M207.5,60.1l-0.8,1.3v0.5h1l0.5-0.5l-0.8-0.8l0.5-0.5H207.5z M207.8,47.7h0.3v0.5h-0.8L207.8,47.7z
			 M207.8,34v0.3h0.8l0.5-0.5v-0.3h-0.8L207.8,34z M209,52v0.5l0.5,0.5l0.5-0.5l-0.8-0.5H209z M209.8,48.7v0.8h0.3l0.3-0.8H209.8z
			 M210.3,33.7l-0.3,0.3v0.5h0.3l0.5-0.5l-0.3-0.3H210.3z M213.9,41.3h-0.5l-0.8-0.5h-0.3l-1.5,1.3l0.3,0.3v0.3l1.3-0.3h3.6v-0.5
			h0.3l-0.3-1.3L213.9,41.3z M210.8,48.9v0.8h0.8v-0.8H210.8z M213.9,37.5c0.2,0.5,0.7,0.8,1.5,0.8h0.3l-1-1.5L213.9,37.5z
			 M214.1,39.3v0.3h0.5v-0.8L214.1,39.3z M214.9,26.9l1,0.3v1.3c0,0.9-0.3,1.4-0.8,1.5l-0.3-1l0.5-0.5c0-0.3-0.3-0.5-0.8-0.5
			l-0.3-0.3v-0.3L214.9,26.9z M217.7,25.8l1.8,0.8l0.5-0.5l0.5,0.5v0.5h-0.3l-1.8-0.3l-0.8,1c0-0.5-0.4-0.7-1.3-0.8v-0.3
			C216.7,26.2,217.2,25.8,217.7,25.8z M217.7,28.1l0.8,0.3v1h-0.5L217.7,28.1z M219.4,49.5h0.5c0.4,0.3,1,0.5,1.8,0.5v0.8l-0.5,0.5
			h-1C219.8,51.2,219.6,50.6,219.4,49.5z M220.5,28.6l0.8,0.8l-0.3,0.3h-1v-0.5L220.5,28.6z M222.5,26.1h0.8v0.3l-1.3,0.3
			L222.5,26.1z M223.5,46.4h0.3v0.8h-0.5l-0.3-0.3h-0.3l-0.3,0.3l-0.3-0.3v-0.3L223.5,46.4z M227.8,46.2h0.8l0.5,0.5l-2,0.5
			l-0.3-0.3v-0.3L227.8,46.2z M229.6,45.9h0.8v0.5h-0.8V45.9z"/>
		<path class="st0" d="M227.8,20c0.9,0.7,2.4,1,4.3,1l0.8-0.3c1.9,0.4,2.8,0.9,2.8,1.5l-0.3,0.8l0.3,2.8v0.8c0,2-0.3,3-0.8,3
			l0.5,3.3v3.3c0,1.7-0.2,2.5-0.5,2.5l0.3,1.3v1.8l0.3,0.3v0.3l-0.5,0.5v1l0.3,1.3l-0.5,0.5l1.3,1.3h0.3c0.3,0,0.5-0.3,0.5-0.8
			l0.3-0.3h0.3l0.8,0.8l-0.3,0.3v0.3l-0.3-0.3H237l-0.5,0.5v0.5h1.8v0.3c-0.1,0.6-0.6,1.1-1.5,1.5h-0.3l-0.5-0.5h0.3
			c-0.4-1-0.7-1.5-1-1.5l-0.8,0.5l0.3,1.3V50l-0.3,2.3l0.5,1.3c-0.4,0.5-1.1,0.8-2,0.8v0.3l0.8,2.3l-0.3,1.5c0.5,0,1,1.2,1.3,3.6
			h0.3c0-1,0.2-1.5,0.5-1.5l1.8,0.3v-0.3l-1.3-3.8c1.9,0,3.1,1.5,3.6,4.6h0.3c1.7,0,2.5-0.7,2.5-2c0-1.2,0.7-2.1,2-2.8l0.5-1
			l3.3-0.3l3.8,0.8l1-0.3c1,0.2,1.5,0.4,1.5,0.8c0,0.8-0.5,1.5-1.5,2l-0.8-0.5h-0.3l-0.5,0.5v0.8l0.5,0.8v0.5
			c-0.5,0-0.8,0.6-0.8,1.8c-1,0-1.7,1.1-2,3.3c-1.2,1.7-1.9,2.5-2.3,2.5l-1-0.8l-0.5,0.5h-0.3c-1.9,0-2.8-1.5-2.8-4.6
			c0-1.2-0.2-1.8-0.5-1.8h-1.3c-1.2,0.4-1.8,1.6-1.8,3.6l0.3,2.3c-0.7,0.7-1.4,1-2,1c-1.2,0-1.8-0.8-1.8-2.3l-0.3-1.5h-0.3l-0.5,3
			l0.3,0.8l-0.5,1l0.5,3l-0.3,0.3v0.3l0.3,1l-0.3,2.8c0.1,1,0.3,1.5,0.5,1.5l-0.3,0.3v0.3l0.3,1.3c-0.1,1-0.3,1.5-0.5,1.5l0.5,3.8
			l-0.3,2.8l0.3,0.3h-0.3l0.5,1.8l-0.3,3.3h0.3l-1.3,3c2,2.2,3,3.9,3,4.8c0,0.8-1.2,1.3-3.6,1.3h-7.9l-0.8-0.5H224l-0.3,0.3h-0.3
			l-0.5-0.8v-0.8h0.3l1.3,0.3v-1l-0.8-3l0.8-0.8c0-0.8-0.5-1.4-1.5-1.8v-0.3c0.8,0,1.3-0.2,1.3-0.5v-0.5c-0.6,0-1.1-1.1-1.5-3.3
			l0.3-0.3v-0.3l-0.3-1.3l0.3-2.3l-0.3-2.3l0.3-0.3V83l-0.3-1v-0.5h0.8v-0.5l-1-0.3l0.3-1.3l-0.3-4.8l0.5-2.3l-0.5-2l1-1.5v-0.3
			l-0.8-1.3l0.5-6.1c-0.3,0-0.6-0.5-0.8-1.5l0.8-3.6l-0.8-0.3v-0.5c0-0.3,0.3-0.5,0.8-0.5l0.3-0.3V54c0-0.4-0.7-0.8-2-1v-0.5
			c0.5,0,0.8-1.9,1-5.6l-0.3-1l0.3-0.8c-0.7-0.3-1-0.5-1-0.8l0.8-1.3v-0.8c0-0.4-0.3-0.7-1-0.8v-0.3c0.7,0,1-0.2,1-0.5v-3.3
			l-0.3-0.3l0.3-0.3v-5.8l-0.5-2l0.5-0.8l-0.3-0.8l0.3-3l-0.3-1l0.3-1v-0.3L222,22v-0.3l0.8-0.5h2.5C226,21.3,226.9,20.8,227.8,20z
			 M223.3,49.2v0.5c0,0.8,0.3,1.4,1,1.5l0.5-0.5h1c0.3,0,0.5,0.3,0.5,0.8l0.5-0.5v-0.8c-0.8-0.1-1.3-0.4-1.3-0.8v-0.5l0.5-0.8v-0.5
			h-1L223.3,49.2z M224,26.6l-0.5,2l0.3,0.3h1l0.5-1.5H225L224,26.6z M223.5,58.3l0.5,3h0.5l0.5-0.5v-0.3l-0.8-1.3l0.3-1l-0.3-0.3
			H224l-0.3,0.3L223.5,58.3L223.5,58.3z M225.3,41.3v0.8h0.8v-0.3l-0.5-0.5H225.3z M225.5,29.4v1h0.8v-0.5l-0.5-0.5
			C225.8,29.4,225.5,29.4,225.5,29.4z M225.8,55.8v0.3l1.5,1.5l-1.5,0.3v0.3c0.7,0.7,1,1.4,1,2v1.3l1,0.5h1.3l1-1.3l-0.8-2.5
			c-0.3,0-0.5-0.3-0.5-1l-0.3-0.3h-0.3l-1,0.3C227.3,56.2,226.8,55.8,225.8,55.8z M226,40.1h0.3c0-0.3,0.4-0.5,1.3-0.5l0.3-0.3v-0.5
			h-1C226.5,38.8,226.3,39.2,226,40.1z M227.3,31.4v0.3l0.5,0.5h0.3v-0.8C228.1,31.4,227.3,31.4,227.3,31.4z M228.3,50l-0.3,0.3v0.3
			l0.3,0.8h0.8v-0.5L228.3,50z M228.3,45.1v0.3c0.2,1.4,0.4,2,0.8,2h0.5l1-1C229.6,45.6,228.8,45.1,228.3,45.1z M228.6,54.8
			l-0.3,0.3v0.5l0.8,0.8h0.5v-0.5L228.6,54.8z M229.3,49.2l-0.3,0.3v0.3c0.1,0.5,0.8,0.8,2,0.8l0.8,2c1-0.1,1.5-0.3,1.5-0.5
			c0-1.4-0.6-2.3-1.8-2.8h-0.5l-1,0.3L229.3,49.2z M229.3,51.7v0.8l0.8-0.8v-0.3L229.3,51.7z M229.9,38.5l-0.3,1.5h0.3l1.3-0.3
			l1,0.3v-0.3C232.1,39.3,231.4,38.9,229.9,38.5z M230.1,30.2v1c0.4,0,0.9-0.4,1.5-1.3l-0.3-0.8h-0.3L230.1,30.2z M230.4,42.1
			l0.3,0.3h0.5v-0.8h-0.3L230.4,42.1z M230.6,70v0.5c0.5,0,0.8,0.4,0.8,1.3h0.5v-1.3L230.6,70z M231.4,45.6v0.3l0.5,0.5l0.3-0.3
			v-0.5H231.4z M231.9,67.5V68h0.8v-0.5H231.9z M253.2,20.8l1,0.5L255,21l0.8,1l0.5-1l1.5,0.5l1.3-0.3c1.2,0,1.8,0.4,1.8,1.3h0.5
			l0.8-0.5h0.3l0.3,1.3c-0.8,0-1.7,0.3-2.5,1l0.5,1l1.8-0.3h0.5l1.3,0.5v0.5c-0.1,0.5-0.8,0.8-2,0.8c0-0.5-0.2-0.8-0.5-0.8v0.3
			l0.5,0.8v0.8h-1.5v0.3l0.3,1l-0.5,1.3c0,0.5,0.6,0.9,1.8,1.3v0.8h-0.3l-0.8-0.8c-0.3,0-1,0.8-2,2.3l-1.5,0.3l-3.3-0.5l-2.5,0.3
			l-0.3-0.3l-1.3,0.3h-2.3l-1.5,0.3l-1.3-0.3l-0.5,0.5l-0.8-0.5h-0.5c-0.7,0.5-1.6,0.8-2.5,0.8v-0.3l-1.8,0.8V35l-0.3-1l0.3-1
			c-0.3-0.4-0.8-3.2-1.3-8.4l-0.3-0.3l0.3-1V23l-0.3-0.3c0.2-1,0.5-1.5,0.8-1.5h6.6l2,0.3l2-0.3h0.5l3,0.3L253.2,20.8z M238.7,89.8
			h4.6l1,0.8l1.5-0.8l1,0.3l1-0.3l0.8,0.3l1-0.3h0.5v0.3l3-0.3h3.8c0.1,1.2,0.3,1.8,0.5,1.8l-0.3,1.3v1.8l-0.3,0.3l0.3,0.3v1
			l-0.5,0.5c-0.3,0-0.5-0.4-0.5-1.3h-0.8v1l-6.1-2v0.5c2,0.6,3,1.2,3,2l-1.5,0.5c0.3,0.5,0.7,2.1,1,4.8l-0.3,0.3l-0.8-0.3l-1.3,0.3
			l-1-0.3l-1.5,0.3l-1-0.3l-3,0.3c-1,0.1-2-0.3-3-1.3c-0.2,0.8-0.6,1.2-1,1.3l-0.5-0.5l1-2.8l-1-6.6v-1.5L238.7,89.8z M239,43.1h0.8
			c0,0.5,0.2,0.8,0.5,0.8l1.5-0.5v0.3l-1,0.8l-0.3,0.3v0.3C239.9,44.7,239.4,44.1,239,43.1z M240.5,23.8v1h0.8v-0.5l-0.5-0.5
			C240.8,23.8,240.5,23.8,240.5,23.8z M241.8,44.1h0.5l2,0.3v0.5H242L241.8,44.1z M241.8,45.4h0.3l0.5,0.5h-0.8V45.4z M243.3,91.6
			v0.5h-0.3c0.2,2,0.5,3,1,3l0.5-0.5l-0.3-1.3l0.5-0.5l-1.3-1.3L243.3,91.6L243.3,91.6z M249.7,56.1v0.3l0.3,1.8
			c1.2-0.6,1.8-1.2,1.8-1.8l-0.3-0.3H249.7z M253.5,59.4c0.7,0,1.1,1,1.3,3l-0.5,0.5v0.5c0,0.3,0.3,0.5,1,0.5l-0.5,1.3H254
			c-0.8-0.3-1.3-0.9-1.3-1.8v-0.3l1-0.3v-0.3l-0.8-0.8l-0.3,0.3h-0.3v-0.5c0.9,0,1.4-0.3,1.5-0.8c0-0.3-0.3-0.5-0.8-0.5l-0.3-0.3
			v-0.3L253.5,59.4z M137,113.2l1,0.3v0.3c0,0.3-1.2,0.7-3.6,1v-0.3C134.5,114.1,135.3,113.7,137,113.2z M252.7,96.4
			c3,0,4.6,0.8,4.6,2.3V99l-0.3,1.5l0.3,0.8c-0.3,0.7-0.5,1-0.8,1h-2l-0.3-1.3l0.3-1.8c-0.5,0-1.1-0.8-1.8-2.5V96.4z M256.3,61.4
			h0.3v0.3l-0.5,0.8v0.3c0,0.3,0.3,0.5,0.8,0.5l0.3,0.3v0.3h-0.3c-0.7,0-1-0.4-1-1.3h-0.3L256.3,61.4z M141.3,112.7l1,0.3v0.5
			l-0.5,0.5c-0.8-0.2-1.3-0.5-1.3-0.8v-0.3L141.3,112.7z M259.8,22.3v0.5h0.8l-0.5-0.5H259.8z M145.1,113.7h0.8l0.3,1.3h-0.8
			L145.1,113.7z M264.9,30.9l1.3,1.3l-0.8,0.3l-1.3-0.3L264.9,30.9z M146.6,113.4l0.5,0.5l-0.3,0.3v0.3l-0.8-0.3v-0.3L146.6,113.4z
			 M148.2,113.9h0.8l-0.5,0.5h-0.3V113.9z M269.5,26.6l0.5,0.5v0.3h-1v-0.3L269.5,26.6z M269,29.4l1.8,0.3h0.5l0.3,0.8l-1.8,1.3
			h-0.5v-0.5H269l0.3-0.3v-0.3L269,29.4z M273.8,25.6h0.3l1.5,0.8l0.3-0.8h0.3l0.8,0.8v0.3c0,0.7-1.4,1-4.3,1l-0.3-0.3v-0.3
			L273.8,25.6z M277.8,22h0.5v0.8l-0.5,0.5h-0.3L277.8,22z M278.4,26.1v1.5h-0.5l-0.3-1L278.4,26.1z M285.5,25.6h0.5
			c0,1-1,1.8-3,2.3c-0.7-0.5-1.8-0.8-3.3-0.8l-0.3-0.3v-0.8h0.8v0.5C283.7,26.3,285.5,25.9,285.5,25.6z"/>
		<path class="st0" d="M25.3,116.5H26l0.3,0.3l0.3-0.3h8.1c1,0,1.5,0.9,1.5,2.8l0.8,1.3l-0.8,1.3v0.5h0.3l-0.5,6.9l0.3,4.6v1
			c0,0.6,0.3,1.1,0.8,1.8l-0.5,0.8l0.8,1.3v0.8c0,1-0.7,1.5-2,1.5v1.3c0.8,0,1.3,0.4,1.3,1.3l-0.8,1.5c0.3,0,0.5,0.5,0.5,1.5H37V146
			h0.3l0.3,1.8l-0.3,0.8l0.3,0.3v0.3l-0.5,1l0.8,2l-1,1.8l0.3,1.5l-0.8,2.5l0.3,0.3v0.3l-0.5,1.3l1.3,3.6l-0.5,1.5l0.3,1.3h-0.3
			l0.3,0.3v0.3l-0.3,1.5l1,1.3l-1.3,2.8c0.5,0,0.8,0.2,0.8,0.5l-0.5,0.5l0.3,1l-0.5,1.8l0.8,0.8v0.5l-0.8,1v0.8l1,0.3
			c0,0.5-0.3,0.8-1,0.8l0.5,0.5h0.5l1-0.8l0.5,0.5v0.3l-0.3,0.3L39,181v1c-0.9,1.5-1.8,2.3-2.8,2.3c-0.6,0.7-1.1,1.8-1.3,3.3
			c-4.1,5.8-8.2,9.1-12.2,9.9l-0.3,0.3l-1.5-0.3c0,0.7-0.9,1-2.8,1l-1.8-0.3l-1.5,0.3c-2.5,0-3.8-0.4-3.8-1.3c0-0.5-0.2-0.8-0.5-0.8
			v1.3H10l-0.5-0.5l0.3-0.3l-0.5-1.3l0.3-1.5v-0.8c0.7,0,1-0.3,1-0.8l0.3,0.3h0.5l0.5-0.5v-0.8c-1.2-0.3-1.8-0.7-1.8-1
			c0.3-0.7,0.9-1,1.8-1h0.3l0.3,0.3h0.3c0.5-0.7,0.8-1.4,0.8-2h-0.3l-2.5,0.3v-0.5l0.3-1.3h1.8l1.5,0.3l1.3-0.3h0.8l0.3,1h0.3
			c0.5-0.9,2.2-1.8,4.8-2.5c1.9-2.2,2.8-4.7,2.8-7.6L24,176l0.8-1.3v-0.3h-0.5v-1.3l-0.3-0.3l0.3-0.3v-2.5c0-0.9,0.3-1.6,0.8-2.3
			l-0.8-1l0.3-2.5h-0.3l0.3-0.3v-0.8l-0.3-0.3v-0.3h0.3l-0.3-0.3v-0.3l0.8-1c-0.7-0.2-1-0.6-1-1.3l0.3-0.3c0.5,0.1,1.2,0.6,2,1.5
			l3.6,0.5l0.3-0.3v-0.3c0-0.6-0.3-1.1-0.8-1.8V159l0.3-2.5h0.5v1l-0.3,1.3l0.3,0.3c1.5-0.2,2.3-0.4,2.3-0.8v-1c0-0.3-0.7-0.7-2-1
			l-1-1h-0.3l-0.5,0.5l0.5,0.8l-0.3,0.3h-0.3l0.3,0.8l-0.8,1h-0.3c0-0.4-0.8-1.1-2.5-2.3l-0.3-1.5l1-0.3l-0.3-1.3l0.3-0.3h0.5
			c0,1.2,0.4,1.8,1.3,1.8v-0.3l1-0.8c0.2-1.2,0.5-2.1,1-2.5l-0.5-2l0.3-1.3c-0.8-0.7-1.4-1-1.8-1l1.3-1.3l-0.3-0.3v-1l0.3-0.3
			l-0.3-0.8h-0.8c-1.3,0-2.5,0.8-3.8,2.5c0,0.6,0.6,1,1.8,1.3v0.5c-0.2,0.5-0.7,0.8-1.5,0.8l-0.5-0.5V146l-0.3-2.8l0.5-1.3l-0.5-6.1
			l0.3-1.3l-0.3-0.3v-0.3l0.5-2.3l-0.5-1l0.3-1.5v-0.5l-0.3-0.3l0.3-0.3l-0.3-3.8v-5.1l0.3-1l-0.3-0.8
			C23.9,116.9,24.4,116.5,25.3,116.5z M16.6,189.4v1l0.5,0.5l0.3-0.8l-0.3-0.8L16.6,189.4L16.6,189.4z M16.9,191.2v0.5l0.5,0.5v-1
			L16.9,191.2L16.9,191.2z M17.1,192.7v0.8l0.5-0.5l-0.3-0.3H17.1z M19.4,192.5v1.3c0.3,0,0.5,0.4,0.5,1.3h0.8l-1-2.5L19.4,192.5
			L19.4,192.5z M23.7,183.1v0.5H24c0.8-0.3,1.4-0.8,1.8-1.5v-0.3l-0.8-0.3C24.7,181.5,24.3,182.1,23.7,183.1z M24.5,149.3l0.5,0.5
			v0.3h-0.5V149.3z M25,187.6l-0.3,0.3v0.5h0.8v-0.3L25,187.6z M29.1,166.3v0.3l0.5,0.5l1.8-2h-0.3C30.4,165,29.7,165.5,29.1,166.3z
			 M29.6,173.2h0.5l0.5-0.5h-0.5L29.6,173.2z M31.6,179.8l1.3,1l0.5-0.8v-0.3l-0.5-0.5h-0.8L31.6,179.8z M32.9,144l0.3,0.3h0.3
			l0.5-0.5l-0.3-0.3h-0.3L32.9,144z M34.4,157.7l1,0.3l0.3-0.3v-0.3l-0.3-0.3h-0.5L34.4,157.7z"/>
		<path class="st0" d="M66.2,114.6c1,0.1,1.7,0.3,2.3,0.8l1-0.8h0.3l0.8,0.8l-0.8,1v0.5h0.8l1.3,0.3l-0.3-0.3v-0.5l0.5-0.5h0.3
			l4.8,2v0.3l-0.3,0.3v0.3c1.7,0,4,2.2,6.9,6.6c0.8,1.2,1.3,2.5,1.5,3.8v0.3c-0.5,0-0.8,0.2-0.8,0.5v0.3l1.5,0.3l-0.3,1.3v1.5l0.8,1
			v0.3c0,1.3-0.6,2.1-1.8,2.3v0.5c0.8,0,1.3,0.2,1.3,0.5v1l-0.3,0.3v0.3H86l-0.5,1l0.5,5.3l-0.3,1h0.8v-0.8H87l0.3,0.3l0.3-0.3h1
			v0.3l-1,0.8l-0.3,0.3v0.3l-1.3-0.3h-0.3v0.3l0.8,1v0.3l-0.3,0.3l0.3,0.8h0.8v-1h1.3l-0.5,3l1.5,1.8l-0.3,0.3v0.3l0.3,0.3l-0.3,0.3
			l-2-0.5l-0.8,0.3v1.3l-0.5,0.8v17.8c0,0.4-0.8,0.8-2.5,1.3v0.3c1.7,0,2.5,0.3,2.5,0.8v0.3l-0.3,0.3v0.3c-1.9,0-3.5-0.4-4.8-1.3
			h-0.3l-0.5,0.5l1.3,1.3c-0.2,0.8-0.5,1.3-0.8,1.3h-0.3l-1-0.8c0-0.5,0.3-0.8,0.8-0.8v-0.3c-0.5,0-0.8-0.3-0.8-0.8l0.3-0.8h-0.3
			l-0.3-0.3l-0.3,0.3h-0.8c0-1.5-0.8-2.4-2.5-2.5c0-0.2-0.7-0.4-2-0.5V172h-0.3l0.3-0.3l-0.3-3v-3.3l0.3-1l-0.5-1.3l0.3-3.6v-1.5
			l-0.3-2.3l0.3-0.3l-0.3-2.5v-0.8l0.5-4.3l-0.8-2l0.5-0.5c0-2.2-0.3-4.1-0.8-5.6l0.8-2l-0.3-0.8l0.3-1.5V135c0-1.7-0.2-2.5-0.5-2.5
			l0.3-0.3v-0.3c-1.5-3.3-3.7-4.9-6.6-4.8c-1.4,0-3,0.6-4.8,1.8v0.5l0.5,0.8l-0.3,0.3h-0.3l-0.3-0.3h-0.3v0.5h0.5v0.5l-0.3,0.3v0.3
			l0.3,0.3c-1.4,0.6-2,1.6-2,2.8l1,1v0.3l-0.8,1.5h0.3l-0.3,0.3v1c0.6,1.4,1.4,2,2.3,2c0,0.5,0.3,0.8,0.8,0.8l0.3,0.3v0.5
			c-0.7,0.1-1,0.3-1,0.8c0.5,0,0.8,0.2,0.8,0.5v0.5h-0.3c-0.6,0-1.6-0.4-2.8-1.3l-0.3,0.3h-0.3c0.3,0.7,0.5,1,0.8,1l-0.3,1.8v0.8
			l0.3,1l-0.3,1l0.5,1.8l-0.8,1l0.3,1.5l-0.5,2.8l1,1.3c-0.5,0.9-0.8,2.2-0.8,3.8l0.3,1.5l-0.3,1l0.8,0.3l-0.3,1.3
			c0.8,0.3,1.2,0.7,1.3,1v0.3c-1,0-1.5,0.5-1.5,1.5l0.8,0.3v0.3l-1,0.3v4.6l0.3,1.3l-0.3,1.5v2.3c0,3.4,1.9,5.7,5.6,6.9H67
			c2.6,0,4.7-1.4,6.3-4.1l1-0.3h3c3,0,5,0.2,5.8,0.5l1.5-0.5l1,0.3v1c-0.5,3.2-1.4,4.8-2.5,4.8L83,187h1v0.5c-0.6,1.6-2.6,4-6.1,7.1
			c-2.2,1.4-3.6,2-4.3,2c0-0.3-0.3-0.5-0.8-0.5c-1,0.8-1.7,1.3-2.3,1.3l-1-0.3l-0.5,0.5h-1l-1-1c-0.6,0.5-1.7,0.8-3.3,1l-0.3-0.3
			l0.3-0.3v-0.3l-0.3-0.3v-0.3c-0.5,0-0.8,0.3-0.8,0.8h-0.3l-3.8-1.3c-1.6-0.5-3.5-1.9-5.6-4.1v-0.8l0.5-0.8c0-0.8-0.2-1.3-0.5-1.3
			l-1.3,0.3l-0.5-3l0.3-1c-0.2-1.2-0.4-1.8-0.8-1.8l-0.3,1.5l0.5,0.5v1c0,0.9-0.3,1.4-0.8,1.5c-1.7-2.7-2.5-5.8-2.5-9.4l0.3-0.3
			v-0.3l-0.5-1l0.3-0.3v-0.3l-0.3-1.8h0.3l-0.3-0.3v-0.8l0.3-1.5l-0.3-0.3v-0.8h0.3l-0.3-4.3v-4.8l0.3-0.3l-0.3-0.3v-13.7l0.5-1.5
			l-0.5-1.5l0.3-1l-0.3-1c0-0.3,0.8-0.8,2.3-1.5L50,140h-0.3l0.3-0.3v-0.5l-1.3,0.3l-0.3-0.3V138h0.5l0.3,0.3h0.3l0.3-0.3v-0.3
			c-0.8-0.3-1.3-0.9-1.3-1.8c0.6-0.5,1.3-0.8,2-0.8V135c-1.9-0.8-2.8-1.7-2.8-2.5v-0.5c0.5,0,0.8-0.2,0.8-0.5h0.8v0.5h0.3
			c1.4-0.7,2-1.5,2-2.3v-1.5c1,0,1.5-0.3,1.5-1c0.3,0,0.5-0.3,0.5-0.8l-0.3-1.3c0.8-1,1.6-1.5,2.5-1.5c0-0.6,1-1.4,3-2.5l-0.5-0.5
			l0.8-0.8l0.3,0.3h0.3l1.5-1.3v0.5h0.8V119l-0.3-2.3l0.3-1l1.5,1.5h1v-1.8C64.4,115.1,65,114.9,66.2,114.6z M51.5,137.2l-0.5,2.3
			l0.3,0.3l-1,0.8l0.3,0.3v0.5l-0.5,0.8c0.7,0.1,1,0.3,1,0.8l1.8-1.3c0-0.5-0.3-0.8-0.8-0.8l-0.3-0.3v-0.8l0.3-1.5l-0.3-1
			L51.5,137.2L51.5,137.2z M50.5,157.6l-0.3,1.3v6.3l-0.3,1.3l0.3,1.5v6.6l0.5,0.5v-8.9l0.3-0.3l-0.3-0.3v-5.1l0.3-2.3l-0.3-0.8
			L50.5,157.6C50.5,157.6,50.5,157.6,50.5,157.6z M50.5,175.8l-0.3,1l0.3,0.3v0.3l-0.3,0.3l0.5,4.1h-0.3l0.3,1H51v-3.8l0.3-0.3
			l-0.5-2.8L50.5,175.8L50.5,175.8z M50.5,149.9v0.3l0.5,0.5v-1.3L50.5,149.9z M50.7,151.2l-0.3,1.3v1L51,153v-1.8L50.7,151.2
			C50.7,151.2,50.7,151.2,50.7,151.2z M50.5,153.7v3l0.5-0.5l-0.3-0.3v-0.3l0.3-1.5L50.5,153.7z M51,143.8v1l0.5-0.5v-0.5L51,143.8
			L51,143.8z M51.2,135.2l0.3,1.3l0.8-0.3L52,135L51.2,135.2z M51.7,133.2v0.8l0.5-0.5v-0.3H51.7z M52,160.1l0.3,0.3h0.5l0.5-0.5
			l-0.3-0.3h-0.5L52,160.1z M52.3,128.6v1.5l0.8-0.3v-0.5L52.3,128.6z M52.5,131.9l0.5,1l0.5-0.5v-0.5L52.5,131.9L52.5,131.9z
			 M53.8,142.1v0.5h-0.3l0.3,1l0.5-0.5v-0.5L53.8,142.1z M54.3,139.3l-0.3,1h0.5v-1H54.3z M54.3,136.5v0.3h0.5V136L54.3,136.5z
			 M54.5,163.1v1h0.3l0.5-0.5v-0.5L54.5,163.1L54.5,163.1z M57.8,189.8v0.3h0.8v-0.8h-0.3L57.8,189.8z M65.7,188.5v0.5h0.5l0.5-0.5
			H65.7z M67.2,115.7l-0.3,0.3v0.3h1v-0.3L67.2,115.7z M69.3,121.2v0.5L70,122v-0.8H69.3z M70,194.1l0.3,1.5c1,0,1.5-0.5,1.5-1.5
			h0.3c0.3,0,0.5,0.3,0.5,0.8h1v-0.3l-0.3-1.3l0.3-0.3l-0.3-0.3h-1C71.7,192.8,70.9,193.3,70,194.1z M70.8,153.2h0.5
			c0.3,0,0.5,0.3,0.8,1h-0.5C71.3,154.3,71,153.9,70.8,153.2z M73.1,117.2v0.3l0.5,0.5h1v-0.3l-1-0.5H73.1z M74.3,134.2v0.5l0.5,0.5
			l0.3-0.3v-0.8H74.3z M74.3,181.4l0.3,0.8l1.3-0.3l-0.5-0.5H74.3z M204.5,100.7l0.3,0.3v0.3l-1,0.8l-0.3-0.3v-0.3L204.5,100.7z
			 M86.8,152.2v1h0.5v-1H86.8z M206.6,99.7h0.3c1.3,0,1.9,0.3,2,0.8l0.3-0.3h0.3l0.5,0.5c-0.6,0.5-1.9,0.8-3.8,0.8v-1.3L206.6,99.7z
			 M90.8,153.5l1.5,1c0,0.6,0.3,1.1,0.8,1.5l-0.5,0.5h-0.3l-2.3-1.5C90.3,154,90.5,153.5,90.8,153.5z M94.1,155.3h1
			c0,1.2,0.3,1.8,0.8,1.8v0.5c-1-0.1-1.5-0.3-1.5-0.5l0.3-0.8l-0.5-0.5L94.1,155.3L94.1,155.3z M95.9,155.5h2.5c0.3,0,0.5,0.3,0.5,1
			l0.3,0.3h0.8c0-0.5,0.2-0.8,0.5-0.8h0.5l0.5,0.5v0.5l-0.5,1h-0.5v-1l-0.3,0.3h-2.8L95.9,155.5z M219.5,102.5l0.3,0.3v0.3l-0.8,0.5
			h-1.3l-0.5-0.5L219.5,102.5z M222.6,101.7l0.5,0.5l-0.3,0.3h-0.8v-0.3L222.6,101.7z M104.3,157h0.8v0.3l-0.5,0.5l-0.3-0.3V157z"/>
		<path class="st0" d="M103.3,115.8h11.4c6.8,0,12.4,2,17,6.1c1.4,0,2.6,0.8,3.6,2.3v0.3c-1.4,0.3-2,0.8-2,1.3
			c0.9,0,1.9,0.3,2.8,0.8l0.8-0.3v0.3l-0.3,1.5l1.3,0.3l-1,3.3v1l0.3,0.3l-0.3,0.3v0.3l0.3,2.5l-0.8,0.3l-0.3-0.3h-0.3l-0.8,0.3v1.3
			c1.9,0.6,2.8,1.6,2.8,3c1,0,1.5,0.2,1.5,0.5v0.3l-1.5,0.3v1l0.3-0.3h0.8v0.3c0,0.4-0.4,0.6-1.3,0.8l0.8,1.3l-0.5,1l0.3,0.8
			c-0.3,1.7-1.1,2.5-2.5,2.5c0,0.8-0.6,1.3-1.8,1.3v0.3l0.3,1.3h-0.3l-1.5-0.5l-0.3,0.3v0.5l0.8,0.3c-0.3,1-0.9,1.5-2,1.5v-0.3
			l0.3-0.8l-0.3-0.3h-0.5l-0.5,0.5l0.3,1l-0.3,0.3v0.3l0.5,0.8l1.3-0.8l0.8,0.3l-0.5,2c1.1,0.3,2.1,1.1,3,2.3h2.8v0.3
			c-0.5,0-0.8,0.2-0.8,0.5l0.5,0.5l0.8-0.5l0.8,0.5h1.3v1l-1.3,0.3l0.3,0.3v0.3l-0.5,1l0.3,0.3h0.3l0.8-0.5h0.3l-0.5,0.8l0.8,1v0.3
			c0,0.5-0.8,0.9-2.5,1.3c-1.2-0.3-1.8-0.8-1.8-1.3h-0.3c0,1.2-0.4,2-1.3,2.5l0.5,0.5h0.3c0-0.5,0.2-0.8,0.5-0.8
			c1.5,0.2,2.3,0.5,2.3,1l-1,1.3h-0.3c0-0.5-0.4-0.8-1.3-0.8v1c0.5,0,0.8,0.4,1,1.3l1.3,0.3h0.3v-1.5c0.7,0,1-0.2,1-0.5v-0.5
			l-0.5-0.8v-0.3c0-0.3,0.4-0.5,1.3-0.5c0-0.8,0.4-1.3,1.3-1.5l0.3,0.3v0.3l-1.8,2v0.3l1,1.3v0.8c0,0.3-0.3,0.5-0.8,0.5l0.3,1.3
			c-0.3,0-0.7,1.4-1,4.1l0.8,0.3v0.5c-0.5,0.5-1.1,2.7-2,6.6c-0.6,0.7-1,2.1-1.3,4.3c-0.3,0-2,1.7-5.1,5.1c-3.1,1.9-6.3,3.5-9.4,4.6
			c-0.7-0.3-1.6-0.5-2.8-0.5h-2l-0.3-0.3l-0.3,0.3h-10.2l-0.3,0.3l-0.3-0.3h-2.3l-0.3,0.3l-0.3-0.3h-0.5l-0.8,0.3
			c-2.5-0.2-3.8-0.6-3.8-1.3l0.3-0.8L98,188l0.3-1.8l-0.3-0.3v-0.3l0.5-1l-0.3-0.3v-1.5l0.3-0.3l-0.5-1.8l0.3-2.5l-0.3-0.3v-0.3
			l0.8-2c-0.4,0-0.6-1.4-0.8-4.1h0.3l-0.3-0.3v-2.5l0.3-2l-0.3-2l0.3-2.5l-0.3-1.3l0.8-0.8l-0.3-0.3l-0.3-0.8H98l0.3-1.3
			c0-0.8-0.2-1.3-0.5-1.3l0.3-0.3v-2.8l0.3-1.5l-0.3-0.3v-0.3l0.3-1l-0.3-1.3l0.3-1.3l-0.5-0.5l0.5-1.5l-0.5-2l0.5-2l-0.5-1.3
			L98,139l-0.3-1.3l0.3-1.3l-0.3-1.5l0.5-0.8l-0.5-3l0.3-0.8l-0.3-0.3v-0.3l0.3-1.5l-0.5-0.5l0.3-2.3l-0.3-2.8l0.5-0.8l-0.3-1.8
			v-3.8H98L103.3,115.8z M104,143.3l0.3,0.3h0.5v-1L104,143.3z M108.4,153.7l-0.3,1.5h-1l-0.3-1h-0.3l-1.3,0.3v0.3l0.8,1
			c-0.8,0.4-1.3,1.2-1.3,2.3h1c0.5-0.8,0.8-1.7,0.8-2.5l0.3-0.3h0.3c0.2,0.7,1,1,2.3,1v0.3h-0.8v0.8l0.3,0.3v0.3h-0.5l-0.3-0.3h-0.3
			v0.5l2.5,0.8l1.3-0.3v-0.3l-0.5-0.5l1.8-2.3c-0.5-0.5-0.8-1.1-0.8-1.8h-0.5l-1.8,1l-0.3-0.3v-0.3l0.3-0.3l-0.3-0.3L108.4,153.7
			C108.4,153.7,108.4,153.7,108.4,153.7z M106.3,158.8v0.3h1v0.5l-0.5,0.8l0.8,0.5h0.5V159l-1.3-0.8L106.3,158.8z M106.8,209h0.3
			c1.3,0,1.9,0.3,2,0.8l-0.5,0.5c-1.5-0.2-2.3-0.5-2.3-0.8L106.8,209z M115.5,128.5c0,1.5-0.4,2.3-1.3,2.3v0.8l0.3-0.3h0.3l1,1
			l-0.3,0.3v0.3l-1.5-0.5c-0.2,0.8-0.5,1.3-0.8,1.3h-0.3l-0.3-1.3v-0.3c0-0.3,0.3-0.5,0.8-0.5v-0.3c0-0.3-0.3-0.5-0.8-0.5l-0.3,0.3
			h-0.3l-1-0.3h-0.3v1l0.8,0.8c-0.5,1-0.8,2.8-0.8,5.3v6.3c0,0.3,0.4,0.5,1.3,0.5c0,0.4,0.5,0.8,1.5,1.3v0.3l-0.3,0.3h-1l-0.3-0.3
			c-0.8,0.3-1.2,0.7-1.3,1l0.3,0.3l1.5-0.5c1.2,0.2,1.8,0.8,1.8,1.8c3.8,0,6.3-0.8,7.6-2.5l1-2.5l1.3,0.3c0-0.5,0.5-0.8,1.5-0.8V143
			c0-0.3-0.4-0.5-1.3-0.5l-0.3-1.3l0.3-1l-0.8-0.8l0.3-1.3l-0.3-2.5l0.5-0.5l-0.8-1.3v-0.5l0.5-0.5h0.3v0.8h0.5v-2
			c-0.3,0-0.5-0.4-0.5-1.3h-0.5l-1.5,1.3l-0.3-0.3l0.3-1.3v-0.3l-2.3,0.3l-3.6-1.5L115.5,128.5L115.5,128.5z M113.2,161v0.5
			c-0.6,0.2-1.2,0.6-1.8,1.3l0.3,0.3v0.5l-0.5,0.5l0.3,0.3v0.3l-0.3,1.3h1l-1,3v1.3l0.8,0.8l-0.5,2l1,0.5v0.5c-0.7,0-1,0.2-1,0.5
			l0.5,0.8v0.3l-0.3,0.3v0.3h0.3l-0.5,0.8l0.3,0.3l-0.5,6.6l0.3,1.3h5.1c4.6-1,6.9-2.3,6.9-4.1c0.7-0.3,1.4-2,2-5.1l-0.3-0.3l0.3-2
			l-0.3-3.3h0.3c-1.1-6.1-3.9-9.1-8.6-9.1L113.2,161L113.2,161L113.2,161z M112.7,152.9l0.5,0.5h0.3v-0.5H112.7z M116,134.4l0.5,0.8
			l-0.5,0.5h-0.8v-0.5L116,134.4z M116.7,153.9v0.5h1v-0.5H116.7z M117.5,155.7v0.8h0.8v-0.3l-0.5-0.5H117.5z M123.9,148.3l0.3,1.3
			h0.5l0.5-0.5v-0.5L123.9,148.3z M126.4,153.2l-0.3,1.8h0.5l0.5-0.5v-0.8l-0.5-0.5L126.4,153.2L126.4,153.2z M127.2,132.1v0.3h0.5
			v-0.8L127.2,132.1z M127.7,154.7v0.3l0.3,0.3v0.3l-0.5,0.5v0.5h1l-0.3-1.8L127.7,154.7L127.7,154.7z M128.2,152.4v1h0.3l0.5-0.5
			v-0.5L128.2,152.4L128.2,152.4z M131,151.4v0.8h0.3l0.5-0.5l-0.3-0.3H131z M133.2,158.8v0.3l0.8,1l0.3-0.3h0.3l-0.8-1l-0.3,0.3
			L133.2,158.8z M134,143.3l-0.5,0.8v0.3l0.3,1.3c1.2,0,2-0.4,2.3-1.3L134,143.3z M133.8,176.8v0.3l0.8,0.8l0.3-0.3v-0.8H133.8z
			 M133.8,179.1v0.3h0.8v1.5l0.5,0.5l0.5-0.5v-0.3l-0.3-0.3l0.3-0.3v-0.3c0-0.3-0.3-0.5-1-0.5v-0.8h-0.3L133.8,179.1z M135.3,176.8
			v0.3l0.5,1h0.8l-0.5-1.8h-0.3L135.3,176.8z M136.3,163.6v0.5h0.8l0.5-0.5v-0.3L136.3,163.6z M140.9,123v0.8h-0.3l-0.5-0.5l0.3-0.3
			H140.9z"/>
	</g>
</g>
</svg>
