<?xml version="1.0" encoding="utf-8"?>
<!-- Generator: Adobe Illustrator 19.2.1, SVG Export Plug-In . SVG Version: 6.00 Build 0)  -->
<svg version="1.1" id="Layer_1" xmlns="http://www.w3.org/2000/svg" xmlns:xlink="http://www.w3.org/1999/xlink" x="0px" y="0px"
	 viewBox="0 0 291 226.7" style="enable-background:new 0 0 291 226.7;" xml:space="preserve">
<style type="text/css">
	.st0{fill:#EAECEC;}
	.st1{fill:#FFFFFF;}
</style>
<g id="Inside_Job_Title">
	<g>
		<path class="st0" d="M49.9,208.6H51l3.3,11.7H53l-1-4.1h-3.1l-1,4.1h-1.2L49.9,208.6z M50.5,210l-1.3,5.3h2.6L50.5,210z"/>
		<path class="st0" d="M60.9,224.1h-1v-11.8h1l0.1,1.2c0.3-0.4,0.6-0.8,1-1c0.3-0.2,0.7-0.3,1.1-0.3c0.8,0,1.5,0.4,2.1,1.2
			c0.5,0.8,0.8,1.8,0.8,2.9c0,1.4-0.3,2.5-1,3.2c-0.6,0.8-1.4,1.1-2.1,1.1c-0.3,0-0.6-0.1-0.9-0.2c-0.3-0.1-0.6-0.3-0.8-0.6
			L60.9,224.1L60.9,224.1z M60.9,218.8c0.2,0.3,0.5,0.5,0.8,0.6c0.3,0.1,0.6,0.2,0.8,0.2c0.6,0,1.2-0.3,1.6-0.9s0.6-1.4,0.6-2.3
			c0-0.9-0.2-1.7-0.6-2.3s-0.8-0.9-1.4-0.9c-0.5,0-1,0.3-1.3,0.8c-0.3,0.5-0.5,1-0.5,1.7V218.8L60.9,218.8z"/>
		<path class="st0" d="M67.5,208.6h1v11.7h-1V208.6z"/>
		<path class="st0" d="M71,212.9c0.8-0.5,1.6-0.8,2.1-0.8c0.8,0,1.4,0.3,1.9,0.8c0.4,0.5,0.6,1.2,0.6,2v4.2c0,0.3,0.1,0.5,0.4,0.5
			c0.1,0,0.3-0.1,0.5-0.1v0.9c-0.3,0.1-0.6,0.2-0.8,0.2c-0.8,0-1.1-0.4-1.1-1.3c-0.3,0.4-0.6,0.8-0.9,1s-0.7,0.3-1.1,0.3
			c-0.6,0-1.2-0.2-1.6-0.7s-0.6-1-0.6-1.7s0.3-1.3,0.8-1.8c0.6-0.5,1.7-0.8,3.5-1v-0.7c0-0.5-0.1-0.8-0.4-1.1
			c-0.3-0.3-0.7-0.4-1.1-0.4c-0.6,0-1.3,0.3-2.1,1L71,212.9L71,212.9z M74.6,216.2c-1.4,0.1-2.3,0.4-2.6,0.7
			c-0.3,0.3-0.6,0.7-0.6,1.2c0,0.4,0.1,0.8,0.4,1c0.3,0.3,0.6,0.4,1,0.4c0.5,0,0.9-0.2,1.2-0.6c0.3-0.4,0.5-1,0.5-1.7V216.2
			L74.6,216.2z"/>
		<path class="st0" d="M77,212.3h1.2l2,6.7l1.7-6.7H83l-2.7,9.4c-0.3,1-0.6,1.7-0.9,2.1c-0.3,0.3-0.8,0.6-1.3,0.6
			c-0.2,0-0.4-0.1-0.6-0.2v-1c0.2,0.1,0.4,0.1,0.6,0.1c0.3,0,0.6-0.1,0.8-0.4c0.2-0.3,0.4-0.8,0.7-1.7l0.2-0.6L77,212.3z"/>
		<path class="st0" d="M89.6,208.4v5c0.3-0.4,0.6-0.8,0.9-1c0.3-0.2,0.7-0.3,1.1-0.3c0.8,0,1.5,0.4,2.1,1.2c0.6,0.8,0.8,1.8,0.8,2.9
			c0,1.2-0.3,2.3-0.9,3c-0.6,0.8-1.3,1.2-2.1,1.2c-0.3,0-0.6-0.1-0.8-0.2c-0.2-0.1-0.6-0.3-0.9-0.7l-0.3,0.7h-0.8v-11.9L89.6,208.4
			L89.6,208.4z M89.6,218.7c0.2,0.3,0.5,0.6,0.8,0.7c0.3,0.1,0.5,0.2,0.8,0.2c0.6,0,1.2-0.3,1.6-0.9c0.4-0.6,0.6-1.4,0.6-2.4
			c0-0.9-0.2-1.7-0.6-2.3s-0.8-0.9-1.4-0.9s-1,0.3-1.3,0.8c-0.3,0.5-0.5,1.1-0.5,1.8V218.7L89.6,218.7z"/>
		<path class="st0" d="M95.1,212.3h1.2l2,6.7l1.7-6.7h1.1l-2.7,9.4c-0.3,1-0.6,1.7-0.9,2.1c-0.3,0.3-0.8,0.6-1.3,0.6
			c-0.2,0-0.4-0.1-0.6-0.2v-1c0.2,0.1,0.4,0.1,0.6,0.1c0.3,0,0.6-0.1,0.8-0.4c0.2-0.3,0.4-0.8,0.7-1.7l0.2-0.6L95.1,212.3z"/>
		<path class="st0" d="M105.8,208.6h1.2v5.6l3.7-5.6h1.4l-3.2,4.6l3.5,7.2H111l-2.9-6.1l-1.2,1.7v4.5h-1.2L105.8,208.6L105.8,208.6z
			"/>
		<path class="st0" d="M118.9,219.5c-0.8,0.7-1.7,1-2.5,1c-1,0-1.7-0.4-2.3-1.2c-0.6-0.8-0.9-1.8-0.9-3c0-1.2,0.3-2.3,0.9-3.1
			c0.6-0.8,1.4-1.2,2.3-1.2c0.8,0,1.5,0.3,2,1c0.5,0.6,0.8,1.4,0.8,2.4v0.6h-4.9v0.4c0,1,0.2,1.9,0.6,2.3c0.4,0.6,1,0.8,1.5,0.8
			c0.8,0,1.6-0.4,2.4-1.3L118.9,219.5L118.9,219.5z M118.1,215.1c0-0.7-0.2-1.2-0.5-1.5c-0.3-0.3-0.7-0.5-1.1-0.5
			c-0.4,0-0.8,0.1-1.2,0.5c-0.3,0.3-0.6,0.8-0.8,1.5H118.1z"/>
		<path class="st0" d="M121,212.3h1l0.1,1.2c0.3-0.4,0.6-0.8,1-1c0.3-0.2,0.8-0.3,1.2-0.3c0.7,0,1.2,0.2,1.6,0.7
			c0.4,0.5,0.6,1.1,0.6,1.9v5.7h-1v-5.7c0-0.5-0.1-0.8-0.3-1.1c-0.3-0.3-0.6-0.4-1-0.4c-0.6,0-1,0.2-1.4,0.7c-0.4,0.5-0.6,1-0.6,1.7
			v4.9h-1V212.3L121,212.3z"/>
		<path class="st0" d="M130.4,208.6h1.2l2.6,10.2l2.5-10.2h1.2l-3.2,11.7h-1.1L130.4,208.6z"/>
		<path class="st0" d="M143.7,219.5c-0.8,0.7-1.7,1-2.5,1c-1,0-1.7-0.4-2.3-1.2c-0.6-0.8-0.9-1.8-0.9-3c0-1.2,0.3-2.3,0.9-3.1
			c0.6-0.8,1.4-1.2,2.3-1.2c0.8,0,1.5,0.3,2,1c0.5,0.6,0.8,1.4,0.8,2.4v0.6h-4.9v0.4c0,1,0.2,1.9,0.6,2.3c0.4,0.6,1,0.8,1.5,0.8
			c0.8,0,1.6-0.4,2.4-1.3L143.7,219.5L143.7,219.5z M142.9,215.1c0-0.7-0.2-1.2-0.5-1.5c-0.3-0.3-0.7-0.5-1.1-0.5s-0.8,0.1-1.2,0.5
			c-0.3,0.3-0.6,0.8-0.8,1.5H142.9z"/>
		<path class="st0" d="M145.5,218.6c0.8,0.6,1.5,1,2.3,1c0.6,0,1-0.1,1.4-0.4s0.6-0.6,0.6-1c0-0.3-0.1-0.6-0.3-0.8
			c-0.2-0.2-0.7-0.4-1.4-0.6c-0.8-0.3-1.4-0.6-1.9-0.9c-0.4-0.3-0.6-0.8-0.6-1.4c0-0.7,0.3-1.2,0.8-1.7c0.6-0.4,1.2-0.7,1.9-0.7
			c0.6,0,1.3,0.2,2.1,0.6v1.2c-0.7-0.6-1.4-0.9-2.1-0.9c-0.5,0-0.9,0.1-1.2,0.4c-0.3,0.3-0.5,0.6-0.5,1c0,0.3,0.1,0.6,0.4,0.8
			c0.3,0.2,0.8,0.4,1.4,0.6c1.6,0.4,2.3,1.2,2.3,2.2c0,0.7-0.3,1.3-0.9,1.8c-0.6,0.5-1.2,0.8-2.1,0.8c-0.8,0-1.5-0.3-2.3-0.8
			L145.5,218.6L145.5,218.6z"/>
		<path class="st0" d="M152.8,210h1v2.4h1.5v0.9h-1.5v5.6c0,0.2,0.1,0.4,0.2,0.6c0.1,0.1,0.3,0.2,0.6,0.2c0.2,0,0.5-0.1,0.8-0.3v1
			c-0.3,0.1-0.8,0.2-1.1,0.2c-0.4,0-0.8-0.1-1-0.3c-0.3-0.3-0.4-0.6-0.4-1.2v-5.8h-1.1v-0.9h1.1L152.8,210z"/>
	</g>
	<g>
		<path class="st1" d="M5,98.6h0.5l0.8,0.8v0.5H5.8L5,99.2V98.6z M8.3,22c0.3,0,1.4,2.5,3.3,7.4C11.4,31.8,11,33,10.3,33H9.6v-0.5
			L7.8,22.2L8,22H8.3z M8,98.9l0.3,0.3h0.3l1.3-0.3l0.5,0.5l0.3-0.3H11l1.5,0.5l1.3-0.3l0.5,1l1-0.5l0.3,0.3v0.5l-0.5,0.5l-1-0.3
			l-2,0.5c-0.1-0.4-0.8-0.8-2-1.3l-0.8-0.8L9,99.5H8.6L8,99.2V98.9z M17.4,22.2h4.3c0.9,0,1.6,0.3,2.3,0.8l3-0.8
			c1.2,0,1.9,0.8,2,2.5c-0.3,0.5-0.6,1.5-0.8,3L29,29c0,0.8-0.2,1.3-0.5,1.3l0.3,0.3v0.3l-0.3,1.8l0.8,0.8L28.8,34v0.8l0.5,1.5
			c0.3,0,0.5,0.4,0.5,1.3c0.5,0,0.8,0.2,0.8,0.5v0.3c-1.4,0-2,0.8-2,2.5c-0.8,0.1-1.5,0.5-2,1.3h-0.3c-0.4,0-0.8-1.1-1.3-3.3h-1.3
			L23,38.2c0,0.8-0.8,1.3-2.3,1.3c0-0.4-0.3-0.7-1-0.8c-0.6,0-1.5,0.5-2.8,1.5h-0.8l-0.3-0.8l0.3-2l-0.3-4.1l0.3-0.8h-0.3
			c0.2-1.2,0.5-1.8,0.8-1.8c-0.1-1-0.3-1.7-0.8-2.3v-4.8C15.9,22.7,16.4,22.2,17.4,22.2z M28.9,51.4c1.2,2.9,2,4.4,2.3,4.6l-0.5,1.5
			c0.7,0.2,1,0.7,1,1.5c-0.5,0-0.8,0.3-0.8,1h-0.3c-0.3,0-0.5-0.3-0.5-0.8L29.9,59h-0.3l-1.5,0.8l-1-1.3h-0.3
			c-0.8,0-1.3,0.4-1.3,1.3c-1,0-1.5,0.2-1.5,0.5v0.5l0.8,1.3l1.8-0.3h1c0,0.5,0.4,0.8,1.3,0.8c0.3,1.2,0.6,1.8,1,1.8v0.5
			c-0.7,0-1,0.7-1,2c0.7,0.2,1,0.7,1,1.5l0.8,0.3v0.5L29.9,70c0,0.9,0.3,1.7,1,2.5v0.3l-0.8,1l0.5,0.5l0.8-0.3l0.5,1.3l-0.8,0.5
			l-1-0.3v0.3l0.5,0.5l0.3-0.3h0.3l0.3,0.3v0.8h-0.3l-1.3-0.3v0.8c0.5,0,1,0.6,1.5,1.8l-1.5,1v0.3l0.3,0.3v0.3l-1.5,0.3
			c1.2,0.8,1.8,1.6,1.8,2.3h0.8c0.1-0.7,0.3-1,0.8-1l0.5,0.5l-0.3,0.8l0.8,0.8l-0.3,0.3h0.3l-0.8,1.3l0.3,0.3V87l-1,1.5l-1-0.3h-0.5
			v0.3c0.7,0,1.3,0.4,1.8,1.3V90h-0.8l-1-0.8l-0.5,0.5v0.5l0.3,0.3l-1,3.8l-1.3-0.5h-0.3v0.3c1.4,0.3,2,0.8,2,1.5l-0.5,0.8l0.5,1.5
			v0.8h1.3V99c-0.6,0-1.1,0.3-1.5,0.8l0.3,1.3v1.8c0,0.5-0.3,0.8-1,0.8l-3.6-0.3l-0.3,0.3H24l-1.5-0.5l-0.3,0.3H22l-0.3-0.3
			l-2.5,0.3h-1.3c-1,0-1.5-0.5-1.5-1.5v-5.8l-0.3-2.3l0.5-1.5l-0.3-1l0.5-0.5l5.8,2V92c-3.6-0.9-5.6-1.7-6.1-2.3v-1l0.5-0.5l-0.5-2
			c0-1.3,0.5-2.4,1.5-3.3l0.8,0.5l0.8-2H20v-0.8h-0.8l-0.8,0.5h-0.8c0-0.8-0.5-1.3-1.5-1.3l0.5-1.3l-0.3-2.3l0.3-2l-0.3-1l0.3-1
			L16.4,72v-0.3l0.3-0.3v-0.3l-0.8-2.3h0.5L16.1,67v-0.5c0-0.3,0.3-0.5,0.8-0.5s0.8,0.4,0.8,1.3h2l2.5-0.8v0.8c-0.7,0.8-1,1.7-1,2.5
			l1,0.5l1.5-0.8l0.8,0.8h0.3v-0.8l-1.3-2.3l0.5-1.3h-1.5c0-0.8-0.8-1.5-2.3-2L20,62.8v-0.3c0.5,0,0.8-0.3,0.8-0.8h0.5l0.3,0.3h0.3
			v-0.8l-0.5-0.8v-0.8c0.7,0,1-0.3,1-1h0.3l-0.3-0.3V58l0.3-0.8l-0.3-0.8h0.3l1.8,0.5H26v-0.5c-0.8-0.1-1.3-0.4-1.3-0.8
			s0.5-1.1,1.5-2v-0.5c0.8,0,1.3-0.6,1.3-1.8h0.3l0.8,0.3L28.9,51.4z M23.3,46.1h0.3v0.5c0,0.9-0.8,2.2-2.5,3.8l0.3,1l-0.5,1.5h0.8
			v-0.5h0.8v0.5c0,0.4-1.2,0.7-3.6,1c-1.2-0.3-1.8-0.6-1.8-1v-0.8c0.5,0,0.8-0.2,0.8-0.5v-0.5c-0.7,0-1-0.3-1-0.8
			c0-1.2,1.6-2.2,4.8-3v0.3L23.3,46.1z M17.7,70v1.3H18l1-1L18.7,70H17.7z M19.2,84.2v0.5l1.5,0.3v-0.5L20.2,84L19.2,84.2z
			 M19.5,50.7V52l0.5-0.5v-0.3L19.5,50.7z M21.5,58.5v1H21V59L21.5,58.5z M22,24.5v0.3l0.3,0.3v0.3l-0.3,1c0.3,0.4,0.5,1,0.5,1.8H23
			c0.3,0,0.5-0.3,0.5-0.8s-0.3-1.2-1-2l0.3-0.3v-0.3l-0.3-0.3H22z M22.3,62.6v1.3c0.3,0.8,0.9,1.3,1.8,1.3l0.8-0.8
			c-0.3-1.4-0.8-2-1.8-2L22.3,62.6z M22.5,78.1v0.8H23v-0.8H22.5z M22.8,79.1c0.1,1.4,0.4,2,0.8,2l0.3-0.3v-0.3L23.6,79L22.8,79.1
			L22.8,79.1z M24,28.1v0.5l0.5,0.5l0.3-0.3v-0.5L24,28.1z M24.3,92.8v0.5l2.3,0.5h0.3v-0.3l-2.3-0.8h-0.3V92.8z M25.1,26.3v0.3h1.3
			l0.3-0.8l-0.3-0.3h-0.5L25.1,26.3z M25.1,27.5v1l1,0.5v-0.5c-0.3-0.7-0.5-1-0.8-1H25.1z M25.8,39.2V40h0.8l-0.3-0.8H25.8z
			 M27.3,59.8l0.3,0.3v0.8h-1l-0.8-0.8L27.3,59.8z M26.6,62.6l-0.5,0.8l0.5,0.5l0.5-0.5v-0.3L26.6,62.6z M26.8,66.4v0.5l0.5,0.5
			l0.5-0.5L27,66.4H26.8z M28.4,37.7l0.3,0.3H29l0.5-0.5v-0.3H29L28.4,37.7z M28.6,57.8v0.5h0.3l0.5-0.5H28.6z M32.7,100.9H33
			l0.5,0.5l-0.3,0.3h-0.3l-0.3-0.3L32.7,100.9L32.7,100.9z M33.4,85.4h0.5l0.3,0.3l3.6,2.3v0.5l-1.5-0.8V88L35,87.2l-1.3,0.5
			L33.2,87l0.5-0.8L33.4,86V85.4L33.4,85.4z M39.5,83.2L40,84v0.3L38.7,84L39.5,83.2z"/>
		<path class="st1" d="M29.5,2.5l1.8,0.3v0.5l-0.8,0.8h-0.3C29.8,3.9,29.5,3.4,29.5,2.5z M31.8,10.7l0.5,1.3l-1-0.8L31.8,10.7z
			 M34.1,4.3h0.5v0.8l0.3,1.8h-0.8l-0.8-1.5L34.1,4.3z M35.1,21.3h0.8c0,0.7,0.4,1,1.3,1v1h-0.5C35.6,22.8,35.1,22.1,35.1,21.3z
			 M37.9,10.2L37.1,11h-0.5v-0.5L37.9,10.2z M71.7,20.8c0,0.7,1,1,3,1h0.5l0.3-0.3l0.8,0.3c4.7,0,7.1,0.4,7.1,1.3l0.8,4.8l-0.5,1.5
			l1,1.5v0.8c-0.7,0-1,1.1-1,3.3l0.5,1l-0.8,0.8c0,0.5,0.4,0.8,1.3,0.8c0,2-0.2,3.3-0.5,4.1c0.3,1.2,0.8,1.8,1.5,1.8V44h-1.3
			c-0.3,0-0.6,0.6-0.8,1.8c0.5,1.4,1.3,2,2.3,2v0.5c0,0.5-0.8,0.9-2.3,1.3v1.3l0.3,1l-0.3,0.3v0.3l0.3,1.3l-0.3,1.8l0.3,2.5l-0.3,3
			l0.3,3l-0.3,1.8l0.3,0.3v0.3L83.6,67l0.3,1.5l-0.3,2l0.3,0.3v0.3l-0.3,0.3l0.3,3.8v1.3l-0.3,2.8l0.5,1.3l-0.3,0.8v0.5h0.3
			l-0.5,5.6l0.3,1.8l-0.3,1.3l0.3,2l-0.3,1l0.3,2.8v5.3c0,0.8-0.3,1.4-1,1.5l-0.8-0.3l-3.8,0.3h-4.6l-1-0.3l-1.3,0.5
			c-0.5,0-1.2-1.6-2.3-4.8l-9.1-28c0.3-0.4,0.5-1,0.5-1.8H61v-0.3h-0.3L60,68.8v-0.3l-1-1.3v-0.5l0.3-0.8H59c-0.6,0-1.3-1.9-2-5.6
			l0.5-0.5v-0.3c-1,0-2.1-2.3-3.3-6.9h-0.8v0.3l0.3,1.8l-0.3,1.8h0.3l-0.3,0.8l0.3,2l-0.3,2.3h0.3L53.4,62v0.3l0.3,2.5l-0.3,1.8h0.3
			l-0.5,0.8l0.5,4.1l-0.3,2.3l0.5,1.3l-0.3,4.3v6.3l0.3,8.1L53.6,97l0.3,0.8l-0.3,1.5l0.3,3c-0.2,0.7-0.7,1-1.5,1h-0.5l-2.5-0.3
			l-1.5,0.3l-2.3-0.3l-3.3,0.3c-0.3-0.7-0.5-1.6-0.5-2.8V99l0.3-1.8L41.7,95v-5.1l0.3-1l-0.5-1.3l0.5-1.5l-0.3-1.3l0.3-0.3l-0.3-1.8
			V82l0.3-1.5L41.4,79l0.5-2.5l-0.5-2l0.5-1.3l-0.5-1.3l0.3-1.3l-0.3-3.8V50.5l-0.3-0.3l0.3-0.3v-2.3l-0.3-1.5l0.3-1.3l-0.3-1l0.3-1
			l-0.3-1.3h0.3l-0.3-0.3l0.3-1.3V35l-0.3-0.3l0.5-0.8l-0.5-3.6l0.5-4.3l-0.5-0.8l0.5-1.3l-0.3-1.5h0.3l2.3-0.5h10.7
			c0.3,0,1.6,3.6,3.8,10.9l-1,2l0.8,0.5L59,35v0.3c0.8,2.8,2.1,7.1,3.8,12.7l2.8,9.1l-0.3,0.3H65l-0.3-0.8h-0.5v0.8
			c1.5,0.5,2.3,1.2,2.3,2.3l0.8,2.5L67,62.5V63c2,5.1,3,8.6,3,10.7V75c0.8,0,1.3-1.3,1.3-3.8v-0.8L71,70.1l0.3-0.3L71.1,66v-5.6
			l0.3-1l-0.3-1l0.3-6.9l-0.3-0.8l0.3-1.3l-0.3-4.1l0.5-1.3l-0.3-0.8l0.3-0.3l1,0.5l0.3-0.3l-0.3-0.3v-0.3l0.5-1
			c-0.5,0-0.9-0.8-1.3-2.5h0.5v-0.5L71.5,39c-1.4-1.1-2-2.4-2-3.8c1,0,1.5-1,1.5-3v-1l-0.3-0.3l0.3-0.3l-0.3-3v-0.8l-1-0.3
			c0.2-0.7,0.5-1,1-1v-1.8l-0.5-0.8l0.5-1l-0.3-1.3L71.7,20.8z M42.2,0.3L42.5,0h0.8l1.3,0.3V1l-1,2.5h-0.3
			C42.9,3.6,42.5,2.5,42.2,0.3z M42.5,54.8l-0.3,0.3v0.3l0.3,0.3h0.3l0.3-0.3v-0.3l-0.3-0.3H42.5z M43,13.2v0.3h0.8v-0.8h-0.3
			L43,13.2z M44.7,11.2l-0.3,1l0.3,0.3H45l0.5-0.5L44.7,11.2z M46.3,33.8V34l1.5,1.3l0.8-1.3L48,33.5L46.3,33.8z M48.8,0.3h0.5
			l1,0.8h0.3c0.1-0.7,0.3-1,0.8-1h2l1.5,0.5l0.8,2v2h-0.8c-0.6-0.5-1.1-1.3-1.5-2.3c-0.6,0-1.2-0.3-1.8-1l-2.3,0.5V1.5l-2.5,0.8
			C46.8,0.9,47.4,0.3,48.8,0.3z M50.3,34.8V35h1v-0.3l-0.5-0.5L50.3,34.8z M50.3,42.2l0.3,0.8h0.8v-0.5L50.9,42l-0.3,0.3
			C50.6,42.2,50.3,42.2,50.3,42.2z M50.6,49.8V50h1.8v-1h-1L50.6,49.8z M51.6,51.5v0.8h0.8v-0.8H51.6z M54.1,7.4
			c0.3,0,0.5,0.5,0.5,1.5l0.8,0.8v0.8l-2.8-2.8l0.3-0.3C52.9,7.4,54.1,7.4,54.1,7.4z M53.4,4.8v0.8l-0.5-0.5l0.3-0.3H53.4z M54.9,48
			v0.3l0.5,0.5l0.3-0.3V48H54.9z M56.2,34.3l-0.3,0.3V35l1,0.3l0.3-0.3v-0.5L56.2,34.3z M59,60.9v0.8h0.3l0.5-0.5l-0.3-0.3H59z
			 M60.5,49.5l-0.3,1.3c0.8,0,1.3,0.2,1.3,0.5c0.8-0.3,1.3-0.8,1.3-1.5h-0.3l-1,0.3L61,49.5H60.5z M61.8,60.2V61h0.5l0.5-0.5v-0.8
			h-0.5L61.8,60.2z M61.8,64.2v0.5c0.7,0,1,0.3,1,1h0.8v-0.3c-0.3-0.8-0.7-1.2-1-1.3C62.5,64.2,61.8,64.2,61.8,64.2z M62.3,54.8
			l0.3,0.3v0.3l0.3-0.3h0.5l0.8,0.5h0.3v-0.8c-0.7,0-1-0.2-1-0.5H63L62.3,54.8z M69.9,15.7l0.8,0.8h1l1.8-0.3l0.3,0.3v0.8L72.2,17
			l-0.8,0.3v0.5l0.8,0.8l0.8-0.5h0.3c0,0.5-0.3,1.1-0.8,1.8l-1.3-0.3l-0.8,0.5h-0.8v-0.3c0-0.9,0.5-1.4,1.5-1.5V18
			c-1-0.8-1.6-1.4-1.8-2l0.3-0.3C69.6,15.7,69.9,15.7,69.9,15.7z M69.4,95.7V98l0.5,0.5h0.3l0.3-1.8v-0.3l-0.8-0.8h-0.3V95.7z
			 M69.6,91.9v1.5l0.5-0.5v-1.5L69.6,91.9z M70.1,83.5l-0.3,0.8l0.3,1l-0.3,1h0.5l0.3-2.5l-0.3-0.3H70.1L70.1,83.5z M70.1,75.9v0.3
			l0.3,0.8l-0.3,1.3V82l0.3-0.3l0.3-0.8H71l-0.3-1.8v-0.5l0.3-1.5C70.7,76.3,70.4,75.9,70.1,75.9z M70.6,100v0.8h0.3l0.5-0.5
			l-0.3-0.8L70.6,100z M77.2,10.2h0.5V11c-0.5,0-1,0.3-1.5,0.8L76,11.4v-0.3L77.2,10.2z M77,12.2l0.5,0.5V13l-1,0.3v-0.5L77,12.2z
			 M78.8,35.3v0.8H80l0.3-0.8H78.8z M85.9,15.2l0.8,0.3l0.8-0.3l0.5,0.5h0.3l0.3-0.3h0.3l0.8,1v0.3l-3.6-1L85.9,15.2L85.9,15.2z
			 M86.6,43.9h0.3c1,0,1.5,0.3,1.5,0.8h-0.5l-1.3-0.3V43.9L86.6,43.9z M91,42.9l1.3,0.3v0.5h-2v0.5h-0.8v-0.3c0-0.3,0.5-0.6,1.5-0.8
			V42.9z M93.7,68.8H94v1.8l0.5,0.8v0.3c-1.2,0-1.9-0.3-2-0.8C92.5,69.9,92.9,69.2,93.7,68.8z M96.3,41.9H97l0.3,0.3l0.3-0.3h0.3
			c1,0.3,1.5,0.7,1.5,1L97,43.4l-0.3-0.3h-1l-0.3,0.3h-0.3v-0.3L96.3,41.9z M100.3,42.4c1.5,0.2,2.3,0.4,2.3,0.8l-0.5,0.5l-2.8-0.5
			l0.3-0.3l0.8-0.3L100.3,42.4L100.3,42.4z M104.7,72.9h0.5v0.8h-0.5V72.9z"/>
		<path class="st1" d="M86.8,3.8l1,0.3v0.3c0,0.3-1.2,0.7-3.6,1V5.1C84.3,4.7,85.1,4.3,86.8,3.8z M90.6,55.4v0.8h-0.5v-0.3
			L90.6,55.4z M91.1,3.3l1,0.3v0.5l-0.5,0.5c-0.8-0.2-1.3-0.5-1.3-0.8V3.6L91.1,3.3z M94.9,4.3h0.8L96,5.6h-0.8L94.9,4.3z M106.4,79
			c0.5,0,0.8,0.4,0.8,1.3l1,0.8l-0.8,0.3c0,2.7,0.9,5.5,2.8,8.4v0.5l-0.3,1.5l0.5,2.3l-0.5,3.6l0.3,0.8l-1,2.5h-0.3l-1.5-0.8
			l-0.3,0.8h-0.3c-2.4-0.7-4.3-2.2-5.8-4.6l0.3-1.5l-0.5-0.5h0.2l0.8,0.5l0.3-0.3h0.3c-0.3-0.8-0.8-1.4-1.5-1.8h-0.3
			c-0.3,0-0.5,0.5-0.5,1.5h-0.5c-1.4-1.5-2.7-4.3-3.8-8.4l0.5-0.5c-0.7-0.2-1-0.7-1-1.5v-0.3c0-1.9,0.5-2.8,1.5-2.8
			c0.8,0,1.3-0.3,1.3-1l0.3,0.3h0.3l2.8-0.5l1,0.3C102.8,79.3,104.1,79.1,106.4,79z M109.2,20.8h0.5l1.3,1.5
			c-0.1,1.8-0.4,2.9-0.8,3.3l0.8,1l-0.3,0.3v0.3l0.5,1.5l-0.3,0.8l0.3,1.3c0,1.1-0.7,3-2,5.6c-0.3,0.7-0.5,1.8-0.5,3.3v0.5
			c0,2,0.9,5.2,2.8,9.6l-0.5,0.5c-0.3,0-0.5-0.3-0.5-0.8H110l-0.3,0.3h-0.3c-0.1-0.8-0.4-1.3-0.8-1.3c-0.6,0-1,0.8-1.3,2.5l0.8,0.3
			V51l0.3,0.3h1.5l0.3,1l-0.3,0.3l0.3,1.3v2l0.8,0.3l0.3-0.3v1.3l-0.8,0.8v-0.5h-0.3v0.8l0.3,1.5c-0.2,2.7-0.6,4.1-1,4.1
			c-4.7-4-8-7.5-9.9-10.7c-0.8-1.4-1.3-3.3-1.3-5.8v-0.8L97.7,46v2h-0.3c-0.8,0-1.4-2.2-1.5-6.6l1.5-0.5l-0.3,0.3v0.5l0.3,0.3v0.3
			L97,42.7V43h0.5v1.3l0.5,0.5v-0.3l-0.3-2.3l0.5-0.5c-0.3-0.3-0.5-1.1-0.5-2.5l-0.3-0.3h-0.3L97,40.4c-0.8-0.4-1.3-1.3-1.3-2.5
			c0.3-0.5,0.6-1.7,0.8-3.8H97l-0.3,0.8l0.5,3.3h0.3l0.5-3l-0.5-1c0-2,0.4-3.5,1.3-4.6l0.3,0.3h0.8l-0.3-1.8
			c1.9-3.1,4.8-5.4,8.6-6.9L109.2,20.8z M96.5,4.1L97,4.6l-0.3,0.3v0.3L96,4.8V4.6L96.5,4.1z M98,4.6h0.8l-0.5,0.5H98V4.6z
			 M98.5,82.8v0.8H99v-0.8H98.5z M99.5,84.8v0.8h0.5v-0.8H99.5z M100,47.5v0.8h0.5l0.5-0.5v-0.3H100z M101.8,28.9v0.3
			c0,0.4,0.9,0.8,2.8,1.3l-0.3-0.3v-0.8l0.3-0.3v-0.3l-0.5-0.5v-0.8l0.3-0.3v-0.3h-0.5C102.9,27.7,102.2,28.3,101.8,28.9z
			 M102.3,80.2v1.3h0.5v-0.8L102.3,80.2z M107.6,6.9l0.3,0.3v0.3l-2,1l-0.3-0.3h-0.3l-1.5,0.3L102.5,8V7.6l0.3-0.3V7.1l0.3,0.3h0.8
			l1.5-0.3l0.8,0.3L107.6,6.9z M103.6,86.1l0.3,1.8h0.3l0.3-1.3l-0.5-0.5H103.6L103.6,86.1z M105.1,24.6v0.3h1v-0.3l-0.5-0.5
			L105.1,24.6z M105.9,33.5v0.8h0.5v-0.8H105.9z M106.9,24.4v0.8l0.8,0.8l0.5-0.8l-0.3-1.3h-0.5L106.9,24.4z M109.2,101.6h0.3
			l0.5,0.5h-0.3L109.2,101.6z M109.2,103.9l0.5,0.5v0.3h-0.5V103.9z M112.5,50.5l1.5,2l-2,1.8c-0.4,0-0.7-0.8-1-2.5L112.5,50.5z
			 M111.7,60.9h0.5c1.9,1.1,2.8,2.6,2.8,4.6l0.3,0.3v0.5c-0.3,0-0.5,0.3-0.5,0.8l-0.3,1l-0.3,0.3H114l-3-3v-0.5h1.5v-0.5
			c-0.8-0.8-1.3-1.7-1.3-2.8L111.7,60.9z M114.2,19.8c4,0,8.5,1.2,13.5,3.6l0.8-0.3c0.5,1,1.4,1.5,2.8,1.5l0.3,0.3v0.3l-1.3,1
			c1.5,1.5,2.5,2.3,3,2.3c0,1.2,0.8,1.8,2.5,1.8c0.3,0.8,0.9,1.3,1.8,1.3l0.5-0.5h0.8l-1,1.5l0.8,0.3v0.5h-0.5c0,0.5-0.6,1-1.8,1.5
			l-0.3-0.3h-1.8v0.8c0,0.5,0.3,1.2,1,2v0.3c-0.4,0.8-1.4,1.3-2.8,1.3c-0.3,0-0.5,0.3-0.5,0.8l-0.3,0.3H128c-0.8,0-1.3,0.2-1.3,0.5
			l-0.3-0.3h-0.3l-1.5,0.5v-0.3l-0.3,0.3h-1.5v-0.5l0.3-1.3c-0.4,0-1-1.4-1.8-4.1c-0.6-1.3-2.4-2.7-5.6-4.1v-0.3l-1.3,0.3
			c-1-0.5-1.5-1.1-1.5-2l0.3-2.3l-0.3-1.3l0.5-0.5v-0.5c-0.5-0.6-0.8-1.2-0.8-1.8v-1.8C112.7,20.3,113.2,20,114.2,19.8z M114.5,55.1
			h0.3v0.3l-0.5,0.5H114v-0.3L114.5,55.1z M117.8,55.9h0.5c5.7,4.4,9.9,8.7,12.7,12.9c0,0.4,0.8,1.7,2.3,3.8l0.3,1.5
			c0,0.8-0.6,1.3-1.8,1.3v0.3l1.3,0.8h0.8V76c1,0,1.6,2.4,1.8,7.1c0.2,3.9-1.3,8.4-4.3,13.5c-0.7,0-1.1,0.3-1.3,1l-0.3-0.3H129
			l0.3,1.3c-3.5,2.5-5.9,3.8-7.4,3.8l-0.3-0.3h-0.3l-1,0.3H120v-0.8l-1,1.3h-1.8l-0.8-0.5l-1.5,0.5l-0.5-1.8l0.5-0.8
			c-0.7-0.9-1-2.2-1-3.8c0-3.2,0.5-4.8,1.5-4.8c1.9,0,4-0.9,6.1-2.8c0.9,2.3,1.6,3.6,2,3.8v-0.5c-0.8-2.2-1.3-3.9-1.3-5.3
			c0.5-0.7,0.8-2.6,0.8-5.6h-0.3L123,81v-0.3c-0.9-3.3-2.3-5.8-4.1-7.6l0.3-1.3v-0.5c-0.7,0-1-0.7-1-2l-0.3-0.8h-0.3l0.5-2.8
			l-0.5-0.5v-1.5c0-1.4,0.8-2.5,2.3-3l0.3-0.3v-0.3l-0.3-0.8h0.8v-0.8C119.5,58.7,118.4,57.7,117.8,55.9z M118.3,26.4l-0.3-0.3h-0.5
			c-1.5,0.3-2.3,0.6-2.3,1v0.5l1.8,0.3l2.5-1.5l1.5,0.3h0.3l-2-1H119L118.3,26.4z M117,94v0.3l0.5,0.5l0.3-0.3v-0.3l-0.3-0.3
			C117.5,94,117,94,117,94z M118.6,99l-0.3,1.3v1h0.3l0.5-0.5V99H118.6L118.6,99z M119.1,68.8l-0.5,1l0.8,0.3l0.3-0.3v-0.5
			L119.1,68.8z M120.8,70.3l-0.5,0.8v0.5l0.5,0.5h0.8l1-0.5C122.4,70.8,121.8,70.3,120.8,70.3z M123.1,33.5v0.8h0.3l0.5-0.5v-0.3
			H123.1z M124.4,90.7v0.5h0.3l0.5-0.5H124.4z M124.9,71.1v0.3l1,1h0.5v-1L124.9,71.1z M124.9,89.1v0.5h0.8v-0.5H124.9z M126.2,81
			v0.5l0.5,0.5l1.5-1.3l-0.5-0.5h-0.8L126.2,81z M126.4,67v0.3h0.5l0.3-0.3h0.3l-0.3-0.8L126.4,67z M128.2,68.1v0.3l0.5,0.5v-0.8
			H128.2z M129.7,85.6v0.8h0.8v-0.3l-0.5-0.5H129.7z M131.8,72.9l-0.3,0.8h0.3l0.5-0.5v-0.3H131.8z M131.8,85.3v0.5h0.8v-0.5H131.8z
			 M132.8,77.4v0.8l0.5-0.5v-0.3H132.8z M132.8,79.5v0.3l0.3,0.8h0.8v-0.3L132.8,79.5z M152.1,49.3c0,0.7,0.9,1.6,2.8,2.5l0.5-0.5
			l2,0.3v-1l1.5,0.3l0.8-0.3l0.3,0.3V51l-2.8,1.5h-1.3l-0.3,0.8l-0.8-0.5l-0.3,0.3l-1.5-0.3l-2.8,0.3l-0.5-0.5h-0.3v1.3l-2-0.5
			l-0.5,0.5l-0.3-0.3h-0.3l-1,0.3l-2.8-1.3v0.3l0.3,1v0.3l-0.3,0.3l0.3,0.8l4.1-0.5l0.8,0.3v0.5c-2.4,0.2-3.6,0.6-3.6,1l-1.3-0.3
			l-1.5,0.5l-1.3-0.3v1.3l-1.3-0.3h-0.3c-1.2,1.1-1.8,2-1.8,2.8l-1.3-0.3l0.5,1.5l-1.3,0.3c-0.5-0.2-0.8-0.7-0.8-1.5l1.3-1l0.8,0.3
			l0.8-3.6l-0.3-0.3v-0.3l0.3-1l1.8,0.3v-0.5l1.3,0.3c0-0.7,0.3-1,0.8-1l1.3-1l-0.5-0.5v-0.3l0.8-0.3l0.8,0.3l0.5-1h0.3L144,52
			l-0.3,0.8l0.3,0.3h0.3l0.3-0.3l0.5,0.5h1l3-1.8V51l-0.3-0.3v-0.3L152.1,49.3z M135.3,27.9h0.8v0.3l-0.5,0.5l-0.3-0.3V27.9z
			 M136.3,52.6v0.8h-0.5v-0.3L136.3,52.6z M138.9,32.8h0.8l0.5,0.5l-1.3,0.3V32.8L138.9,32.8z M140.1,31.2l1.5,0.3l0.3-0.3h0.3
			l0.3,1h0.8c0-0.5,0.2-0.8,0.5-0.8v0.3l-0.3,0.3l0.5,1l-0.5,1.5v1.3h-0.3c-0.8-0.2-1.7-1.1-2.8-2.8l0.8-0.3v-0.3l-0.5-0.5l-0.3,0.3
			l-0.8-0.3v-0.3L140.1,31.2z M140.4,55.1l1.3,0.8l0.3-0.3v-0.5l-0.5-0.5H141L140.4,55.1z M144.5,30.7h0.3l1.8,0.5v0.5h-0.8
			L144.5,30.7z M148,31.2l-0.5,0.5h-0.8v-0.3L148,31.2z M151.8,53.6l0.3,0.3h0.3l1.5-0.3c0,0.4,0.3,0.6,0.8,0.5l3.3-0.3
			c0,1-1.1,1.7-3.3,2l-0.8-0.3l-2,0.8h-1c-1.1,0-1.8-0.3-2-1h-0.5V55l1.8-1h0.5c0,0.5,0.2,0.8,0.5,0.8h0.3
			C151.3,54,151.5,53.6,151.8,53.6z M150,31l2.5,0.5V32h-1.8v0.5h-0.5l-1.5-1.3L150,31z M153.1,43.4h0.5v1l-0.5,0.5h-0.8v-0.5
			l-1.8,0.5l-0.3-0.3v-0.3l2.5-0.8L153.1,43.4z M153.6,49.3h0.3c1,0,1.5,0.5,1.5,1.5V51h-0.8l-1-1.3V49.3z M154.6,31.5h0.5l0.5,0.5
			l-0.3,0.3H155l-1-0.3L154.6,31.5z M159.2,42.4h1v0.5l-3,0.3h-0.8l-0.5,1.8h-0.3l-1.5-1.5C154.6,42.7,156.3,42.4,159.2,42.4z
			 M156.7,44.2l0.8,0.3V45h-1v-0.3l0.3-0.3L156.7,44.2L156.7,44.2z M158.4,53.6h0.8l0.3,0.3v0.3h-0.3l-0.8-0.3V53.6z M159.2,39.9
			c1,0.2,1.5,0.4,1.5,0.8l-0.3,0.3H160l-0.8-0.8V39.9L159.2,39.9z M162.5,35.3l0.8,0.8v0.5l-1.3-0.3v-0.5L162.5,35.3z"/>
		<path class="st1" d="M137,98.6h0.5l0.8,0.8v0.5h-0.5l-0.8-0.8V98.6z M140.3,22c0.3,0,1.4,2.5,3.3,7.4c-0.2,2.4-0.6,3.6-1.3,3.6
			h-0.8v-0.5l-1.8-10.2L140,22H140.3z M140.1,98.9l0.3,0.3h0.3l1.3-0.3l0.5,0.5l0.3-0.3h0.3l1.5,0.5l1.3-0.3l0.5,1l1-0.5l0.3,0.3
			v0.5l-0.5,0.5l-1-0.3l-2,0.5c-0.1-0.4-0.8-0.8-2-1.3l-0.8-0.8l-0.3,0.3h-0.3l-0.5-0.5L140.1,98.9L140.1,98.9z M149.5,22.2h4.3
			c0.9,0,1.6,0.3,2.3,0.8l3-0.8c1.2,0,1.9,0.8,2,2.5c-0.3,0.5-0.6,1.5-0.8,3l0.8,1.3c0,0.8-0.2,1.3-0.5,1.3l0.3,0.3v0.3l-0.3,1.8
			l0.8,0.8l-0.5,0.5v0.8l0.5,1.5c0.3,0,0.5,0.4,0.5,1.3c0.5,0,0.8,0.2,0.8,0.5v0.3c-1.4,0-2,0.8-2,2.5c-0.8,0.1-1.5,0.5-2,1.3h-0.3
			c-0.4,0-0.8-1.1-1.3-3.3h-1.3l-0.8-0.5c0,0.8-0.8,1.3-2.3,1.3c0-0.4-0.3-0.7-1-0.8c-0.6,0-1.5,0.5-2.8,1.5h-0.8l-0.3-0.8l0.3-2
			l-0.3-4.1l0.3-0.8H148c0.2-1.2,0.5-1.8,0.8-1.8c-0.1-1-0.3-1.7-0.8-2.3v-4.8C148,22.7,148.5,22.2,149.5,22.2z M160.9,51.4
			c1.2,2.9,2,4.4,2.3,4.6l-0.5,1.5c0.7,0.2,1,0.7,1,1.5c-0.5,0-0.8,0.3-0.8,1h-0.3c-0.3,0-0.5-0.3-0.5-0.8l-0.3-0.3h-0.3l-1.5,0.8
			l-1-1.3h-0.3c-0.8,0-1.3,0.4-1.3,1.3c-1,0-1.5,0.2-1.5,0.5v0.5l0.8,1.3l1.8-0.3h1c0,0.5,0.4,0.8,1.3,0.8c0.3,1.2,0.6,1.8,1,1.8
			v0.5c-0.7,0-1,0.7-1,2c0.7,0.2,1,0.7,1,1.5l0.8,0.3v0.5l-0.8,0.8c0,0.9,0.3,1.7,1,2.5v0.3l-0.8,1l0.5,0.5l0.8-0.3l0.5,1.3
			l-0.8,0.5l-1-0.3v0.3l0.5,0.5l0.3-0.3h0.3l0.3,0.3V77h-0.3l-1.3-0.3v0.8c0.5,0,1,0.6,1.5,1.8l-1.5,1v0.3l0.3,0.3v0.3l-1.5,0.3
			c1.2,0.8,1.8,1.6,1.8,2.3h0.8c0.1-0.7,0.3-1,0.8-1l0.5,0.5l-0.3,0.8l0.8,0.8l-0.3,0.3h0.3l-0.8,1.3l0.3,0.3V87l-1,1.5l-1-0.3H162
			v0.3c0.7,0,1.3,0.4,1.8,1.3V90H163l-1-0.8l-0.5,0.5v0.5l0.3,0.3l-1,3.8l-1.3-0.5h-0.3v0.3c1.4,0.3,2,0.8,2,1.5l-0.5,0.8l0.5,1.5
			v0.8h1.3V99c-0.6,0-1.1,0.3-1.5,0.8l0.3,1.3v1.8c0,0.5-0.3,0.8-1,0.8l-3.6-0.3l-0.3,0.3h-0.3l-1.5-0.5l-0.3,0.3H154l-0.3-0.3
			l-2.5,0.3H150c-1,0-1.5-0.5-1.5-1.5v-5.8l-0.3-2.3l0.5-1.5l-0.3-1l0.5-0.5l5.8,2V92c-3.6-0.9-5.6-1.7-6.1-2.3v-1l0.5-0.5l-0.5-2
			c0-1.3,0.5-2.4,1.5-3.3l0.8,0.5l0.8-2h0.3v-0.8h-0.8l-0.8,0.5h-0.8c0-0.8-0.5-1.3-1.5-1.3l0.5-1.3l-0.3-2.3l0.3-2l-0.3-1l0.3-1
			l-0.3-0.3v-0.3l0.3-0.3V71l-0.8-2.3h0.5l-0.3-1.8v-0.5c0-0.3,0.3-0.5,0.8-0.5s0.8,0.4,0.8,1.3h2l2.5-0.8v0.8c-0.7,0.8-1,1.7-1,2.5
			l1,0.5l1.5-0.8l0.8,0.8h0.3v-0.8l-1.3-2.3l0.5-1.3h-1.5c0-0.8-0.8-1.5-2.3-2l-0.3-1.3v-0.3c0.5,0,0.8-0.3,0.8-0.8h0.5l0.3,0.3h0.3
			v-0.8l-0.5-0.8v-0.8c0.7,0,1-0.3,1-1h0.3l-0.3-0.3v-0.3l0.3-0.8l-0.3-0.8h0.3l1.8,0.5h1.5v-0.5c-0.8-0.1-1.3-0.4-1.3-0.8
			s0.5-1.1,1.5-2v-0.5c0.8,0,1.3-0.6,1.3-1.8h0.3l0.8,0.3L160.9,51.4z M155.3,46.1h0.3v0.5c0,0.9-0.8,2.2-2.5,3.8l0.3,1l-0.5,1.5
			h0.8v-0.5h0.8v0.5c0,0.4-1.2,0.7-3.6,1c-1.2-0.3-1.8-0.6-1.8-1v-0.8c0.5,0,0.8-0.2,0.8-0.5v-0.5c-0.7,0-1-0.3-1-0.8
			c0-1.2,1.6-2.2,4.8-3v0.3L155.3,46.1z M149.7,70v1.3h0.3l1-1l-0.3-0.3H149.7z M151.3,84.2v0.5l1.5,0.3v-0.5l-0.5-0.5L151.3,84.2z
			 M151.5,50.7V52l0.5-0.5v-0.3L151.5,50.7z M153.5,58.5v1H153V59L153.5,58.5z M154,24.5v0.3l0.3,0.3v0.3l-0.3,1
			c0.3,0.4,0.5,1,0.5,1.8h0.5c0.3,0,0.5-0.3,0.5-0.8s-0.3-1.2-1-2l0.3-0.3v-0.3l-0.3-0.3C154.6,24.5,154,24.5,154,24.5z M154.3,62.6
			v1.3c0.3,0.8,0.9,1.3,1.8,1.3l0.8-0.8c-0.3-1.4-0.8-2-1.8-2L154.3,62.6z M154.6,78.1v0.8h0.5v-0.8H154.6z M154.8,79.1
			c0.1,1.4,0.4,2,0.8,2l0.3-0.3v-0.3l-0.3-1.5L154.8,79.1L154.8,79.1z M156.1,28.1v0.5l0.5,0.5l0.3-0.3v-0.5L156.1,28.1z
			 M156.3,92.8v0.5l2.3,0.5h0.3v-0.3l-2.3-0.8h-0.3V92.8z M157.1,26.3v0.3h1.3l0.3-0.8l-0.3-0.3h-0.5L157.1,26.3z M157.1,27.5v1
			l1,0.5v-0.5c-0.3-0.7-0.5-1-0.8-1H157.1z M157.9,39.2V40h0.8l-0.3-0.8H157.9z M159.4,59.8l0.3,0.3v0.8h-1l-0.8-0.8L159.4,59.8z
			 M158.6,62.6l-0.5,0.8l0.5,0.5l0.5-0.5v-0.3L158.6,62.6z M158.9,66.4v0.5l0.5,0.5l0.5-0.5l-0.8-0.5H158.9z M160.4,37.7l0.3,0.3
			h0.3l0.5-0.5v-0.3H161L160.4,37.7z M160.6,57.8v0.5h0.3l0.5-0.5H160.6z M164.7,100.9h0.3l0.5,0.5l-0.3,0.3H165l-0.3-0.3V100.9z
			 M165.5,85.4h0.5l0.3,0.3l3.6,2.3v0.5l-1.5-0.8V88l-1.3-0.8l-1.3,0.5l-0.5-0.8l0.5-0.8l-0.3-0.3V85.4L165.5,85.4z M171.6,83.2
			l0.5,0.8v0.3l-1.3-0.3L171.6,83.2z"/>
		<path class="st1" d="M194.7,20.5l6.1,2h0.3l3.3-0.5l0.5,0.5h1l0.3-0.3h0.3V23l-2.3,0.8v0.3c0.1,0.5,1.2,0.9,3.3,1.3l0.3,0.3
			l0.3-0.3v-0.3c3.3,0.5,5.3,1.1,5.8,1.5h0.5c0.8,0,1.3-0.2,1.3-0.5l0.3,0.3h1.8l0.3-0.3h0.3l0.3,0.3v0.3h-0.5v0.8l1,0.3l-0.5,1
			h-0.3l-2-0.5h-0.3c0,0.5-0.3,0.8-0.8,0.8l-2.3-0.5c-0.6,0.2-1,0.8-1.3,1.8l0.3,0.3h0.5l-0.3-0.3v-0.3l0.5-0.5h0.8l0.8,0.5h0.5
			c0.6,0,1.3-0.3,2-1l0.8,0.5l0.8-0.5h1.3c0,0.7-0.5,1.4-1.5,2v0.3h-1.3c0-0.5-0.2-0.8-0.5-0.8h-0.5v0.5l3,2h1l0.8-0.5l-0.3-0.8h-1
			c0,0.5-0.3,0.8-1,0.8v-0.8c0-0.3,0.8-0.7,2.5-1c0,1.3,0.7,2.3,2,3l-0.3,0.3h-1.5v-0.5h-0.5l-1.8,1l0.8,1.5h1l0.3-1
			c0.6,0.2,0.9,0.5,1,1h0.5v0.5c-0.7,0-1,0.7-1,2c0.7,0.9,1,1.7,1,2.3c0.8-1,1.7-1.5,2.8-1.5h1l0.5,0.5v0.3c-1.2,0-1.8,0.4-1.8,1.3
			h-0.5c0-0.5-0.2-0.8-0.5-0.8l-1.3,1v0.5l0.5,0.5h0.5l0.8-0.8c1.9,0.1,2.8,0.4,2.8,0.8V43c-1.3,0-2.1,0.4-2.5,1.3l-1.8,0.5
			l-0.8-0.3c0,0.5-0.8,0.9-2.5,1.3l-0.8-0.3v0.3l-0.3,0.3l0.3,0.8l1.5-0.3l0.8,0.3v0.3l-1.3,0.3h-2l-0.3-0.3l-1.5,0.3V48l1,0.3
			l1.3-0.3h1l0.8,0.5l0.8-0.5h0.3l0.5,0.5l-0.5,0.5v0.5l0.5,0.5v-0.3l2,1V51h-0.3l-0.8-0.5h-0.3l-3,1.8l0.8,0.8v0.3l0.3-0.3h0.8
			l0.5,0.5v0.3h-0.3l-1.3-0.3l-0.5,0.5h-0.3c-0.3,0-0.6-0.6-0.8-1.8L216,52l-0.5,0.5c0,0.5,0.8,0.8,2.5,0.8l0.3,0.3v0.3l-0.3,0.3
			l-0.3-0.3h-0.3c-1.9,0.4-2.8,0.8-2.8,1.3l0.3,2l-0.8,0.8l0.3,1l-0.3,0.3h-0.3l-1.3-0.3l-0.8,0.3l0.5,0.5l1-0.3
			c0,0.7,0.3,1.7,1,2.8v0.5l-0.5,0.8c0.1,1,0.4,1.5,0.8,1.5l0.8-0.3v0.3l-0.3,1l1,0.8l-0.5,1.5l0.5,0.5V69c0,0.3-0.7,0.6-2,0.8V70
			l0.3,0.3h0.3L214,71c0.1,1.1,0.5,2.1,1.3,3l-2.3,4.3l1.3,0.5v0.5c0,0.5-0.3,0.8-1,0.8v0.5c0,0.3,0.3,0.5,0.8,0.5l-0.5,2v0.5
			c0,0.3,0.5,0.5,1.5,0.5v1l-1,0.5l-0.3-0.3V86h0.5v0.3l-0.3,0.3v0.3l1,0.8l-0.8,0.3l-1-0.3l-0.3,0.3l0.3,1.3v0.3
			c-0.8,0.6-1.3,1.2-1.3,1.8c-0.8,0.8-1.4,1.8-1.8,3c-5.3,5.4-10,8.1-14,8.1l-2.8,0.5l-1-0.3h-0.5v0.3l-1.3-0.3h-4.1l-1.5,0.3
			l-1-0.3l-1.3,0.3c-2.4-0.2-3.6-0.6-3.6-1.3l0.3-1.5v-0.3h-1.8l-2,1.8h-0.3c0-0.4-0.3-1-1-1.8v-0.3l-0.3-3.3l0.3-1l-0.3-1.8
			c0-1.2,0.3-1.8,0.8-1.8v-0.8h-0.5v-1.5h0.3l1.5,0.5l-0.3-1.3l0.3-0.8h-0.5v-0.3l0.3-0.8l-1.5-0.3v-0.8l-0.3-1l0.3-1l-0.3-0.3
			l0.5-0.5v-0.3c-0.3-0.3-0.6-1.5-0.8-3.6l0.5-6.6l-0.3-1.3l0,0l0.8-0.8l-0.3-1.3v-0.5l1.8-0.3h0.8c0.4,0,0.7,0.8,0.8,2.5l-0.3,2.3
			c0.3,0.7,0.5,1,0.8,1h0.3c0-0.5,0.3-0.8,0.8-0.8c0.7,0.2,1,0.7,1,1.5v0.3l-0.8,1l0.3,0.8h0.5c0.5-1.5,1.1-2.3,1.8-2.3v-0.5
			l-0.3-0.3l0.5-2.3l-0.3-0.8c1.1,0,2.2-0.8,3.3-2.3c0-0.5,0.3-0.8,0.8-0.8c0-0.8,0.2-1.3,0.5-1.3V66c-0.5-0.6-0.8-1.2-0.8-1.8v-0.3
			l1.3-0.3l1.3,1.3c-0.7,0.6-1.2,1.4-1.5,2.3l0.3,0.3h0.3l1.3-0.3v0.3c0,0.4-0.5,1.1-1.5,2v0.8l0.5,0.8v0.3l-0.8,2
			c0.4,0,0.7,0.6,1,1.8h0.5c0-1,0.3-1.5,1-1.5v-1.3c0.3,0,0.6,0.4,0.8,1.3l-0.5,0.8l0.3,0.3v0.3l-0.5,1l0.5,0.5v0.3
			c-0.7,0-1,0.7-1,2l-0.8-0.8v-0.3l0.5-0.8h-0.3c-0.5,0-1.1,1-1.8,3v0.3l1.3,0.3h1v0.5l-1.5,1.5v0.3l0.8,2h-1.3l0.3-0.3V84h-0.3
			l-0.5,0.5c0.5,0,0.8,0.8,1,2.5l0.5,0.5v0.8c-0.7,0-1,0.2-1,0.5c0.3,0,0.5,0.4,0.5,1.3l0.3,0.3h1.8l1.3,0.3c4.5,0,7.6-1.3,9.1-3.8
			l1-4.6l-0.3-0.3v-4.3l0.5-1.8l-0.5-0.5l0.5-2.3l-0.5-2.8l0.3-0.8l-0.3-1l1.3-0.5l1,0.3h0.5l-1-1l-0.3,0.3H202
			c-0.4,0-0.6-0.4-0.8-1.3l0.5-1h-0.5v0.5h-0.8v-0.3l0.5-1.5l-0.3-0.3c0-0.4,0.8-0.9,2.5-1.5v-0.5l-0.8-0.8h-1.5v-0.8
			c0.5,0,0.8-0.3,0.8-1h0.3c-0.2-0.8-0.6-1.4-1.3-1.8l-0.3-0.3v-0.3l1-1l-0.5-1l1.5-0.3v-1l-0.3-0.3V53h0.5v-0.3h-0.3l-2,0.5v-0.8
			c0-0.3,0.5-0.5,1.5-0.5v-0.5c-1,0-1.5-0.5-1.5-1.5v-3.6c0-1.4,0.5-2,1.5-2V44c-1-0.8-1.5-1.5-1.5-2.3v-2l-0.8-1.3l0.3-1
			c-1-1.4-2-2-3-2c-0.5,0-0.8-0.3-0.8-0.8h-0.5l-0.5,0.5l0.5,0.5L195,37l-0.3-0.3h-0.3l-0.3,0.3H194c0-0.7-0.3-1-0.8-1l-0.5-0.5
			l0.8-0.5l1,0.3l-1-0.8V34h-0.3c-0.6,0-1.1,0.3-1.8,0.8h-0.3l-2.3-1.3l-0.8,0.3l0.8,2.5h0.8l0.3-1.3h0.8v0.3c0,1.1-0.3,1.9-1,2.5
			v0.5l1,0.3v-0.3l0.3,0.3h0.8c1,0,1.5-0.5,1.5-1.5h0.8v0.8h0.5l0.3-0.3h0.3v0.8c-1,0-2.2,0.7-3.8,2c-0.5,0-0.8-0.3-0.8-0.8h-0.3
			l-0.3,0.3h-0.3l0.3,0.3V41l-0.5,0.8v0.3l0.8,1.3l-0.3,0.8l-1-0.3c-1,0.2-1.5,0.4-1.5,0.8s0.3,0.5,0.8,0.5l0.3,0.3V46
			c-0.7,0.1-1,0.3-1,0.8v0.3c0.5,0,0.8,0.2,0.8,0.5c-0.5,0.6-0.8,1.2-0.8,1.8c0.8,0,1.3,0.3,1.3,1c-1.4,0.5-2,1.1-2,1.8l0.8,1.3
			l-0.3,0.3l0.3,0.3v0.8l-0.3-0.3h-0.3l-0.3,0.8l0.5,1.5c-0.5,0.2-0.8,0.7-0.8,1.5l0.3,0.3l0.3-0.3h0.3l0.5,0.5v0.3h-0.5v0.3
			c-0.4,0-1.7-0.8-3.8-2.3l0.8-2V54c-0.3-1.2-1.1-1.8-2.3-1.8l-1.3,0.3c-1.1-2.4-2.2-3.6-3.3-3.6c-0.5,0-0.8,0.5-0.8,1.5H176
			c0-0.7-0.4-1-1.3-1l-0.8-2.3l0.3-1.5v-0.8h0.5V44l-0.8-1v-1l0.3-0.8l-0.3-1.3v-4.8l-0.3-0.3l0.3-0.3V34l-0.3-1.3l0.3-1l-0.3-5.8
			c-0.1-2.8,0.1-4.3,0.8-4.3l8.9-0.5l1,0.5l2-0.5h3.6l0.8,0.5c0.4-0.5,1.4-0.8,3-0.8l0.3-0.3L194.7,20.5z M174.9,62.7l0.5,1.3h-0.8
			l-0.3-0.3H174C174.4,63,174.7,62.7,174.9,62.7z M174.4,65.4c0.7,0.2,1,0.6,1,1.3h-0.3l-0.8,0.3l-0.3-0.3V66l0.3-0.3L174.4,65.4
			L174.4,65.4z M178.5,50.7l0.3,0.8c0,0.5-0.5,0.8-1.5,0.8v1H177c-0.6-0.5-1.3-0.8-2.3-0.8l-0.3-0.3V52l1-0.8l1.5,0.5L178.5,50.7z
			 M175.4,25.1v0.8h0.3l0.3-0.8H175.4z M175.9,81.7l0.5,0.5l0.3-0.3v-0.3C176.7,81.7,175.9,81.7,175.9,81.7z M175.9,101.8h0.3
			l0.8,0.3v0.5h-0.5l-0.5-0.5v-0.3H175.9z M176.2,70v0.3l0.5,0.5l0.3-0.3v-0.3l-0.3-0.3C176.7,70,176.2,70,176.2,70z M178.2,76.9
			v0.8h0.5l0.5-0.5l-0.3-0.3H178.2z M179.8,48.4v0.5l0.5,0.5l0.3-0.3v-0.8C180.5,48.4,179.8,48.4,179.8,48.4z M182.8,75.9
			c-0.5,0.6-0.8,1.2-0.8,1.8v0.5h0.5c1.5-0.3,2.3-0.8,2.3-1.3C184,76.2,183.4,75.9,182.8,75.9z M183.8,82.7l-0.3,0.3v0.8l0.8,0.3
			l0.3-0.3V83L183.8,82.7z M184.8,25.8v0.3c0.5,0.8,1.1,1.3,1.8,1.3v-1l-0.5-0.5L184.8,25.8L184.8,25.8z M184.8,65.2h0.3
			c0.5,0.2,0.8,0.7,0.8,1.5l-0.5,0.5L184.8,65.2z M185.3,80.2V81h0.3l0.8-0.8H185.3z M186.4,61.1v0.8l-0.5,1h-0.3v-1L186.4,61.1z
			 M187.1,27.6v0.5h0.8v-0.5H187.1z M189.2,26.6v0.3h0.8v-0.5L189.2,26.6z M190.7,26.9v1c0.6,0,1.4,0.4,2.5,1.3h0.3
			c-0.1,0.8-1,1.4-2.5,1.8l-0.3,0.3v0.5l2,1.3h0.3c0.9-0.9,2.1-1.7,3.6-2.5l2,0.5l0.3-0.3V30l-1.3-1l-1,0.8l-1.5-1.8h-1.8
			C193.2,27.2,192.4,26.9,190.7,26.9z M190.7,49.5h1l-0.5,0.5h-0.5V49.5L190.7,49.5z M193.5,25.6v1.5h0.5v-0.5h0.3
			C194,25.9,193.7,25.6,193.5,25.6z M194,23v0.8h0.8V23H194z M196,66.5h0.3V67l-0.5,0.5l-0.3-0.3V67L196,66.5z M197,24.3l0.3,0.3
			h0.5l0.5-0.5v-0.3h-0.8L197,24.3z M201.1,34.2V35c1,0.3,1.5,0.8,1.5,1.5h0.5c0-0.7,0.3-1,0.8-1h0.3V35l-1.5-0.5l-1,0.3L201.1,34.2
			z M202.1,26.6l-0.3,0.3c0.5,1.6,0.9,2.5,1.3,2.5h0.5v-0.3C203.6,27.4,203.1,26.6,202.1,26.6z M203.1,58.8v1.3h0.3l0.8-0.8v-0.5
			H203.1z M204.4,57.1l-0.3,0.3v0.8h0.5l0.5-0.5L204.4,57.1z M204.6,28.1v1l1,1h1v-0.8l0.3-1.3l-0.3-0.3h-0.3L204.6,28.1z M213,45.4
			l-0.8-0.5H212c-2.2,1.1-3.3,1.7-3.3,2s1.1,0.9,3.3,1.8c0.2,0.7,0.7,1,1.5,1V50l0.8-0.3l-0.3-1.3c0.7,0,1-0.6,1-1.8h0.5
			c0-0.5,0.2-0.8,0.5-0.8l0.3,0.3h0.3l0.5-0.8l-2-1C214.5,44.4,213.8,44.7,213,45.4z M209,55l0.5,1.5l-0.8,1.3v0.8l1.3-0.3
			c0.3,0.7,0.5,1,0.8,1h0.3l0.8-2h-1.3V57l0.5-0.8v-0.5c-0.7,0-1-0.4-1-1.3l0.5-0.5l-0.8-0.5c-0.3,0-0.5,0.5-0.5,1.5L209,55L209,55z
			 M209,43.1v0.8h0.5v-0.3L209,43.1z M210.2,30.7l0.3,1.3v0.8h0.5v-0.3l-0.3-1.8H210.2z M212,46.2l0.3,0.3v0.3l-0.3,0.3h-0.5v-0.3
			L212,46.2z M212.5,60.1l-0.8,1.3v0.5h1l0.5-0.5l-0.8-0.8l0.5-0.5H212.5z M212.8,47.7h0.3v0.5h-0.8L212.8,47.7z M212.8,34v0.3h0.8
			l0.5-0.5v-0.3h-0.8L212.8,34z M214,52v0.5l0.5,0.5l0.5-0.5l-0.8-0.5H214z M214.8,48.7v0.8h0.3l0.3-0.8H214.8z M215.3,33.7L215,34
			v0.5h0.3l0.5-0.5l-0.3-0.3H215.3z M218.9,41.3h-0.5l-0.8-0.5h-0.3l-1.5,1.3l0.3,0.3v0.3l1.3-0.3h3.6v-0.5h0.3l-0.3-1.3L218.9,41.3
			z M215.8,48.9v0.8h0.8v-0.8H215.8z M218.9,37.5c0.2,0.5,0.7,0.8,1.5,0.8h0.3l-1-1.5L218.9,37.5z M219.1,39.3v0.3h0.5v-0.8
			L219.1,39.3z M219.9,26.9l1,0.3v1.3c0,0.9-0.3,1.4-0.8,1.5l-0.3-1l0.5-0.5c0-0.3-0.3-0.5-0.8-0.5l-0.3-0.3v-0.3L219.9,26.9z
			 M222.7,25.8l1.8,0.8l0.5-0.5l0.5,0.5v0.5h-0.3l-1.8-0.3l-0.8,1c0-0.5-0.4-0.7-1.3-0.8v-0.3C221.7,26.2,222.2,25.8,222.7,25.8z
			 M222.7,28.1l0.8,0.3v1H223L222.7,28.1z M224.4,49.5h0.5c0.4,0.3,1,0.5,1.8,0.5v0.8l-0.5,0.5h-1C224.8,51.2,224.6,50.6,224.4,49.5
			z M225.5,28.6l0.8,0.8l-0.3,0.3h-1v-0.5L225.5,28.6z M227.5,26.1h0.8v0.3l-1.3,0.3L227.5,26.1z M228.5,46.4h0.3v0.8h-0.5l-0.3-0.3
			h-0.3l-0.3,0.3l-0.3-0.3v-0.3L228.5,46.4z M232.8,46.2h0.8l0.5,0.5l-2,0.5l-0.3-0.3v-0.3L232.8,46.2z M234.6,45.9h0.8v0.5h-0.8
			V45.9z"/>
		<path class="st1" d="M232.8,20c0.9,0.7,2.4,1,4.3,1l0.8-0.3c1.9,0.4,2.8,0.9,2.8,1.5l-0.3,0.8l0.3,2.8v0.8c0,2-0.3,3-0.8,3
			l0.5,3.3v3.3c0,1.7-0.2,2.5-0.5,2.5l0.3,1.3v1.8l0.3,0.3v0.3l-0.5,0.5v1l0.3,1.3l-0.5,0.5l1.3,1.3h0.3c0.3,0,0.5-0.3,0.5-0.8
			l0.3-0.3h0.3l0.8,0.8L243,47v0.3l-0.3-0.3H242l-0.5,0.5V48h1.8v0.3c-0.1,0.6-0.6,1.1-1.5,1.5h-0.3l-0.5-0.5h0.3
			c-0.4-1-0.7-1.5-1-1.5l-0.8,0.5l0.3,1.3V50l-0.3,2.3l0.5,1.3c-0.4,0.5-1.1,0.8-2,0.8v0.3l0.8,2.3l-0.3,1.5c0.5,0,1,1.2,1.3,3.6
			h0.3c0-1,0.2-1.5,0.5-1.5l1.8,0.3v-0.3l-1.3-3.8c1.9,0,3.1,1.5,3.6,4.6h0.3c1.7,0,2.5-0.7,2.5-2c0-1.2,0.7-2.1,2-2.8l0.5-1
			l3.3-0.3l3.8,0.8l1-0.3c1,0.2,1.5,0.4,1.5,0.8c0,0.8-0.5,1.5-1.5,2l-0.8-0.5H257l-0.5,0.5v0.8l0.5,0.8v0.5c-0.5,0-0.8,0.6-0.8,1.8
			c-1,0-1.7,1.1-2,3.3c-1.2,1.7-1.9,2.5-2.3,2.5l-1-0.8l-0.5,0.5h-0.3c-1.9,0-2.8-1.5-2.8-4.6c0-1.2-0.2-1.8-0.5-1.8h-1.3
			c-1.2,0.4-1.8,1.6-1.8,3.6l0.3,2.3c-0.7,0.7-1.4,1-2,1c-1.2,0-1.8-0.8-1.8-2.3l-0.3-1.5h-0.3l-0.5,3l0.3,0.8l-0.5,1l0.5,3
			l-0.3,0.3v0.3l0.3,1l-0.3,2.8c0.1,1,0.3,1.5,0.5,1.5l-0.3,0.3V79l0.3,1.3c-0.1,1-0.3,1.5-0.5,1.5l0.5,3.8l-0.3,2.8l0.3,0.3h-0.3
			l0.5,1.8l-0.3,3.3h0.3l-1.3,3c2,2.2,3,3.9,3,4.8c0,0.8-1.2,1.3-3.6,1.3H230l-0.8-0.5H229l-0.3,0.3h-0.3l-0.5-0.8v-0.8h0.3l1.3,0.3
			v-1l-0.8-3l0.8-0.8c0-0.8-0.5-1.4-1.5-1.8v-0.3c0.8,0,1.3-0.2,1.3-0.5v-0.5c-0.6,0-1.1-1.1-1.5-3.3l0.3-0.3v-0.3l-0.3-1.3l0.3-2.3
			l-0.3-2.3l0.3-0.3V83l-0.3-1v-0.5h0.8V81l-1-0.3l0.3-1.3l-0.3-4.8l0.5-2.3l-0.5-2l1-1.5v-0.3l-0.8-1.3l0.5-6.1
			c-0.3,0-0.6-0.5-0.8-1.5l0.8-3.6l-0.8-0.3v-0.5c0-0.3,0.3-0.5,0.8-0.5l0.3-0.3V54c0-0.4-0.7-0.8-2-1v-0.5c0.5,0,0.8-1.9,1-5.6
			l-0.3-1l0.3-0.8c-0.7-0.3-1-0.5-1-0.8l0.8-1.3v-0.8c0-0.4-0.3-0.7-1-0.8v-0.3c0.7,0,1-0.2,1-0.5v-3.3l-0.3-0.3l0.3-0.3v-5.8
			l-0.5-2l0.5-0.8l-0.3-0.8l0.3-3l-0.3-1l0.3-1V22H227v-0.3l0.8-0.5h2.5C231,21.3,231.9,20.8,232.8,20z M228.3,49.2v0.5
			c0,0.8,0.3,1.4,1,1.5l0.5-0.5h1c0.3,0,0.5,0.3,0.5,0.8l0.5-0.5v-0.8c-0.8-0.1-1.3-0.4-1.3-0.8v-0.5l0.5-0.8v-0.5h-1L228.3,49.2z
			 M229,26.6l-0.5,2l0.3,0.3h1l0.5-1.5H230L229,26.6z M228.5,58.3l0.5,3h0.5l0.5-0.5v-0.3l-0.8-1.3l0.3-1l-0.3-0.3H229l-0.3,0.3
			L228.5,58.3L228.5,58.3z M230.3,41.3v0.8h0.8v-0.3l-0.5-0.5H230.3z M230.5,29.4v1h0.8v-0.5l-0.5-0.5H230.5z M230.8,55.8v0.3
			l1.5,1.5l-1.5,0.3v0.3c0.7,0.7,1,1.4,1,2v1.3l1,0.5h1.3l1-1.3l-0.8-2.5c-0.3,0-0.5-0.3-0.5-1l-0.3-0.3h-0.3l-1,0.3
			C232.3,56.2,231.8,55.8,230.8,55.8z M231,40.1h0.3c0-0.3,0.4-0.5,1.3-0.5l0.3-0.3v-0.5h-1C231.5,38.8,231.3,39.2,231,40.1z
			 M232.3,31.4v0.3l0.5,0.5h0.3v-0.8C233.1,31.4,232.3,31.4,232.3,31.4z M233.3,50l-0.3,0.3v0.3l0.3,0.8h0.8v-0.5L233.3,50z
			 M233.3,45.1v0.3c0.2,1.4,0.4,2,0.8,2h0.5l1-1C234.6,45.6,233.8,45.1,233.3,45.1z M233.6,54.8l-0.3,0.3v0.5l0.8,0.8h0.5v-0.5
			L233.6,54.8z M234.3,49.2l-0.3,0.3v0.3c0.1,0.5,0.8,0.8,2,0.8l0.8,2c1-0.1,1.5-0.3,1.5-0.5c0-1.4-0.6-2.3-1.8-2.8H236l-1,0.3
			L234.3,49.2z M234.3,51.7v0.8l0.8-0.8v-0.3L234.3,51.7z M234.9,38.5l-0.3,1.5h0.3l1.3-0.3l1,0.3v-0.3
			C237.1,39.3,236.4,38.9,234.9,38.5z M235.1,30.2v1c0.4,0,0.9-0.4,1.5-1.3l-0.3-0.8H236L235.1,30.2z M235.4,42.1l0.3,0.3h0.5v-0.8
			h-0.3L235.4,42.1z M235.6,70v0.5c0.5,0,0.8,0.4,0.8,1.3h0.5v-1.3L235.6,70z M236.4,45.6v0.3l0.5,0.5l0.3-0.3v-0.5H236.4z
			 M236.9,67.5V68h0.8v-0.5H236.9z M258.2,20.8l1,0.5L260,21l0.8,1l0.5-1l1.5,0.5l1.3-0.3c1.2,0,1.8,0.4,1.8,1.3h0.5l0.8-0.5h0.3
			l0.3,1.3c-0.8,0-1.7,0.3-2.5,1l0.5,1l1.8-0.3h0.5l1.3,0.5V26c-0.1,0.5-0.8,0.8-2,0.8c0-0.5-0.2-0.8-0.5-0.8v0.3l0.5,0.8v0.8h-1.5
			v0.3l0.3,1l-0.5,1.3c0,0.5,0.6,0.9,1.8,1.3v0.8h-0.3l-0.8-0.8c-0.3,0-1,0.8-2,2.3l-1.5,0.3l-3.3-0.5l-2.5,0.3l-0.3-0.3l-1.3,0.3
			h-2.3l-1.5,0.3l-1.3-0.3l-0.5,0.5l-0.8-0.5h-0.5c-0.7,0.5-1.6,0.8-2.5,0.8v-0.3l-1.8,0.8V35l-0.3-1l0.3-1
			c-0.3-0.4-0.8-3.2-1.3-8.4l-0.3-0.3l0.3-1V23l-0.3-0.3c0.2-1,0.5-1.5,0.8-1.5h6.6l2,0.3l2-0.3h0.5l3,0.3L258.2,20.8z M243.7,89.8
			h4.6l1,0.8l1.5-0.8l1,0.3l1-0.3l0.8,0.3l1-0.3h0.5v0.3l3-0.3h3.8c0.1,1.2,0.3,1.8,0.5,1.8l-0.3,1.3v1.8l-0.3,0.3l0.3,0.3v1
			l-0.5,0.5c-0.3,0-0.5-0.4-0.5-1.3h-0.8v1l-6.1-2V95c2,0.6,3,1.2,3,2l-1.5,0.5c0.3,0.5,0.7,2.1,1,4.8l-0.3,0.3l-0.8-0.3l-1.3,0.3
			l-1-0.3l-1.5,0.3l-1-0.3l-3,0.3c-1,0.1-2-0.3-3-1.3c-0.2,0.8-0.6,1.2-1,1.3l-0.5-0.5l1-2.8l-1-6.6v-1.5L243.7,89.8z M244,43.1h0.8
			c0,0.5,0.2,0.8,0.5,0.8l1.5-0.5v0.3l-1,0.8l-0.3,0.3v0.3C244.9,44.7,244.4,44.1,244,43.1z M245.5,23.8v1h0.8v-0.5l-0.5-0.5H245.5z
			 M246.8,44.1h0.5l2,0.3v0.5H247L246.8,44.1z M246.8,45.4h0.3l0.5,0.5h-0.8V45.4z M248.3,91.6v0.5H248c0.2,2,0.5,3,1,3l0.5-0.5
			l-0.3-1.3l0.5-0.5l-1.3-1.3L248.3,91.6L248.3,91.6z M254.7,56.1v0.3l0.3,1.8c1.2-0.6,1.8-1.2,1.8-1.8l-0.3-0.3H254.7z M258.5,59.4
			c0.7,0,1.1,1,1.3,3l-0.5,0.5v0.5c0,0.3,0.3,0.5,1,0.5l-0.5,1.3H259c-0.8-0.3-1.3-0.9-1.3-1.8v-0.3l1-0.3v-0.3l-0.8-0.8l-0.3,0.3
			h-0.3v-0.5c0.9,0,1.4-0.3,1.5-0.8c0-0.3-0.3-0.5-0.8-0.5l-0.3-0.3v-0.3L258.5,59.4z M135,113.2l1,0.3v0.3c0,0.3-1.2,0.7-3.6,1
			v-0.3C132.5,114.1,133.3,113.7,135,113.2z M257.7,96.4c3,0,4.6,0.8,4.6,2.3V99l-0.3,1.5l0.3,0.8c-0.3,0.7-0.5,1-0.8,1h-2l-0.3-1.3
			l0.3-1.8c-0.5,0-1.1-0.8-1.8-2.5L257.7,96.4L257.7,96.4z M261.3,61.4h0.3v0.3l-0.5,0.8v0.3c0,0.3,0.3,0.5,0.8,0.5l0.3,0.3v0.3
			h-0.3c-0.7,0-1-0.4-1-1.3h-0.3L261.3,61.4z M139.3,112.7l1,0.3v0.5l-0.5,0.5c-0.8-0.2-1.3-0.5-1.3-0.8v-0.3L139.3,112.7z
			 M264.8,22.3v0.5h0.8l-0.5-0.5H264.8z M143.1,113.7h0.8l0.3,1.3h-0.8L143.1,113.7z M269.9,30.9l1.3,1.3l-0.8,0.3l-1.3-0.3
			L269.9,30.9z M144.6,113.4l0.5,0.5l-0.3,0.3v0.3l-0.8-0.3v-0.3L144.6,113.4z M146.2,113.9h0.8l-0.5,0.5h-0.3V113.9z M274.5,26.6
			l0.5,0.5v0.3h-1v-0.3L274.5,26.6z M274,29.4l1.8,0.3h0.5l0.3,0.8l-1.8,1.3h-0.5v-0.5H274l0.3-0.3v-0.3L274,29.4z M278.8,25.6h0.3
			l1.5,0.8l0.3-0.8h0.3l0.8,0.8v0.3c0,0.7-1.4,1-4.3,1l-0.3-0.3v-0.3L278.8,25.6z M282.8,22h0.5v0.8l-0.5,0.5h-0.3L282.8,22z
			 M283.4,26.1v1.5h-0.5l-0.3-1L283.4,26.1z M290.5,25.6h0.5c0,1-1,1.8-3,2.3c-0.7-0.5-1.8-0.8-3.3-0.8l-0.3-0.3V26h0.8v0.5
			C288.7,26.3,290.5,25.9,290.5,25.6z"/>
		<path class="st1" d="M23.3,116.5h0.8l0.3,0.3l0.3-0.3h8.1c1,0,1.5,0.9,1.5,2.8l0.8,1.3l-0.8,1.3v0.5h0.3l-0.5,6.9l0.3,4.6v1
			c0,0.6,0.3,1.1,0.8,1.8l-0.5,0.8l0.8,1.3v0.8c0,1-0.7,1.5-2,1.5v1.3c0.8,0,1.3,0.4,1.3,1.3l-0.8,1.5c0.3,0,0.5,0.5,0.5,1.5h0.8
			V146h0.3l0.3,1.8l-0.3,0.8l0.3,0.3v0.3l-0.5,1l0.8,2l-1,1.8l0.3,1.5l-0.8,2.5l0.3,0.3v0.3l-0.5,1.3l1.3,3.6l-0.5,1.5l0.3,1.3h-0.3
			l0.3,0.3v0.3l-0.3,1.5l1,1.3l-1.3,2.8c0.5,0,0.8,0.2,0.8,0.5l-0.5,0.5l0.3,1l-0.5,1.8l0.8,0.8v0.5l-0.8,1v0.8l1,0.3
			c0,0.5-0.3,0.8-1,0.8l0.5,0.5h0.5l1-0.8l0.5,0.5v0.3l-0.3,0.3l0.3,0.3v1c-0.9,1.5-1.8,2.3-2.8,2.3c-0.6,0.7-1.1,1.8-1.3,3.3
			c-4.1,5.8-8.2,9.1-12.2,9.9l-0.3,0.3l-1.5-0.3c0,0.7-0.9,1-2.8,1l-1.8-0.3l-1.5,0.3c-2.5,0-3.8-0.4-3.8-1.3c0-0.5-0.2-0.8-0.5-0.8
			v1.3H8l-0.5-0.5l0.3-0.3l-0.5-1.3l0.3-1.5v-0.8c0.7,0,1-0.3,1-0.8l0.3,0.3h0.5l0.5-0.5v-0.8c-1.2-0.3-1.8-0.7-1.8-1
			c0.3-0.7,0.9-1,1.8-1h0.3l0.3,0.3h0.3c0.5-0.7,0.8-1.4,0.8-2h-0.3l-2.5,0.3v-0.5l0.3-1.3h1.8l1.5,0.3l1.3-0.3h0.8l0.3,1h0.3
			c0.6-0.9,2.2-1.8,4.8-2.5c1.9-2.2,2.8-4.7,2.8-7.6L22,176l0.8-1.3v-0.3h-0.5v-1.3l-0.3-0.3l0.3-0.3V170c0-0.9,0.3-1.6,0.8-2.3
			l-0.8-1l0.3-2.5h-0.3l0.3-0.3v-0.8l-0.3-0.3v-0.3h0.3l-0.3-0.3v-0.3l0.8-1c-0.7-0.2-1-0.6-1-1.3l0.3-0.3c0.5,0.1,1.2,0.6,2,1.5
			l3.6,0.5l0.3-0.3v-0.3c0-0.6-0.3-1.1-0.8-1.8v0.1l0.3-2.5h0.5v1l-0.3,1.3l0.3,0.3c1.5-0.2,2.3-0.4,2.3-0.8v-1c0-0.3-0.7-0.7-2-1
			l-1-1h-0.3l-0.5,0.5l0.5,0.8l-0.3,0.3h-0.3l0.3,0.8l-0.8,1h-0.3c0-0.4-0.8-1.1-2.5-2.3l-0.3-1.5l1-0.3l-0.3-1.3l0.3-0.3h0.5
			c0,1.2,0.4,1.8,1.3,1.8v-0.3l1-0.8c0.2-1.2,0.5-2.1,1-2.5l-0.5-2l0.3-1.3c-0.8-0.7-1.4-1-1.8-1l1.3-1.3l-0.3-0.3v-1l0.3-0.3
			l-0.3-0.8h-0.8c-1.3,0-2.5,0.8-3.8,2.5c0,0.6,0.6,1,1.8,1.3v0.5c-0.2,0.5-0.7,0.8-1.5,0.8l-0.5-0.5V146l-0.3-2.8l0.5-1.3l-0.5-6.1
			l0.3-1.3l-0.3-0.3v-0.3l0.5-2.3l-0.5-1l0.3-1.5v-0.5l-0.3-0.3l0.3-0.3l-0.3-3.8v-5.1l0.3-1l-0.3-0.8
			C21.9,116.9,22.4,116.5,23.3,116.5z M14.6,189.4v1l0.5,0.5l0.3-0.8l-0.3-0.8L14.6,189.4L14.6,189.4z M14.9,191.2v0.5l0.5,0.5v-1
			H14.9L14.9,191.2z M15.1,192.7v0.8l0.5-0.5l-0.3-0.3H15.1z M17.4,192.5v1.3c0.3,0,0.5,0.4,0.5,1.3h0.8l-1-2.5L17.4,192.5
			L17.4,192.5z M21.7,183.1v0.5H22c0.8-0.3,1.4-0.8,1.8-1.5v-0.3l-0.8-0.3C22.7,181.5,22.3,182.1,21.7,183.1z M22.5,149.3l0.5,0.5
			v0.3h-0.5V149.3z M23,187.6l-0.3,0.3v0.5h0.8v-0.3L23,187.6z M27.1,166.3v0.3l0.5,0.5l1.8-2h-0.3C28.4,165,27.7,165.5,27.1,166.3z
			 M27.6,173.2h0.5l0.5-0.5h-0.5L27.6,173.2z M29.6,179.8l1.3,1l0.5-0.8v-0.3l-0.5-0.5h-0.8L29.6,179.8z M30.9,144l0.3,0.3h0.3
			l0.5-0.5l-0.3-0.3h-0.3L30.9,144z M32.4,157.7l1,0.3l0.3-0.3v-0.3l-0.3-0.3h-0.5L32.4,157.7z"/>
		<path class="st1" d="M64.2,114.6c1,0.1,1.7,0.3,2.3,0.8l1-0.8h0.3l0.8,0.8l-0.8,1v0.5h0.8l1.3,0.3l-0.3-0.3v-0.5l0.5-0.5h0.3
			l4.8,2v0.3l-0.3,0.3v0.3c1.7,0,4,2.2,6.9,6.6c0.8,1.2,1.3,2.5,1.5,3.8v0.3c-0.5,0-0.8,0.2-0.8,0.5v0.3l1.5,0.3l-0.3,1.3v1.5l0.8,1
			v0.3c0,1.3-0.6,2.1-1.8,2.3v0.5c0.8,0,1.3,0.2,1.3,0.5v1l-0.3,0.3v0.3H84l-0.5,1l0.5,5.3l-0.3,1h0.8v-0.8H85l0.3,0.3l0.3-0.3h1
			v0.3l-1,0.8l-0.3,0.3v0.3l-1.3-0.3h-0.3v0.3l0.8,1v0.3l-0.3,0.3l0.3,0.8h0.8v-1h1.3l-0.5,3l1.5,1.8l-0.3,0.3v0.3l0.3,0.3l-0.3,0.3
			l-2-0.5l-0.8,0.3v1.3l-0.5,0.8v17.8c0,0.4-0.8,0.8-2.5,1.3v0.3c1.7,0,2.5,0.3,2.5,0.8v0.3l-0.3,0.3v0.3c-1.9,0-3.5-0.4-4.8-1.3
			h-0.3l-0.5,0.5l1.3,1.3c-0.2,0.8-0.5,1.3-0.8,1.3h-0.3l-1-0.8c0-0.5,0.3-0.8,0.8-0.8v-0.3c-0.5,0-0.8-0.3-0.8-0.8l0.3-0.8h-0.3
			l-0.3-0.3l-0.3,0.3h-0.8c0-1.5-0.8-2.4-2.5-2.5c0-0.2-0.7-0.4-2-0.5V172h-0.3l0.3-0.3l-0.3-3v-3.3l0.3-1l-0.5-1.3l0.3-3.6V158
			l-0.3-2.3l0.3-0.3l-0.3-2.5v-0.8l0.5-4.3l-0.8-2l0.5-0.5c0-2.2-0.3-4.1-0.8-5.6l0.8-2l-0.3-0.8l0.3-1.5V135c0-1.7-0.2-2.5-0.5-2.5
			l0.3-0.3v-0.3c-1.5-3.3-3.7-4.9-6.6-4.8c-1.4,0-3,0.6-4.8,1.8v0.5l0.5,0.8l-0.3,0.3h-0.3l-0.3-0.3h-0.3v0.5h0.5v0.5l-0.3,0.3v0.3
			l0.3,0.3c-1.4,0.6-2,1.6-2,2.8l1,1v0.3l-0.8,1.5h0.3l-0.3,0.3v1c0.6,1.4,1.4,2,2.3,2c0,0.5,0.3,0.8,0.8,0.8l0.3,0.3v0.5
			c-0.7,0.1-1,0.3-1,0.8c0.5,0,0.8,0.2,0.8,0.5v0.5h-0.3c-0.6,0-1.6-0.4-2.8-1.3l-0.3,0.3H57c0.3,0.7,0.5,1,0.8,1l-0.3,1.8v0.8
			l0.3,1l-0.3,1l0.5,1.8l-0.8,1l0.3,1.5l-0.5,2.8l1,1.3c-0.5,0.9-0.8,2.2-0.8,3.8l0.3,1.5l-0.3,1L58,164l-0.3,1.3
			c0.8,0.3,1.2,0.7,1.3,1v0.3c-1,0-1.5,0.5-1.5,1.5l0.8,0.3v0.3l-1,0.3v4.6l0.3,1.3l-0.3,1.5v2.3c0,3.4,1.9,5.7,5.6,6.9h1.8
			c2.6,0,4.7-1.4,6.3-4.1l1-0.3h3c3,0,5,0.2,5.8,0.5l1.5-0.5l1,0.3v1c-0.5,3.2-1.4,4.8-2.5,4.8L81,187h1v0.5c-0.6,1.6-2.6,4-6.1,7.1
			c-2.2,1.4-3.6,2-4.3,2c0-0.3-0.3-0.5-0.8-0.5c-1,0.8-1.7,1.3-2.3,1.3l-1-0.3l-0.5,0.5h-1l-1-1c-0.6,0.5-1.7,0.8-3.3,1l-0.3-0.3
			l0.3-0.3v-0.3l-0.3-0.3v-0.3c-0.5,0-0.8,0.3-0.8,0.8h-0.3l-3.8-1.3c-1.6-0.5-3.5-1.9-5.6-4.1v-0.8l0.5-0.8c0-0.8-0.2-1.3-0.5-1.3
			l-1.3,0.3l-0.5-3l0.3-1c-0.2-1.2-0.4-1.8-0.8-1.8l-0.3,1.5l0.5,0.5v1c0,0.9-0.3,1.4-0.8,1.5c-1.7-2.7-2.5-5.8-2.5-9.4l0.3-0.3
			v-0.3l-0.5-1l0.3-0.3V176l-0.3-1.8h0.3l-0.3-0.3v-0.8l0.3-1.5l-0.3-0.3v-0.8h0.3l-0.3-4.3v-4.8l0.3-0.3l-0.3-0.3v-13.7l0.5-1.5
			l-0.5-1.5l0.3-1l-0.3-1c0-0.3,0.8-0.8,2.3-1.5l0.3-1.3h-0.3l0.3-0.3v-0.5l-1.3,0.3l-0.3-0.3V138h0.5l0.3,0.3h0.3l0.3-0.3v-0.3
			c-0.8-0.3-1.3-0.9-1.3-1.8c0.6-0.5,1.3-0.8,2-0.8V135c-1.9-0.8-2.8-1.7-2.8-2.5V132c0.5,0,0.8-0.2,0.8-0.5h0.8v0.5h0.3
			c1.4-0.7,2-1.5,2-2.3v-1.5c1,0,1.5-0.3,1.5-1c0.3,0,0.5-0.3,0.5-0.8l-0.3-1.3c0.8-1,1.6-1.5,2.5-1.5c0-0.6,1-1.4,3-2.5l-0.5-0.5
			l0.8-0.8l0.3,0.3h0.3l1.5-1.3v0.5h0.8V119l-0.3-2.3l0.3-1l1.5,1.5h1v-1.8C62.4,115.1,63,114.9,64.2,114.6z M49.5,137.2l-0.5,2.3
			l0.3,0.3l-1,0.8l0.3,0.3v0.5l-0.5,0.8c0.7,0.1,1,0.3,1,0.8l1.8-1.3c0-0.5-0.3-0.8-0.8-0.8l-0.3-0.3v-0.8l0.3-1.5l-0.3-1
			L49.5,137.2L49.5,137.2z M48.5,157.6l-0.3,1.3v6.3l-0.3,1.3l0.3,1.5v6.6l0.5,0.5v-8.9l0.3-0.3l-0.3-0.3v-5.1l0.3-2.3l-0.3-0.8
			L48.5,157.6L48.5,157.6z M48.5,175.8l-0.3,1l0.3,0.3v0.3l-0.3,0.3l0.5,4.1h-0.3l0.3,1H49V179l0.3-0.3l-0.5-2.8L48.5,175.8
			L48.5,175.8z M48.5,149.9v0.3l0.5,0.5v-1.3L48.5,149.9z M48.7,151.2l-0.3,1.3v1l0.5-0.5v-1.8H48.7L48.7,151.2z M48.5,153.7v3
			l0.5-0.5l-0.3-0.3v-0.3l0.3-1.5L48.5,153.7z M49,143.8v1l0.5-0.5v-0.5H49L49,143.8z M49.2,135.2l0.3,1.3l0.8-0.3L50,135
			L49.2,135.2z M49.7,133.2v0.8l0.5-0.5v-0.3H49.7z M50,160.1l0.3,0.3h0.5l0.5-0.5l-0.3-0.3h-0.5L50,160.1z M50.3,128.6v1.5l0.8-0.3
			v-0.5L50.3,128.6z M50.5,131.9l0.5,1l0.5-0.5v-0.5H50.5L50.5,131.9z M51.8,142.1v0.5h-0.3l0.3,1l0.5-0.5v-0.5L51.8,142.1z
			 M52.3,139.3l-0.3,1h0.5v-1H52.3z M52.3,136.5v0.3h0.5V136L52.3,136.5z M52.5,163.1v1h0.3l0.5-0.5v-0.5H52.5L52.5,163.1z
			 M55.8,189.8v0.3h0.8v-0.8h-0.3L55.8,189.8z M63.7,188.5v0.5h0.5l0.5-0.5H63.7z M65.2,115.7l-0.3,0.3v0.3h1V116L65.2,115.7z
			 M67.3,121.2v0.5l0.8,0.3v-0.8H67.3z M68,194.1l0.3,1.5c1,0,1.5-0.5,1.5-1.5h0.3c0.3,0,0.5,0.3,0.5,0.8h1v-0.3l-0.3-1.3l0.3-0.3
			l-0.3-0.3h-1C69.7,192.8,68.9,193.3,68,194.1z M68.8,153.2h0.5c0.3,0,0.5,0.3,0.8,1h-0.5C69.3,154.3,69,153.9,68.8,153.2z
			 M71.1,117.2v0.3l0.5,0.5h1v-0.3l-1-0.5H71.1z M72.3,134.2v0.5l0.5,0.5l0.3-0.3v-0.8h-0.8V134.2z M72.3,181.4l0.3,0.8l1.3-0.3
			l-0.5-0.5H72.3z M209.5,100.7l0.3,0.3v0.3l-1,0.8l-0.3-0.3v-0.3L209.5,100.7z M84.8,152.2v1h0.5v-1H84.8z M211.6,99.7h0.3
			c1.3,0,1.9,0.3,2,0.8l0.3-0.3h0.3l0.5,0.5c-0.6,0.5-1.9,0.8-3.8,0.8v-1.3L211.6,99.7z M88.8,153.5l1.5,1c0,0.6,0.3,1.1,0.8,1.5
			l-0.5,0.5h-0.3L88,155C88.3,154,88.5,153.5,88.8,153.5z M92.1,155.3h1c0,1.2,0.3,1.8,0.8,1.8v0.5c-1-0.1-1.5-0.3-1.5-0.5l0.3-0.8
			l-0.5-0.5L92.1,155.3L92.1,155.3z M93.9,155.5h2.5c0.3,0,0.5,0.3,0.5,1l0.3,0.3H98c0-0.5,0.2-0.8,0.5-0.8H99l0.5,0.5v0.5l-0.5,1
			h-0.5v-1l-0.3,0.3h-2.8L93.9,155.5z M224.5,102.5l0.3,0.3v0.3l-0.8,0.5h-1.3l-0.5-0.5L224.5,102.5z M227.6,101.7l0.5,0.5l-0.3,0.3
			H227v-0.3L227.6,101.7z M102.3,157h0.8v0.3l-0.5,0.5l-0.3-0.3V157z"/>
		<path class="st1" d="M101.3,115.8h11.4c6.8,0,12.4,2,17,6.1c1.4,0,2.6,0.8,3.6,2.3v0.3c-1.4,0.3-2,0.8-2,1.3
			c0.9,0,1.9,0.3,2.8,0.8l0.8-0.3v0.3l-0.3,1.5l1.3,0.3l-1,3.3v1l0.3,0.3l-0.3,0.3v0.3l0.3,2.5l-0.8,0.3l-0.3-0.3h-0.3l-0.8,0.3v1.3
			c1.9,0.6,2.8,1.6,2.8,3c1,0,1.5,0.2,1.5,0.5v0.3l-1.5,0.3v1l0.3-0.3h0.8v0.3c0,0.4-0.4,0.6-1.3,0.8l0.8,1.3l-0.5,1l0.3,0.8
			c-0.3,1.7-1.1,2.5-2.5,2.5c0,0.8-0.6,1.3-1.8,1.3v0.3l0.3,1.3h-0.3l-1.5-0.5l-0.3,0.3v0.5l0.8,0.3c-0.3,1-0.9,1.5-2,1.5v-0.3
			l0.3-0.8l-0.3-0.3h-0.5l-0.5,0.5l0.3,1l-0.3,0.3v0.3l0.5,0.8l1.3-0.8l0.8,0.3l-0.5,2c1.1,0.3,2.1,1.1,3,2.3h2.8v0.3
			c-0.5,0-0.8,0.2-0.8,0.5l0.5,0.5l0.8-0.5l0.8,0.5h1.3v1l-1.3,0.3l0.3,0.3v0.3l-0.5,1l0.3,0.3h0.3l0.8-0.5h0.3l-0.5,0.8l0.8,1v0.3
			c0,0.5-0.8,0.9-2.5,1.3c-1.2-0.3-1.8-0.8-1.8-1.3h-0.3c0,1.2-0.4,2-1.3,2.5l0.5,0.5h0.3c0-0.5,0.2-0.8,0.5-0.8
			c1.5,0.2,2.3,0.5,2.3,1l-1,1.3h-0.3c0-0.5-0.4-0.8-1.3-0.8v1c0.5,0,0.8,0.4,1,1.3l1.3,0.3h0.3v-1.5c0.7,0,1-0.2,1-0.5v-0.5
			l-0.5-0.8v-0.3c0-0.3,0.4-0.5,1.3-0.5c0-0.8,0.4-1.3,1.3-1.5l0.3,0.3v0.3l-1.8,2v0.3l1,1.3v0.8c0,0.3-0.3,0.5-0.8,0.5l0.3,1.3
			c-0.3,0-0.7,1.4-1,4.1l0.8,0.3v0.5c-0.5,0.5-1.1,2.7-2,6.6c-0.6,0.7-1,2.1-1.3,4.3c-0.3,0-2,1.7-5.1,5.1c-3.1,1.9-6.3,3.5-9.4,4.6
			c-0.7-0.3-1.6-0.5-2.8-0.5h-2l-0.3-0.3l-0.3,0.3h-10.2l-0.3,0.3l-0.3-0.3h-2.3l-0.3,0.3l-0.3-0.3h-0.5l-0.8,0.3
			c-2.5-0.2-3.8-0.6-3.8-1.3l0.3-0.8L96,188l0.3-1.8l-0.3-0.3v-0.3l0.5-1l-0.3-0.3v-1.5l0.3-0.3l-0.5-1.8l0.3-2.5l-0.3-0.3v-0.3
			l0.8-2c-0.4,0-0.6-1.4-0.8-4.1h0.3l-0.3-0.3v-2.5l0.3-2l-0.3-2l0.3-2.5l-0.3-1.3l0.8-0.8l-0.3-0.3l-0.3-0.8H96l0.3-1.3
			c0-0.8-0.2-1.3-0.5-1.3l0.3-0.3v-2.8l0.3-1.5l-0.3-0.3v-0.3l0.3-1l-0.3-1.3l0.3-1.3l-0.5-0.5l0.5-1.5l-0.5-2l0.5-2l-0.5-1.3
			l0.3-1.8l-0.3-1.3l0.3-1.3l-0.3-1.5l0.5-0.8l-0.5-3l0.3-0.8l-0.3-0.3v-0.3l0.3-1.5l-0.5-0.5l0.3-2.3l-0.3-2.8l0.5-0.8l-0.3-1.8
			v-3.8h0.3L101.3,115.8z M102,143.3l0.3,0.3h0.5v-1L102,143.3z M106.4,153.7l-0.3,1.5h-1l-0.3-1h-0.3l-1.3,0.3v0.3l0.8,1
			c-0.8,0.4-1.3,1.2-1.3,2.3h1c0.5-0.8,0.8-1.7,0.8-2.5l0.3-0.3h0.3c0.2,0.7,1,1,2.3,1v0.3h-0.8v0.8l0.3,0.3v0.3h-0.5l-0.3-0.3h-0.3
			v0.5l2.5,0.8l1.3-0.3v-0.3l-0.5-0.5l1.8-2.3c-0.5-0.5-0.8-1.1-0.8-1.8h-0.5l-1.8,1l-0.3-0.3v-0.3l0.3-0.3l-0.3-0.3L106.4,153.7
			L106.4,153.7z M104.3,158.8v0.3h1v0.5l-0.5,0.8l0.8,0.5h0.5V159l-1.3-0.8L104.3,158.8z M138.8,209h0.3c1.3,0,1.9,0.3,2,0.8
			l-0.5,0.5c-1.5-0.2-2.3-0.5-2.3-0.8L138.8,209z M113.5,128.5c0,1.5-0.4,2.3-1.3,2.3v0.8l0.3-0.3h0.3l1,1l-0.3,0.3v0.3l-1.5-0.5
			c-0.2,0.8-0.5,1.3-0.8,1.3h-0.3l-0.3-1.3v-0.3c0-0.3,0.3-0.5,0.8-0.5v-0.3c0-0.3-0.3-0.5-0.8-0.5l-0.3,0.3H110l-1-0.3h-0.3v1
			l0.8,0.8c-0.5,1-0.8,2.8-0.8,5.3v6.3c0,0.3,0.4,0.5,1.3,0.5c0,0.4,0.5,0.8,1.5,1.3v0.3l-0.3,0.3h-1l-0.3-0.3
			c-0.8,0.3-1.2,0.7-1.3,1l0.3,0.3l1.5-0.5c1.2,0.2,1.8,0.8,1.8,1.8c3.8,0,6.3-0.8,7.6-2.5l1-2.5l1.3,0.3c0-0.5,0.5-0.8,1.5-0.8V143
			c0-0.3-0.4-0.5-1.3-0.5l-0.3-1.3l0.3-1l-0.8-0.8l0.3-1.3l-0.3-2.5l0.5-0.5l-0.8-1.3v-0.5l0.5-0.5h0.3v0.8h0.5v-2
			c-0.3,0-0.5-0.4-0.5-1.3h-0.5l-1.5,1.3l-0.3-0.3l0.3-1.3v-0.3l-2.3,0.3l-3.6-1.5L113.5,128.5L113.5,128.5z M111.2,161v0.5
			c-0.6,0.2-1.2,0.6-1.8,1.3l0.3,0.3v0.5l-0.5,0.5l0.3,0.3v0.3l-0.3,1.3h1l-1,3v1.3l0.8,0.8l-0.5,2l1,0.5v0.5c-0.7,0-1,0.2-1,0.5
			l0.5,0.8v0.3l-0.3,0.3v0.3h0.3l-0.5,0.8l0.3,0.3l-0.5,6.6l0.3,1.3h5.1c4.6-1,6.9-2.3,6.9-4.1c0.7-0.3,1.4-2,2-5.1l-0.3-0.3l0.3-2
			l-0.3-3.3h0.3c-1.1-6.1-3.9-9.1-8.6-9.1L111.2,161L111.2,161z M110.7,152.9l0.5,0.5h0.3v-0.5H110.7z M114,134.4l0.5,0.8l-0.5,0.5
			h-0.8v-0.5L114,134.4z M114.7,153.9v0.5h1v-0.5H114.7z M115.5,155.7v0.8h0.8v-0.3l-0.5-0.5H115.5z M121.9,148.3l0.3,1.3h0.5
			l0.5-0.5v-0.5L121.9,148.3z M124.4,153.2l-0.3,1.8h0.5l0.5-0.5v-0.8l-0.5-0.5H124.4L124.4,153.2z M125.2,132.1v0.3h0.5v-0.8
			L125.2,132.1z M125.7,154.7v0.3l0.3,0.3v0.3l-0.5,0.5v0.5h1l-0.3-1.8L125.7,154.7L125.7,154.7z M126.2,152.4v1h0.3l0.5-0.5v-0.5
			H126.2L126.2,152.4z M129,151.4v0.8h0.3l0.5-0.5l-0.3-0.3H129z M131.2,158.8v0.3l0.8,1l0.3-0.3h0.3l-0.8-1l-0.3,0.3L131.2,158.8z
			 M132,143.3l-0.5,0.8v0.3l0.3,1.3c1.2,0,2-0.4,2.3-1.3L132,143.3z M131.8,176.8v0.3l0.8,0.8l0.3-0.3v-0.8H131.8z M131.8,179.1v0.3
			h0.8v1.5l0.5,0.5l0.5-0.5v-0.3l-0.3-0.3l0.3-0.3v-0.3c0-0.3-0.3-0.5-1-0.5v-0.8h-0.3L131.8,179.1z M133.3,176.8v0.3l0.5,1h0.8
			l-0.5-1.8h-0.3L133.3,176.8z M134.3,163.6v0.5h0.8l0.5-0.5v-0.3L134.3,163.6z M138.9,123v0.8h-0.3l-0.5-0.5l0.3-0.3H138.9z"/>
	</g>
</g>
</svg>
