<?xml version="1.0" encoding="utf-8"?>
<!-- Generator: Adobe Illustrator 19.2.1, SVG Export Plug-In . SVG Version: 6.00 Build 0)  -->
<svg version="1.1" id="Layer_1" xmlns="http://www.w3.org/2000/svg" xmlns:xlink="http://www.w3.org/1999/xlink" x="0px" y="0px"
	 viewBox="0 0 285.972 210.306" enable-background="new 0 0 285.972 210.306" xml:space="preserve">
<g id="Labels">
</g>
<g id="Obtion_B">
</g>
<g id="Cover_Photo">
</g>
<g id="Black_Bars">
</g>
<g id="Silhouette">
</g>
<g id="Veins">
</g>
<g id="Background">
</g>
<g id="A_play_by_Kenneth_Vest">
</g>
<g id="Inside_Job_Title">
	<g>
		<path fill="#FFFFFF" d="M0,98.648h0.508L1.27,99.41v0.508H0.762L0,99.156V98.648z M3.301,21.964c0.296,0,1.396,2.455,3.301,7.364
			c-0.212,2.371-0.635,3.555-1.269,3.555H4.571v-0.508L2.793,22.218l0.254-0.254H3.301z M3.047,98.902l0.254,0.254h0.254
			l1.269-0.254l0.508,0.508l0.254-0.254H5.84l1.523,0.508l1.269-0.254l0.508,1.016l1.016-0.508l0.254,0.254v0.508l-0.508,0.508
			l-1.016-0.254l-2.031,0.508c-0.086-0.381-0.762-0.804-2.031-1.27L4.063,99.41l-0.254,0.254H3.555l-0.508-0.508V98.902z
			 M12.442,22.218h4.316c0.889,0,1.65,0.254,2.285,0.762l3.047-0.762c1.227,0,1.904,0.847,2.031,2.539
			c-0.339,0.508-0.593,1.524-0.762,3.047l0.762,1.27c0,0.847-0.169,1.27-0.508,1.27l0.254,0.254v0.254l-0.254,1.778l0.762,0.762
			L23.867,33.9v0.762l0.508,1.523c0.338,0,0.508,0.423,0.508,1.269c0.508,0,0.762,0.17,0.762,0.508v0.254
			c-1.355,0-2.031,0.847-2.031,2.539c-0.805,0.127-1.482,0.55-2.031,1.27H21.33c-0.381,0-0.805-1.1-1.27-3.301h-1.27l-0.762-0.508
			c0,0.847-0.762,1.27-2.285,1.27c0-0.422-0.339-0.676-1.016-0.762c-0.593,0-1.523,0.508-2.793,1.523h-0.762l-0.254-0.762
			l0.254-2.031l-0.254-4.063l0.254-0.762h-0.254c0.211-1.185,0.465-1.778,0.762-1.778c-0.085-0.973-0.339-1.735-0.762-2.285v-4.824
			C10.919,22.726,11.427,22.218,12.442,22.218z M23.869,51.419c1.227,2.92,1.989,4.443,2.285,4.57l-0.508,1.524
			c0.676,0.169,1.016,0.677,1.016,1.523c-0.508,0-0.762,0.339-0.762,1.016h-0.254c-0.339,0-0.508-0.254-0.508-0.762l-0.254-0.254
			H24.63l-1.524,0.762l-1.016-1.27h-0.254c-0.847,0-1.269,0.423-1.269,1.27c-1.016,0-1.524,0.169-1.524,0.508v0.508l0.762,1.27
			l1.778-0.254h1.016c0,0.508,0.422,0.762,1.269,0.762c0.295,1.186,0.635,1.777,1.016,1.777v0.508c-0.677,0-1.016,0.678-1.016,2.032
			c0.676,0.212,1.016,0.72,1.016,1.523l0.762,0.254v0.508l-0.762,0.762c0,0.889,0.338,1.736,1.016,2.539v0.254l-0.762,1.016
			l0.508,0.508l0.762-0.254l0.508,1.27l-0.762,0.508l-1.016-0.254v0.254l0.508,0.508l0.254-0.254h0.254l0.254,0.254v0.762h-0.254
			l-1.269-0.254v0.762c0.465,0,0.973,0.593,1.523,1.777l-1.523,1.016v0.254l0.254,0.254v0.254l-1.524,0.254
			c1.184,0.805,1.777,1.566,1.777,2.286h0.762c0.084-0.677,0.338-1.016,0.762-1.016l0.508,0.508l-0.254,0.762l0.762,0.762
			l-0.254,0.254h0.254l-0.762,1.27l0.254,0.254v0.508l-1.016,1.523l-1.016-0.254h-0.508v0.254c0.719,0,1.311,0.424,1.777,1.27v0.254
			H25.9l-1.016-0.762l-0.508,0.508v0.508l0.254,0.254l-1.016,3.809l-1.269-0.508h-0.254v0.254c1.354,0.339,2.031,0.847,2.031,1.523
			l-0.508,0.762l0.508,1.523v0.762h1.27v0.254c-0.593,0-1.101,0.254-1.524,0.762l0.254,1.27v1.777c0,0.549-0.339,0.803-1.016,0.762
			l-3.555-0.254l-0.254,0.254h-0.254l-1.523-0.508l-0.254,0.254h-0.254l-0.254-0.254l-2.539,0.254H12.95
			c-1.016,0-1.523-0.508-1.523-1.524v-5.84l-0.254-2.285l0.508-1.523l-0.254-1.016l0.508-0.508l5.84,2.031V92.05
			c-3.555-0.931-5.586-1.692-6.094-2.286v-1.016l0.508-0.508l-0.508-2.031c0-1.311,0.508-2.412,1.523-3.301l0.762,0.508l0.762-2.032
			h0.254V80.62H14.22l-0.762,0.508h-0.762c0-0.846-0.508-1.27-1.523-1.27l0.508-1.27l-0.254-2.285l0.254-2.031l-0.254-1.016
			l0.254-1.016l-0.254-0.254v-0.254l0.254-0.254v-0.254l-0.762-2.285h0.508l-0.254-1.777v-0.508c0-0.338,0.254-0.508,0.762-0.508
			s0.762,0.423,0.762,1.27h2.031l2.539-0.762v0.762c-0.677,0.804-1.016,1.65-1.016,2.539l1.016,0.508l1.523-0.762l0.762,0.762h0.254
			v-0.762l-1.27-2.285l0.508-1.27h-1.523c0-0.804-0.762-1.481-2.285-2.032l-0.254-1.27V62.59c0.508,0,0.762-0.254,0.762-0.762h0.508
			l0.254,0.254h0.254V61.32l-0.508-0.762v-0.762c0.676,0,1.016-0.338,1.016-1.016h0.254l-0.254-0.254v-0.254l0.254-0.762
			l-0.254-0.762h0.254l1.777,0.508h1.524v-0.508c-0.847-0.127-1.27-0.381-1.27-0.762s0.508-1.057,1.524-2.031V53.45
			c0.846,0,1.27-0.592,1.27-1.777h0.254l0.762,0.254L23.869,51.419z M18.282,46.086h0.254v0.508c0,0.889-0.847,2.159-2.539,3.809
			l0.254,1.016l-0.508,1.523h0.762v-0.508h0.762v0.508c0,0.381-1.185,0.72-3.555,1.016c-1.186-0.254-1.777-0.592-1.777-1.016V52.18
			c0.508,0,0.762-0.168,0.762-0.508v-0.508c-0.678,0-1.016-0.254-1.016-0.762c0-1.227,1.607-2.243,4.824-3.047v0.254L18.282,46.086z
			 M12.696,69.955v1.27h0.254l1.016-1.016l-0.254-0.254H12.696z M14.22,84.175v0.508l1.524,0.254v-0.508l-0.508-0.508L14.22,84.175z
			 M14.474,50.657v1.27l0.508-0.508v-0.254L14.474,50.657z M16.505,58.529v1.016h-0.508v-0.508L16.505,58.529z M17.013,24.503v0.254
			l0.254,0.254v0.254l-0.254,1.016c0.338,0.381,0.508,0.974,0.508,1.777h0.508c0.338,0,0.508-0.254,0.508-0.762
			c0-0.549-0.339-1.227-1.016-2.031l0.254-0.254v-0.254l-0.254-0.254C17.521,24.503,17.013,24.503,17.013,24.503z M17.267,62.591
			v1.27c0.338,0.847,0.931,1.27,1.777,1.27l0.762-0.762c-0.254-1.354-0.847-2.031-1.777-2.031L17.267,62.591z M17.521,78.081v0.762
			h0.508v-0.762H17.521z M17.774,79.096c0.127,1.355,0.381,2.031,0.762,2.031l0.254-0.254V80.62l-0.254-1.523L17.774,79.096
			L17.774,79.096z M19.044,28.058v0.508l0.508,0.508l0.254-0.254v-0.508L19.044,28.058z M19.298,92.808v0.508l2.286,0.508h0.254
			V93.57l-2.286-0.762H19.298z M20.06,26.281v0.254h1.27l0.254-0.762l-0.254-0.254h-0.508L20.06,26.281z M20.06,27.55v1.016
			l1.016,0.508v-0.508c-0.254-0.676-0.508-1.016-0.762-1.016H20.06z M20.822,39.23v0.762h0.762L21.33,39.23H20.822z M22.345,59.798
			l0.254,0.254v0.762h-1.016l-0.762-0.762L22.345,59.798z M21.583,62.591l-0.508,0.762l0.508,0.508l0.508-0.508v-0.254
			L21.583,62.591z M21.837,66.4v0.508l0.508,0.508l0.508-0.508L22.091,66.4H21.837z M23.361,37.707l0.254,0.254h0.254l0.508-0.508
			v-0.254h-0.508L23.361,37.707z M23.615,57.767v0.508h0.254l0.508-0.508H23.615z M27.677,100.934h0.254l0.508,0.508l-0.254,0.254
			h-0.254l-0.254-0.254V100.934z M28.439,85.444h0.508l0.254,0.254l3.555,2.285v0.508l-1.523-0.762v0.254l-1.27-0.762l-1.269,0.508
			l-0.508-0.762l0.508-0.762l-0.254-0.254L28.439,85.444L28.439,85.444z M34.533,83.159l0.508,0.762v0.254l-1.27-0.254
			L34.533,83.159z"/>
		<path fill="#FFFFFF" d="M24.502,2.539l1.778,0.254v0.508l-0.762,0.762h-0.254C24.756,3.894,24.502,3.386,24.502,2.539z
			 M26.788,10.665l0.508,1.269l-1.016-0.762L26.788,10.665z M29.073,4.316h0.508v0.762l0.254,1.777h-0.762l-0.762-1.524
			L29.073,4.316z M30.088,21.329h0.762c0,0.678,0.422,1.016,1.269,1.016v1.016h-0.508C30.596,22.769,30.088,22.091,30.088,21.329z
			 M32.881,10.157l-0.762,0.762h-0.508v-0.508L32.881,10.157z M66.653,20.821c0,0.678,1.016,1.016,3.047,1.016h0.508l0.254-0.254
			l0.762,0.254c4.739,0,7.11,0.424,7.11,1.27l0.762,4.825l-0.508,1.523l1.016,1.523v0.762c-0.678,0-1.016,1.101-1.016,3.301
			l0.508,1.016l-0.762,0.762c0,0.508,0.422,0.762,1.27,0.762c0,1.99-0.169,3.344-0.508,4.063c0.254,1.185,0.762,1.777,1.524,1.777
			v0.508h-1.27c-0.339,0-0.593,0.593-0.762,1.777c0.508,1.355,1.27,2.031,2.285,2.031v0.508c0,0.466-0.762,0.889-2.285,1.27v1.269
			l0.254,1.016l-0.254,0.254v0.254l0.254,1.27l-0.254,1.777l0.254,2.54l-0.254,3.047l0.254,3.047l-0.254,1.778l0.254,0.254v0.254
			l-0.254,0.762l0.254,1.523l-0.254,2.031l0.254,0.254v0.254l-0.254,0.254l0.254,3.809v1.27l-0.254,2.793l0.508,1.27l-0.254,0.762
			v0.508h0.254l-0.508,5.586l0.254,1.777l-0.254,1.27l0.254,2.031l-0.254,1.016l0.254,2.793v5.333c0,0.847-0.339,1.354-1.016,1.523
			l-0.762-0.254l-3.809,0.254h-4.57l-1.016-0.254l-1.27,0.508c-0.466,0-1.228-1.608-2.286-4.825L54.972,70.59
			c0.338-0.381,0.508-0.973,0.508-1.777h0.508v-0.254h-0.254l-0.762,0.254v-0.254l-1.016-1.27v-0.508l0.254-0.762h-0.254
			c-0.635,0-1.312-1.862-2.031-5.586l0.508-0.508v-0.254c-0.974,0-2.074-2.285-3.301-6.856H48.37v0.254l0.254,1.777l-0.254,1.777
			h0.254l-0.254,0.762l0.254,2.031l-0.254,2.285h0.254l-0.254,0.254v0.254l0.254,2.539l-0.254,1.778h0.254l-0.508,0.762l0.508,4.063
			l-0.254,2.286l0.508,1.27l-0.254,4.316v6.348l0.254,8.126l-0.254,3.301l0.254,0.762l-0.254,1.524l0.254,3.047
			c-0.17,0.676-0.678,1.016-1.523,1.016h-0.508l-2.54-0.254l-1.523,0.254l-2.285-0.254l-3.301,0.254
			c-0.339-0.676-0.508-1.608-0.508-2.793v-1.523l0.254-1.778l-0.254-2.285v-5.079l0.254-1.016l-0.508-1.27l0.508-1.523l-0.254-1.27
			l0.254-0.254l-0.254-1.777v-0.762l0.254-1.524l-0.508-1.523l0.508-2.539L36.436,74.4l0.508-1.27l-0.508-1.27l0.254-1.27
			l-0.254-3.809V50.53l-0.254-0.254l0.254-0.254v-2.286l-0.254-1.523l0.254-1.27l-0.254-1.016l0.254-1.016l-0.254-1.27h0.254
			l-0.254-0.254l0.254-1.27v-5.078l-0.254-0.254l0.508-0.762l-0.508-3.555l0.508-4.316l-0.508-0.762l0.508-1.269l-0.254-1.524h0.254
			l2.285-0.508H49.64c0.295,0,1.565,3.64,3.809,10.919l-1.016,2.031l0.762,0.508l0.762-0.254v0.254
			c0.804,2.836,2.073,7.068,3.809,12.696l2.793,9.142l-0.254,0.254h-0.254l-0.254-0.762h-0.508v0.762
			c1.523,0.466,2.285,1.228,2.285,2.285l0.762,2.539l-0.254,0.254v0.254c2.031,5.079,3.047,8.633,3.047,10.665v1.27
			c0.846,0,1.27-1.27,1.27-3.809v-0.762l-0.254-0.254l0.254-0.254l-0.254-3.809v-5.586l0.254-1.016L66.145,58.4l0.254-6.856
			l-0.254-0.762l0.254-1.269l-0.254-4.063l0.508-1.27l-0.254-0.762l0.254-0.254l1.016,0.508l0.254-0.254l-0.254-0.254V42.91
			l0.508-1.016c-0.508,0-0.932-0.846-1.27-2.54h0.508V38.85l-0.762,0.508c-1.355-1.1-2.032-2.37-2.032-3.809
			c1.016,0,1.524-1.016,1.524-3.047v-1.016l-0.254-0.254l0.254-0.254l-0.254-3.047v-0.762l-1.016-0.254
			c0.169-0.676,0.508-1.016,1.016-1.016v-1.777l-0.508-0.762l0.508-1.016l-0.254-1.27L66.653,20.821z M37.198,0.254L37.452,0h0.762
			l1.27,0.254v0.762l-1.016,2.539h-0.254C37.875,3.555,37.536,2.455,37.198,0.254z M37.452,54.847l-0.254,0.254v0.254l0.254,0.254
			h0.254l0.254-0.254v-0.254l-0.254-0.254H37.452z M37.96,13.204v0.254h0.762v-0.762h-0.254L37.96,13.204z M39.737,11.172
			l-0.254,1.016l0.254,0.254h0.254l0.508-0.508L39.737,11.172z M41.261,33.771v0.254l1.524,1.27l0.762-1.27l-0.508-0.508
			L41.261,33.771z M43.8,0.254h0.508l1.016,0.762h0.254C45.662,0.339,45.916,0,46.339,0h2.031l1.523,0.508l0.762,2.031V4.57h-0.762
			c-0.635-0.549-1.142-1.311-1.523-2.285c-0.593,0-1.185-0.338-1.777-1.016l-2.286,0.508V1.523l-2.539,0.762
			C41.768,0.931,42.445,0.254,43.8,0.254z M45.323,34.787v0.254h1.016v-0.254l-0.508-0.508L45.323,34.787z M45.323,42.151
			l0.254,0.762h0.762v-0.508l-0.508-0.508l-0.254,0.254C45.577,42.151,45.323,42.151,45.323,42.151z M45.577,49.769v0.254h1.778
			v-1.016h-1.016L45.577,49.769z M46.593,51.546v0.762h0.762v-0.762H46.593z M49.132,7.364c0.338,0,0.508,0.508,0.508,1.523
			l0.762,0.762v0.762l-2.793-2.793l0.254-0.254H49.132z M48.371,4.824v0.762l-0.508-0.508l0.254-0.254H48.371z M49.894,47.991v0.254
			l0.508,0.508l0.254-0.254v-0.508H49.894z M51.164,34.279l-0.254,0.254v0.508l1.016,0.254l0.254-0.254v-0.508L51.164,34.279z
			 M53.956,60.941v0.762h0.254l0.508-0.508l-0.254-0.254H53.956z M55.48,49.515l-0.254,1.269c0.846,0.042,1.27,0.212,1.27,0.508
			c0.846-0.296,1.27-0.804,1.27-1.523h-0.254l-1.016,0.254l-0.508-0.508C55.988,49.515,55.48,49.515,55.48,49.515z M56.75,60.179
			v0.762h0.508l0.508-0.508v-0.762h-0.508L56.75,60.179z M56.75,64.242v0.508c0.676,0,1.016,0.339,1.016,1.016h0.762v-0.254
			c-0.339-0.762-0.678-1.185-1.016-1.27C57.512,64.242,56.75,64.242,56.75,64.242z M57.258,54.847l0.254,0.254v0.254l0.254-0.254
			h0.508l0.762,0.508h0.254v-0.762c-0.678,0-1.016-0.168-1.016-0.508h-0.508L57.258,54.847z M64.875,15.743l0.762,0.762h1.016
			l1.777-0.254l0.254,0.254v0.762l-1.523-0.254l-0.762,0.254v0.508l0.762,0.762l0.762-0.508h0.254c0,0.55-0.254,1.143-0.762,1.777
			l-1.27-0.254l-0.762,0.508h-0.762v-0.254c0-0.93,0.508-1.438,1.524-1.524v-0.254c-0.974-0.762-1.566-1.438-1.778-2.031
			l0.254-0.254C64.621,15.743,64.875,15.743,64.875,15.743z M64.367,95.728v2.285l0.508,0.508h0.254l0.254-1.777V96.49l-0.762-0.762
			H64.367z M64.621,91.919v1.523l0.508-0.508v-1.523L64.621,91.919z M65.129,83.54l-0.254,0.762l0.254,1.016l-0.254,1.016h0.508
			l0.254-2.539l-0.254-0.254L65.129,83.54L65.129,83.54z M65.129,75.922v0.254l0.254,0.762l-0.254,1.269v3.809l0.254-0.254
			L65.637,81h0.254l-0.254-1.777v-0.508l0.254-1.523C65.679,76.346,65.425,75.922,65.129,75.922z M65.637,100.045v0.762h0.254
			l0.508-0.508l-0.254-0.762L65.637,100.045z M72.239,10.157h0.508v0.762c-0.466,0-0.974,0.254-1.523,0.762l-0.254-0.254v-0.254
			L72.239,10.157z M71.985,12.188l0.508,0.508v0.254l-1.016,0.254v-0.508L71.985,12.188z M73.762,35.295v0.762h1.269l0.254-0.762
			H73.762z M80.872,15.235l0.762,0.254l0.762-0.254l0.508,0.508h0.254l0.254-0.254h0.254l0.762,1.016v0.254l-3.555-1.016
			L80.872,15.235L80.872,15.235z M81.634,43.928h0.254c1.016,0,1.523,0.254,1.523,0.762h-0.508l-1.27-0.254L81.634,43.928
			L81.634,43.928z M85.951,42.913l1.27,0.254v0.508h-2.032v0.508h-0.762v-0.254c0-0.338,0.508-0.592,1.524-0.762V42.913z
			 M88.744,68.813h0.254v1.777l0.508,0.762v0.254c-1.228,0-1.904-0.254-2.031-0.762C87.474,69.914,87.896,69.236,88.744,68.813z
			 M91.283,41.897h0.762l0.254,0.254l0.254-0.254h0.254c1.016,0.339,1.523,0.677,1.523,1.016l-2.285,0.508l-0.254-0.254h-1.016
			l-0.254,0.254h-0.254v-0.254L91.283,41.897z M95.345,42.405c1.524,0.169,2.286,0.423,2.286,0.762l-0.508,0.508l-2.793-0.508
			l0.254-0.254l0.762-0.254L95.345,42.405L95.345,42.405z M99.662,72.875h0.508v0.762h-0.508V72.875z"/>
		<path fill="#FFFFFF" d="M81.823,3.809l1.016,0.254v0.254c0,0.339-1.185,0.678-3.555,1.016V5.078
			C79.284,4.697,80.131,4.275,81.823,3.809z M85.632,55.354v0.762h-0.508v-0.254L85.632,55.354z M86.14,3.301l1.016,0.254v0.508
			L86.647,4.57c-0.847-0.211-1.27-0.465-1.27-0.762V3.555L86.14,3.301z M89.949,4.316h0.762l0.254,1.269h-0.762L89.949,4.316z
			 M101.375,78.969c0.508-0.042,0.762,0.381,0.762,1.27l1.016,0.762l-0.762,0.254c0,2.709,0.93,5.502,2.793,8.379v0.508
			l-0.254,1.524l0.508,2.285l-0.508,3.555l0.254,0.762l-1.016,2.54h-0.254l-1.524-0.762l-0.254,0.762h-0.254
			c-2.371-0.677-4.317-2.2-5.84-4.571l0.254-1.523l-0.508-0.508h0.254l0.762,0.508l0.254-0.254h0.254
			c-0.296-0.762-0.804-1.354-1.523-1.777h-0.254c-0.339,0-0.508,0.508-0.508,1.523h-0.508c-1.439-1.481-2.709-4.274-3.809-8.379
			l0.508-0.508c-0.678-0.168-1.016-0.676-1.016-1.523V83.54c0-1.862,0.508-2.793,1.523-2.793c0.846,0,1.27-0.338,1.27-1.016
			l0.254,0.254h0.254l2.793-0.508l1.016,0.254C97.777,79.35,99.131,79.096,101.375,78.969z M104.168,20.821h0.508l1.27,1.523
			c-0.127,1.82-0.381,2.92-0.762,3.301l0.762,1.016l-0.254,0.254v0.254l0.508,1.524l-0.254,0.762l0.254,1.27
			c0,1.101-0.677,2.963-2.031,5.587c-0.339,0.677-0.508,1.777-0.508,3.301v0.508c0,2.032,0.93,5.248,2.793,9.649l-0.508,0.508
			c-0.339,0-0.508-0.254-0.508-0.762h-0.508l-0.254,0.254h-0.254c-0.127-0.846-0.381-1.27-0.762-1.27
			c-0.551,0-0.974,0.847-1.27,2.54l0.762,0.254V51.04l0.254,0.254h1.523l0.254,1.016l-0.254,0.254l0.254,1.27v2.031l0.762,0.254
			l0.254-0.254v1.27l-0.762,0.762v-0.508h-0.254v0.762l0.254,1.523c-0.212,2.709-0.55,4.063-1.016,4.063
			c-4.698-3.977-7.999-7.532-9.903-10.665c-0.847-1.396-1.27-3.343-1.27-5.84V46.47l-0.508-0.508v2.031h-0.254
			c-0.847,0-1.355-2.2-1.524-6.602l1.524-0.508l-0.254,0.254v0.508l0.254,0.254v0.254l-0.508,0.508v0.254h0.508v1.269l0.508,0.508
			v-0.254l-0.254-2.285l0.508-0.508c-0.339-0.296-0.508-1.143-0.508-2.54l-0.254-0.254h-0.254l-0.254,1.524
			c-0.847-0.423-1.27-1.27-1.27-2.54c0.338-0.465,0.592-1.735,0.762-3.809h0.508l-0.254,0.762l0.508,3.301h0.254l0.508-3.047
			l-0.508-1.016c0-1.989,0.422-3.512,1.27-4.571l0.254,0.254h0.762l-0.254-1.777c1.946-3.089,4.824-5.374,8.633-6.856
			L104.168,20.821z M91.472,4.063L91.98,4.57l-0.254,0.254v0.254l-0.762-0.254V4.57L91.472,4.063z M92.996,4.57h0.762L93.25,5.078
			h-0.254V4.57z M93.503,82.778v0.762h0.508v-0.762H93.503z M94.519,84.81v0.762h0.508V84.81H94.519z M95.027,47.483v0.762h0.508
			l0.508-0.508v-0.254H95.027z M96.804,28.947v0.254c0,0.381,0.931,0.805,2.793,1.269l-0.254-0.254v-0.762l0.254-0.254v-0.254
			l-0.508-0.508v-0.762l0.254-0.254v-0.254h-0.508C97.862,27.72,97.185,28.312,96.804,28.947z M97.312,80.239v1.27h0.508v-0.762
			L97.312,80.239z M102.645,6.856l0.254,0.254v0.254l-2.031,1.016l-0.254-0.254h-0.254L98.836,8.38l-1.27-0.508V7.618l0.254-0.254
			V7.11l0.254,0.254h0.762l1.524-0.254l0.762,0.254L102.645,6.856z M98.581,86.079l0.254,1.777h0.254l0.254-1.27l-0.508-0.508
			L98.581,86.079L98.581,86.079z M100.105,24.63v0.254h1.016V24.63l-0.508-0.508L100.105,24.63z M100.867,33.518v0.762h0.508v-0.762
			H100.867z M101.883,24.376v0.762l0.762,0.762l0.508-0.762l-0.254-1.27h-0.508L101.883,24.376z M104.168,101.568h0.254l0.508,0.508
			h-0.254L104.168,101.568z M104.168,103.854l0.508,0.508v0.254h-0.508V103.854z M107.469,50.53l1.524,2.031l-2.031,1.777
			c-0.381,0-0.72-0.846-1.016-2.539L107.469,50.53z M106.707,60.941h0.508c1.862,1.101,2.794,2.625,2.794,4.571l0.254,0.254v0.508
			c-0.339,0-0.508,0.254-0.508,0.762l-0.254,1.016l-0.254,0.254h-0.254l-3.047-3.047v-0.508h1.523v-0.508
			c-0.847-0.803-1.269-1.734-1.269-2.793L106.707,60.941z M109.246,19.806c4.02,0,8.506,1.185,13.458,3.555l0.762-0.254
			c0.465,1.016,1.396,1.524,2.793,1.524l0.254,0.254v0.254l-1.269,1.016c1.481,1.524,2.496,2.285,3.047,2.285
			c0,1.186,0.846,1.777,2.54,1.777c0.338,0.847,0.93,1.27,1.777,1.27l0.508-0.508h0.762l-1.016,1.524l0.762,0.254v0.508h-0.508
			c0,0.508-0.593,1.016-1.777,1.523l-0.254-0.254h-1.778v0.762c0,0.508,0.338,1.185,1.016,2.031v0.254
			c-0.424,0.847-1.355,1.27-2.793,1.27c-0.339,0-0.508,0.254-0.508,0.762l-0.254,0.254h-3.809c-0.847,0-1.27,0.17-1.27,0.508
			l-0.254-0.254h-0.254l-1.524,0.508v-0.254l-0.254,0.254h-1.523v-0.508l0.254-1.27c-0.423,0-1.016-1.354-1.777-4.063
			c-0.55-1.312-2.412-2.666-5.586-4.063V30.47l-1.27,0.254c-1.016-0.465-1.523-1.142-1.523-2.031l0.254-2.285l-0.254-1.269
			l0.508-0.508v-0.508c-0.508-0.635-0.762-1.227-0.762-1.778v-1.777C107.723,20.272,108.23,20.018,109.246,19.806z M109.5,55.101
			h0.254v0.254l-0.508,0.508h-0.254v-0.254L109.5,55.101z M112.801,55.862h0.508c5.67,4.402,9.903,8.719,12.696,12.95
			c0,0.423,0.762,1.693,2.285,3.809l0.254,1.524c0,0.847-0.593,1.27-1.777,1.27v0.254l1.27,0.762h0.762v-0.508
			c0.973,0,1.566,2.371,1.778,7.11c0.168,3.894-1.27,8.379-4.317,13.458c-0.677,0-1.101,0.339-1.27,1.016l-0.254-0.254h-0.762
			l0.254,1.27c-3.471,2.54-5.925,3.809-7.364,3.809l-0.254-0.254h-0.254l-1.016,0.254h-0.254v-0.762l-1.016,1.27h-1.777
			l-0.762-0.508l-1.523,0.508l-0.508-1.777l0.508-0.762c-0.678-0.931-1.016-2.2-1.016-3.809c0-3.215,0.508-4.824,1.524-4.824
			c1.946,0,3.977-0.931,6.094-2.793c0.931,2.286,1.608,3.555,2.031,3.809v-0.508c-0.847-2.159-1.27-3.936-1.27-5.333
			c0.508-0.719,0.762-2.581,0.762-5.586h-0.254l0.254-0.254v-0.254c-0.931-3.258-2.285-5.797-4.063-7.618l0.254-1.27v-0.508
			c-0.677,0-1.016-0.676-1.016-2.031l-0.254-0.762H112.8l0.508-2.793l-0.508-0.508v-1.524c0-1.438,0.762-2.454,2.285-3.047
			l0.254-0.254V60.18l-0.254-0.762h0.762v-0.762C114.452,58.656,113.436,57.725,112.801,55.862z M113.309,26.408l-0.254-0.254
			h-0.508c-1.523,0.296-2.285,0.635-2.285,1.016v0.508l1.777,0.254l2.539-1.524l1.523,0.254h0.254l-2.031-1.016h-0.254
			L113.309,26.408z M112.039,93.951v0.254l0.508,0.508l0.254-0.254v-0.254l-0.254-0.254
			C112.547,93.951,112.039,93.951,112.039,93.951z M113.563,99.029l-0.254,1.27v1.016h0.254l0.508-0.508V99.03L113.563,99.029
			L113.563,99.029z M114.071,68.813l-0.508,1.016l0.762,0.254l0.254-0.254V69.32L114.071,68.813z M115.848,70.336l-0.508,0.762
			v0.508l0.508,0.508h0.762l1.016-0.508C117.372,70.76,116.778,70.336,115.848,70.336z M118.133,33.518v0.762h0.254l0.508-0.508
			v-0.254H118.133z M119.403,90.65v0.508h0.254l0.508-0.508H119.403z M119.911,71.098v0.254l1.016,1.016h0.508v-1.016
			L119.911,71.098z M119.911,89.126v0.508h0.762v-0.508H119.911z M121.181,81.001v0.508l0.508,0.508l1.523-1.27l-0.508-0.508h-0.762
			L121.181,81.001z M121.435,67.035v0.254h0.508l0.254-0.254h0.254l-0.254-0.762L121.435,67.035z M123.212,68.051v0.254l0.508,0.508
			v-0.762H123.212z M124.735,85.571v0.762h0.762v-0.254l-0.508-0.508H124.735z M126.767,72.875l-0.254,0.762h0.254l0.508-0.508
			v-0.254H126.767z M126.767,85.317v0.508h0.762v-0.508H126.767z M127.782,77.446v0.762l0.508-0.508v-0.254H127.782z
			 M127.782,79.477v0.254l0.254,0.762h0.762v-0.254L127.782,79.477z M147.08,49.261c0,0.72,0.931,1.566,2.793,2.539l0.508-0.508
			l2.031,0.254V50.53l1.523,0.254l0.762-0.254l0.254,0.254v0.254l-2.793,1.523h-1.269l-0.254,0.762l-0.762-0.508l-0.254,0.254
			l-1.523-0.254l-2.793,0.254l-0.508-0.508h-0.254v1.27l-2.031-0.508l-0.508,0.508l-0.254-0.254h-0.254l-1.016,0.254l-2.793-1.27
			v0.254l0.254,1.016v0.254l-0.254,0.254l0.254,0.762l4.063-0.508l0.762,0.254v0.508c-2.371,0.212-3.555,0.551-3.555,1.016
			l-1.27-0.254l-1.523,0.508l-1.27-0.254v1.27l-1.27-0.254h-0.254c-1.186,1.058-1.777,1.989-1.777,2.793l-1.27-0.254l0.508,1.523
			l-1.27,0.254c-0.508-0.168-0.762-0.676-0.762-1.523l1.27-1.016l0.762,0.254l0.762-3.555l-0.254-0.254v-0.254l0.254-1.016
			l1.777,0.254v-0.508l1.27,0.254c0-0.676,0.254-1.016,0.762-1.016l1.27-1.016l-0.508-0.508v-0.254l0.762-0.254l0.762,0.254
			l0.508-1.016h0.254l0.254,1.27l-0.254,0.762l0.254,0.254h0.254l0.254-0.254l0.508,0.508h1.016l3.047-1.777v-0.508l-0.254-0.254
			v-0.254L147.08,49.261z M130.322,27.931h0.762v0.254l-0.508,0.508l-0.254-0.254V27.931z M131.337,52.562v0.762h-0.508V53.07
			L131.337,52.562z M133.876,32.756h0.762l0.508,0.508l-1.27,0.254L133.876,32.756L133.876,32.756z M135.146,31.232l1.523,0.254
			l0.254-0.254h0.254l0.254,1.016h0.762c0-0.508,0.169-0.762,0.508-0.762v0.254l-0.254,0.254l0.508,1.016l-0.508,1.523v1.27h-0.254
			c-0.804-0.168-1.736-1.1-2.793-2.793l0.762-0.254v-0.254l-0.508-0.508l-0.254,0.254l-0.762-0.254V31.74L135.146,31.232z
			 M135.4,55.101l1.27,0.762l0.254-0.254v-0.508l-0.508-0.508h-0.508L135.4,55.101z M139.462,30.724h0.254l1.778,0.508v0.508h-0.762
			L139.462,30.724z M143.018,31.232l-0.508,0.508h-0.762v-0.254L143.018,31.232z M146.826,53.577l0.254,0.254h0.254l1.523-0.254
			c0,0.381,0.254,0.551,0.762,0.508l3.301-0.254c0,0.974-1.101,1.65-3.301,2.031l-0.762-0.254l-2.031,0.762h-1.016
			c-1.101,0-1.777-0.338-2.031-1.016h-0.508V55.1l1.777-1.016h0.508c0,0.508,0.169,0.762,0.508,0.762h0.254
			C146.318,54,146.487,53.577,146.826,53.577z M145.049,30.978l2.539,0.508v0.508h-1.777v0.508h-0.508l-1.523-1.27L145.049,30.978z
			 M148.096,43.42h0.508v1.016l-0.508,0.508h-0.762v-0.508l-1.777,0.508l-0.254-0.254v-0.254l2.539-0.762L148.096,43.42z
			 M148.604,49.261h0.254c1.016,0,1.524,0.508,1.524,1.523v0.254h-0.762l-1.016-1.27V49.261z M149.619,31.486h0.508l0.508,0.508
			l-0.254,0.254h-0.254l-1.016-0.254L149.619,31.486z M154.19,42.405h1.016v0.508l-3.047,0.254h-0.762l-0.508,1.777h-0.254
			l-1.524-1.524C149.619,42.744,151.311,42.405,154.19,42.405z M151.651,44.182l0.762,0.254v0.508h-1.016V44.69l0.254-0.254
			L151.651,44.182L151.651,44.182z M153.428,53.577h0.762l0.254,0.254v0.254h-0.254l-0.762-0.254V53.577z M154.19,39.865
			c1.016,0.17,1.523,0.424,1.523,0.762l-0.254,0.254h-0.508l-0.762-0.762L154.19,39.865L154.19,39.865z M157.491,35.295l0.762,0.762
			v0.508l-1.27-0.254v-0.508L157.491,35.295z"/>
		<path fill="#FFFFFF" d="M132.035,98.648h0.508l0.762,0.762v0.508h-0.508l-0.762-0.762V98.648z M135.336,21.964
			c0.296,0,1.396,2.455,3.301,7.364c-0.212,2.371-0.635,3.555-1.27,3.555h-0.762v-0.508l-1.777-10.157l0.254-0.254H135.336z
			 M135.082,98.902l0.254,0.254h0.254l1.27-0.254l0.508,0.508l0.254-0.254h0.254l1.523,0.508l1.27-0.254l0.508,1.016l1.016-0.508
			l0.254,0.254v0.508l-0.508,0.508l-1.016-0.254l-2.031,0.508c-0.085-0.381-0.762-0.804-2.031-1.27l-0.762-0.762l-0.254,0.254
			h-0.254l-0.508-0.508L135.082,98.902L135.082,98.902z M144.477,22.218h4.317c0.889,0,1.65,0.254,2.285,0.762l3.047-0.762
			c1.227,0,1.904,0.847,2.031,2.539c-0.339,0.508-0.593,1.524-0.762,3.047l0.762,1.27c0,0.847-0.169,1.27-0.508,1.27l0.254,0.254
			v0.254l-0.254,1.778l0.762,0.762l-0.508,0.508v0.762l0.508,1.523c0.338,0,0.508,0.423,0.508,1.269c0.508,0,0.762,0.17,0.762,0.508
			v0.254c-1.355,0-2.031,0.847-2.031,2.539c-0.805,0.127-1.482,0.55-2.031,1.27h-0.254c-0.381,0-0.805-1.1-1.27-3.301h-1.27
			l-0.762-0.508c0,0.847-0.762,1.27-2.285,1.27c0-0.422-0.339-0.676-1.016-0.762c-0.593,0-1.523,0.508-2.793,1.523h-0.762
			l-0.254-0.762l0.254-2.031l-0.254-4.063l0.254-0.762h-0.254c0.211-1.185,0.465-1.778,0.762-1.778
			c-0.085-0.973-0.339-1.735-0.762-2.285v-4.824C142.954,22.726,143.461,22.218,144.477,22.218z M155.903,51.419
			c1.227,2.92,1.989,4.443,2.285,4.57l-0.508,1.524c0.676,0.169,1.016,0.677,1.016,1.523c-0.508,0-0.762,0.339-0.762,1.016h-0.254
			c-0.339,0-0.508-0.254-0.508-0.762l-0.254-0.254h-0.254l-1.523,0.762l-1.016-1.27h-0.254c-0.847,0-1.27,0.423-1.27,1.27
			c-1.016,0-1.524,0.169-1.524,0.508v0.508l0.762,1.27l1.778-0.254h1.016c0,0.508,0.422,0.762,1.27,0.762
			c0.295,1.186,0.635,1.777,1.016,1.777v0.508c-0.677,0-1.016,0.678-1.016,2.032c0.676,0.212,1.016,0.72,1.016,1.523l0.762,0.254
			v0.508l-0.762,0.762c0,0.889,0.338,1.736,1.016,2.539v0.254l-0.762,1.016l0.508,0.508l0.762-0.254l0.508,1.27l-0.762,0.508
			l-1.016-0.254v0.254l0.508,0.508l0.254-0.254h0.254l0.254,0.254v0.762h-0.254l-1.27-0.254v0.762c0.465,0,0.973,0.593,1.523,1.777
			l-1.523,1.016v0.254l0.254,0.254v0.254l-1.523,0.254c1.184,0.805,1.777,1.566,1.777,2.286h0.762
			c0.084-0.677,0.338-1.016,0.762-1.016l0.508,0.508l-0.254,0.762l0.762,0.762l-0.254,0.254h0.254l-0.762,1.27l0.254,0.254v0.508
			l-1.016,1.523l-1.016-0.254h-0.508v0.254c0.719,0,1.311,0.424,1.777,1.27v0.254h-0.762l-1.016-0.762l-0.508,0.508v0.508
			l0.254,0.254l-1.016,3.809l-1.27-0.508h-0.254v0.254c1.354,0.339,2.031,0.847,2.031,1.523l-0.508,0.762l0.508,1.523v0.762h1.27
			v0.254c-0.593,0-1.101,0.254-1.524,0.762l0.254,1.27v1.777c0,0.549-0.339,0.803-1.016,0.762l-3.555-0.254l-0.254,0.254h-0.254
			l-1.523-0.508l-0.254,0.254h-0.254l-0.254-0.254l-2.539,0.254h-1.27c-1.016,0-1.523-0.508-1.523-1.524v-5.84l-0.254-2.285
			l0.508-1.523l-0.254-1.016l0.508-0.508l5.84,2.031V92.05c-3.555-0.931-5.586-1.692-6.094-2.286v-1.016l0.508-0.508l-0.508-2.031
			c0-1.311,0.508-2.412,1.523-3.301l0.762,0.508l0.762-2.032h0.254V80.62h-0.762l-0.762,0.508h-0.762c0-0.846-0.508-1.27-1.524-1.27
			l0.508-1.27l-0.254-2.285l0.254-2.031l-0.254-1.016l0.254-1.016l-0.254-0.254v-0.254l0.254-0.254v-0.254l-0.762-2.285h0.508
			l-0.254-1.777v-0.508c0-0.338,0.254-0.508,0.762-0.508s0.762,0.423,0.762,1.27h2.031l2.539-0.762v0.762
			c-0.677,0.804-1.016,1.65-1.016,2.539l1.016,0.508l1.523-0.762l0.762,0.762h0.254v-0.762l-1.27-2.285l0.508-1.27h-1.523
			c0-0.804-0.762-1.481-2.285-2.032l-0.254-1.27V62.59c0.508,0,0.762-0.254,0.762-0.762h0.508l0.254,0.254h0.254V61.32l-0.508-0.762
			v-0.762c0.676,0,1.016-0.338,1.016-1.016h0.254l-0.254-0.254v-0.254l0.254-0.762l-0.254-0.762h0.254l1.777,0.508h1.524v-0.508
			c-0.847-0.127-1.27-0.381-1.27-0.762s0.508-1.057,1.524-2.031V53.45c0.846,0,1.27-0.592,1.27-1.777h0.254l0.762,0.254
			L155.903,51.419z M150.317,46.086h0.254v0.508c0,0.889-0.847,2.159-2.539,3.809l0.254,1.016l-0.508,1.523h0.762v-0.508h0.762
			v0.508c0,0.381-1.185,0.72-3.555,1.016c-1.186-0.254-1.777-0.592-1.777-1.016V52.18c0.508,0,0.762-0.168,0.762-0.508v-0.508
			c-0.678,0-1.016-0.254-1.016-0.762c0-1.227,1.607-2.243,4.824-3.047v0.254L150.317,46.086z M144.731,69.955v1.27h0.254
			l1.016-1.016l-0.254-0.254H144.731z M146.254,84.175v0.508l1.523,0.254v-0.508l-0.508-0.508L146.254,84.175z M146.508,50.657v1.27
			l0.508-0.508v-0.254L146.508,50.657z M148.539,58.529v1.016h-0.508v-0.508L148.539,58.529z M149.047,24.503v0.254l0.254,0.254
			v0.254l-0.254,1.016c0.338,0.381,0.508,0.974,0.508,1.777h0.508c0.338,0,0.508-0.254,0.508-0.762c0-0.549-0.339-1.227-1.016-2.031
			l0.254-0.254v-0.254l-0.254-0.254C149.555,24.503,149.047,24.503,149.047,24.503z M149.301,62.591v1.27
			c0.338,0.847,0.931,1.27,1.777,1.27l0.762-0.762c-0.254-1.354-0.847-2.031-1.777-2.031L149.301,62.591z M149.555,78.081v0.762
			h0.508v-0.762H149.555z M149.809,79.096c0.127,1.355,0.381,2.031,0.762,2.031l0.254-0.254V80.62l-0.254-1.523L149.809,79.096
			L149.809,79.096z M151.079,28.058v0.508l0.508,0.508l0.254-0.254v-0.508L151.079,28.058z M151.332,92.808v0.508l2.286,0.508h0.254
			V93.57l-2.286-0.762H151.332z M152.094,26.281v0.254h1.27l0.254-0.762l-0.254-0.254h-0.508L152.094,26.281z M152.094,27.55v1.016
			l1.016,0.508v-0.508c-0.254-0.676-0.508-1.016-0.762-1.016H152.094z M152.856,39.23v0.762h0.762l-0.254-0.762H152.856z
			 M154.38,59.798l0.254,0.254v0.762h-1.016l-0.762-0.762L154.38,59.798z M153.618,62.591l-0.508,0.762l0.508,0.508l0.508-0.508
			v-0.254L153.618,62.591z M153.872,66.4v0.508l0.508,0.508l0.508-0.508l-0.762-0.508H153.872z M155.395,37.707l0.254,0.254h0.254
			l0.508-0.508v-0.254h-0.508L155.395,37.707z M155.649,57.767v0.508h0.254l0.508-0.508H155.649z M159.712,100.934h0.254
			l0.508,0.508l-0.254,0.254h-0.254l-0.254-0.254V100.934z M160.474,85.444h0.508l0.254,0.254l3.555,2.285v0.508l-1.523-0.762v0.254
			l-1.27-0.762l-1.27,0.508l-0.508-0.762l0.508-0.762l-0.254-0.254L160.474,85.444L160.474,85.444z M166.568,83.159l0.508,0.762
			v0.254l-1.27-0.254L166.568,83.159z"/>
		<path fill="#FFFFFF" d="M189.737,20.504l6.094,2.031h0.254l3.301-0.508l0.508,0.508h1.016l0.254-0.254h0.254v0.762l-2.285,0.762
			v0.254c0.084,0.508,1.184,0.931,3.301,1.27l0.254,0.254l0.254-0.254v-0.254c3.343,0.55,5.29,1.058,5.84,1.524h0.508
			c0.846,0,1.27-0.168,1.27-0.508l0.254,0.254h1.777l0.254-0.254h0.254l0.254,0.254v0.254h-0.508v0.762l1.016,0.254l-0.508,1.016
			h-0.254l-2.031-0.508h-0.254c0,0.508-0.254,0.762-0.762,0.762l-2.286-0.508c-0.593,0.169-1.016,0.762-1.27,1.777l0.254,0.254
			h0.508l-0.254-0.254V29.9l0.508-0.508h0.762l0.762,0.508h0.508c0.592,0,1.27-0.338,2.031-1.016l0.762,0.508l0.762-0.508h1.27
			c0,0.678-0.508,1.355-1.524,2.031v0.254h-1.269c0-0.508-0.169-0.762-0.508-0.762h-0.508v0.508l3.047,2.032h1.016l0.762-0.508
			l-0.254-0.762h-1.016c0,0.508-0.339,0.762-1.016,0.762v-0.762c0-0.338,0.846-0.676,2.539-1.016c0,1.313,0.677,2.328,2.031,3.047
			l-0.254,0.254h-1.523v-0.508h-0.508l-1.777,1.016l0.762,1.523h1.016l0.254-1.016c0.55,0.169,0.889,0.508,1.016,1.016h0.508v0.508
			c-0.677,0-1.016,0.677-1.016,2.031c0.677,0.932,1.016,1.693,1.016,2.286c0.762-1.016,1.692-1.524,2.794-1.524h1.016l0.508,0.508
			v0.254c-1.186,0-1.777,0.424-1.777,1.27h-0.508c0-0.508-0.17-0.762-0.508-0.762l-1.27,1.016v0.508l0.508,0.508h0.508l0.762-0.762
			c1.861,0.127,2.793,0.381,2.793,0.762v0.254c-1.27,0-2.117,0.423-2.539,1.27l-1.778,0.508l-0.762-0.254
			c0,0.508-0.847,0.931-2.539,1.27l-0.762-0.254v0.254l-0.254,0.254l0.254,0.762l1.523-0.254l0.762,0.254v0.254l-1.27,0.254h-2.031
			l-0.254-0.254l-1.523,0.254v0.508l1.016,0.254l1.27-0.254h1.016l0.762,0.508l0.762-0.508h0.254l0.508,0.508l-0.508,0.508V49.2
			l0.508,0.508v-0.254l2.032,1.016v0.508h-0.254l-0.762-0.508h-0.254l-3.047,1.777l0.762,0.762v0.254l0.254-0.254h0.762l0.508,0.508
			v0.254h-0.254l-1.27-0.254l-0.508,0.508h-0.254c-0.296,0-0.55-0.592-0.762-1.777l-2.539-0.254l-0.508,0.508
			c0,0.508,0.846,0.762,2.539,0.762l0.254,0.254v0.254l-0.254,0.254l-0.254-0.254h-0.254c-1.863,0.381-2.793,0.805-2.793,1.27
			l0.254,2.032l-0.762,0.762l0.254,1.016l-0.254,0.254h-0.254l-1.27-0.254l-0.762,0.254l0.508,0.508l1.016-0.254
			c0,0.72,0.338,1.65,1.016,2.793v0.508l-0.508,0.762c0.127,1.016,0.381,1.524,0.762,1.524l0.762-0.254v0.254l-0.254,1.016
			l1.016,0.762l-0.508,1.523l0.508,0.508v0.254c0,0.339-0.678,0.593-2.031,0.762v0.254l0.254,0.254h0.254l-0.508,0.762
			c0.084,1.059,0.508,2.074,1.27,3.047l-2.285,4.316l1.27,0.508v0.508c0,0.508-0.339,0.762-1.016,0.762v0.508
			c0,0.339,0.254,0.508,0.762,0.508l-0.508,2.032v0.508c0,0.339,0.508,0.508,1.523,0.508v1.016l-1.016,0.508l-0.254-0.254v0.508
			h0.508v0.254l-0.254,0.254v0.254l1.016,0.762l-0.762,0.254l-1.016-0.254l-0.254,0.254l0.254,1.27v0.254
			c-0.847,0.593-1.27,1.186-1.27,1.778c-0.847,0.804-1.439,1.82-1.777,3.047c-5.332,5.418-9.988,8.126-13.965,8.126l-2.793,0.508
			l-1.016-0.254h-0.508v0.254l-1.27-0.254h-4.063l-1.523,0.254l-1.016-0.254l-1.269,0.254c-2.371-0.211-3.555-0.635-3.555-1.27
			l0.254-1.523v-0.254h-1.777l-2.031,1.777h-0.254c0-0.423-0.339-1.016-1.016-1.777v-0.254l-0.254-3.301l0.254-1.016l-0.254-1.777
			c0-1.185,0.254-1.777,0.762-1.777V90.84h-0.508v-1.524h0.254l1.524,0.508l-0.254-1.27l0.254-0.762H170.7v-0.254l0.254-0.762
			l-1.523-0.254V85.76l-0.254-1.016l0.254-1.016l-0.254-0.254l0.508-0.508v-0.254c-0.339-0.296-0.593-1.481-0.762-3.555l0.508-6.602
			l-0.254-1.27v-0.254l0.762-0.762l-0.254-1.27v-0.508l1.777-0.254h0.762c0.422,0,0.676,0.847,0.762,2.539l-0.254,2.285
			c0.254,0.678,0.508,1.016,0.762,1.016h0.254c0-0.508,0.254-0.762,0.762-0.762c0.677,0.17,1.016,0.678,1.016,1.524v0.254
			l-0.762,1.016l0.254,0.762h0.508c0.465-1.523,1.058-2.285,1.777-2.285v-0.508l-0.254-0.254l0.508-2.286l-0.254-0.762
			c1.143,0,2.243-0.762,3.301-2.285c0-0.508,0.254-0.762,0.762-0.762c0-0.846,0.169-1.27,0.508-1.27v-0.508
			c-0.508-0.635-0.762-1.227-0.762-1.778v-0.254l1.27-0.254l1.27,1.27c-0.72,0.593-1.228,1.355-1.523,2.286l0.254,0.254h0.254
			l1.27-0.254v0.254c0,0.381-0.508,1.058-1.523,2.031v0.762l0.508,0.762v0.254l-0.762,2.031c0.381,0,0.719,0.593,1.016,1.778h0.508
			c0-1.016,0.338-1.524,1.016-1.524v-1.27c0.296,0,0.55,0.424,0.762,1.27l-0.508,0.762l0.254,0.254v0.254l-0.508,1.016l0.508,0.508
			v0.254c-0.677,0-1.016,0.677-1.016,2.031l-0.762-0.762v-0.254l0.508-0.762h-0.254c-0.466,0-1.058,1.016-1.777,3.047v0.254
			l1.27,0.254h1.016v0.508l-1.523,1.524v0.254l0.762,2.031h-1.27l0.254-0.254V83.98h-0.254l-0.508,0.508
			c0.465,0,0.803,0.847,1.016,2.539l0.508,0.508v0.762c-0.677,0-1.016,0.17-1.016,0.508c0.338,0,0.508,0.424,0.508,1.27l0.254,0.254
			h1.777l1.27,0.254c4.528,0,7.575-1.27,9.141-3.809l1.016-4.57l-0.254-0.254v-4.317l0.508-1.777l-0.508-0.508l0.508-2.286
			l-0.508-2.793l0.254-0.762l-0.254-1.016l1.27-0.508l1.016,0.254h0.508l-1.016-1.016l-0.254,0.254h-0.254
			c-0.381,0-0.635-0.423-0.762-1.27l0.508-1.016h-0.508v0.508h-0.762v-0.254l0.508-1.524l-0.254-0.254
			c0-0.381,0.846-0.889,2.54-1.523v-0.508l-0.762-0.762h-1.523V60.11c0.508,0,0.762-0.338,0.762-1.016h0.254
			c-0.17-0.846-0.593-1.439-1.27-1.777l-0.254-0.254v-0.254l1.016-1.016l-0.508-1.016l1.523-0.254v-1.016l-0.254-0.254v-0.254h0.508
			v-0.254h-0.254l-2.031,0.508v-0.762c0-0.338,0.508-0.508,1.523-0.508v-0.508c-1.016,0-1.523-0.508-1.523-1.523v-3.555
			c0-1.354,0.508-2.031,1.523-2.031v-0.254c-1.016-0.762-1.523-1.523-1.523-2.285v-2.032l-0.762-1.27l0.254-1.016
			c-1.016-1.354-2.031-2.031-3.047-2.031c-0.508,0-0.762-0.254-0.762-0.762h-0.508l-0.508,0.508l0.508,0.508l-0.762,1.27
			l-0.254-0.254h-0.254l-0.254,0.254h-0.254c0-0.676-0.254-1.016-0.762-1.016l-0.508-0.508l0.762-0.508l1.016,0.254l-1.016-0.762
			v-0.508h-0.254c-0.551,0-1.143,0.254-1.778,0.762h-0.254l-2.285-1.269l-0.762,0.254l0.762,2.539h0.762l0.254-1.27h0.762v0.254
			c0,1.101-0.339,1.947-1.016,2.539v0.508l1.016,0.254v-0.254l0.254,0.254h0.762c1.016,0,1.524-0.508,1.524-1.523h0.762v0.762h0.508
			l0.254-0.254h0.254v0.762c-0.974,0-2.244,0.678-3.809,2.031c-0.508,0-0.762-0.254-0.762-0.762h-0.254l-0.254,0.254h-0.254
			l0.254,0.254v0.762l-0.508,0.762v0.254l0.762,1.27l-0.254,0.762l-1.016-0.254c-1.016,0.169-1.523,0.423-1.523,0.762
			s0.254,0.508,0.762,0.508l0.254,0.254v0.508c-0.677,0.085-1.016,0.339-1.016,0.762v0.254c0.508,0,0.762,0.17,0.762,0.508
			c-0.508,0.635-0.762,1.228-0.762,1.778c0.846,0,1.27,0.339,1.27,1.016c-1.355,0.466-2.031,1.058-2.031,1.777l0.762,1.27
			l-0.254,0.254l0.254,0.254v0.762l-0.254-0.254h-0.254l-0.254,0.762l0.508,1.524c-0.508,0.17-0.762,0.678-0.762,1.524l0.254,0.254
			l0.254-0.254h0.254l0.508,0.508v0.254h-0.508v0.254c-0.423,0-1.693-0.762-3.809-2.286l0.762-2.031v-0.508
			c-0.297-1.184-1.058-1.777-2.286-1.777l-1.27,0.254c-1.101-2.37-2.201-3.555-3.301-3.555c-0.508,0-0.762,0.508-0.762,1.523h-0.508
			c0-0.677-0.424-1.016-1.27-1.016l-0.762-2.286l0.254-1.523V44.88h0.508v-0.762l-0.762-1.016v-1.016l0.254-0.762l-0.254-1.27V35.23
			l-0.254-0.254l0.254-0.254v-0.508l-0.254-1.27l0.254-1.016l-0.254-5.84c-0.127-2.835,0.127-4.274,0.762-4.317l8.887-0.508
			l1.016,0.508l2.031-0.508h3.555l0.762,0.508c0.423-0.508,1.438-0.762,3.047-0.762l0.254-0.254L189.737,20.504z M169.932,62.655
			l0.508,1.27h-0.762l-0.254-0.254h-0.254C169.424,62.994,169.678,62.655,169.932,62.655z M169.424,65.448
			c0.676,0.169,1.016,0.593,1.016,1.269h-0.254l-0.762,0.254l-0.254-0.254v-0.762l0.254-0.254L169.424,65.448L169.424,65.448z
			 M173.486,50.721l0.254,0.762c0,0.508-0.508,0.762-1.523,0.762v1.016h-0.254c-0.55-0.508-1.313-0.762-2.285-0.762l-0.254-0.254
			V51.99l1.016-0.762l1.523,0.508L173.486,50.721z M170.439,25.075v0.762h0.254l0.254-0.762H170.439z M170.947,81.699l0.508,0.508
			l0.254-0.254v-0.254C171.709,81.699,170.947,81.699,170.947,81.699z M170.947,101.759h0.254l0.762,0.254v0.508h-0.508
			l-0.508-0.508V101.759z M171.201,70.019v0.254l0.508,0.508l0.254-0.254v-0.254l-0.254-0.254
			C171.709,70.019,171.201,70.019,171.201,70.019z M173.232,76.874v0.762h0.508l0.508-0.508l-0.254-0.254H173.232z M174.756,48.435
			v0.508l0.508,0.508l0.254-0.254v-0.762C175.518,48.435,174.756,48.435,174.756,48.435z M177.803,75.859
			c-0.508,0.635-0.762,1.228-0.762,1.777v0.508h0.508c1.524-0.338,2.286-0.762,2.286-1.27
			C179.03,76.198,178.352,75.859,177.803,75.859z M178.819,82.715l-0.254,0.254v0.762l0.762,0.254l0.254-0.254v-0.762
			L178.819,82.715z M179.834,25.836v0.254c0.508,0.847,1.1,1.27,1.777,1.27v-1.016l-0.508-0.508H179.834z M179.834,65.194h0.254
			c0.508,0.17,0.762,0.678,0.762,1.524l-0.508,0.508L179.834,65.194z M180.342,80.175v0.762h0.254l0.762-0.762H180.342z
			 M181.358,61.131v0.762l-0.508,1.016h-0.254v-1.016L181.358,61.131z M182.12,27.614v0.508h0.762v-0.508H182.12z M184.151,26.598
			v0.254h0.762v-0.508L184.151,26.598z M185.674,26.852v1.016c0.55,0,1.396,0.423,2.54,1.269h0.254
			c-0.127,0.762-0.974,1.355-2.54,1.777l-0.254,0.254v0.508l2.031,1.27h0.254c0.889-0.889,2.073-1.735,3.555-2.54l2.031,0.508
			l0.254-0.254v-0.762l-1.27-1.016l-1.016,0.762l-1.523-1.777h-1.777C188.214,27.191,187.367,26.852,185.674,26.852z
			 M185.674,49.451h1.016l-0.508,0.508h-0.508L185.674,49.451L185.674,49.451z M188.468,25.583v1.524h0.508v-0.508h0.254
			C188.976,25.921,188.722,25.583,188.468,25.583z M188.976,23.043v0.762h0.762v-0.762H188.976z M191.007,66.464h0.254v0.508
			l-0.508,0.508l-0.254-0.254v-0.254L191.007,66.464z M192.022,24.313l0.254,0.254h0.508l0.508-0.508v-0.254h-0.762L192.022,24.313z
			 M196.085,34.216v0.762c1.016,0.296,1.523,0.804,1.523,1.523h0.508c0-0.676,0.254-1.016,0.762-1.016h0.254v-0.508l-1.524-0.508
			l-1.016,0.254L196.085,34.216z M197.101,26.598l-0.254,0.254c0.465,1.65,0.889,2.497,1.27,2.539h0.508v-0.254
			C198.624,27.445,198.117,26.598,197.101,26.598z M198.117,58.846v1.27h0.254l0.762-0.762v-0.508H198.117z M199.386,57.069
			l-0.254,0.254v0.762h0.508l0.508-0.508L199.386,57.069z M199.64,28.122v1.016l1.016,1.016h1.016v-0.762l0.254-1.27l-0.254-0.254
			h-0.254L199.64,28.122z M208.02,45.388l-0.762-0.508h-0.254c-2.201,1.059-3.301,1.736-3.301,2.031c0,0.339,1.1,0.932,3.301,1.778
			c0.211,0.677,0.719,1.016,1.524,1.016v0.254l0.762-0.254l-0.254-1.27c0.676,0,1.016-0.592,1.016-1.777h0.508
			c0-0.508,0.168-0.762,0.508-0.762l0.254,0.254h0.254l0.508-0.762l-2.031-1.016C209.457,44.373,208.781,44.712,208.02,45.388z
			 M203.956,55.037l0.508,1.523l-0.762,1.27v0.762l1.27-0.254c0.254,0.677,0.508,1.016,0.762,1.016h0.254l0.762-2.031h-1.27v-0.254
			l0.508-0.762v-0.508c-0.677,0-1.016-0.422-1.016-1.27l0.508-0.508l-0.762-0.508c-0.339,0-0.508,0.508-0.508,1.523h-0.254V55.037z
			 M203.956,43.103v0.762h0.508v-0.254L203.956,43.103z M205.226,30.661l0.254,1.27v0.762h0.508v-0.254l-0.254-1.778H205.226z
			 M207.003,46.15l0.254,0.254v0.254l-0.254,0.254h-0.508v-0.254L207.003,46.15z M207.511,60.116l-0.762,1.27v0.508h1.016
			l0.508-0.508l-0.762-0.762l0.508-0.508H207.511z M207.765,47.673h0.254v0.508h-0.762L207.765,47.673z M207.765,33.962v0.254h0.762
			l0.508-0.508v-0.254h-0.762L207.765,33.962z M209.035,51.99v0.508l0.508,0.508l0.508-0.508l-0.762-0.508H209.035z M209.797,48.689
			v0.762h0.254l0.254-0.762H209.797z M210.305,33.708l-0.254,0.254v0.508h0.254l0.508-0.508l-0.254-0.254H210.305z M213.859,41.326
			h-0.508l-0.762-0.508h-0.254l-1.523,1.269l0.254,0.254v0.254l1.27-0.254h3.555v-0.508h0.254l-0.254-1.27L213.859,41.326z
			 M210.813,48.943v0.762h0.762v-0.762H210.813z M213.859,37.517c0.168,0.508,0.676,0.762,1.523,0.762h0.254l-1.016-1.523
			L213.859,37.517z M214.113,39.294v0.254h0.508v-0.762L214.113,39.294z M214.875,26.852l1.016,0.254v1.269
			c0,0.889-0.254,1.396-0.762,1.523l-0.254-1.016l0.508-0.508c0-0.338-0.254-0.508-0.762-0.508l-0.254-0.254V27.36L214.875,26.852z
			 M217.668,25.836l1.778,0.762l0.508-0.508l0.508,0.508v0.508h-0.254l-1.777-0.254l-0.762,1.016c0-0.465-0.423-0.719-1.27-0.762
			v-0.254C216.737,26.175,217.16,25.836,217.668,25.836z M217.668,28.122l0.762,0.254v1.016h-0.508L217.668,28.122z M219.446,49.451
			h0.508c0.381,0.339,0.973,0.508,1.777,0.508v0.762l-0.508,0.508h-1.016C219.827,51.229,219.573,50.636,219.446,49.451z
			 M220.461,28.629l0.762,0.762l-0.254,0.254h-1.016v-0.508L220.461,28.629z M222.493,26.09h0.762v0.254l-1.27,0.254L222.493,26.09z
			 M223.508,46.404h0.254v0.762h-0.508L223,46.912h-0.254l-0.254,0.254l-0.254-0.254v-0.254L223.508,46.404z M227.825,46.15h0.762
			l0.508,0.508l-2.032,0.508l-0.254-0.254v-0.254L227.825,46.15z M229.602,45.896h0.762v0.508h-0.762V45.896z"/>
		<path fill="#FFFFFF" d="M227.824,19.996c0.931,0.677,2.37,1.016,4.317,1.016l0.762-0.254c1.862,0.424,2.793,0.932,2.793,1.524
			l-0.254,0.762l0.254,2.793v0.762c0,2.031-0.254,3.047-0.762,3.047l0.508,3.301v3.301c0,1.693-0.169,2.539-0.508,2.539l0.254,1.27
			v1.778l0.254,0.254v0.254l-0.508,0.508v1.016l0.254,1.27l-0.508,0.508l1.269,1.269h0.254c0.338,0,0.508-0.254,0.508-0.762
			l0.254-0.254h0.254l0.762,0.762l-0.254,0.254v0.254l-0.254-0.254h-0.508l-0.508,0.508v0.508h1.777v0.254
			c-0.127,0.593-0.635,1.101-1.523,1.524h-0.254l-0.508-0.508h0.254c-0.381-1.016-0.72-1.524-1.016-1.524l-0.762,0.508l0.254,1.27
			v0.508l-0.254,2.285l0.508,1.269c-0.424,0.508-1.101,0.762-2.031,0.762v0.254l0.762,2.285l-0.254,1.524
			c0.549,0,0.973,1.185,1.27,3.555h0.254c0-1.016,0.168-1.524,0.508-1.524l1.777,0.254V60.37l-1.27-3.809
			c1.904,0,3.089,1.524,3.555,4.571h0.254c1.692,0,2.539-0.676,2.539-2.031c0-1.185,0.676-2.116,2.031-2.793l0.508-1.016
			l3.301-0.254l3.809,0.762l1.016-0.254c1.016,0.17,1.523,0.424,1.523,0.762c0,0.805-0.508,1.482-1.523,2.032l-0.762-0.508h-0.254
			l-0.508,0.508v0.76l0.508,0.762v0.508c-0.508,0-0.762,0.593-0.762,1.777c-1.016,0-1.693,1.101-2.031,3.301
			c-1.185,1.65-1.947,2.497-2.285,2.539l-1.016-0.762l-0.508,0.508h-0.254c-1.863,0-2.793-1.523-2.793-4.571
			c0-1.184-0.17-1.777-0.508-1.777h-1.27c-1.185,0.381-1.777,1.566-1.777,3.555l0.254,2.286c-0.72,0.677-1.396,1.016-2.031,1.016
			c-1.185,0-1.777-0.762-1.777-2.285l-0.254-1.524h-0.254l-0.508,3.047l0.254,0.762l-0.508,1.016l0.508,3.047l-0.254,0.254v0.254
			l0.254,1.016l-0.254,2.793c0.127,1.016,0.295,1.523,0.508,1.523l-0.254,0.254v0.254l0.254,1.27
			c-0.127,1.016-0.297,1.523-0.508,1.523l0.508,3.809l-0.254,2.793l0.254,0.254h-0.254l0.508,1.777l-0.254,3.301h0.254l-1.27,3.047
			c2.031,2.244,3.047,3.852,3.047,4.825c0,0.847-1.185,1.27-3.555,1.27h-7.872l-0.762-0.508h-0.508l-0.254,0.254h-0.254L223,101.505
			v-0.762h0.254l1.27,0.254v-1.016l-0.762-3.047l0.762-0.762c0-0.846-0.508-1.438-1.523-1.777v-0.254c0.846,0,1.27-0.168,1.27-0.508
			v-0.508c-0.635,0-1.143-1.1-1.523-3.301L223,89.57v-0.254l-0.254-1.27L223,85.762l-0.254-2.285L223,83.223v-0.254l-0.254-1.016
			v-0.508h0.762v-0.508l-1.016-0.254l0.254-1.27l-0.254-4.824L223,72.304l-0.508-2.031l1.016-1.523v-0.254l-0.762-1.27l0.508-6.094
			c-0.339,0-0.593-0.508-0.762-1.524l0.762-3.555l-0.762-0.254v-0.508c0-0.338,0.254-0.508,0.762-0.508l0.254-0.254v-0.508
			c0-0.422-0.678-0.762-2.031-1.016v-0.508c0.465,0,0.803-1.862,1.016-5.587l-0.254-1.016l0.254-0.762
			c-0.678-0.254-1.016-0.508-1.016-0.762l0.762-1.27v-0.762c0-0.423-0.339-0.677-1.016-0.762v-0.254
			c0.676,0,1.016-0.169,1.016-0.508v-3.301l-0.254-0.254l0.254-0.254v-5.84l-0.508-2.031l0.508-0.762l-0.254-0.762l0.254-3.047
			l-0.254-1.016l0.254-1.016v-0.254l-0.254-0.254v-0.254l0.762-0.508h2.539C226.004,21.266,226.85,20.843,227.824,19.996z
			 M223.254,49.197v0.508c0,0.847,0.338,1.354,1.016,1.523l0.508-0.508h1.016c0.338,0,0.508,0.254,0.508,0.762l0.508-0.508v-0.762
			c-0.847-0.127-1.27-0.381-1.27-0.762v-0.508l0.508-0.762v-0.508h-1.016L223.254,49.197z M224.016,26.598l-0.508,2.031l0.254,0.254
			h1.016l0.508-1.523h-0.254L224.016,26.598z M223.508,58.338l0.508,3.047h0.508l0.508-0.508v-0.254l-0.762-1.27l0.254-1.016
			l-0.254-0.254h-0.254l-0.254,0.254L223.508,58.338L223.508,58.338z M225.285,41.326v0.762h0.762v-0.254l-0.508-0.508H225.285z
			 M225.539,29.391v1.016h0.762v-0.508l-0.508-0.508C225.793,29.391,225.539,29.391,225.539,29.391z M225.793,55.799v0.254
			l1.523,1.524l-1.523,0.254v0.254c0.676,0.72,1.016,1.396,1.016,2.031v1.27l1.016,0.508h1.269l1.016-1.27l-0.762-2.539
			c-0.339,0-0.508-0.338-0.508-1.016l-0.254-0.254h-0.254l-1.016,0.254C227.316,56.223,226.809,55.799,225.793,55.799z
			 M226.047,40.056h0.254c0-0.338,0.422-0.508,1.27-0.508l0.254-0.254v-0.508h-1.016C226.512,38.786,226.258,39.21,226.047,40.056z
			 M227.316,31.422v0.254l0.508,0.508h0.254v-0.762C228.078,31.422,227.316,31.422,227.316,31.422z M228.332,49.959l-0.254,0.254
			v0.254l0.254,0.762h0.762v-0.508L228.332,49.959z M228.332,45.134v0.254c0.169,1.355,0.423,2.031,0.762,2.031h0.508l1.016-1.016
			C229.602,45.558,228.84,45.134,228.332,45.134z M228.586,54.783l-0.254,0.254v0.508l0.762,0.762h0.508v-0.508L228.586,54.783z
			 M229.348,49.197l-0.254,0.254v0.254c0.127,0.508,0.804,0.762,2.031,0.762l0.762,2.031c1.016-0.127,1.523-0.296,1.523-0.508
			c0-1.396-0.593-2.327-1.777-2.793h-0.508l-1.016,0.254L229.348,49.197z M229.348,51.736v0.762l0.762-0.762v-0.254L229.348,51.736z
			 M229.855,38.532l-0.254,1.523h0.254l1.27-0.254l1.016,0.254v-0.254C232.141,39.294,231.379,38.872,229.855,38.532z
			 M230.109,30.153v1.016c0.423,0,0.931-0.422,1.524-1.27l-0.254-0.762h-0.254L230.109,30.153z M230.363,42.087l0.254,0.254h0.508
			V41.58h-0.254L230.363,42.087z M230.617,70.019v0.508c0.508,0,0.762,0.424,0.762,1.27h0.508v-1.27L230.617,70.019z
			 M231.379,45.642v0.254l0.508,0.508l0.254-0.254v-0.508H231.379z M231.887,67.479v0.508h0.762v-0.508H231.887z M253.216,20.758
			l1.016,0.508l0.762-0.254l0.762,1.016l0.508-1.016l1.523,0.508l1.27-0.254c1.185,0,1.777,0.424,1.777,1.27h0.508l0.762-0.508
			h0.254l0.254,1.27c-0.805,0-1.651,0.339-2.539,1.016l0.508,1.016l1.778-0.254h0.508l1.27,0.508v0.508
			c-0.086,0.508-0.762,0.762-2.031,0.762c0-0.508-0.17-0.762-0.508-0.762v0.254l0.508,0.762v0.762h-1.524v0.254l0.254,1.016
			l-0.508,1.27c0,0.466,0.592,0.889,1.778,1.27v0.762h-0.254l-0.762-0.762c-0.296,0-0.974,0.762-2.031,2.286l-1.523,0.254
			l-3.301-0.508l-2.539,0.254l-0.254-0.254l-1.27,0.254h-2.285l-1.523,0.254l-1.27-0.254l-0.508,0.508l-0.762-0.508h-0.508
			c-0.72,0.508-1.566,0.762-2.54,0.762V34.47l-1.777,0.762v-0.254l-0.254-1.016l0.254-1.016c-0.339-0.423-0.762-3.216-1.27-8.379
			l-0.254-0.254l0.254-1.016v-0.254l-0.254-0.254c0.212-1.016,0.465-1.524,0.762-1.524h6.602l2.031,0.254l2.031-0.254h0.508
			l3.047,0.254L253.216,20.758z M238.743,89.824h4.571l1.016,0.762l1.523-0.762l1.016,0.254l1.016-0.254l0.762,0.254l1.016-0.254
			h0.508v0.254l3.047-0.254h3.809c0.127,1.186,0.295,1.778,0.508,1.778l-0.254,1.27v1.777l-0.254,0.254l0.254,0.254v1.016
			l-0.508,0.508c-0.339,0-0.508-0.422-0.508-1.27h-0.762v1.016l-6.094-2.031v0.508c2.032,0.55,3.047,1.228,3.047,2.031l-1.524,0.508
			c0.338,0.508,0.677,2.117,1.016,4.825l-0.254,0.254l-0.762-0.254l-1.27,0.254l-1.016-0.254l-1.523,0.254l-1.016-0.254
			l-3.047,0.254c-1.016,0.086-2.032-0.338-3.047-1.27c-0.212,0.762-0.55,1.185-1.016,1.27l-0.508-0.508l1.016-2.793l-1.016-6.602
			v-1.523L238.743,89.824z M238.997,43.103h0.762c0,0.508,0.169,0.762,0.508,0.762l1.524-0.508v0.254l-1.016,0.762l-0.254,0.254
			v0.254C239.885,44.712,239.377,44.119,238.997,43.103z M240.52,23.805v1.016h0.762v-0.508l-0.508-0.508
			C240.774,23.805,240.52,23.805,240.52,23.805z M241.79,44.119h0.508l2.031,0.254v0.508h-2.285L241.79,44.119z M241.79,45.388
			h0.254l0.508,0.508h-0.762V45.388z M243.313,91.602v0.508h-0.254c0.168,2.031,0.508,3.047,1.016,3.047l0.508-0.508l-0.254-1.27
			l0.508-0.508l-1.27-1.27L243.313,91.602L243.313,91.602z M249.661,56.053v0.254l0.254,1.778c1.185-0.635,1.778-1.227,1.778-1.778
			l-0.254-0.254H249.661z M253.47,59.354c0.719,0,1.143,1.016,1.27,3.047l-0.508,0.508v0.508c0,0.339,0.338,0.508,1.016,0.508
			l-0.508,1.27h-0.762c-0.847-0.338-1.27-0.93-1.27-1.777v-0.254l1.016-0.254v-0.254l-0.762-0.762l-0.254,0.254h-0.254V61.64
			c0.889,0,1.396-0.254,1.523-0.762c0-0.338-0.254-0.508-0.762-0.508l-0.254-0.254v-0.254L253.47,59.354z M136.994,113.185
			l1.016,0.254v0.254c0,0.338-1.185,0.677-3.555,1.016v-0.254C134.455,114.074,135.3,113.65,136.994,113.185z M252.708,96.426
			c3.047,0,4.57,0.762,4.57,2.286v0.254l-0.254,1.524l0.254,0.762c-0.254,0.677-0.508,1.016-0.762,1.016h-2.031l-0.254-1.27
			l0.254-1.777c-0.466,0-1.059-0.846-1.777-2.54V96.426z M256.263,61.385h0.254v0.254l-0.508,0.762v0.254
			c0,0.339,0.254,0.508,0.762,0.508l0.254,0.254v0.254h-0.254c-0.677,0-1.016-0.422-1.016-1.269h-0.254L256.263,61.385z
			 M141.31,112.677l1.016,0.254v0.508l-0.508,0.508c-0.847-0.212-1.27-0.466-1.27-0.762v-0.254L141.31,112.677z M259.818,22.281
			v0.508h0.762l-0.508-0.508H259.818z M145.119,113.693h0.762l0.254,1.27h-0.762L145.119,113.693z M264.896,30.915l1.27,1.27
			l-0.762,0.254l-1.27-0.254L264.896,30.915z M146.643,113.439l0.508,0.508l-0.254,0.254v0.254l-0.762-0.254v-0.254L146.643,113.439
			z M148.166,113.947h0.762l-0.508,0.508h-0.254V113.947z M269.467,26.598l0.508,0.508v0.254h-1.016v-0.254L269.467,26.598z
			 M268.959,29.391l1.777,0.254h0.508l0.254,0.762l-1.778,1.27h-0.508v-0.508h-0.254l0.254-0.254v-0.254L268.959,29.391z
			 M273.784,25.583h0.254l1.523,0.762l0.254-0.762h0.254l0.762,0.762v0.254c0,0.677-1.439,1.016-4.316,1.016l-0.254-0.254v-0.254
			L273.784,25.583z M277.846,22.027h0.508v0.762l-0.508,0.508h-0.254L277.846,22.027z M278.354,26.09v1.524h-0.508l-0.254-1.016
			L278.354,26.09z M285.464,25.583h0.508c0,1.016-1.016,1.777-3.047,2.285c-0.678-0.508-1.778-0.762-3.301-0.762l-0.254-0.254V26.09
			h0.762v0.508C283.686,26.26,285.464,25.921,285.464,25.583z"/>
		<path fill="#FFFFFF" d="M25.272,116.545h0.762l0.254,0.254l0.254-0.254h8.126c1.016,0,1.523,0.932,1.523,2.794l0.762,1.27
			l-0.762,1.27v0.508h0.254l-0.508,6.856l0.254,4.57v1.016c0,0.55,0.254,1.143,0.762,1.777l-0.508,0.762l0.762,1.27v0.762
			c0,1.016-0.677,1.523-2.031,1.523v1.27c0.846,0,1.27,0.424,1.27,1.27l-0.762,1.523c0.338,0,0.508,0.508,0.508,1.523h0.762V146
			h0.254l0.254,1.777l-0.254,0.762l0.254,0.254v0.254l-0.508,1.016l0.762,2.032l-1.016,1.777l0.254,1.523l-0.762,2.539l0.254,0.254
			v0.254l-0.508,1.27l1.27,3.555L36.7,164.79l0.254,1.27H36.7l0.254,0.254v0.254l-0.254,1.524l1.016,1.27l-1.27,2.793
			c0.508,0,0.762,0.17,0.762,0.508l-0.508,0.508l0.254,1.016l-0.508,1.777l0.762,0.762v0.508l-0.762,1.016v0.762l1.016,0.254
			c0,0.508-0.339,0.762-1.016,0.762l0.508,0.508h0.508l1.016-0.762l0.508,0.508v0.254l-0.254,0.254l0.254,0.254v1.016
			c-0.889,1.523-1.82,2.286-2.793,2.286c-0.635,0.677-1.058,1.777-1.27,3.301c-4.148,5.798-8.211,9.1-12.188,9.903l-0.254,0.254
			l-1.523-0.254c0,0.676-0.932,1.016-2.793,1.016l-1.778-0.254l-1.523,0.254c-2.539,0-3.809-0.423-3.809-1.269
			c0-0.508-0.17-0.762-0.508-0.762v1.27h-0.508l-0.508-0.508l0.254-0.254l-0.508-1.27l0.254-1.523v-0.762
			c0.676,0,1.016-0.254,1.016-0.762l0.254,0.254h0.508l0.508-0.508v-0.762c-1.186-0.338-1.777-0.676-1.777-1.016
			c0.295-0.676,0.889-1.016,1.777-1.016h0.254l0.254,0.254h0.254c0.508-0.719,0.762-1.397,0.762-2.031h-0.254l-2.539,0.254v-0.508
			l0.254-1.27h1.777l1.523,0.254l1.27-0.254h0.762l0.254,1.016h0.254c0.55-0.931,2.159-1.777,4.825-2.539
			c1.862-2.2,2.793-4.739,2.793-7.618l-0.254-1.27l0.762-1.27v-0.254H24.26v-1.27l-0.254-0.254l0.254-0.254v-2.539
			c0-0.889,0.254-1.65,0.762-2.285l-0.762-1.016l0.254-2.539H24.26l0.254-0.254v-0.762l-0.254-0.254v-0.254h0.254l-0.254-0.254
			v-0.254l0.762-1.016c-0.677-0.169-1.016-0.592-1.016-1.27l0.254-0.254c0.508,0.127,1.185,0.635,2.031,1.523l3.555,0.508
			l0.254-0.254v-0.254c0-0.55-0.254-1.143-0.762-1.777v-0.508l0.254-2.539H30.1v1.016l-0.254,1.27l0.254,0.254
			c1.523-0.168,2.285-0.422,2.285-0.762v-1.016c0-0.338-0.677-0.676-2.031-1.016l-1.016-1.016h-0.254l-0.508,0.508l0.508,0.762
			l-0.254,0.254h-0.254l0.254,0.762l-0.762,1.016h-0.254c0-0.381-0.847-1.143-2.539-2.285l-0.254-1.523l1.016-0.254l-0.254-1.27
			l0.254-0.254h0.508c0,1.185,0.423,1.777,1.27,1.777v-0.254l1.016-0.762c0.211-1.227,0.549-2.073,1.016-2.539l-0.508-2.032
			l0.254-1.27c-0.762-0.676-1.355-1.016-1.778-1.016l1.27-1.27l-0.254-0.254v-1.016l0.254-0.254l-0.254-0.762h-0.762
			c-1.27,0-2.539,0.847-3.809,2.539c0,0.593,0.592,1.016,1.777,1.27v0.508c-0.17,0.508-0.677,0.762-1.524,0.762l-0.508-0.508V146
			l-0.254-2.793l0.508-1.27l-0.508-6.094l0.254-1.27l-0.254-0.254v-0.254l0.508-2.285l-0.508-1.016l0.254-1.523v-0.508l-0.254-0.254
			l0.254-0.254l-0.254-3.809v-5.078l0.254-1.016l-0.254-0.762C23.917,116.884,24.425,116.545,25.272,116.545z M16.639,189.42v1.016
			l0.508,0.508l0.254-0.762l-0.254-0.762L16.639,189.42L16.639,189.42z M16.893,191.198v0.508l0.508,0.508v-1.016L16.893,191.198
			L16.893,191.198z M17.147,192.722v0.762l0.508-0.508l-0.254-0.254H17.147z M19.433,192.467v1.27c0.338,0,0.508,0.423,0.508,1.27
			h0.762l-1.016-2.54L19.433,192.467L19.433,192.467z M23.749,183.072v0.508h0.254c0.762-0.295,1.354-0.803,1.777-1.523v-0.254
			l-0.762-0.254C24.722,181.549,24.298,182.057,23.749,183.072z M24.511,149.301l0.508,0.508v0.254h-0.508V149.301z M25.018,187.643
			l-0.254,0.254v0.508h0.762v-0.254L25.018,187.643z M29.081,166.314v0.254l0.508,0.508l1.777-2.031h-0.254
			C30.351,165.044,29.673,165.468,29.081,166.314z M29.589,173.169h0.508l0.508-0.508h-0.508L29.589,173.169z M31.621,179.771
			l1.27,1.016l0.508-0.762v-0.254l-0.508-0.508h-0.762L31.621,179.771z M32.89,143.969l0.254,0.254h0.254l0.508-0.508l-0.254-0.254
			h-0.254L32.89,143.969z M34.414,157.68l1.016,0.254l0.254-0.254v-0.254l-0.254-0.254h-0.508L34.414,157.68z"/>
		<path fill="#FFFFFF" d="M66.216,114.641c0.973,0.085,1.735,0.339,2.286,0.762l1.016-0.762h0.254l0.762,0.762l-0.762,1.016v0.508
			h0.762l1.27,0.254l-0.254-0.254v-0.508l0.508-0.508h0.254l4.825,2.032v0.254l-0.254,0.254v0.254c1.734,0,4.02,2.201,6.855,6.602
			c0.804,1.228,1.311,2.497,1.523,3.809v0.254c-0.508,0-0.762,0.169-0.762,0.508v0.254l1.523,0.254l-0.254,1.27v1.523l0.762,1.016
			v0.254c0,1.312-0.593,2.074-1.778,2.285v0.508c0.846,0,1.27,0.169,1.27,0.508v1.016l-0.254,0.254v0.254h0.254l-0.508,1.016
			l0.508,5.333l-0.254,1.016h0.762v-0.762h0.508l0.254,0.254l0.254-0.254h1.016v0.254l-1.016,0.762l-0.254,0.254v0.254l-1.27-0.254
			h-0.254v0.254l0.762,1.016v0.254l-0.254,0.254l0.254,0.762h0.762v-1.016h1.27l-0.508,3.047l1.523,1.777l-0.254,0.254v0.254
			l0.254,0.254l-0.254,0.254l-2.031-0.508l-0.762,0.254v1.27l-0.508,0.762v17.774c0,0.381-0.847,0.805-2.539,1.27v0.254
			c1.692,0,2.539,0.254,2.539,0.762v0.254l-0.254,0.254v0.254c-1.904,0-3.513-0.423-4.824-1.27H80.69l-0.508,0.508l1.27,1.27
			c-0.212,0.847-0.466,1.27-0.762,1.27h-0.254l-1.016-0.762c0-0.508,0.254-0.762,0.762-0.762v-0.254
			c-0.508,0-0.762-0.254-0.762-0.762l0.254-0.762H79.42l-0.254-0.254l-0.254,0.254H78.15c0-1.523-0.847-2.369-2.54-2.539
			c0-0.211-0.677-0.381-2.031-0.508v-0.508h-0.254l0.254-0.254l-0.254-3.047v-3.301l0.254-1.016l-0.508-1.27l0.254-3.555v-1.524
			l-0.254-2.285l0.254-0.254l-0.254-2.539v-0.762l0.508-4.317l-0.762-2.031l0.508-0.508c0-2.243-0.254-4.104-0.762-5.586
			l0.762-2.031l-0.254-0.762l0.254-1.523v-0.508c0-1.692-0.169-2.54-0.508-2.54l0.254-0.254v-0.254
			c-1.523-3.258-3.725-4.866-6.602-4.824c-1.439,0.043-3.047,0.635-4.825,1.777v0.508l0.508,0.762l-0.254,0.254h-0.254l-0.254-0.254
			h-0.254v0.508h0.508v0.508l-0.254,0.254v0.254l0.254,0.254c-1.355,0.635-2.031,1.566-2.031,2.794l1.016,1.016v0.254l-0.762,1.523
			h0.254l-0.254,0.254v1.016c0.592,1.355,1.354,2.031,2.285,2.031c0,0.508,0.254,0.762,0.762,0.762l0.254,0.254v0.508
			c-0.677,0.085-1.016,0.339-1.016,0.762c0.508,0,0.762,0.169,0.762,0.508v0.508H62.66c-0.635,0-1.566-0.423-2.793-1.27
			l-0.254,0.254h-0.254c0.254,0.677,0.508,1.016,0.762,1.016l-0.254,1.777v0.762l0.254,1.016l-0.254,1.016l0.508,1.777l-0.762,1.016
			l0.254,1.523l-0.508,2.793l1.016,1.27c-0.508,0.889-0.762,2.158-0.762,3.809l0.254,1.523l-0.254,1.016l0.762,0.254l-0.254,1.27
			c0.762,0.339,1.184,0.678,1.27,1.016v0.254c-1.016,0-1.523,0.508-1.523,1.524l0.762,0.254v0.254l-1.016,0.254v4.57l0.254,1.27
			l-0.254,1.523v2.286c0,3.428,1.862,5.713,5.586,6.856h1.778c2.581,0,4.697-1.354,6.348-4.063l1.016-0.254h3.047
			c3.047,0,4.993,0.169,5.84,0.508l1.523-0.508l1.016,0.254v1.016c-0.508,3.217-1.354,4.825-2.539,4.825l-0.254,0.254h1.016v0.508
			c-0.55,1.65-2.582,4.021-6.094,7.11c-2.201,1.355-3.64,2.031-4.317,2.031c0-0.338-0.254-0.508-0.762-0.508
			c-0.974,0.846-1.736,1.27-2.285,1.27l-1.016-0.254l-0.508,0.508h-1.016l-1.016-1.016c-0.635,0.465-1.736,0.803-3.301,1.016
			l-0.254-0.254l0.254-0.254v-0.254l-0.254-0.254v-0.254c-0.508,0-0.762,0.254-0.762,0.762h-0.254l-3.809-1.27
			c-1.609-0.549-3.471-1.904-5.586-4.063v-0.762l0.508-0.762c0-0.846-0.169-1.27-0.508-1.27l-1.27,0.254l-0.508-3.047l0.254-1.016
			c-0.17-1.185-0.423-1.778-0.762-1.778l-0.254,1.524l0.508,0.508v1.016c0,0.889-0.254,1.396-0.762,1.523
			c-1.693-2.708-2.539-5.84-2.539-9.395l0.254-0.254v-0.254l-0.508-1.016l0.254-0.254v-0.254l-0.254-1.778h0.254l-0.254-0.254
			v-0.762l0.254-1.523l-0.254-0.254v-0.762h0.254l-0.254-4.317v-4.824l0.254-0.254l-0.254-0.254V147.91l0.508-1.523l-0.508-1.523
			l0.254-1.016l-0.254-1.016c0.041-0.296,0.803-0.804,2.285-1.524l0.254-1.27h-0.254l0.254-0.254v-0.508l-1.27,0.254l-0.254-0.254
			v-1.27h0.508l0.254,0.254h0.254l0.254-0.254v-0.254c-0.847-0.338-1.27-0.931-1.27-1.777c0.635-0.508,1.311-0.762,2.031-0.762
			v-0.254c-1.863-0.846-2.793-1.692-2.793-2.54v-0.508c0.508,0,0.762-0.168,0.762-0.508h0.762v0.508h0.254
			c1.354-0.719,2.031-1.481,2.031-2.285v-1.523c1.016,0,1.523-0.338,1.523-1.016c0.338,0,0.508-0.254,0.508-0.762l-0.254-1.27
			c0.762-1.016,1.608-1.523,2.539-1.523c0-0.592,1.016-1.438,3.047-2.539l-0.508-0.508l0.762-0.762l0.254,0.254h0.254l1.523-1.27
			v0.508h0.762v-0.254l-0.254-2.286l0.254-1.016l1.523,1.523h1.016v-1.777C64.438,115.107,65.031,114.853,66.216,114.641z
			 M51.489,137.24l-0.508,2.285l0.254,0.254l-1.016,0.762l0.254,0.254v0.508l-0.508,0.762c0.676,0.085,1.016,0.339,1.016,0.762
			l1.777-1.27c0-0.508-0.254-0.762-0.762-0.762l-0.254-0.254v-0.762l0.254-1.523l-0.254-1.016L51.489,137.24L51.489,137.24z
			 M50.473,157.553l-0.254,1.27v6.348l-0.254,1.27l0.254,1.524v6.602l0.508,0.508v-8.887l0.254-0.254l-0.254-0.254v-5.078
			l0.254-2.286l-0.254-0.762h-0.254V157.553z M50.473,175.835l-0.254,1.016l0.254,0.254v0.254l-0.254,0.254l0.508,4.063h-0.254
			l0.254,1.016h0.254v-3.809l0.254-0.254l-0.508-2.793h-0.254V175.835z M50.473,149.936v0.254l0.508,0.508v-1.27L50.473,149.936z
			 M50.727,151.206l-0.254,1.27v1.016l0.508-0.508v-1.777h-0.254V151.206z M50.473,153.745v3.047l0.508-0.508l-0.254-0.254v-0.254
			l0.254-1.523L50.473,153.745z M50.981,143.842v1.016l0.508-0.508v-0.508L50.981,143.842L50.981,143.842z M51.235,135.208
			l0.254,1.27l0.762-0.254l-0.254-1.27L51.235,135.208z M51.743,133.177v0.762l0.508-0.508v-0.254H51.743z M51.997,160.093
			l0.254,0.254h0.508l0.508-0.508l-0.254-0.254h-0.508L51.997,160.093z M52.25,128.607v1.523l0.762-0.254v-0.508L52.25,128.607z
			 M52.504,131.907l0.508,1.016l0.508-0.508v-0.508L52.504,131.907L52.504,131.907z M53.774,142.064v0.508H53.52l0.254,1.016
			l0.508-0.508v-0.508L53.774,142.064z M54.282,139.271l-0.254,1.016h0.508v-1.016H54.282z M54.282,136.478v0.254h0.508v-0.762
			L54.282,136.478z M54.536,163.14v1.016h0.254l0.508-0.508v-0.508L54.536,163.14L54.536,163.14z M57.837,189.801v0.254h0.762
			v-0.762h-0.254L57.837,189.801z M65.708,188.532v0.508h0.508l0.508-0.508H65.708z M67.232,115.656l-0.254,0.254v0.254h1.016
			v-0.254L67.232,115.656z M69.263,121.243v0.508l0.762,0.254v-0.762H69.263z M70.025,194.118l0.254,1.523
			c1.016,0,1.523-0.508,1.523-1.523h0.254c0.338,0,0.508,0.254,0.508,0.762h1.016v-0.254l-0.254-1.27l0.254-0.254l-0.254-0.254
			H72.31C71.675,192.849,70.914,193.272,70.025,194.118z M70.787,153.237h0.508c0.254,0,0.508,0.339,0.762,1.016h-0.508
			C71.294,154.253,71.04,153.914,70.787,153.237z M73.072,117.18v0.254l0.508,0.508h1.016v-0.254l-1.016-0.508H73.072z
			 M74.341,134.192v0.508l0.508,0.508l0.254-0.254v-0.762H74.341z M74.341,181.422l0.254,0.762l1.27-0.254l-0.508-0.508H74.341z
			 M204.53,100.675l0.254,0.254v0.254l-1.016,0.762l-0.254-0.254v-0.254L204.53,100.675z M86.784,152.221v1.016h0.508v-1.016H86.784
			z M206.561,99.659h0.254c1.27,0,1.946,0.254,2.031,0.762l0.254-0.254h0.254l0.508,0.508c-0.593,0.508-1.863,0.762-3.809,0.762
			v-1.27L206.561,99.659z M90.846,153.491l1.523,1.016c0,0.55,0.254,1.058,0.762,1.523l-0.508,0.508h-0.254l-2.285-1.523
			C90.253,153.999,90.507,153.491,90.846,153.491z M94.147,155.268h1.016c0,1.185,0.254,1.777,0.762,1.777v0.508
			c-1.016-0.127-1.523-0.295-1.523-0.508l0.254-0.762l-0.508-0.508v-0.507H94.147z M95.924,155.522h2.54
			c0.338,0,0.508,0.339,0.508,1.016l0.254,0.254h0.762c0-0.508,0.169-0.762,0.508-0.762h0.508l0.508,0.508v0.508l-0.508,1.016
			h-0.508v-1.016l-0.254,0.254h-2.793L95.924,155.522z M219.511,102.453l0.254,0.254v0.254l-0.762,0.508h-1.27l-0.508-0.508
			L219.511,102.453z M222.558,101.691l0.508,0.508l-0.254,0.254h-0.762v-0.254L222.558,101.691z M104.304,157.045h0.762v0.254
			l-0.508,0.508l-0.254-0.254V157.045z"/>
		<path fill="#FFFFFF" d="M103.287,115.847h11.426c6.77,0,12.442,2.032,17.013,6.094c1.396,0,2.581,0.762,3.555,2.285v0.254
			c-1.354,0.339-2.031,0.762-2.031,1.269c0.931,0,1.862,0.254,2.793,0.762l0.762-0.254v0.254l-0.254,1.523l1.27,0.254l-1.016,3.301
			v1.016l0.254,0.254l-0.254,0.254v0.254l0.254,2.539l-0.762,0.254l-0.254-0.254h-0.254l-0.762,0.254v1.27
			c1.862,0.55,2.794,1.566,2.794,3.047c1.016,0,1.523,0.17,1.523,0.508v0.254l-1.523,0.254v1.016l0.254-0.254h0.762v0.254
			c0,0.381-0.424,0.635-1.27,0.762l0.762,1.27l-0.508,1.016l0.254,0.762c-0.297,1.693-1.143,2.539-2.54,2.539
			c0,0.847-0.593,1.27-1.777,1.27v0.254l0.254,1.27h-0.254l-1.523-0.508l-0.254,0.254v0.508l0.762,0.254
			c-0.254,1.016-0.931,1.523-2.031,1.523v-0.254l0.254-0.762l-0.254-0.254h-0.508l-0.508,0.508l0.254,1.016l-0.254,0.254v0.254
			l0.508,0.762l1.27-0.762l0.762,0.254l-0.508,2.031c1.057,0.297,2.073,1.059,3.047,2.285h2.794v0.254
			c-0.508,0-0.762,0.17-0.762,0.508l0.508,0.508l0.762-0.508l0.762,0.508h1.27v1.016l-1.27,0.254l0.254,0.254v0.254l-0.508,1.016
			l0.254,0.254h0.254l0.762-0.508h0.254l-0.508,0.762l0.762,1.016v0.254c0,0.466-0.847,0.889-2.539,1.27
			c-1.186-0.338-1.778-0.762-1.778-1.27h-0.254c0,1.186-0.423,2.031-1.27,2.539l0.508,0.508h0.254c0-0.508,0.169-0.762,0.508-0.762
			c1.524,0.17,2.286,0.508,2.286,1.016l-1.016,1.27h-0.254c0-0.508-0.423-0.762-1.27-0.762v1.016c0.508,0,0.846,0.423,1.016,1.27
			l1.27,0.254h0.254v-1.523c0.676,0,1.016-0.169,1.016-0.508v-0.508l-0.508-0.762v-0.254c0-0.338,0.422-0.508,1.27-0.508
			c0-0.762,0.422-1.27,1.27-1.523l0.254,0.254v0.254l-1.777,2.032v0.254l1.016,1.27v0.762c0,0.339-0.254,0.508-0.762,0.508
			l0.254,1.27c-0.339,0-0.678,1.355-1.016,4.063l0.762,0.254v0.508c-0.466,0.466-1.143,2.666-2.031,6.602
			c-0.551,0.678-0.974,2.117-1.27,4.317c-0.339,0-2.031,1.693-5.078,5.079c-3.132,1.947-6.264,3.47-9.395,4.57
			c-0.677-0.339-1.609-0.508-2.793-0.508h-2.031l-0.254-0.254l-0.254,0.254h-10.157l-0.254,0.254l-0.254-0.254h-2.285l-0.254,0.254
			l-0.254-0.254h-0.508l-0.762,0.254c-2.539-0.169-3.809-0.592-3.809-1.27l0.254-0.762l-0.508-7.364l0.254-1.777l-0.254-0.254
			v-0.254l0.508-1.016l-0.254-0.254v-1.524l0.254-0.254l-0.508-1.777l0.254-2.539l-0.254-0.254v-0.254l0.762-2.032
			c-0.381,0-0.635-1.354-0.762-4.063h0.254l-0.254-0.254v-2.539l0.254-2.032l-0.254-2.031l0.254-2.539l-0.254-1.27l0.762-0.762
			l-0.254-0.254l-0.254-0.762H97.96l0.254-1.27c0-0.846-0.17-1.27-0.508-1.27l0.254-0.254v-2.793l0.254-1.523l-0.254-0.254v-0.254
			l0.254-1.016l-0.254-1.27l0.254-1.27l-0.508-0.508l0.508-1.523l-0.508-2.031l0.508-2.032l-0.508-1.27l0.254-1.777l-0.254-1.27
			l0.254-1.27l-0.254-1.523l0.508-0.762l-0.508-3.047l0.254-0.762l-0.254-0.254v-0.254l0.254-1.523l-0.508-0.508l0.254-2.286
			l-0.254-2.793l0.508-0.762l-0.254-1.777v-3.809h0.254L103.287,115.847z M104.049,143.27l0.254,0.254h0.508v-1.016L104.049,143.27z
			 M108.366,153.681l-0.254,1.523h-1.016l-0.254-1.016h-0.254l-1.27,0.254v0.254l0.762,1.016c-0.847,0.423-1.27,1.186-1.27,2.285
			h1.016c0.508-0.846,0.762-1.692,0.762-2.539l0.254-0.254h0.254c0.211,0.677,0.973,1.016,2.285,1.016v0.254h-0.762v0.762
			l0.254,0.254v0.254h-0.508l-0.254-0.254h-0.254v0.508l2.539,0.762l1.27-0.254v-0.254l-0.508-0.508l1.777-2.285
			c-0.508-0.508-0.762-1.1-0.762-1.777h-0.508l-1.777,1.016l-0.254-0.254v-0.254l0.254-0.254l-0.254-0.254h-1.268V153.681z
			 M106.334,158.759v0.254h1.016v0.508l-0.508,0.762l0.762,0.508h0.508v-1.778l-1.27-0.762L106.334,158.759z M106.842,209.036h0.254
			c1.269,0,1.946,0.254,2.031,0.762l-0.508,0.508c-1.523-0.212-2.286-0.466-2.286-0.762L106.842,209.036z M115.475,128.543
			c0,1.523-0.423,2.285-1.27,2.285v0.762l0.254-0.254h0.254l1.016,1.016l-0.254,0.254v0.254l-1.523-0.508
			c-0.212,0.847-0.466,1.27-0.762,1.27h-0.254l-0.254-1.27v-0.254c0-0.338,0.254-0.508,0.762-0.508v-0.254
			c0-0.338-0.254-0.508-0.762-0.508l-0.254,0.254h-0.254l-1.016-0.254h-0.254v1.016l0.762,0.762
			c-0.508,1.016-0.762,2.793-0.762,5.333v6.348c0,0.339,0.422,0.508,1.27,0.508c0,0.423,0.508,0.847,1.523,1.27v0.254l-0.254,0.254
			h-1.016l-0.254-0.254c-0.762,0.339-1.185,0.677-1.27,1.016l0.254,0.254l1.523-0.508c1.185,0.169,1.777,0.762,1.777,1.777
			c3.809,0,6.348-0.846,7.618-2.539l1.016-2.539l1.27,0.254c0-0.508,0.508-0.762,1.523-0.762v-0.254
			c0-0.338-0.423-0.508-1.269-0.508l-0.254-1.27l0.254-1.016l-0.762-0.762l0.254-1.27l-0.254-2.539l0.508-0.508l-0.762-1.27v-0.508
			l0.508-0.508h0.254v0.762h0.508v-2.031c-0.339,0-0.508-0.422-0.508-1.27h-0.508l-1.523,1.27l-0.254-0.254l0.254-1.27v-0.254
			l-2.285,0.254l-3.555-1.523L115.475,128.543L115.475,128.543z M113.19,161.045v0.508c-0.635,0.212-1.228,0.635-1.777,1.27
			l0.254,0.254v0.508l-0.508,0.508l0.254,0.254v0.254l-0.254,1.27h1.016l-1.016,3.047v1.27l0.762,0.762l-0.508,2.031l1.016,0.508
			v0.508c-0.677,0-1.016,0.17-1.016,0.508l0.508,0.762v0.254l-0.254,0.254v0.254h0.254l-0.508,0.762l0.254,0.254l-0.508,6.602
			l0.254,1.27h5.078c4.571-0.973,6.856-2.327,6.856-4.063c0.677-0.338,1.354-2.031,2.031-5.079l-0.254-0.254l0.254-2.031
			l-0.254-3.301h0.254c-1.058-6.094-3.936-9.141-8.633-9.141h-3.555V161.045z M112.682,152.919l0.508,0.508h0.254v-0.508H112.682z
			 M115.983,134.383l0.508,0.762l-0.508,0.508h-0.762v-0.508L115.983,134.383z M116.745,153.935v0.508h1.016v-0.508H116.745z
			 M117.507,155.712v0.762h0.762v-0.254l-0.508-0.508H117.507z M123.854,148.349l0.254,1.27h0.508l0.508-0.508v-0.508
			L123.854,148.349z M126.393,153.173l-0.254,1.777h0.508l0.508-0.508v-0.762l-0.508-0.508L126.393,153.173L126.393,153.173z
			 M127.156,132.098v0.254h0.508v-0.762L127.156,132.098z M127.664,154.697v0.254l0.254,0.254v0.254l-0.508,0.508v0.508h1.016
			l-0.254-1.777L127.664,154.697L127.664,154.697z M128.171,152.412v1.016h0.254l0.508-0.508v-0.508L128.171,152.412
			L128.171,152.412z M130.964,151.396v0.762h0.254l0.508-0.508l-0.254-0.254H130.964z M133.249,158.759v0.254l0.762,1.016
			l0.254-0.254h0.254l-0.762-1.016l-0.254,0.254L133.249,158.759z M134.011,143.27l-0.508,0.762v0.254l0.254,1.27
			c1.227,0,1.989-0.423,2.285-1.27L134.011,143.27z M133.757,176.788v0.254l0.762,0.762l0.254-0.254v-0.762H133.757z
			 M133.757,179.073v0.254h0.762v1.523l0.508,0.508l0.508-0.508v-0.254l-0.254-0.254l0.254-0.254v-0.254
			c0-0.338-0.339-0.508-1.016-0.508v-0.762h-0.254L133.757,179.073z M135.281,176.788v0.254l0.508,1.016h0.762l-0.508-1.777h-0.254
			L135.281,176.788z M136.296,163.584v0.508h0.762l0.508-0.508v-0.254L136.296,163.584z M140.867,122.957v0.762h-0.254l-0.508-0.508
			l0.254-0.254H140.867z"/>
	</g>
</g>
</svg>
